<svg width="500" height="720" viewBox="0 0 500 720" fill="none" xmlns="http://www.w3.org/2000/svg">
<path d="M434 -6.85662e-06L500 -7.51413e-06L500 720L280.514 719.851L-2.03334e-08 720L434 -6.85662e-06Z" fill="url(#paint0_linear)"/>
<path d="M114 0L288.5 240.5L433.5 0.5L114 0Z" fill="#E4F8F8" stroke="#ECFAF9"/>
<path d="M304.5 626C398.665 626 475 613.351 475 597.748C475 582.145 398.665 569.497 304.5 569.497C210.335 569.497 134 582.145 134 597.748C134 613.351 210.335 626 304.5 626Z" fill="#025E58" fill-opacity="0.18"/>
<g clip-path="url(#clip0)">
<path d="M352.433 527.596V582.491L361.615 597.455L362.314 598.593H398.543L399.275 527.596H352.433Z" fill="#E6E6E6"/>
<path opacity="0.1" d="M352.433 527.596V582.491L361.615 597.455L362.178 527.596H352.433Z" fill="black"/>
<path d="M264.971 526.132V581.027L255.789 595.991L255.09 597.129H218.861L218.129 526.132H264.971Z" fill="#E6E6E6"/>
<path opacity="0.1" d="M264.971 526.132V581.027L255.789 595.991L255.225 526.132H264.971Z" fill="black"/>
<path d="M410.253 525.034V528.328H213.371V523.57L231.669 514.055H394.152L410.253 525.034Z" fill="#E6E6E6"/>
<path opacity="0.1" d="M410.253 525.034V528.328H213.371V523.57L410.253 525.034Z" fill="black"/>
<path d="M241.55 541.503H232.767L229.107 538.941H245.575L241.55 541.503Z" fill="#3F3D56"/>
<path d="M241.55 552.116H232.767L229.107 549.554H245.575L241.55 552.116Z" fill="#3F3D56"/>
<path d="M241.55 567.12H232.767L229.107 564.558H245.575L241.55 567.12Z" fill="#3F3D56"/>
<path d="M241.55 582.125H232.767L229.107 579.563H245.575L241.55 582.125Z" fill="#3F3D56"/>
<path d="M375.854 542.966H384.637L388.296 540.405H371.828L375.854 542.966Z" fill="#3F3D56"/>
<path d="M375.854 553.579H384.637L388.296 551.018H371.828L375.854 553.579Z" fill="#3F3D56"/>
<path d="M375.854 568.584H384.637L388.296 566.022H371.828L375.854 568.584Z" fill="#3F3D56"/>
<path d="M375.854 583.589H384.637L388.296 581.027H371.828L375.854 583.589Z" fill="#3F3D56"/>
<path d="M381.835 450.575H307.895C307.528 450.574 307.165 450.647 306.825 450.787C306.486 450.928 306.178 451.134 305.918 451.393C305.658 451.653 305.452 451.961 305.312 452.301C305.171 452.64 305.099 453.004 305.099 453.371V503.18C305.099 503.548 305.171 503.911 305.312 504.251C305.452 504.59 305.658 504.898 305.918 505.158C306.178 505.418 306.486 505.624 306.825 505.764C307.165 505.905 307.528 505.977 307.895 505.977H335.963L334.912 512.691C334.912 512.691 328.902 515.884 333.128 515.977C337.353 516.071 357.26 515.977 357.26 515.977C357.26 515.977 361.11 515.977 355.006 512.597L354.017 505.977H381.835C382.202 505.977 382.566 505.905 382.905 505.764C383.244 505.624 383.553 505.418 383.812 505.158C384.072 504.898 384.278 504.59 384.418 504.251C384.559 503.911 384.631 503.548 384.631 503.18V453.371C384.631 453.004 384.559 452.64 384.418 452.301C384.278 451.961 384.072 451.653 383.812 451.393C383.553 451.134 383.244 450.928 382.905 450.787C382.566 450.647 382.202 450.574 381.835 450.575Z" fill="#3F3D56"/>
<path d="M381.797 454.096H307.618V495.601H381.797V454.096Z" fill="#F2F2F2"/>
<path d="M344.865 452.687C345.124 452.687 345.334 452.477 345.334 452.218C345.334 451.959 345.124 451.748 344.865 451.748C344.606 451.748 344.396 451.959 344.396 452.218C344.396 452.477 344.606 452.687 344.865 452.687Z" fill="#F2F2F2"/>
<path d="M344.865 503.958C345.85 503.958 346.649 503.159 346.649 502.174C346.649 501.188 345.85 500.39 344.865 500.39C343.88 500.39 343.081 501.188 343.081 502.174C343.081 503.159 343.88 503.958 344.865 503.958Z" fill="#F2F2F2"/>
<path d="M342.085 521.048V521.987H291.568V521.236L291.637 521.048L292.882 517.668H341.052L342.085 521.048Z" fill="#3F3D56"/>
<path d="M361.526 520.129C361.434 520.522 361.086 520.937 360.301 521.33C357.484 522.738 351.756 520.954 351.756 520.954C351.756 520.954 347.343 520.203 347.343 518.231C347.467 518.146 347.596 518.069 347.73 518.001C348.914 517.374 352.841 515.828 359.804 518.067C360.317 518.228 360.775 518.528 361.127 518.934C361.284 519.087 361.401 519.276 361.47 519.484C361.54 519.691 361.558 519.912 361.526 520.129Z" fill="#3F3D56"/>
<path opacity="0.1" d="M361.526 520.129C358.078 521.45 355.005 521.549 351.85 519.358C350.658 518.476 349.213 518.001 347.73 518.001C348.915 517.374 352.841 515.828 359.804 518.067C360.317 518.228 360.775 518.528 361.128 518.934C361.284 519.087 361.401 519.276 361.47 519.484C361.54 519.691 361.559 519.912 361.526 520.129Z" fill="black"/>
<path d="M357.203 519.358C357.877 519.358 358.423 519.19 358.423 518.982C358.423 518.775 357.877 518.607 357.203 518.607C356.528 518.607 355.982 518.775 355.982 518.982C355.982 519.19 356.528 519.358 357.203 519.358Z" fill="#F2F2F2"/>
<path opacity="0.1" d="M342.085 521.048V521.987H291.568V521.236L291.637 521.048H342.085Z" fill="black"/>
<path d="M227.315 414.831C226.802 414.789 226.289 414.903 225.843 415.16C225.405 415.46 225.129 415.985 224.847 416.474C223.77 418.366 222.311 420.013 220.564 421.312C219.291 422.245 217.673 423.407 217.891 425.126C218.006 425.694 218.216 426.238 218.512 426.736C219.686 429.106 222.889 430.938 222.574 433.642C223.741 431.689 222.18 430.724 223.347 428.771C223.902 427.841 224.867 426.791 225.706 427.375C225.987 427.571 226.171 427.921 226.464 428.093C227.161 428.502 227.903 427.72 228.521 427.165C230.65 425.254 233.679 425.754 236.329 426.35C237.58 426.631 238.954 427 239.694 428.196C240.666 429.768 238.77 431.466 238.291 433.244C238.252 433.395 238.25 433.554 238.285 433.706C238.321 433.858 238.393 434 238.495 434.118C238.597 434.237 238.726 434.329 238.872 434.386C239.017 434.444 239.175 434.465 239.33 434.449C240.125 434.37 241.067 434.306 241.114 433.957C242.115 433.993 243.341 433.88 243.769 432.838C243.9 432.426 243.969 431.996 243.975 431.564C244.132 429.814 244.875 428.218 245.367 426.552C245.859 424.887 246.073 422.935 245.242 421.458C244.946 420.967 244.58 420.521 244.154 420.136C239.443 415.576 233.248 414.824 227.315 414.831Z" fill="#2F2E41"/>
<path d="M223.599 437.058C223.599 437.058 224.623 445.597 220.866 446.281C217.109 446.964 224.282 458.578 224.282 458.578L241.36 460.627L237.261 446.964C237.261 446.964 234.529 445.939 236.237 439.107C237.945 432.276 223.599 437.058 223.599 437.058Z" fill="#FFB8B8"/>
<path d="M213.181 583.768L214.547 602.556H221.72L219.671 583.768H213.181Z" fill="#FFB8B8"/>
<path d="M265.783 548.244L266.807 563.956L274.664 560.541L271.589 547.56L265.783 548.244Z" fill="#FFB8B8"/>
<path d="M208.057 512.036C208.057 512.036 208.399 531.847 210.448 538.338C212.498 544.828 212.156 545.169 211.815 546.194C211.473 547.219 211.132 546.536 211.132 548.244C211.132 549.951 210.448 576.937 211.132 579.328C211.815 581.719 209.082 585.818 211.132 586.159C213.181 586.501 222.745 586.159 223.086 584.11C223.428 582.06 220.354 581.377 221.72 580.011C223.086 578.645 225.136 550.635 225.136 550.635L229.918 531.164L238.799 520.917H257.585L263.392 543.461C263.392 543.461 261.001 549.951 262.709 549.951C264.416 549.951 274.664 552.001 274.664 544.486C274.664 536.971 271.248 514.768 270.565 514.085C269.882 513.402 270.906 511.011 269.882 509.986C268.857 508.961 256.902 501.788 252.461 500.422C248.021 499.055 241.792 497.429 241.792 497.429L208.057 512.036Z" fill="#090909"/>
<path d="M274.664 557.808C274.664 557.808 269.54 556.1 267.149 561.224C264.758 566.347 265.783 567.714 265.783 567.714C265.783 567.714 273.639 570.447 275.005 569.08C275.6 568.486 277.487 568.279 279.43 568.236C282.389 568.169 283.177 563.982 280.382 563.007C280.298 562.978 280.214 562.953 280.129 562.932C277.396 562.248 274.664 557.808 274.664 557.808Z" fill="#2F2E41"/>
<path d="M231.284 442.694C236.944 442.694 241.531 438.106 241.531 432.446C241.531 426.787 236.944 422.199 231.284 422.199C225.625 422.199 221.037 426.787 221.037 432.446C221.037 438.106 225.625 442.694 231.284 442.694Z" fill="#FFB8B8"/>
<path d="M217.963 450.55C217.963 450.55 234.7 453.966 238.799 448.501C242.897 443.036 244.605 463.872 244.605 463.872L246.655 485.734L243.581 497.689C243.581 497.689 227.527 510.669 222.403 511.694C217.28 512.719 209.424 513.402 209.424 513.402C209.424 513.402 211.815 475.486 211.815 474.803C211.815 474.12 217.963 450.55 217.963 450.55Z" fill="#FBFFFB"/>
<path d="M223.053 444.144C223.053 444.144 219.329 442.011 218.305 444.06C217.28 446.11 207.716 451.234 206.691 451.234C205.666 451.234 208.741 479.585 207.374 483.001C206.008 486.417 199.518 511.352 203.275 513.402C207.033 515.451 204.3 511.352 208.057 516.476C211.815 521.6 230.259 521.6 231.284 519.55C232.309 517.501 223.087 502.13 224.794 487.783C226.502 473.437 229.235 453.625 226.844 450.892C224.453 448.159 223.053 444.144 223.053 444.144Z" fill="#00859E"/>
<path d="M235.383 446.451L235.859 444.814C235.859 444.814 250.071 449.526 250.754 452.6C251.437 455.674 251.095 477.194 248.704 478.902C246.313 480.61 242.898 483.343 245.289 487.442C247.68 491.541 250.412 495.981 252.462 496.323C254.511 496.664 258.268 499.055 257.244 501.446C256.219 503.838 243.922 499.397 243.922 499.397C243.922 499.397 235.725 493.248 236.066 483.684C236.408 474.12 235.383 446.451 235.383 446.451Z" fill="#00859E"/>
<path d="M247.338 486.758L239.14 502.13C239.14 502.13 227.185 514.427 234.017 515.793C240.848 517.159 244.605 504.521 244.605 504.521L253.486 491.882L247.338 486.758Z" fill="#FFB8B8"/>
<path d="M227.814 417.512C227.401 417.481 226.987 417.562 226.616 417.744C226.28 417.99 226.003 418.307 225.805 418.673C224.894 420.044 223.707 421.209 222.319 422.093C221.283 422.752 219.966 423.574 220.143 424.789C220.239 425.196 220.41 425.582 220.648 425.927C221.607 427.619 221.989 429.577 221.735 431.505L224.584 427.365C225.036 426.707 225.822 425.965 226.504 426.378C226.733 426.516 226.883 426.764 227.121 426.886C227.689 427.175 228.293 426.622 228.796 426.23C230.529 424.879 232.995 425.233 235.152 425.654C236.17 425.852 237.289 426.113 237.891 426.958C238.891 428.363 237.847 430.392 238.431 432.015C238.594 431.9 238.733 431.754 238.839 431.585C238.945 431.416 239.016 431.227 239.047 431.03C239.862 431.056 240.86 430.976 241.209 430.239C241.315 429.951 241.371 429.646 241.376 429.339C241.504 428.102 242.109 426.974 242.509 425.797C242.91 424.619 243.084 423.24 242.408 422.196C242.161 421.842 241.862 421.528 241.522 421.262C237.687 418.039 232.644 417.507 227.814 417.512Z" fill="#2F2E41"/>
<path d="M248.001 451.223L251.184 452.067C251.184 452.067 258.59 471.035 256.882 484.015C255.174 496.995 254.149 494.262 254.149 494.262C254.149 494.262 251.417 488.114 245.269 489.48L248.001 451.223Z" fill="#00859E" stroke="#828282" stroke-width="0.3"/>
<path d="M213.654 600.073C212.83 601.192 212.996 602.792 212.266 603.975C211.633 605 210.442 605.538 209.65 606.446C209.398 606.748 209.173 607.072 208.978 607.414C208.244 608.643 207.648 610.218 208.371 611.454C208.952 612.448 210.174 612.837 211.295 613.102C212.711 613.436 214.183 613.704 215.616 613.448C217.049 613.193 218.449 612.315 218.96 610.952C219.061 610.609 219.18 610.272 219.318 609.943C220.095 608.414 222.531 608.397 223.326 606.878C223.882 605.814 223.371 604.529 222.859 603.443L221.298 600.126C220.78 599.025 218.68 599.658 217.585 599.395C216.157 599.051 214.681 598.672 213.654 600.073Z" fill="#2F2E41"/>
<path d="M202.25 493.59L216.596 515.793C216.596 515.793 225.477 527.065 228.21 521.942C230.942 516.818 218.646 508.278 218.646 508.278L209.423 491.199L202.25 493.59Z" fill="#FFB8B8"/>
<path d="M209.424 451.917L206.691 451.234C206.691 451.234 201.226 452.942 199.86 460.115C198.493 467.288 199.518 495.981 201.226 496.323C202.934 496.664 209.661 491.327 210.738 492.458C211.815 493.59 208.399 487.783 209.424 484.709C210.448 481.635 209.424 451.917 209.424 451.917Z" fill="#00859E"/>
<path d="M330.397 468.265H322.908V469.701H330.397V468.265Z" fill="#6C63FF"/>
<path d="M340.381 468.265H332.893V469.701H340.381V468.265Z" fill="#6C63FF"/>
<path d="M354.89 474.13H347.402V475.566H354.89V474.13Z" fill="#6C63FF"/>
<path d="M365.031 474.13H357.542V475.566H365.031V474.13Z" fill="#6C63FF"/>
<path d="M365.17 468.461H343.108V469.898H365.17V468.461Z" fill="#6C63FF"/>
<path d="M344.906 474.13H322.908V475.566H344.906V474.13Z" fill="#6C63FF"/>
<path d="M344.906 479.994H322.908V481.431H333.516H344.906V479.994Z" fill="#6C63FF"/>
<path d="M365.031 479.994H349.742V481.431H365.031V479.994Z" fill="#6C63FF"/>
<path d="M320.804 472.771L318.169 469.179L320.804 465.588L321.331 466.306L319.223 469.179L321.331 472.052L320.804 472.771Z" fill="#6C63FF"/>
<path d="M371.932 484.263L371.405 483.544L373.513 480.671L371.405 477.799L371.932 477.08L374.567 480.671L371.932 484.263Z" fill="#6C63FF"/>
<path d="M369.622 477.08L367.568 483.964L368.485 484.246L370.538 477.362L369.622 477.08Z" fill="#6C63FF"/>
</g>
<path d="M436.185 582.645L451.067 548.265L436.25 586.328L436.318 590.181C435.208 590.204 434.109 590.186 433.02 590.128L433.31 540.597L433.286 540.216L433.313 540.141L433.341 535.461L416.35 499.01L433.289 531.959L433.357 532.947L433.576 495.525L418.841 457.707L433.556 488.952L432.68 411.436L432.678 411.178L432.685 411.431L434.211 472.517L447.085 447.578L434.304 477.78L434.903 511.245L446.657 478.469L434.993 516.165L435.327 534.774L452.44 489.11L435.441 541.266L436.185 582.645Z" fill="#116758"/>
<defs>
<linearGradient id="paint0_linear" x1="687" y1="-554.656" x2="-331.975" y2="489.027" gradientUnits="userSpaceOnUse">
<stop offset="0.241248" stop-color="#4BD1C8"/>
<stop offset="0.937707" stop-color="#A6E6E6" stop-opacity="0"/>
<stop offset="1" stop-color="#A6E6E6" stop-opacity="0"/>
<stop offset="1" stop-color="#A6E6E6" stop-opacity="0"/>
</linearGradient>
<clipPath id="clip0">
<rect x="199.227" y="414.831" width="211.027" height="198.719" fill="white"/>
</clipPath>
</defs>
</svg>
