<svg width="414" height="555" viewBox="0 0 414 555" fill="none" xmlns="http://www.w3.org/2000/svg">
<path d="M414 556L413.5 324.5L-3.00003 0V555L414 556Z" fill="url(#paint0_linear)"/>
<path d="M413.5 24L180 141L413.5 323.5L413.5 24Z" fill="#F0FBFB" stroke="#ECFAF9"/>
<path d="M193.5 477C287.665 477 364 464.351 364 448.748C364 433.145 287.665 420.497 193.5 420.497C99.3354 420.497 23 433.145 23 448.748C23 464.351 99.3354 477 193.5 477Z" fill="#025E58" fill-opacity="0.18"/>
<g clip-path="url(#clip0)">
<path d="M241.433 378.596V433.491L250.615 448.455L251.314 449.593H287.543L288.275 378.596H241.433Z" fill="#E6E6E6"/>
<path opacity="0.1" d="M241.433 378.596V433.491L250.615 448.455L251.178 378.596H241.433Z" fill="black"/>
<path d="M153.971 377.132V432.027L144.789 446.991L144.09 448.129H107.861L107.129 377.132H153.971Z" fill="#E6E6E6"/>
<path opacity="0.1" d="M153.97 377.132V432.027L144.789 446.991L144.225 377.132H153.97Z" fill="black"/>
<path d="M299.254 376.034V379.328H102.372V374.57L120.669 365.055H283.152L299.254 376.034Z" fill="#E6E6E6"/>
<path opacity="0.1" d="M299.254 376.034V379.328H102.372V374.57L299.254 376.034Z" fill="black"/>
<path d="M130.55 392.503H121.767L118.107 389.941H134.575L130.55 392.503Z" fill="#3F3D56"/>
<path d="M130.55 403.116H121.767L118.107 400.554H134.575L130.55 403.116Z" fill="#3F3D56"/>
<path d="M130.55 418.12H121.767L118.107 415.558H134.575L130.55 418.12Z" fill="#3F3D56"/>
<path d="M130.55 433.125H121.767L118.107 430.563H134.575L130.55 433.125Z" fill="#3F3D56"/>
<path d="M264.854 393.966H273.637L277.296 391.405H260.828L264.854 393.966Z" fill="#3F3D56"/>
<path d="M264.854 404.579H273.637L277.296 402.018H260.828L264.854 404.579Z" fill="#3F3D56"/>
<path d="M264.854 419.584H273.637L277.296 417.023H260.828L264.854 419.584Z" fill="#3F3D56"/>
<path d="M264.854 434.589H273.637L277.296 432.027H260.828L264.854 434.589Z" fill="#3F3D56"/>
<path d="M270.835 301.575H196.895C196.528 301.574 196.165 301.647 195.825 301.787C195.486 301.928 195.178 302.134 194.918 302.393C194.658 302.653 194.452 302.961 194.312 303.301C194.171 303.64 194.099 304.004 194.099 304.371V354.18C194.099 354.548 194.171 354.911 194.312 355.251C194.452 355.59 194.658 355.898 194.918 356.158C195.178 356.418 195.486 356.624 195.825 356.764C196.165 356.905 196.528 356.977 196.895 356.977H224.963L223.912 363.691C223.912 363.691 217.902 366.884 222.128 366.977C226.353 367.071 246.26 366.977 246.26 366.977C246.26 366.977 250.11 366.977 244.006 363.597L243.017 356.977H270.835C271.202 356.977 271.566 356.905 271.905 356.764C272.244 356.624 272.553 356.418 272.812 356.158C273.072 355.898 273.278 355.59 273.418 355.251C273.559 354.911 273.631 354.548 273.631 354.18V304.371C273.631 304.004 273.559 303.64 273.418 303.301C273.278 302.961 273.072 302.653 272.812 302.393C272.553 302.134 272.244 301.928 271.905 301.787C271.566 301.647 271.202 301.574 270.835 301.575Z" fill="#3F3D56"/>
<path d="M270.797 305.096H196.618V346.601H270.797V305.096Z" fill="#F2F2F2"/>
<path d="M233.865 303.687C234.124 303.687 234.334 303.477 234.334 303.218C234.334 302.958 234.124 302.748 233.865 302.748C233.606 302.748 233.396 302.958 233.396 303.218C233.396 303.477 233.606 303.687 233.865 303.687Z" fill="#F2F2F2"/>
<path d="M233.865 354.958C234.85 354.958 235.649 354.159 235.649 353.174C235.649 352.188 234.85 351.39 233.865 351.39C232.88 351.39 232.081 352.188 232.081 353.174C232.081 354.159 232.88 354.958 233.865 354.958Z" fill="#F2F2F2"/>
<path d="M231.085 372.048V372.987H180.568V372.236L180.637 372.048L181.882 368.668H230.052L231.085 372.048Z" fill="#3F3D56"/>
<path d="M250.526 371.129C250.434 371.522 250.086 371.937 249.301 372.33C246.484 373.738 240.756 371.954 240.756 371.954C240.756 371.954 236.343 371.203 236.343 369.231C236.467 369.146 236.596 369.069 236.73 369.001C237.914 368.375 241.841 366.828 248.804 369.067C249.317 369.228 249.775 369.528 250.127 369.934C250.284 370.087 250.401 370.276 250.47 370.484C250.54 370.691 250.558 370.912 250.526 371.129Z" fill="#3F3D56"/>
<path opacity="0.1" d="M250.526 371.129C247.078 372.45 244.004 372.549 240.85 370.358C239.658 369.476 238.213 369.001 236.73 369.001C237.914 368.375 241.841 366.828 248.804 369.067C249.317 369.228 249.775 369.528 250.127 369.934C250.283 370.087 250.401 370.276 250.47 370.484C250.539 370.691 250.558 370.912 250.526 371.129Z" fill="black"/>
<path d="M246.203 370.358C246.877 370.358 247.423 370.19 247.423 369.982C247.423 369.775 246.877 369.607 246.203 369.607C245.528 369.607 244.982 369.775 244.982 369.982C244.982 370.19 245.528 370.358 246.203 370.358Z" fill="#F2F2F2"/>
<path opacity="0.1" d="M231.085 372.048V372.987H180.568V372.236L180.637 372.048H231.085Z" fill="black"/>
<path d="M116.315 265.831C115.802 265.789 115.289 265.903 114.843 266.16C114.405 266.46 114.129 266.985 113.847 267.474C112.77 269.366 111.312 271.013 109.564 272.312C108.292 273.245 106.674 274.407 106.891 276.126C107.006 276.694 107.216 277.238 107.512 277.736C108.686 280.106 111.889 281.938 111.574 284.642C112.741 282.689 111.181 281.724 112.347 279.771C112.903 278.841 113.867 277.791 114.706 278.375C114.987 278.571 115.171 278.921 115.464 279.093C116.161 279.502 116.904 278.72 117.521 278.165C119.651 276.254 122.679 276.754 125.329 277.35C126.58 277.631 127.954 278 128.694 279.196C129.666 280.768 127.77 282.466 127.291 284.244C127.252 284.395 127.25 284.554 127.286 284.706C127.321 284.858 127.393 285 127.495 285.118C127.597 285.237 127.727 285.329 127.872 285.386C128.018 285.444 128.175 285.465 128.33 285.449C129.126 285.37 130.067 285.306 130.115 284.957C131.115 284.993 132.341 284.88 132.769 283.838C132.9 283.426 132.97 282.996 132.975 282.564C133.132 280.814 133.875 279.218 134.367 277.552C134.859 275.887 135.073 273.935 134.243 272.458C133.946 271.967 133.58 271.521 133.155 271.136C128.443 266.576 122.248 265.824 116.315 265.831Z" fill="#2F2E41"/>
<path d="M112.599 288.058C112.599 288.058 113.623 296.597 109.866 297.281C106.109 297.964 113.282 309.578 113.282 309.578L130.36 311.627L126.261 297.964C126.261 297.964 123.529 296.939 125.237 290.107C126.945 283.276 112.599 288.058 112.599 288.058Z" fill="#FFB8B8"/>
<path d="M102.181 434.768L103.548 453.556H110.72L108.671 434.768H102.181Z" fill="#FFB8B8"/>
<path d="M154.783 399.244L155.807 414.956L163.664 411.541L160.589 398.56L154.783 399.244Z" fill="#FFB8B8"/>
<path d="M97.0571 363.036C97.0571 363.036 97.3987 382.847 99.4481 389.338C101.498 395.828 101.156 396.169 100.814 397.194C100.473 398.219 100.131 397.536 100.131 399.244C100.131 400.951 99.4481 427.937 100.131 430.328C100.814 432.719 98.0819 436.818 100.131 437.159C102.181 437.501 111.745 437.159 112.086 435.11C112.428 433.06 109.354 432.377 110.72 431.011C112.086 429.645 114.136 401.635 114.136 401.635L118.918 382.164L127.798 371.917H146.585L152.391 394.461C152.391 394.461 150 400.951 151.708 400.951C153.416 400.951 163.663 403.001 163.663 395.486C163.663 387.971 160.248 365.768 159.564 365.085C158.881 364.402 159.906 362.011 158.881 360.986C157.857 359.961 145.902 352.788 141.461 351.422C137.021 350.055 130.792 348.429 130.792 348.429L97.0571 363.036Z" fill="#090909"/>
<path d="M163.664 408.808C163.664 408.808 158.54 407.1 156.149 412.224C153.758 417.348 154.783 418.714 154.783 418.714C154.783 418.714 162.639 421.447 164.005 420.08C164.6 419.486 166.487 419.279 168.43 419.236C171.389 419.169 172.177 414.982 169.382 414.007C169.298 413.978 169.214 413.953 169.129 413.932C166.396 413.249 163.664 408.808 163.664 408.808Z" fill="#2F2E41"/>
<path d="M120.284 293.694C125.944 293.694 130.531 289.106 130.531 283.447C130.531 277.787 125.944 273.199 120.284 273.199C114.625 273.199 110.037 277.787 110.037 283.447C110.037 289.106 114.625 293.694 120.284 293.694Z" fill="#FFB8B8"/>
<path d="M106.963 301.55C106.963 301.55 123.7 304.966 127.799 299.501C131.898 294.036 133.606 314.872 133.606 314.872L135.655 336.734L132.581 348.689C132.581 348.689 116.527 361.669 111.403 362.694C106.28 363.719 98.4238 364.402 98.4238 364.402C98.4238 364.402 100.815 326.486 100.815 325.803C100.815 325.12 106.963 301.55 106.963 301.55Z" fill="#FBFFFB"/>
<path d="M112.053 295.144C112.053 295.144 108.329 293.011 107.304 295.06C106.28 297.11 96.7156 302.234 95.6909 302.234C94.6662 302.234 97.7403 330.585 96.3741 334.001C95.0078 337.417 88.518 362.352 92.2752 364.402C96.0325 366.451 93.2999 362.352 97.0572 367.476C100.814 372.6 119.259 372.6 120.284 370.55C121.309 368.501 112.086 353.13 113.794 338.783C115.502 324.437 118.235 304.625 115.844 301.892C113.453 299.159 112.053 295.144 112.053 295.144Z" fill="#00859E"/>
<path d="M124.383 297.451L124.859 295.814C124.859 295.814 139.071 300.526 139.754 303.6C140.437 306.674 140.096 328.194 137.705 329.902C135.314 331.61 131.898 334.343 134.289 338.442C136.68 342.541 139.412 346.981 141.462 347.323C143.511 347.664 147.268 350.055 146.244 352.446C145.219 354.838 132.923 350.397 132.923 350.397C132.923 350.397 124.725 344.248 125.066 334.684C125.408 325.12 124.383 297.451 124.383 297.451Z" fill="#00859E"/>
<path d="M136.338 337.758L128.14 353.13C128.14 353.13 116.185 365.427 123.017 366.793C129.848 368.159 133.605 355.521 133.605 355.521L142.486 342.882L136.338 337.758Z" fill="#FFB8B8"/>
<path d="M116.814 268.512C116.401 268.481 115.987 268.562 115.616 268.744C115.28 268.99 115.003 269.307 114.805 269.673C113.894 271.044 112.706 272.209 111.318 273.093C110.282 273.752 108.965 274.574 109.143 275.789C109.239 276.196 109.41 276.582 109.648 276.927C110.607 278.619 110.988 280.577 110.735 282.505L113.584 278.365C114.036 277.707 114.821 276.966 115.504 277.378C115.733 277.517 115.883 277.764 116.121 277.886C116.689 278.175 117.293 277.622 117.796 277.23C119.529 275.879 121.994 276.233 124.152 276.654C125.17 276.853 126.289 277.113 126.891 277.958C127.891 279.363 126.847 281.392 127.43 283.015C127.594 282.9 127.733 282.754 127.839 282.585C127.945 282.416 128.016 282.228 128.047 282.031C128.862 282.056 129.859 281.976 130.208 281.239C130.315 280.951 130.371 280.646 130.376 280.339C130.504 279.102 131.108 277.974 131.509 276.797C131.909 275.619 132.083 274.24 131.408 273.196C131.16 272.842 130.862 272.528 130.522 272.262C126.687 269.039 121.644 268.507 116.814 268.512Z" fill="#2F2E41"/>
<path d="M137.001 302.223L140.184 303.067C140.184 303.067 147.59 322.035 145.882 335.015C144.174 347.995 143.149 345.262 143.149 345.262C143.149 345.262 140.417 339.114 134.269 340.48L137.001 302.223Z" fill="#00859E" stroke="#828282" stroke-width="0.3"/>
<path d="M102.654 451.073C101.831 452.192 101.996 453.792 101.266 454.975C100.634 456 99.4418 456.538 98.6507 457.446C98.3983 457.748 98.1733 458.072 97.9783 458.414C97.2445 459.643 96.648 461.218 97.3707 462.454C97.9521 463.448 99.1742 463.837 100.295 464.102C101.712 464.436 103.183 464.704 104.616 464.448C106.049 464.193 107.45 463.315 107.961 461.952C108.061 461.609 108.18 461.272 108.318 460.943C109.095 459.414 111.531 459.397 112.326 457.878C112.882 456.814 112.371 455.529 111.86 454.443L110.299 451.126C109.78 450.025 107.68 450.658 106.585 450.395C105.158 450.051 103.682 449.672 102.654 451.073Z" fill="#2F2E41"/>
<path d="M91.2505 344.59L105.596 366.793C105.596 366.793 114.477 378.065 117.21 372.942C119.942 367.818 107.646 359.278 107.646 359.278L98.4235 342.199L91.2505 344.59Z" fill="#FFB8B8"/>
<path d="M98.4236 302.917L95.6911 302.234C95.6911 302.234 90.226 303.942 88.8597 311.115C87.4934 318.288 88.5181 346.981 90.226 347.323C91.9338 347.664 98.661 342.327 99.7378 343.458C100.815 344.59 97.3989 338.783 98.4236 335.709C99.4483 332.635 98.4236 302.917 98.4236 302.917Z" fill="#00859E"/>
<path d="M219.397 319.265H211.908V320.701H219.397V319.265Z" fill="#6C63FF"/>
<path d="M229.382 319.265H221.893V320.701H229.382V319.265Z" fill="#6C63FF"/>
<path d="M243.89 325.13H236.402V326.566H243.89V325.13Z" fill="#6C63FF"/>
<path d="M254.031 325.13H246.542V326.566H254.031V325.13Z" fill="#6C63FF"/>
<path d="M254.17 319.461H232.108V320.898H254.17V319.461Z" fill="#6C63FF"/>
<path d="M233.906 325.13H211.908V326.566H233.906V325.13Z" fill="#6C63FF"/>
<path d="M233.906 330.994H211.908V332.431H222.516H233.906V330.994Z" fill="#6C63FF"/>
<path d="M254.031 330.994H238.742V332.431H254.031V330.994Z" fill="#6C63FF"/>
<path d="M209.804 323.771L207.169 320.179L209.804 316.588L210.331 317.306L208.223 320.179L210.331 323.052L209.804 323.771Z" fill="#6C63FF"/>
<path d="M260.932 335.263L260.405 334.544L262.513 331.671L260.405 328.799L260.932 328.08L263.567 331.671L260.932 335.263Z" fill="#6C63FF"/>
<path d="M258.622 328.08L256.568 334.964L257.485 335.246L259.538 328.362L258.622 328.08Z" fill="#6C63FF"/>
</g>
<path d="M325.185 433.645L340.067 399.265L325.25 437.328L325.318 441.181C324.208 441.204 323.109 441.186 322.02 441.128L322.31 391.597L322.286 391.216L322.313 391.141L322.341 386.461L305.35 350.01L322.289 382.959L322.357 383.947L322.576 346.525L307.841 308.707L322.556 339.952L321.68 262.436L321.678 262.178L321.685 262.431L323.211 323.517L336.085 298.578L323.304 328.78L323.903 362.245L335.657 329.469L323.993 367.165L324.327 385.774L341.44 340.11L324.441 392.266L325.185 433.645Z" fill="#116758"/>
<defs>
<linearGradient id="paint0_linear" x1="-348.466" y1="-218.268" x2="502.867" y2="432.965" gradientUnits="userSpaceOnUse">
<stop offset="0.127556" stop-color="#4BD1C8"/>
<stop offset="0.192808" stop-color="#4BD1C8"/>
<stop offset="1" stop-color="#A6E6E6" stop-opacity="0"/>
</linearGradient>
<clipPath id="clip0">
<rect x="88.2266" y="265.831" width="211.027" height="198.719" fill="white"/>
</clipPath>
</defs>
</svg>
