<svg width="130" height="388" viewBox="0 0 130 388" fill="none" xmlns="http://www.w3.org/2000/svg">
<path d="M74.185 331.807L72.2335 353.983L87.8511 352.678V333.764L74.185 331.807Z" fill="#FFB8B8"/>
<path d="M59.8687 331.807L61.8211 353.983L46.2035 352.678V333.764L59.8687 331.807Z" fill="#FFB8B8"/>
<path d="M100.866 161.581C100.866 161.581 106.072 192.887 106.072 197.452C106.072 202.018 104.12 231.367 100.866 237.237C97.6123 243.107 96.9615 245.716 98.263 248.325C99.5645 250.933 98.9137 250.281 98.263 252.238C97.6123 254.195 96.3108 253.542 98.263 256.151C99.0602 257.3 99.4875 258.665 99.4875 260.064C99.4875 261.464 99.0602 262.829 98.263 263.978C96.9615 265.934 100.866 318.763 95.66 322.677C90.454 326.59 89.1525 339.634 89.1525 339.634L72.2331 337.678V323.329C72.2331 323.329 68.3286 312.894 70.9316 306.371C73.5346 299.849 74.8361 265.282 74.8361 265.282C74.8361 265.282 74.1853 262.021 74.8361 260.064C75.4868 258.108 74.8361 256.803 73.5346 256.151C72.2331 255.499 71.5823 252.89 71.5823 252.89L69.6301 205.279L61.8211 252.238C61.8211 252.238 69.6301 316.155 61.8211 324.633V339.634H44.9016L47.5046 323.329C47.5046 323.329 42.2986 308.328 44.9016 305.067C47.5046 301.806 37.0927 249.629 38.3942 247.672C39.6957 245.716 39.0449 245.064 38.3942 243.759C37.7434 242.455 35.7912 241.15 36.4419 239.846C37.0927 238.541 36.4419 235.933 36.4419 235.933C36.4419 235.933 24.0777 174.625 29.9344 168.755C35.7912 162.885 100.866 161.581 100.866 161.581Z" fill="#2F2E41"/>
<path d="M76.1376 345.504C76.1376 345.504 77.4391 339.249 87.851 341.398C87.851 341.398 90.454 346.808 90.454 349.417C90.454 352.026 93.057 369.636 93.057 369.636C93.057 369.636 103.469 387.246 90.454 387.246C77.4391 387.246 72.8838 382.68 72.2331 378.115C71.5823 373.549 72.8838 372.245 70.2808 370.288C67.6778 368.331 66.3764 368.331 67.0271 365.723C67.6778 363.114 68.9793 350.069 68.9793 350.069C68.9793 350.069 69.6301 340.286 73.2092 342.895L76.7883 345.504" fill="#2F2E41"/>
<path d="M57.9166 345.504C57.9166 345.504 56.6151 339.249 46.2031 341.398C46.2031 341.398 43.6001 346.808 43.6001 349.417C43.6001 352.026 40.9971 369.636 40.9971 369.636C40.9971 369.636 30.5852 387.246 43.6001 387.246C56.6151 387.246 61.1703 382.68 61.8211 378.115C62.4718 373.549 61.1703 372.245 63.7733 370.288C66.3763 368.331 67.6778 368.331 67.0271 365.723C66.3763 363.114 65.0748 350.069 65.0748 350.069C65.0748 350.069 64.4241 340.286 60.8449 342.895L57.2658 345.504" fill="#2F2E41"/>
<path d="M76.7883 41.5738C86.492 41.5738 94.3585 33.6896 94.3585 23.9641C94.3585 14.2385 86.492 6.35437 76.7883 6.35437C67.0845 6.35437 59.2181 14.2385 59.2181 23.9641C59.2181 33.6896 67.0845 41.5738 76.7883 41.5738Z" fill="#FFB8B8"/>
<path d="M62.4718 26.5729C62.4718 26.5729 55.3136 54.6179 54.0121 55.2701C52.7106 55.9224 83.9465 58.5312 83.9465 58.5312C83.9465 58.5312 76.1376 34.3994 83.9465 30.4861L62.4718 26.5729Z" fill="#FFB8B8"/>
<path d="M57.9003 43.6634L57.8995 43.6598L36.4419 58.5312L40.3464 175.277C40.3464 175.277 68.9793 172.016 75.4868 172.668C81.9943 173.32 102.818 166.798 102.818 166.798L93.697 57.0972C93.5187 54.9536 92.5813 52.9447 91.0541 51.4334C89.5269 49.9222 87.5107 49.0083 85.3698 48.857L81.4615 48.5807C81.4615 48.5807 77.5573 58.269 65.8106 53.2708C63.8301 52.4073 62.0812 51.087 60.7065 49.4174C59.3319 47.7478 58.3703 45.7762 57.9003 43.6634Z" fill="#DEDCE8"/>
<path d="M58.4192 42.5985L31.8867 55.2701L26.6807 130.274C26.6807 130.274 16.2687 175.277 24.7285 188.321C33.1882 201.365 47.5047 202.67 47.5047 202.67C47.5047 202.67 66.3764 127.666 61.1704 102.229C55.9644 76.7931 58.4192 42.5985 58.4192 42.5985Z" fill="#00859E"/>
<path d="M8.45976 155.711V165.494C8.45976 165.494 4.55527 187.017 16.9195 186.364C29.2837 185.712 23.427 162.885 23.427 162.885L19.5225 155.711H8.45976Z" fill="#FFB8B8"/>
<path d="M122.991 175.277L121.69 186.365C121.69 186.365 128.197 208.54 115.833 209.192C103.469 209.844 112.444 186.501 112.444 186.501L116.484 173.973L122.991 175.277Z" fill="#FFB8B8"/>
<path d="M81.07 46.3014C92.9273 49.2286 103.915 54.9532 113.118 62.9983L113.23 63.0967L104.12 111.36L102.818 128.97C102.818 128.97 126.896 215.062 98.9137 202.67C98.9137 202.67 74.8361 127.666 78.0898 93.0984C81.3435 58.5313 81.07 46.3014 81.07 46.3014Z" fill="#00859E"/>
<path d="M104.77 62.4444C105.421 61.7922 113.23 63.3508 113.23 63.3508C113.23 63.3508 127.547 113.969 127.547 122.448C127.547 130.927 129.499 179.19 129.499 179.19L112.321 180.926L98.4173 113.868L104.77 62.4444Z" fill="#00859E"/>
<path d="M36.4419 55.2701H31.8867C31.8867 55.2701 18.8717 60.4878 18.221 66.3577C17.5702 72.2276 0 131.579 0 131.579L4.55524 161.581L21.4747 158.972L24.7284 125.709L41.6479 89.1851L36.4419 55.2701Z" fill="#00859E"/>
<path d="M73.3749 28.8788L74.0485 24.1722C74.2055 23.0752 74.8461 21.6328 75.911 21.9311C76.8168 22.1849 78.7901 22.962 79.1205 22.7274C80.3578 21.8489 82.2302 23.385 83.5313 22.6046C84.0764 22.2776 84.432 21.5772 85.0656 21.5304C85.4907 21.5576 85.8912 21.7395 86.1919 22.0418C87.0365 22.778 88.0317 23.3198 89.1076 23.6293C89.6473 23.7766 90.2166 23.7765 90.7563 23.6291C91.296 23.4816 91.7865 23.1922 92.177 22.7908C92.3149 22.5769 92.5008 22.3983 92.7198 22.2693C92.9769 22.195 93.2512 22.2077 93.5003 22.3052L96.8247 23.2124C97.3136 21.4357 97.414 19.5741 97.1191 17.7549C96.8241 15.9357 96.1407 14.2018 95.1156 12.6717C93.767 10.837 92.1321 9.23216 90.2737 7.91907C88.215 6.34934 86.0904 4.87289 83.8999 3.48972C81.5775 1.84291 78.9414 0.693496 76.1562 0.11321C73.3528 -0.313455 70.2137 0.449889 68.4504 2.67546C67.6209 2.07382 66.9975 1.22974 66.6656 0.258977C66.4679 0.439268 66.3121 0.66087 66.2091 0.908121C66.1062 1.15537 66.0587 1.42225 66.0699 1.68992C66.0811 1.95759 66.1509 2.21953 66.2742 2.45724C66.3974 2.69495 66.5713 2.90265 66.7834 3.06566L63.9719 1.26623C63.1815 2.09796 64.7257 3.60615 64.0523 4.53553C63.8486 4.7654 63.5873 4.93643 63.2954 5.03085C61.7688 5.62719 60.3697 6.50981 59.1729 7.6314C57.6577 9.36148 56.5484 11.4097 55.9262 13.6256C54.2509 18.4428 53.0332 23.9672 55.4136 28.4765C55.6834 28.9877 59.2455 37.4254 59.7201 37.7544C61.3244 38.8666 60.28 36.1749 61.4296 37.7544C62.331 38.993 62.1623 34.2525 63.5019 35.293C64.0272 35.6697 64.6501 35.8856 65.2953 35.9147C65.9404 35.9438 66.5802 35.7847 67.137 35.4569C67.6924 35.0708 67.5135 32.927 67.2138 30.9584C67.1565 30.5834 67.1918 30.2 67.3167 29.8419C67.4416 29.4838 67.6522 29.1619 67.9301 28.9043C68.208 28.6467 68.5447 28.4614 68.9106 28.3646C69.2766 28.2678 69.6607 28.2625 70.0292 28.349C71.6978 28.7424 73.3463 29.0786 73.3749 28.8788Z" fill="#2F2E41"/>
<path opacity="0.2" d="M106.398 121.469L113.555 180.821H109L106.398 121.469Z" fill="black"/>
<path opacity="0.2" d="M30.9105 108.642L27.2914 131.469L34.1643 108.642H32.2118H30.9105Z" fill="black"/>
</svg>
