<svg width="2em" height="2em" viewBox="0 0 192 192" fill="none" xmlns="http://www.w3.org/2000/svg">
<path d="M61.5288 89.6579C61.5288 91.6231 61.7395 93.2129 62.1081 94.3815C62.5295 95.55 63.0528 96.8239 63.7902 98.2031C64.0535 98.6277 64.1588 99.0524 64.1588 99.4243C64.1588 99.9543 63.8428 100.484 63.1615 101.017L59.85 103.246C59.376 103.565 58.9053 103.723 58.484 103.723C57.9573 103.723 57.434 103.457 56.9073 102.979C56.17 102.183 55.5413 101.333 55.0146 100.484C54.4879 99.5823 53.9645 98.5751 53.3852 97.3539C49.2871 102.235 44.1356 104.678 37.9341 104.678C33.52 104.678 29.9979 103.404 27.4238 100.856C24.8498 98.3084 23.5364 94.9114 23.5364 90.6652C23.5364 86.1556 25.1131 82.492 28.3192 79.7336C31.5253 76.9752 35.7814 75.5927 41.1929 75.5927C42.9803 75.5927 44.8203 75.7507 46.7624 76.0173C48.7045 76.2839 50.7025 76.7085 52.8059 77.1858V73.3115C52.8059 69.2792 51.9665 66.4649 50.3371 64.819C48.6551 63.1732 45.8177 62.3766 41.7722 62.3766C39.9322 62.3766 38.0428 62.5873 36.0974 63.0679C34.152 63.5452 32.2626 64.1278 30.4225 64.8717C29.5832 65.2437 28.9512 65.4543 28.5825 65.563C28.2138 65.6683 27.9505 65.721 27.7431 65.721C27.0058 65.721 26.6404 65.191 26.6404 64.0751V61.4747C26.6404 60.6255 26.7458 59.9902 27.0091 59.6182C27.2724 59.2462 27.7464 58.8743 28.4805 58.5023C30.3205 57.5477 32.5259 56.7512 35.1033 56.1126C37.6774 55.4213 40.4095 55.1053 43.2995 55.1053C49.5537 55.1053 54.1258 56.5372 57.0686 59.4042C59.9587 62.2713 61.43 66.6229 61.43 72.459V89.6547H61.5288V89.6579ZM40.1922 97.7225C41.9269 97.7225 43.7143 97.4032 45.6037 96.7679C47.4964 96.1327 49.1785 94.9641 50.5972 93.3709C51.4365 92.3637 52.0685 91.2478 52.3845 89.9739C52.7005 88.7001 52.9112 87.1596 52.9112 85.3557V83.1273C51.3872 82.7553 49.7578 82.436 48.0758 82.2254C46.3937 82.0147 44.7643 81.9061 43.135 81.9061C39.6129 81.9061 37.0388 82.5973 35.3041 84.0292C33.5694 85.4611 32.73 87.4789 32.73 90.1319C32.73 92.627 33.362 94.4835 34.6754 95.7574C35.9361 97.0872 37.7761 97.7225 40.1922 97.7225ZM82.3914 103.457C81.4467 103.457 80.8147 103.299 80.3933 102.927C79.972 102.607 79.6066 101.867 79.2906 100.856L66.9403 59.8322C66.6243 58.7723 66.4663 58.081 66.4663 57.709C66.4663 56.8598 66.8876 56.3825 67.727 56.3825H72.8785C73.8758 56.3825 74.5605 56.5405 74.9292 56.9125C75.3505 57.2318 75.6632 57.9724 75.9792 58.9829L84.8075 94.1182L93.0037 58.9829C93.2671 57.923 93.583 57.2318 94.0011 56.9125C94.4224 56.5932 95.1565 56.3825 96.1045 56.3825H100.308C101.305 56.3825 101.99 56.5405 102.411 56.9125C102.833 57.2318 103.198 57.9724 103.409 58.9829L111.71 94.5428L120.802 58.9829C121.118 57.923 121.487 57.2318 121.852 56.9125C122.273 56.5932 122.955 56.3825 123.903 56.3825H128.791C129.63 56.3825 130.104 56.8071 130.104 57.709C130.104 57.9757 130.051 58.239 129.999 58.5583C129.946 58.8776 129.841 59.3022 129.63 59.8848L116.967 100.909C116.651 101.969 116.282 102.66 115.864 102.979C115.446 103.299 114.762 103.509 113.866 103.509H109.347C108.349 103.509 107.665 103.351 107.243 102.979C106.822 102.607 106.457 101.919 106.246 100.856L98.1025 66.6229L90.0116 100.804C89.7483 101.863 89.4323 102.555 89.0142 102.927C88.5929 103.299 87.8588 103.457 86.9108 103.457H82.3914ZM149.917 104.888C147.185 104.888 144.452 104.569 141.826 103.934C139.199 103.299 137.148 102.607 135.782 101.811C134.943 101.333 134.364 100.804 134.153 100.326C133.942 99.8489 133.837 99.319 133.837 98.8417V96.1359C133.837 95.0201 134.258 94.4901 135.045 94.4901C135.361 94.4901 135.677 94.5428 135.99 94.6481C136.306 94.7534 136.776 94.9674 137.303 95.1781C139.09 95.9747 141.032 96.6099 143.083 97.0346C145.187 97.4592 147.234 97.6699 149.337 97.6699C152.649 97.6699 155.223 97.0872 157.01 95.9187C158.798 94.7502 159.742 93.0517 159.742 90.8759C159.742 89.3913 159.268 88.1701 158.324 87.1596C157.379 86.1523 155.591 85.2504 153.017 84.4012L145.397 82.0114C141.562 80.7902 138.725 78.9864 136.99 76.5966C135.256 74.2628 134.364 71.6624 134.364 68.9007C134.364 66.6722 134.838 64.7071 135.782 63.0086C136.727 61.3101 137.991 59.8256 139.564 58.657C141.141 57.4358 142.928 56.5339 145.029 55.8986C147.132 55.2666 149.337 55 151.651 55C152.807 55 154.015 55.0527 155.173 55.2107C156.381 55.3687 157.484 55.5826 158.59 55.7933C159.64 56.0599 160.641 56.3232 161.586 56.6425C162.53 56.9618 163.268 57.2778 163.794 57.5971C164.532 58.0217 165.055 58.4464 165.371 58.9237C165.687 59.3483 165.845 59.9309 165.845 60.6748V63.1699C165.845 64.2858 165.424 64.8684 164.637 64.8684C164.216 64.8684 163.534 64.6577 162.639 64.2331C159.644 62.8539 156.279 62.1627 152.55 62.1627C149.555 62.1627 147.191 62.64 145.562 63.6472C143.932 64.6545 143.093 66.195 143.093 68.3707C143.093 69.8553 143.62 71.1292 144.67 72.1397C145.72 73.147 147.665 74.1575 150.45 75.0594L157.912 77.4492C161.694 78.6704 164.43 80.3689 166.056 82.5447C167.682 84.7204 168.472 87.2155 168.472 89.9739C168.472 92.2551 167.998 94.3255 167.106 96.1294C166.161 97.9332 164.897 99.5264 163.271 100.8C161.642 102.127 159.696 103.081 157.438 103.773C155.065 104.517 152.596 104.888 149.917 104.888Z" fill="#252F3E"/>
<path d="M159.848 130.682C142.56 143.579 117.441 150.425 95.841 150.425C65.5742 150.425 38.2994 139.122 17.7002 120.333C16.0708 118.849 17.5422 116.831 19.4875 117.999C41.7688 131.054 69.251 138.964 97.6811 138.964C116.862 138.964 137.935 134.932 157.323 126.65C160.216 125.323 162.685 128.559 159.848 130.682ZM167.046 122.404C164.838 119.536 152.438 121.024 146.816 121.712C145.134 121.923 144.87 120.438 146.394 119.323C156.273 112.318 172.511 114.332 174.403 116.669C176.296 119.059 173.877 135.458 164.63 143.312C163.212 144.533 161.846 143.895 162.474 142.305C164.578 137.051 169.255 125.215 167.046 122.404Z" fill="#FF9900"/>
</svg>
