<svg width="2em" height="2em" viewBox="0 0 512 512" fill="none" xmlns="http://www.w3.org/2000/svg">
<path d="M512 256C512 338.317 473.14 411.564 412.766 458.397C369.455 492.001 315.068 512 256 512C196.932 512 142.545 492.001 99.234 458.397C38.86 411.564 0 338.317 0 256C0 114.615 114.615 0 256 0C397.385 0 512 114.615 512 256Z" fill="#F2F2F2"/>
<path d="M441.992 119.474L412.766 458.397C369.455 492.001 315.068 512 256 512C196.932 512 142.545 492.001 99.2341 458.397L70.0081 119.474H441.992Z" fill="#006BC0"/>
<path d="M255.997 151.338V505.296L378.269 470.777L405.545 151.338H255.997Z" fill="#0096DC"/>
<path d="M364.036 289.787H275.85L367.999 242.89L371.981 195.746H140.013L144.072 243.811H237.189L147.845 288.484L152.002 337.723H311.376L306.152 396.366L255.997 409.95L203.752 395.321L202.446 358.75H153.778L159.866 430.848L255.997 458.015L352.127 430.848L364.039 289.779L364.036 289.787Z" fill="white"/>
<path d="M165.352 67.224V33.787H213.417V15.676H147.937V85.335H213.417V67.224H165.352Z" fill="#222123"/>
<path d="M241.542 42.93V34.57H289.347V33.787V15.676H223.866V58.864H270.799V67.224H223.866V85.335H289.347V67.224V42.93H241.542Z" fill="#222123"/>
<path d="M316.252 42.93V34.57H364.056V33.787V15.676H298.576V58.864H345.509V67.224H298.576V85.335H364.056V67.224V42.93H316.252Z" fill="#222123"/>
</svg>
