<svg width="2em" height="2em" viewBox="0 0 208 208" fill="none" xmlns="http://www.w3.org/2000/svg">
<path d="M168 64.717L157.943 181.341C143.04 192.904 124.325 199.786 104 199.786C83.6747 199.786 64.96 192.904 50.0567 181.341L40 64.717H168Z" fill="#006BC0"/>
<path d="M103.999 75.6814V197.479L146.073 185.601L155.459 75.6814H103.999Z" fill="#0096DC"/>
<path d="M141.175 123.322H110.83L142.539 107.185L143.909 90.9623H64.0889L65.4856 107.501H97.5272L66.7839 122.874L68.2143 139.817H123.055L121.257 159.996L103.999 164.67L86.0215 159.636L85.5721 147.052H68.8254L70.9203 171.861L103.999 181.209L137.077 171.861L141.176 123.319L141.175 123.322Z" fill="white"/>
<path d="M72.8079 46.7377V35.232H89.3471V29H66.8154V52.9697H89.3471V46.7377H72.8079Z" fill="#222123"/>
<path d="M99.0251 38.3781V35.5014H115.475V35.232V29H92.9427V43.861H109.092V46.7377H92.9427V52.9697H115.475V46.7377V38.3781H99.0251Z" fill="#222123"/>
<path d="M124.733 38.3781V35.5014H141.182V35.232V29H118.651V43.861H134.8V46.7377H118.651V52.9697H141.182V46.7377V38.3781H124.733Z" fill="#222123"/>
</svg>
