<svg width="2em" height="2em" viewBox="0 0 226 226" fill="none" xmlns="http://www.w3.org/2000/svg">
<path d="M142.344 46.875H166.219V70.75H142.344V46.875ZM166.219 158.813C166.219 166.871 164.327 193.426 140.899 201.484L118.469 190.125C135.217 182.819 142.344 171.025 142.344 158.813C142.344 141.933 142.344 88.6562 142.344 88.6562L166.219 88.6682C166.219 88.6682 166.219 140.674 166.219 158.813ZM100.562 46.875V84.4901C97.7632 83.35 91.7288 83.1292 88.7563 83.1292C66.3795 83.1292 46.8438 94.6907 46.8438 124.469C46.8438 160.096 73.727 166.232 92.5047 166.232C99.9179 166.232 116.38 165.504 124.438 163.17V46.875H100.562ZM92.26 146.35C81.7013 146.35 70.7188 141.557 70.7188 124.469C70.7188 107.38 81.7013 103.763 92.26 103.763C94.8385 103.763 97.7393 104.247 100.562 104.891V145.222C97.7452 145.861 94.8444 146.35 92.26 146.35Z" fill="black"/>
</svg>
