<svg width="2em" height="2em" viewBox="0 0 512 512" fill="none" xmlns="http://www.w3.org/2000/svg">
<path d="M512 256C512 397.385 397.385 512 256 512C114.615 512 0 397.385 0 256C0 114.615 114.615 0 256 0C386.497 0 494.184 97.646 509.994 223.859C511.143 232.981 511.812 242.249 511.958 251.643C511.99 253.095 512 254.548 512 256Z" fill="#006BC0"/>
<path d="M511.958 251.643C490.099 278.267 447.268 276.188 447.268 276.188C420.853 389.988 261.328 447.907 150.569 419.454C39.821 391.011 55.056 258.915 55.056 258.915H379.194C405.943 258.915 407.981 250.786 407.981 250.786C384.272 194.56 420.854 164.415 420.854 164.415C449.307 169.504 456.412 218.269 456.412 218.269C479.765 214.079 498.521 219.063 509.994 223.859C511.143 232.981 511.812 242.249 511.958 251.643Z" fill="#F2F2F2"/>
<path d="M134.99 207.433H89.6V248.753H134.99V207.433Z" fill="#F2F2F2"/>
<path d="M192.031 207.433H146.641V248.753H192.031V207.433Z" fill="#F2F2F2"/>
<path d="M363.133 207.433H317.743V248.753H363.133V207.433Z" fill="#F2F2F2"/>
<path d="M306.102 207.433H260.712V248.753H306.102V207.433Z" fill="#F2F2F2"/>
<path d="M306.102 101.763H260.712V143.083H306.102V101.763Z" fill="#F2F2F2"/>
<path d="M249.061 207.433H203.671V248.753H249.061V207.433Z" fill="#F2F2F2"/>
<path d="M192.031 154.593H146.641V195.913H192.031V154.593Z" fill="#F2F2F2"/>
<path d="M306.102 154.593H260.712V195.913H306.102V154.593Z" fill="#F2F2F2"/>
<path d="M249.061 154.593H203.671V195.913H249.061V154.593Z" fill="#F2F2F2"/>
</svg>
