<svg width="2em" height="2em" viewBox="0 0 211 211" fill="none" xmlns="http://www.w3.org/2000/svg">
<path d="M199 100.627C190.45 111.042 173.696 110.228 173.696 110.228C163.363 154.743 100.963 177.398 57.6385 166.269C14.3181 155.143 20.2774 103.472 20.2774 103.472H147.068C157.531 103.472 158.328 100.292 158.328 100.292C149.054 78.2987 163.364 66.5071 163.364 66.5071C174.493 68.4977 177.273 87.5727 177.273 87.5727C186.407 85.9337 193.744 87.8833 198.232 89.7593C198.681 93.3275 198.943 96.9528 199 100.627Z" fill="#006BC0"/>
<path d="M51.5445 83.334H33.7897V99.4968H51.5445V83.334Z" fill="#006BC0"/>
<path d="M73.8569 83.334H56.1021V99.4968H73.8569V83.334Z" fill="#006BC0"/>
<path d="M140.785 83.334H123.031V99.4968H140.785V83.334Z" fill="#006BC0"/>
<path d="M118.477 83.334H100.722V99.4968H118.477V83.334Z" fill="#006BC0"/>
<path d="M118.477 42H100.722V58.1628H118.477V42Z" fill="#006BC0"/>
<path d="M96.1647 83.334H78.4099V99.4968H96.1647V83.334Z" fill="#006BC0"/>
<path d="M73.8569 62.6651H56.1021V78.8279H73.8569V62.6651Z" fill="#006BC0"/>
<path d="M118.477 62.6651H100.722V78.8279H118.477V62.6651Z" fill="#006BC0"/>
<path d="M96.1647 62.6651H78.4099V78.8279H96.1647V62.6651Z" fill="#006BC0"/>
</svg>
