<svg width="2em" height="2em" viewBox="0 0 512 505" fill="none" xmlns="http://www.w3.org/2000/svg">
<path d="M512 256C512 338.317 473.14 411.564 412.766 458.397C369.455 492.001 315.068 512 256 512C197.465 512 143.527 492.356 100.404 459.295C39.361 412.515 0 338.85 0 256C0 114.615 114.615 0 256 0C397.385 0 512 114.615 512 256Z" fill="#F2F2F2"/>
<path d="M441.992 119.474L412.766 458.397C369.455 492.001 315.068 512 256 512C197.465 512 143.527 492.356 100.404 459.295L71.105 119.474H441.992Z" fill="#E64C18"/>
<path d="M256.546 151.249V504.167L378.46 469.75L405.655 151.249H256.546Z" fill="#F36518"/>
<path d="M140.903 195.528L152.858 337.091H311.761L306.562 395.568L256.549 409.112L204.46 394.52L203.152 358.061H154.631L160.705 429.941L256.549 457.028L352.392 429.941L364.27 289.295H196.928L192.775 243.456L192.774 243.454L368.226 242.535L372.194 195.528H140.903Z" fill="white"/>
<path d="M151.159 16.7959V41.1169H127.921V16.7959H106.303V86.5129H127.921V63.8149H151.159V86.5129H172.777V16.7959H151.159Z" fill="black"/>
<path d="M249.521 16.7959H183.045V41.1169H204.663V87.0549H227.903V41.1169H249.521V16.7959Z" fill="black"/>
<path d="M373.284 64.8949V17.3369H350.044V64.8949V87.0549H373.284H406.79V64.8949H373.284Z" fill="black"/>
<path d="M314.914 17.3369L298.702 42.1969L282.488 17.3369H259.249V87.0549H282.488V52.4649L298.702 77.3269L314.914 52.4649V87.0549H338.154V17.3369H314.914Z" fill="black"/>
</svg>
