<svg width="2em" height="2em" viewBox="0 0 228 228" fill="none" xmlns="http://www.w3.org/2000/svg">
<path d="M181.812 70.3221L171.189 193.516C155.446 205.731 135.677 213 114.207 213C92.9301 213 73.3244 205.86 57.6498 193.842L47 70.3221H181.812Z" fill="#E64C18"/>
<path d="M114.405 81.8718V210.153L158.719 197.643L168.604 81.8718H114.405Z" fill="#F36518"/>
<path d="M72.3706 97.9666L76.7161 149.423H134.475L132.585 170.678L114.406 175.601L95.4727 170.297L94.9973 157.045H77.3605L79.5684 183.173L114.406 193.018L149.244 183.173L153.561 132.05H92.7349L91.2254 115.388L91.225 115.387L154.999 115.053L156.442 97.9666H72.3706Z" fill="white"/>
<path d="M76.0986 33V41.8404H67.6519V33H59.7941V58.3412H67.6519V50.0908H76.0986V58.3412H83.9565V33H76.0986Z" fill="black"/>
<path d="M111.852 33H87.6886V41.8404H95.5464V58.5382H103.994V41.8404H111.852V33Z" fill="black"/>
<path d="M156.838 50.4834V33.1967H148.391V50.4834V58.5383H156.838H169.017V50.4834H156.838Z" fill="black"/>
<path d="M135.621 33.1967L129.728 42.233L123.835 33.1967H115.388V58.5383H123.835V45.9653L129.728 55.0023L135.621 45.9653V58.5383H144.069V33.1967H135.621Z" fill="black"/>
</svg>
