<svg width="2em" height="2em" viewBox="0 0 339 339" fill="none" xmlns="http://www.w3.org/2000/svg">
<path d="M339 169.5C339 191.583 334.78 212.677 327.093 232.028C322.984 242.378 317.885 252.23 311.907 261.459C304.463 272.971 295.656 283.522 285.721 292.875C279.903 298.362 273.704 303.433 267.159 308.054C239.555 327.55 205.87 339 169.5 339C133.13 339 99.4449 327.55 71.8402 308.054C63.6486 302.271 55.9972 295.788 48.9749 288.676C18.6933 258.062 0 215.957 0 169.5C0 123.043 18.6933 80.9382 48.9749 50.3243C56.4124 42.7974 64.555 35.9684 73.2929 29.936C100.621 11.0552 133.767 0 169.5 0C205.233 0 238.379 11.0552 265.707 29.936C272.383 34.5369 278.707 39.6147 284.636 45.1148C295.02 54.7174 304.194 65.6137 311.908 77.541C317.885 86.7701 322.984 96.6216 327.094 106.972C334.78 126.323 339 147.417 339 169.5Z" fill="#E4BA42"/>
<path d="M258.918 154.252C254.2 140.57 234.856 140.57 231.083 151.893C227.309 163.215 240.047 169.82 259.862 176.426C279.677 183.031 291.944 200.487 289.585 216.056C287.226 231.624 280.62 251.911 241.463 251.911C216.989 251.911 203.388 236.615 196.629 225.143L218.817 211.809C218.817 211.809 226.365 227.85 240.518 227.85C254.672 227.85 260.333 223.133 260.333 212.282C260.333 199.072 214.57 194.354 207.493 171.708C200.416 149.062 209.852 116.981 242.877 119.339C263.518 120.814 275.128 130.949 280.934 138.344L258.918 154.252Z" fill="#F2F2F2"/>
<path d="M156.068 121.699C156.068 121.699 156.068 201.431 156.068 212.282C156.068 223.133 146.633 228.795 137.197 226.907C127.761 225.02 123.515 213.698 123.515 213.698L101.813 228.323C101.813 228.323 106.531 250.025 136.253 251.913C165.976 253.8 182.96 235.872 182.96 220.774C182.96 205.677 182.96 121.699 182.96 121.699H156.068Z" fill="#F2F2F2"/>
<path d="M48.9749 29.936V288.676C55.9972 295.788 63.6485 302.27 71.8401 308.054H267.16C273.705 303.433 279.903 298.362 285.722 292.876H64.1537V45.1149H311.907V261.459C317.885 252.23 322.983 242.378 327.093 232.028V29.936H48.9749Z" fill="#F2F2F2"/>
<path d="M58.1696 251.441C73.0215 251.441 85.0612 239.402 85.0612 224.55C85.0612 209.698 73.0215 197.658 58.1696 197.658C43.3178 197.658 31.2781 209.698 31.2781 224.55C31.2781 239.402 43.3178 251.441 58.1696 251.441Z" fill="#3F4A43"/>
</svg>
