<svg viewBox="0 0 183 272" fill="none" xmlns="http://www.w3.org/2000/svg">
<path opacity="0.1" d="M128.069 152.012L82.259 106.422L128.022 60.8328L114.07 46.9375L54.4011 106.422L114.117 165.907L128.069 152.012Z" fill="black"/>
<path d="M45.1953 27.3248C53.8402 27.3248 60.8482 21.8626 60.8482 15.1246C60.8482 8.38664 53.8402 2.92444 45.1953 2.92444C36.5504 2.92444 29.5424 8.38664 29.5424 15.1246C29.5424 21.8626 36.5504 27.3248 45.1953 27.3248Z" fill="#2F2E41"/>
<path d="M47.8562 99.118C47.8562 99.118 61.9439 100.056 64.4484 98.1795C66.9528 96.3026 77.5968 100.682 78.536 103.185C79.4752 105.687 63.5092 106 61.0047 106C58.5002 106 46.604 109.754 46.604 109.754L47.8562 99.118Z" fill="#FFB8B8"/>
<path d="M18.8473 244.838C18.8473 244.838 12.2818 261.382 15.7073 263.379C19.1328 265.376 55.0998 263.949 55.0998 263.949C55.0998 263.949 61.0943 260.241 54.2435 257.674C54.2435 257.674 48.5344 257.389 44.8235 255.107C41.1126 252.825 36.8308 248.546 36.8308 248.546C36.8308 248.546 36.5454 242.271 34.2618 243.697C33.5785 244.147 32.997 244.735 32.5546 245.422C32.1121 246.11 31.8185 246.883 31.6927 247.691L18.8473 244.838Z" fill="#2F2E41"/>
<path opacity="0.1" d="M18.8473 244.838C18.8473 244.838 12.2818 261.382 15.7073 263.379C19.1328 265.376 55.0998 263.949 55.0998 263.949C55.0998 263.949 61.0943 260.241 54.2435 257.674C54.2435 257.674 48.5344 257.389 44.8235 255.107C41.1126 252.825 36.8308 248.546 36.8308 248.546C36.8308 248.546 36.5454 242.271 34.2618 243.697C33.5785 244.147 32.997 244.735 32.5546 245.422C32.1121 246.11 31.8185 246.883 31.6927 247.691L18.8473 244.838Z" fill="black"/>
<path d="M128.069 143.182L82.259 97.5926L128.022 52.003L114.07 38.1077L54.4011 97.5926L114.117 157.077L128.069 143.182Z" fill="#1A6F7E"/>
<path d="M8.72394 249.899C8.72394 249.899 1.52359 268.043 5.28029 270.233C9.037 272.423 48.4824 270.859 48.4824 270.859C48.4824 270.859 55.0566 266.792 47.5432 263.977C47.5432 263.977 41.282 263.664 37.2123 261.161C33.1425 258.659 28.4466 253.966 28.4466 253.966C28.4466 253.966 28.1336 247.084 25.6291 248.648C24.8798 249.141 24.2421 249.786 23.7568 250.54C23.2716 251.294 22.9496 252.142 22.8116 253.028L8.72394 249.899Z" fill="#2F2E41"/>
<path d="M45.665 134.78L41.2822 174.196C41.2822 174.196 39.7169 192.965 35.021 197.032C35.021 197.032 35.021 202.976 33.4557 204.853L31.2643 229.566C31.2643 229.566 34.3948 238.638 34.0818 240.202C33.7687 241.766 35.334 246.771 35.021 247.397C34.7079 248.022 19.9941 247.397 19.9941 247.397L23.1247 197.032L32.8296 126.959L45.665 134.78Z" fill="#2F2E41"/>
<path opacity="0.1" d="M45.665 134.78L41.2822 174.196C41.2822 174.196 39.7169 192.965 35.021 197.032C35.021 197.032 35.021 202.976 33.4557 204.853L31.2643 229.566C31.2643 229.566 34.3948 238.638 34.0818 240.202C33.7687 241.766 35.334 246.771 35.021 247.397C34.7079 248.022 19.9941 247.397 19.9941 247.397L23.1247 197.032L32.8296 126.959L45.665 134.78Z" fill="black"/>
<path d="M37.8385 133.529C37.8385 133.529 34.3948 165.75 32.8295 172.632C31.8454 177.164 31.2173 181.766 30.9512 186.396C30.9512 186.396 30.6381 196.406 27.8206 199.222C26.9962 200.037 26.3485 201.014 25.9177 202.09C25.4868 203.166 25.2821 204.32 25.3161 205.478C25.3161 205.478 22.4986 237.074 24.0639 240.828C25.6292 244.581 27.1945 247.71 25.6292 250.212C24.0639 252.715 6.84565 252.715 6.84565 250.838C6.84565 248.961 6.84564 247.397 5.90647 246.458C4.96729 245.52 5.90647 239.576 5.90647 239.576C5.90647 239.576 2.14977 211.735 5.59341 203.601C9.03706 195.468 10.6023 173.257 10.6023 173.257C10.6023 173.257 8.09788 147.919 4.96729 143.852C1.83671 139.785 5.59341 125.395 5.59341 125.395L37.8385 133.529Z" fill="#2F2E41"/>
<path d="M29.0247 33.4688C29.3886 34.2973 30.2597 34.7585 31.0528 35.1951C35.6491 37.7254 39.4965 41.3939 43.287 45.0202C42.3412 41.8173 42.5427 38.3851 43.8569 35.3147C44.3095 34.2674 44.9026 33.1417 44.5792 32.0478C44.3413 31.2433 43.6557 30.663 42.9917 30.1498C41.445 28.9545 39.8283 27.8524 38.1504 26.8493C36.9782 26.1486 34.5683 24.2831 33.2231 24.486C33.1525 26.3021 33.1157 27.9258 32.3198 29.6232C32.131 30.0258 29.1638 33.7855 29.0247 33.4688Z" fill="#FFB8B8"/>
<path d="M45.0388 37.4915C52.1276 37.4915 57.8742 31.7492 57.8742 24.6657C57.8742 17.5822 52.1276 11.8398 45.0388 11.8398C37.95 11.8398 32.2034 17.5822 32.2034 24.6657C32.2034 31.7492 37.95 37.4915 45.0388 37.4915Z" fill="#FFB8B8"/>
<path d="M45.6649 55.0097C45.6649 55.0097 47.8563 44.0609 41.5951 40.307C35.3339 36.5531 28.1336 32.1735 28.1336 32.1735C28.1336 32.1735 25.9422 31.8607 25.003 36.5531C25.003 36.5531 7.15866 39.9941 5.28031 56.8867C3.40196 73.7792 6.53255 98.4924 6.53255 98.4924C6.53255 98.4924 3.71501 120.077 0.271367 131.652C0.271367 131.652 -2.54616 134.154 9.97619 130.4C22.4985 126.647 44.4126 141.036 44.4126 141.036C44.4126 141.036 46.6041 138.847 46.6041 137.283C46.6041 135.718 49.1085 126.647 49.1085 126.647C49.1085 126.647 51.3 88.1691 52.2391 83.7896C53.1783 79.41 48.4824 55.6354 45.6649 55.0097Z" fill="#00859E"/>
<path d="M42.0138 25.987C42.7849 25.5599 43.6496 25.3298 44.5311 25.3171C45.4136 25.3039 46.2754 25.0473 47.0212 24.5756C48.2337 23.6455 48.3226 21.848 49.2096 20.6041C50.4938 18.8031 53.0555 18.5863 55.2667 18.6764C56.6191 18.7315 58.0756 18.8123 59.2144 18.0813C60.3836 17.3309 60.9135 15.9171 61.3077 14.5857C61.7739 13.0112 62.0755 11.0856 60.9202 9.91791C60.118 9.10701 58.8518 8.94663 57.9607 8.23448C57.0367 7.49607 56.6564 6.29436 56.1542 5.22391C55.5827 3.91968 54.6786 2.78816 53.5324 1.9424C51.8513 0.775241 49.7042 0.513515 47.6572 0.535389C45.6103 0.557264 43.5548 0.826209 41.5232 0.575206C39.8587 0.369556 38.1992 -0.183694 36.54 0.061523C34.4259 0.374 32.6769 1.96778 31.6352 3.83244C30.5935 5.69709 30.1465 7.82548 29.713 9.91663L28.5342 15.604C28.1686 17.368 27.8015 19.1789 28.0837 20.9581C28.6688 24.6464 31.9331 27.5781 32.158 31.3057C32.3724 30.2764 32.8391 29.3164 33.5164 28.5117C34.1936 27.7071 35.0601 27.083 36.0381 26.6954C36.2834 26.5755 36.5619 26.5418 36.8287 26.5995C37.153 26.7031 37.3425 27.0269 37.5472 27.2988C38.0835 28.0112 39.7681 29.092 40.723 28.5866C41.5774 28.1345 40.9395 26.715 42.0138 25.987Z" fill="#2F2E41"/>
<path d="M9.66321 84.4152C9.66321 84.4152 7.47178 98.1795 16.5505 96.9282C16.5505 96.9282 21.2464 96.3025 21.8725 96.9282C22.4986 97.5539 45.665 93.4871 48.7955 90.0461C48.7955 90.0461 52.5522 88.7948 54.4306 90.6717C56.3089 92.5487 75.0925 94.4256 69.4574 88.7948C63.8224 83.1639 55.0567 81.9126 55.0567 81.9126L43.1605 82.5383C43.1605 82.5383 36.8993 84.4152 33.1426 82.5383C29.3859 80.6613 18.7419 81.287 18.7419 81.287L9.66321 84.4152Z" fill="#FFB8B8"/>
<path d="M22.4985 40.9325C22.4985 40.9325 8.41089 42.4966 8.41089 62.8302V88.7947C8.41089 88.7947 16.2374 85.3536 17.8026 85.6664C19.3679 85.9793 25.6291 81.5997 25.6291 81.5997C25.6291 81.5997 32.8295 64.7072 32.2033 60.0148C31.5772 55.3224 31.8903 41.5581 22.4985 40.9325Z" fill="#00859E"/>
<path d="M45.0388 22.9451C51.6954 22.9451 57.0916 20.144 57.0916 16.6886C57.0916 13.2333 51.6954 10.4321 45.0388 10.4321C38.3823 10.4321 32.9861 13.2333 32.9861 16.6886C32.9861 20.144 38.3823 22.9451 45.0388 22.9451Z" fill="#2F2E41"/>
<path d="M33.7686 28.2632C36.1028 28.2632 37.9949 23.5713 37.9949 17.7836C37.9949 11.9958 36.1028 7.30396 33.7686 7.30396C31.4345 7.30396 29.5424 11.9958 29.5424 17.7836C29.5424 23.5713 31.4345 28.2632 33.7686 28.2632Z" fill="#2F2E41"/>
<rect x="128.294" y="87.6776" width="20" height="20" fill="#1A6F7E"/>
<rect x="162.294" y="87.6776" width="20" height="20" fill="#1A6F7E"/>
</svg>
