<svg viewBox="0 0 183 272" fill="none" xmlns="http://www.w3.org/2000/svg">
<path opacity="0.1" d="M50.3649 143.183L95.3545 94.6013L50.3649 46.0194L64.0812 31.212L122.787 94.6013L64.0812 157.991L50.3649 143.183Z" fill="black"/>
<path d="M117.087 81.5068C117.087 81.5068 103.01 69.9303 101.942 74.1738C100.873 78.4174 112.27 88.0618 112.27 88.0618L117.087 81.5068Z" fill="#FFB9B9"/>
<path opacity="0.1" d="M117.087 81.5068C117.087 81.5068 103.01 69.9303 101.942 74.1738C100.873 78.4174 112.27 88.0618 112.27 88.0618L117.087 81.5068Z" fill="black"/>
<path d="M163.558 44.8547C163.558 44.8547 146.818 77.26 146.462 81.8894C146.106 86.5187 146.106 86.9045 144.681 86.5187C143.256 86.1329 123.668 83.8183 121.887 84.5898C120.106 85.3614 116.544 79.9605 116.544 79.9605C116.544 79.9605 109.777 87.2903 111.202 88.8334C112.626 90.3765 116.9 91.148 117.613 93.0769C118.325 95.0058 119.394 96.9347 122.599 96.5489C125.805 96.1631 147.53 102.721 150.38 101.564C153.229 100.407 153.941 98.4778 155.366 98.4778C156.791 98.4778 159.64 96.9347 159.64 96.5489C159.64 96.1631 169.613 75.7169 169.613 75.7169C169.613 75.7169 181.366 47.9409 163.558 44.8547Z" fill="#00859E"/>
<path d="M139.271 23.4914C139.12 25.54 139.15 27.5997 139.363 29.6421C139.904 34.0743 141.787 38.6944 140.008 42.8316C139.362 44.3333 138.268 45.6418 137.672 47.1615C136.41 50.3787 137.554 53.947 137.383 57.3711C137.161 61.7943 134.564 66.0564 130.613 68.4803C137.363 68.7074 143.782 65.0926 148.029 60.1666C152.277 55.2407 154.642 49.1308 156.415 43.0178C157.326 40.1471 157.911 37.1665 158.155 34.1422C158.296 32.4049 158.108 30.6546 157.602 28.9989C156.978 27.3813 156.157 25.8617 155.16 24.4808C154.096 22.8612 153.004 21.2097 151.435 20.0047C149.502 18.5204 145.775 17.0302 143.211 17.2462C140.067 17.5111 139.404 21.1272 139.271 23.4914Z" fill="#2F2E41"/>
<path d="M149.667 35.596C149.667 35.596 153.585 50.6414 150.38 54.8849C147.174 59.1285 169.613 52.956 169.613 52.956C169.613 52.956 158.572 40.9969 163.914 33.2814L149.667 35.596Z" fill="#FFB9B9"/>
<path opacity="0.1" d="M149.667 35.596C149.667 35.596 153.585 50.6414 150.38 54.8849C147.174 59.1285 169.613 52.956 169.613 52.956C169.613 52.956 158.572 40.9969 163.914 33.2814L149.667 35.596Z" fill="black"/>
<path d="M50.3649 133.774L95.3545 85.1919L50.3649 36.61L64.0812 21.8027L122.787 85.1919L64.0812 148.581L50.3649 133.774Z" fill="#1A6F7E"/>
<path d="M136.845 236.2V247.388L142.188 254.332L146.818 252.017L145.393 235.815L136.845 236.2Z" fill="#FFB9B9"/>
<path d="M138.983 246.616C138.983 246.616 137.558 241.216 135.065 245.073C132.572 248.931 130.078 257.418 128.654 257.804C127.229 258.19 117.257 270.149 127.229 270.149C137.202 270.149 140.407 265.134 140.407 265.134C140.407 265.134 150.38 260.89 150.38 260.119C150.38 259.347 148.955 245.073 148.243 245.073C147.53 245.073 147.174 247.774 145.393 247.774C143.613 247.774 138.983 246.616 138.983 246.616Z" fill="#2F2E41"/>
<path d="M160.709 238.129L160.353 248.546L168.9 252.403V237.358L160.709 238.129Z" fill="#FFB9B9"/>
<path d="M169.969 248.545C169.969 248.545 165.339 243.144 162.846 244.302C161.612 244.839 160.421 245.484 159.284 246.231C159.284 246.231 157.859 251.246 157.147 255.489C156.435 259.733 156.078 261.662 155.366 263.205C154.654 264.748 153.941 270.535 161.065 271.306C168.188 272.078 170.325 267.834 170.325 267.834L172.106 257.804C172.106 257.804 171.393 248.545 169.969 248.545Z" fill="#2F2E41"/>
<path d="M141.476 127.025C141.476 127.025 131.147 152.101 132.572 174.862C132.572 174.862 129.01 183.735 131.147 197.623C133.284 211.511 136.133 239.287 136.133 239.287C136.133 239.287 145.75 240.444 146.462 238.515C146.462 238.515 147.174 219.226 147.887 218.455C148.599 217.683 147.531 199.937 146.462 196.465C145.394 192.993 156.435 158.659 156.435 158.659L153.585 115.838L141.476 127.025Z" fill="#2F2E41"/>
<path opacity="0.1" d="M141.476 127.025C141.476 127.025 131.147 152.101 132.572 174.862C132.572 174.862 129.01 183.735 131.147 197.623C133.284 211.511 136.133 239.287 136.133 239.287C136.133 239.287 145.75 240.444 146.462 238.515C146.462 238.515 147.174 219.226 147.887 218.455C148.599 217.683 147.531 199.937 146.462 196.465C145.394 192.993 156.435 158.659 156.435 158.659L153.585 115.838L141.476 127.025Z" fill="black"/>
<path d="M138.626 125.482L145.394 141.299C145.394 141.299 148.599 177.176 150.38 181.806C150.38 181.806 151.092 194.922 154.298 199.166C157.503 203.409 159.996 240.83 159.996 240.83C159.996 240.83 168.9 243.53 169.613 240.83C170.325 238.129 172.462 219.612 172.462 219.612C172.462 219.612 173.174 203.795 169.256 193.379C165.339 182.963 173.887 145.543 173.887 145.543C173.887 145.543 182.791 127.411 169.969 112.752L138.626 125.482Z" fill="#2F2E41"/>
<path d="M157.503 40.2254C165.568 40.2254 172.106 33.1439 172.106 24.4085C172.106 15.673 165.568 8.59158 157.503 8.59158C149.438 8.59158 142.9 15.673 142.9 24.4085C142.9 33.1439 149.438 40.2254 157.503 40.2254Z" fill="#FFB9B9"/>
<path d="M171.037 48.3267C171.037 48.3267 155.722 48.3267 153.585 50.2556C153.057 50.8002 152.356 51.1039 151.626 51.1039C150.897 51.1039 150.196 50.8002 149.667 50.2556C149.667 50.2556 144.325 50.6414 142.9 55.2707C141.476 59.9 137.202 66.0725 137.202 66.0725C137.202 66.0725 130.791 71.0876 134.352 84.2041C137.914 97.3205 135.065 118.538 135.065 118.538C135.065 118.538 132.215 123.168 135.065 125.096C137.914 127.025 138.983 127.797 138.626 129.34C138.27 130.883 171.037 116.609 171.037 113.909C171.037 111.208 170.325 108.894 171.037 107.736C171.75 106.579 172.462 104.65 171.75 102.721C171.037 100.792 172.462 100.407 172.106 98.4778C171.75 96.5489 173.887 82.2751 175.311 76.1027C176.736 69.9302 176.38 48.7125 171.037 48.3267Z" fill="#00859E"/>
<path d="M117.087 86.1361C117.087 86.1361 103.01 74.5595 101.942 78.8031C100.873 83.0466 112.27 92.6911 112.27 92.6911L117.087 86.1361Z" fill="#FFB9B9"/>
<path d="M163.558 50.2556C163.558 50.2556 146.818 82.6609 146.462 87.2902C146.106 91.9196 146.106 92.3053 144.681 91.9196C143.256 91.5338 123.668 89.2191 121.887 89.9907C120.106 90.7622 116.544 85.3613 116.544 85.3613C116.544 85.3613 109.777 92.6911 111.202 94.2342C112.626 95.7774 116.9 96.5489 117.613 98.4778C118.325 100.407 119.394 102.336 122.599 101.95C125.805 101.564 147.53 108.122 150.38 106.965C153.229 105.808 153.941 103.879 155.366 103.879C156.791 103.879 159.64 102.336 159.64 101.95C159.64 101.564 169.613 81.1178 169.613 81.1178C169.613 81.1178 181.366 53.3418 163.558 50.2556Z" fill="#00859E"/>
<path d="M150.272 34.5137C150.069 32.9472 149.329 31.5261 148.949 29.9988C148.651 28.7765 148.585 27.5016 148.755 26.2509C148.924 25.0002 149.325 23.7996 149.934 22.7211C152.029 19.0568 156.141 17.4339 159.009 14.4465C159.068 15.9682 160.043 17.2686 161.12 18.2473C162.198 19.2259 163.434 20.0197 164.346 21.1787C165.222 22.4015 165.862 23.8036 166.225 25.3008C166.787 27.0355 167.039 28.8703 166.967 30.7072C166.926 31.625 166.713 32.5242 166.341 33.3502C165.969 34.1761 165.446 34.9116 164.804 35.5119C163.736 36.4263 162.243 36.9485 161.727 38.3132C161.524 38.9952 161.465 39.7179 161.555 40.4278C161.8 44.6721 162.029 48.992 161.106 53.1255C160.183 57.2589 157.922 61.2524 154.379 63.0848C157.291 63.3085 160.264 63.5266 163.089 62.7306C165.914 61.9345 168.615 59.9299 169.589 56.9495C170.07 55.4793 170.115 53.844 170.798 52.4708C172.525 48.9951 177.296 48.8366 179.64 45.8136C180.578 44.6038 181.032 43.0449 181.368 41.5077C183.347 32.4626 181.956 22.858 178.944 14.1539C177.906 11.1538 176.613 8.13308 174.386 6.0245C172.491 4.2302 170.07 3.24159 167.677 2.39729C164.184 1.16512 160.586 0.155607 156.914 0.0254654C155.319 -0.0759893 153.72 0.126216 152.19 0.622912C150.679 1.21413 149.273 2.0817 148.033 3.18786C142.281 8.03516 138.365 15.7823 138.885 23.6556C139.199 28.4195 141.063 32.928 143.457 36.9389C144.294 38.3417 146.273 41.3329 148.112 40.4509C149.779 39.6509 150.491 36.2056 150.272 34.5137Z" fill="#2F2E41"/>
<rect y="78.2775" width="18.701" height="20.2576" fill="#1A6F7E"/>
<rect x="31.7916" y="78.2775" width="18.701" height="20.2576" fill="#1A6F7E"/>
</svg>
