<svg width="2em" height="2em" viewBox="0 0 255 255" fill="none" xmlns="http://www.w3.org/2000/svg">
<path d="M121.123 137.739V104.59L92.4141 88.0153L63.7062 104.59V137.739L92.4141 154.314L121.123 137.739Z" fill="#3B8739"/>
<path d="M234.184 132.709L252.892 143.513L234.184 154.316L205.478 137.741V104.591L234.184 88.0164L251.581 98.0654C253.324 105.419 254.422 113.017 254.823 120.797L244.186 126.938V115.39L234.184 109.619L224.181 115.39V126.938L234.184 132.709Z" fill="#333333"/>
<path d="M239.756 124.382V117.947L234.183 114.73L228.61 117.947V124.382L234.183 127.6L239.756 124.382Z" fill="#66A060"/>
<path d="M50.1463 104.592V148.306L31.0004 137.383V114.974L21.4409 109.452L11.8809 114.974V137.382L1.00954 143.586C0.343652 138.319 0 132.949 0 127.5C0 117.519 1.14501 107.803 3.315 98.4818L21.4409 88.0164L50.1463 104.592Z" fill="#333333"/>
<path d="M121.12 137.735L92.4119 88.0136L63.7053 104.588L92.4129 154.31L121.12 137.735Z" fill="#6DA75D"/>
<path d="M63.7062 137.739L73.5635 121.664L63.7062 104.59V137.739Z" fill="#55A344"/>
<path d="M111.552 121.163L121.122 104.59L92.4141 88.0153L111.552 121.163Z" fill="#639D57"/>
<path d="M172.599 49.595V93.5745L162.976 88.0163L134.266 104.591V137.741L162.976 154.316L191.682 137.741V59.8104L172.599 49.595ZM172.546 126.688L162.976 132.215L153.405 126.688V115.64L162.976 110.113L172.546 115.64V126.688Z" fill="#333333"/>
<path d="M140.523 178.658C140.523 178.658 139.96 173.812 134.776 173.812C129.593 173.812 126.044 174.488 126.044 177.362C126.044 180.236 136.129 180.236 139.961 181.362C143.792 182.489 147.172 185.419 145.482 190.603C143.792 195.786 138.608 196.349 130.607 196.349C122.607 196.349 120.803 189.701 120.803 187.109H125.311C125.311 187.109 124.747 191.166 130.043 191.842C135.339 192.518 140.403 192.898 141.086 188.8C141.988 183.39 123.958 186.095 122.38 180.799C121.047 176.324 121.816 170.432 130.831 169.53C139.847 168.628 144.805 172.609 144.805 178.545L140.523 178.658Z" fill="#66A060"/>
<path d="M96.9812 199.782L106.946 205.535C111.953 208.426 118.211 204.812 118.211 199.031V188.95V170.396H114.15V197.901C114.15 201.059 110.732 203.032 107.998 201.453L101.042 197.438V168.083L126.464 153.407L151.886 168.083V197.438L126.464 212.114L119.141 207.886L114.359 209.814L126.464 216.803L155.947 199.781V165.739L126.464 148.717L96.9807 165.74V199.782H96.9812Z" fill="#66A060"/>
</svg>
