<svg width="100" height="100" viewBox="0 0 100 100" fill="none" xmlns="http://www.w3.org/2000/svg">
<g opacity="0.5">
<path opacity="0.5" d="M50 100C77.6142 100 100 77.6142 100 50C100 22.3858 77.6142 0 50 0C22.3858 0 0 22.3858 0 50C0 77.6142 22.3858 100 50 100Z" fill="url(#paint0_linear)"/>
</g>
<path d="M50.5 99C77.8381 99 100 77.062 100 50C100 22.938 77.8381 1 50.5 1C23.1619 1 1 22.938 1 50C1 77.062 23.1619 99 50.5 99Z" fill="#E7F8F8"/>
<path d="M50.1433 98.8195C59.7073 98.835 69.0642 96.0348 77.0473 90.7679C75.2436 80.9111 68.3797 80.3495 68.3797 80.3495H30.5287C30.5287 80.3495 24.0516 80.8811 22.0287 89.9484C30.2592 95.7379 40.0805 98.8368 50.1433 98.8195Z" fill="#00859E"/>
<path d="M49.6232 72.2736C62.6707 72.2736 73.2478 61.6965 73.2478 48.649C73.2478 35.6015 62.6707 25.0244 49.6232 25.0244C36.5756 25.0244 25.9985 35.6015 25.9985 48.649C25.9985 61.6965 36.5756 72.2736 49.6232 72.2736Z" fill="#333333"/>
<path opacity="0.1" d="M41.9985 68.3267H57.1361V80.437C57.1361 82.4438 56.339 84.3686 54.9202 85.7879C53.5014 87.2072 51.577 88.005 49.5702 88.0058V88.0058C47.5628 88.0058 45.6377 87.2083 44.2182 85.7889C42.7988 84.3695 42.0014 82.4443 42.0014 80.437V68.3267H41.9985Z" fill="black"/>
<path d="M42.4785 67.7651H56.6619C56.7892 67.7651 56.9113 67.8156 57.0013 67.9056C57.0913 67.9957 57.1419 68.1177 57.1419 68.245V79.8754C57.1421 80.8697 56.9463 81.8543 56.5659 82.7729C56.1854 83.6916 55.6277 84.5262 54.9245 85.2292C54.2214 85.9323 53.3866 86.4898 52.4679 86.8701C51.5492 87.2504 50.5645 87.446 49.5702 87.4456V87.4456C47.5629 87.4456 45.6377 86.6482 44.2183 85.2287C42.7989 83.8093 42.0015 81.8842 42.0015 79.8768V68.245C42.0015 68.1182 42.0516 67.9966 42.141 67.9067C42.2304 67.8167 42.3517 67.7658 42.4785 67.7651V67.7651Z" fill="#FDB797"/>
<path opacity="0.1" d="M42.0258 74.043C46.9044 75.8657 52.2747 75.8804 57.1633 74.0845V72.222H42.0258V74.043Z" fill="black"/>
<path d="M49.6232 75.0559C61.6066 75.0559 71.321 65.3415 71.321 53.3582C71.321 41.3749 61.6066 31.6605 49.6232 31.6605C37.6399 31.6605 27.9255 41.3749 27.9255 53.3582C27.9255 65.3415 37.6399 75.0559 49.6232 75.0559Z" fill="#FDB797"/>
<path opacity="0.1" d="M34.1676 33.6218C34.1676 33.6218 43.3123 52.1834 69.1074 41.404L63.1017 31.9871L52.4556 28.1662L34.1676 33.6218Z" fill="black"/>
<path d="M34.1676 33.3496C34.1676 33.3496 43.3123 51.9112 69.1074 41.1289L63.1017 31.712L52.4556 27.8911L34.1676 33.3496Z" fill="#333333"/>
<path d="M34.0874 32.0917C34.7039 30.183 35.7696 28.4501 37.1948 27.0387C41.4627 22.8195 48.4599 21.9298 52.0487 17.1189C52.9083 18.4541 52.2435 20.5071 50.7593 21.0802C54.1977 21.0573 58.1819 20.7564 60.126 17.9284C60.6065 19.0469 60.7597 20.2788 60.5677 21.4809C60.3757 22.683 59.8465 23.8059 59.0415 24.7192C62.0888 24.8624 65.3453 26.9255 65.5372 29.9699C65.669 31.9985 64.3911 33.9183 62.7306 35.0816C61.0702 36.245 59.0473 36.7793 57.063 37.2163C51.2693 38.4957 30.3066 43.8495 34.0874 32.0917Z" fill="#333333"/>
<path d="M27.9169 57.1232C29.0318 57.1232 29.9356 55.4285 29.9356 53.3381C29.9356 51.2476 29.0318 49.553 27.9169 49.553C26.8021 49.553 25.8983 51.2476 25.8983 53.3381C25.8983 55.4285 26.8021 57.1232 27.9169 57.1232Z" fill="#FDB797"/>
<path d="M71.3181 57.1232C72.4329 57.1232 73.3367 55.4285 73.3367 53.3381C73.3367 51.2476 72.4329 49.553 71.3181 49.553C70.2032 49.553 69.2994 51.2476 69.2994 53.3381C69.2994 55.4285 70.2032 57.1232 71.3181 57.1232Z" fill="#FDB797"/>
<defs>
<linearGradient id="paint0_linear" x1="50" y1="100" x2="50" y2="0" gradientUnits="userSpaceOnUse">
<stop stop-color="#808080" stop-opacity="0.25"/>
<stop offset="0.54" stop-color="#808080" stop-opacity="0.12"/>
<stop offset="1" stop-color="#808080" stop-opacity="0.1"/>
</linearGradient>
</defs>
</svg>
