<svg width="auto" height="auto" viewBox="0 0 764 724" fill="none" xmlns="http://www.w3.org/2000/svg">
<path d="M432.846 3.38603e-05L764 -6.05549e-05L764 721L279.514 718.507L6.06817e-05 721L432.846 3.38603e-05Z" fill="url(#paint0_linear)"/>
<path d="M29 0.5L221.5 352.5L432 0.5H29Z" fill="#E4F8F8" stroke="#ECFAF9"/>
<path d="M487.725 576.001C633.288 576.001 751.29 556.776 751.29 533.06C751.29 509.344 633.288 490.118 487.725 490.118C342.162 490.118 224.16 509.344 224.16 533.06C224.16 556.776 342.162 576.001 487.725 576.001Z" fill="#025E58" fill-opacity="0.18"/>
<g clip-path="url(#clip0)">
<path d="M561.822 426.431V509.869L576.015 532.614L577.095 534.345H633.1L634.231 426.431H561.822Z" fill="#E6E6E6"/>
<path opacity="0.1" d="M561.822 426.431V509.869L576.015 532.614L576.886 426.431H561.822Z" fill="black"/>
<path d="M426.619 424.206V507.644L412.425 530.39L411.345 532.119H355.341L354.209 424.206H426.619Z" fill="#E6E6E6"/>
<path opacity="0.1" d="M426.619 424.206V507.644L412.425 530.39L411.554 424.206H426.619Z" fill="black"/>
<path d="M651.202 422.537V427.543H346.855V420.312L375.14 405.849H626.312L651.202 422.537Z" fill="#E6E6E6"/>
<path opacity="0.1" d="M651.202 422.537V427.543H346.855V420.312L651.202 422.537Z" fill="black"/>
<path d="M390.414 447.568H376.837L371.18 443.675H396.637L390.414 447.568Z" fill="#3F3D56"/>
<path d="M390.414 463.7H376.837L371.18 459.806H396.637L390.414 463.7Z" fill="#3F3D56"/>
<path d="M390.414 486.507H376.837L371.18 482.612H396.637L390.414 486.507Z" fill="#3F3D56"/>
<path d="M390.414 509.313H376.837L371.18 505.419H396.637L390.414 509.313Z" fill="#3F3D56"/>
<path d="M598.026 449.793H611.603L617.26 445.899H591.803L598.026 449.793Z" fill="#3F3D56"/>
<path d="M598.026 465.925H611.603L617.26 462.031H591.803L598.026 465.925Z" fill="#3F3D56"/>
<path d="M598.026 488.732H611.603L617.26 484.838H591.803L598.026 488.732Z" fill="#3F3D56"/>
<path d="M598.026 511.538H611.603L617.26 507.644H591.803L598.026 511.538Z" fill="#3F3D56"/>
<path d="M607.272 309.361H492.974C492.406 309.361 491.844 309.471 491.32 309.684C490.795 309.898 490.318 310.211 489.917 310.606C489.516 311 489.197 311.469 488.98 311.985C488.763 312.5 488.651 313.053 488.651 313.611V389.32C488.651 389.878 488.763 390.431 488.98 390.947C489.197 391.463 489.516 391.931 489.917 392.326C490.318 392.721 490.795 393.034 491.32 393.247C491.844 393.461 492.406 393.571 492.974 393.571H536.362L534.737 403.776C534.737 403.776 525.447 408.628 531.979 408.771C538.511 408.914 569.283 408.771 569.283 408.771C569.283 408.771 575.234 408.771 565.799 403.633L564.27 393.571H607.272C607.84 393.571 608.402 393.461 608.926 393.247C609.451 393.034 609.927 392.721 610.329 392.326C610.73 391.931 611.048 391.463 611.266 390.947C611.483 390.431 611.595 389.878 611.595 389.32V313.611C611.595 313.053 611.483 312.5 611.266 311.985C611.048 311.469 610.73 311 610.329 310.606C609.927 310.211 609.451 309.898 608.926 309.684C608.402 309.471 607.84 309.361 607.272 309.361Z" fill="#3F3D56"/>
<path d="M607.214 314.713H492.544V377.799H607.214V314.713Z" fill="#F2F2F2"/>
<path d="M550.123 312.572C550.523 312.572 550.848 312.253 550.848 311.859C550.848 311.465 550.523 311.145 550.123 311.145C549.722 311.145 549.397 311.465 549.397 311.859C549.397 312.253 549.722 312.572 550.123 312.572Z" fill="#F2F2F2"/>
<path d="M550.123 390.502C551.646 390.502 552.881 389.288 552.881 387.79C552.881 386.292 551.646 385.078 550.123 385.078C548.6 385.078 547.365 386.292 547.365 387.79C547.365 389.288 548.6 390.502 550.123 390.502Z" fill="#F2F2F2"/>
<path d="M545.825 416.478V417.906H467.734V416.764L467.841 416.478L469.766 411.34H544.229L545.825 416.478Z" fill="#3F3D56"/>
<path d="M575.877 415.081C575.735 415.679 575.198 416.31 573.985 416.907C569.63 419.048 560.776 416.336 560.776 416.336C560.776 416.336 553.954 415.194 553.954 412.197C554.145 412.068 554.345 411.951 554.552 411.847C556.382 410.895 562.453 408.544 573.216 411.946C574.009 412.191 574.717 412.648 575.262 413.265C575.503 413.498 575.685 413.784 575.792 414.1C575.899 414.416 575.928 414.752 575.877 415.081Z" fill="#3F3D56"/>
<path opacity="0.1" d="M575.877 415.081C570.547 417.089 565.796 417.239 560.921 413.909C559.077 412.569 556.844 411.846 554.552 411.847C556.382 410.895 562.453 408.544 573.216 411.946C574.009 412.191 574.717 412.648 575.262 413.265C575.503 413.498 575.685 413.784 575.792 414.1C575.899 414.416 575.928 414.752 575.877 415.081Z" fill="black"/>
<path d="M569.195 413.909C570.237 413.909 571.081 413.654 571.081 413.338C571.081 413.023 570.237 412.768 569.195 412.768C568.152 412.768 567.308 413.023 567.308 413.338C567.308 413.654 568.152 413.909 569.195 413.909Z" fill="#F2F2F2"/>
<path opacity="0.1" d="M545.825 416.478V417.906H467.734V416.764L467.841 416.478H545.825Z" fill="black"/>
<path d="M368.41 255.032C367.617 254.968 366.823 255.142 366.134 255.532C365.457 255.988 365.03 256.786 364.595 257.529C362.929 260.405 360.675 262.909 357.974 264.883C356.007 266.3 353.505 268.067 353.842 270.68C354.02 271.543 354.344 272.37 354.801 273.127C356.616 276.73 361.568 279.514 361.081 283.624C362.884 280.656 360.472 279.188 362.276 276.22C363.134 274.807 364.626 273.211 365.922 274.099C366.356 274.396 366.641 274.929 367.093 275.19C368.172 275.812 369.319 274.622 370.274 273.78C373.566 270.874 378.247 271.635 382.344 272.541C384.278 272.968 386.402 273.529 387.545 275.346C389.048 277.736 386.117 280.317 385.376 283.019C385.316 283.249 385.313 283.49 385.368 283.721C385.423 283.953 385.534 284.168 385.692 284.348C385.85 284.528 386.05 284.668 386.275 284.755C386.5 284.843 386.743 284.876 386.983 284.851C388.212 284.731 389.668 284.634 389.741 284.103C391.288 284.157 393.183 283.985 393.845 282.402C394.048 281.775 394.155 281.123 394.163 280.465C394.406 277.806 395.554 275.379 396.315 272.848C397.075 270.316 397.406 267.349 396.122 265.105C395.664 264.358 395.098 263.681 394.441 263.095C387.157 256.164 377.581 255.021 368.41 255.032Z" fill="#2F2E41"/>
<path d="M362.665 288.816C362.665 288.816 364.249 301.796 358.441 302.834C352.633 303.873 363.721 321.525 363.721 321.525L390.121 324.641L383.785 303.873C383.785 303.873 379.561 302.315 382.201 291.931C384.841 281.547 362.665 288.816 362.665 288.816Z" fill="#FFB8B8"/>
<path d="M346.561 511.811L348.673 540.367H359.761L356.593 511.811H346.561Z" fill="#FFB8B8"/>
<path d="M427.874 457.814L429.458 481.697L441.603 476.505L436.85 456.776L427.874 457.814Z" fill="#FFB8B8"/>
<path d="M338.64 402.78C338.64 402.78 339.168 432.893 342.336 442.758C345.504 452.622 344.976 453.142 344.448 454.699C343.92 456.257 343.392 455.218 343.392 457.814C343.392 460.41 342.336 501.427 343.392 505.061C344.448 508.696 340.224 514.926 343.392 515.445C346.56 515.964 361.345 515.445 361.873 512.33C362.401 509.215 357.649 508.176 359.761 506.1C361.873 504.023 365.041 461.449 365.041 461.449L372.433 431.855L386.161 416.279H415.202L424.178 450.546C424.178 450.546 420.482 460.41 423.122 460.41C425.762 460.41 441.603 463.526 441.603 452.103C441.603 440.681 436.322 406.933 435.266 405.895C434.21 404.856 435.794 401.222 434.21 399.664C432.626 398.107 414.146 387.204 407.282 385.127C400.418 383.05 390.788 380.578 390.788 380.578L338.64 402.78Z" fill="#090909"/>
<path d="M441.603 472.352C441.603 472.352 433.682 469.756 429.986 477.544C426.29 485.332 427.874 487.409 427.874 487.409C427.874 487.409 440.019 491.562 442.131 489.485C443.05 488.582 445.967 488.268 448.971 488.202C453.545 488.101 454.762 481.737 450.442 480.255C450.313 480.211 450.183 480.172 450.051 480.14C445.827 479.101 441.603 472.352 441.603 472.352Z" fill="#2F2E41"/>
<path d="M374.545 297.383C383.294 297.383 390.386 290.409 390.386 281.807C390.386 273.205 383.294 266.231 374.545 266.231C365.797 266.231 358.705 273.205 358.705 281.807C358.705 290.409 365.797 297.383 374.545 297.383Z" fill="#FFB8B8"/>
<path d="M353.953 309.324C353.953 309.324 379.825 314.516 386.161 306.209C392.498 297.902 395.138 329.573 395.138 329.573L398.306 362.801L393.554 380.973C393.554 380.973 368.737 400.703 360.817 402.26C352.897 403.818 340.753 404.856 340.753 404.856C340.753 404.856 344.449 347.226 344.449 346.187C344.449 345.149 353.953 309.324 353.953 309.324Z" fill="#FBFFFB"/>
<path d="M361.821 299.587C361.821 299.587 356.065 296.344 354.481 299.46C352.897 302.575 338.112 310.363 336.528 310.363C334.944 310.363 339.696 353.456 337.584 358.648C335.472 363.84 325.44 401.741 331.248 404.856C337.056 407.972 332.832 401.741 338.64 409.529C344.449 417.317 372.961 417.317 374.545 414.202C376.129 411.087 361.873 387.723 364.513 365.917C367.153 344.11 371.377 313.997 367.681 309.844C363.985 305.69 361.821 299.587 361.821 299.587Z" fill="#00859E"/>
<path d="M380.882 303.094L381.617 300.605C381.617 300.605 403.586 307.767 404.642 312.44C405.698 317.112 405.17 349.822 401.474 352.418C397.778 355.014 392.498 359.167 396.194 365.398C399.89 371.628 404.114 378.377 407.282 378.897C410.45 379.416 416.258 383.05 414.674 386.685C413.09 390.319 394.082 383.569 394.082 383.569C394.082 383.569 381.41 374.224 381.938 359.686C382.466 345.149 380.882 303.094 380.882 303.094Z" fill="#00859E"/>
<path d="M399.362 364.359L386.689 387.723C386.689 387.723 368.209 406.414 378.769 408.491C389.33 410.568 395.138 391.357 395.138 391.357L408.866 372.147L399.362 364.359Z" fill="#FFB8B8"/>
<path d="M369.181 259.107C368.543 259.061 367.903 259.183 367.329 259.46C366.809 259.833 366.381 260.316 366.076 260.872C364.667 262.956 362.831 264.726 360.686 266.07C359.084 267.072 357.048 268.321 357.322 270.167C357.471 270.787 357.736 271.373 358.103 271.897C359.586 274.469 360.176 277.446 359.784 280.377L364.188 274.083C364.887 273.084 366.101 271.956 367.156 272.584C367.51 272.794 367.742 273.17 368.11 273.355C368.988 273.795 369.922 272.954 370.699 272.358C373.378 270.304 377.189 270.842 380.524 271.482C382.098 271.784 383.828 272.181 384.758 273.465C386.305 275.6 384.69 278.685 385.592 281.151C385.845 280.977 386.06 280.755 386.223 280.498C386.387 280.241 386.497 279.954 386.546 279.655C387.805 279.693 389.347 279.571 389.887 278.452C390.051 278.014 390.138 277.551 390.145 277.084C390.343 275.204 391.278 273.489 391.897 271.699C392.516 269.91 392.785 267.813 391.74 266.227C391.358 265.689 390.897 265.211 390.372 264.806C384.442 259.908 376.647 259.1 369.181 259.107Z" fill="#2F2E41"/>
<path d="M400.387 310.346L405.307 311.63C405.307 311.63 416.755 340.46 414.115 360.189C411.475 379.918 409.891 375.765 409.891 375.765C409.891 375.765 405.667 366.419 396.163 368.496L400.387 310.346Z" fill="#00859E" stroke="#828282" stroke-width="0.3"/>
<path d="M347.292 536.593C346.019 538.294 346.274 540.726 345.146 542.524C344.169 544.082 342.326 544.9 341.103 546.28C340.713 546.739 340.365 547.231 340.064 547.751C338.929 549.619 338.007 552.014 339.125 553.892C340.023 555.403 341.912 555.994 343.645 556.396C345.835 556.905 348.11 557.312 350.325 556.923C352.54 556.535 354.705 555.201 355.495 553.129C355.65 552.608 355.835 552.096 356.048 551.595C357.248 549.271 361.014 549.246 362.243 546.936C363.103 545.32 362.312 543.366 361.522 541.715L359.109 536.674C358.308 535.001 355.062 535.963 353.369 535.562C351.162 535.039 348.88 534.463 347.292 536.593Z" fill="#2F2E41"/>
<path d="M329.664 374.743L351.841 408.491C351.841 408.491 365.569 425.624 369.793 417.836C374.017 410.048 355.009 397.068 355.009 397.068L340.752 371.109L329.664 374.743Z" fill="#FFB8B8"/>
<path d="M340.752 311.401L336.528 310.363C336.528 310.363 328.08 312.959 325.968 323.862C323.856 334.765 325.44 378.377 328.08 378.897C330.72 379.416 341.119 371.303 342.784 373.023C344.449 374.743 339.168 365.917 340.752 361.244C342.336 356.571 340.752 311.401 340.752 311.401Z" fill="#00859E"/>
<path d="M527.757 336.249H516.181V338.433H527.757V336.249Z" fill="#6C63FF"/>
<path d="M543.192 336.249H531.616V338.433H543.192V336.249Z" fill="#6C63FF"/>
<path d="M565.62 345.164H554.044V347.347H565.62V345.164Z" fill="#6C63FF"/>
<path d="M581.296 345.164H569.72V347.347H581.296V345.164Z" fill="#6C63FF"/>
<path d="M581.511 336.548H547.407V338.731H581.511V336.548Z" fill="#6C63FF"/>
<path d="M550.185 345.164H516.181V347.347H550.185V345.164Z" fill="#6C63FF"/>
<path d="M550.185 354.078H516.181V356.261H532.579H550.185V354.078Z" fill="#6C63FF"/>
<path d="M581.295 354.078H557.661V356.261H581.295V354.078Z" fill="#6C63FF"/>
<path d="M512.927 343.098L508.855 337.64L512.927 332.181L513.742 333.273L510.484 337.64L513.742 342.006L512.927 343.098Z" fill="#6C63FF"/>
<path d="M591.964 360.566L591.149 359.474L594.407 355.107L591.149 350.741L591.964 349.649L596.037 355.107L591.964 360.566Z" fill="#6C63FF"/>
<path d="M588.392 349.649L585.218 360.112L586.635 360.541L589.809 350.078L588.392 349.649Z" fill="#6C63FF"/>
</g>
<path d="M691.288 510.104L714.293 457.848L691.389 515.702L691.494 521.558C689.778 521.593 688.079 521.566 686.396 521.477L686.844 446.192L686.807 445.612L686.849 445.499L686.893 438.386L660.626 382.981L686.812 433.062L686.917 434.565L687.256 377.685L664.477 320.202L687.224 367.693L685.87 249.871L685.866 249.479L685.878 249.865L688.238 342.712L708.138 304.806L688.38 350.712L689.307 401.578L707.477 351.759L689.446 409.057L689.962 437.341L716.415 367.933L690.138 447.208L691.288 510.104Z" fill="#116758"/>
<defs>
<linearGradient id="paint0_linear" x1="686" y1="-556" x2="-332.975" y2="487.683" gradientUnits="userSpaceOnUse">
<stop offset="0.241248" stop-color="#4BD1C8"/>
<stop offset="0.937707" stop-color="#A6E6E6" stop-opacity="0"/>
<stop offset="1" stop-color="#A6E6E6" stop-opacity="0"/>
<stop offset="1" stop-color="#A6E6E6" stop-opacity="0"/>
</linearGradient>
<clipPath id="clip0">
<rect x="324.989" y="255.032" width="326.213" height="302.046" fill="white"/>
</clipPath>
</defs>
</svg>
