<svg viewBox="0 0 1096 576" fill="none" xmlns="http://www.w3.org/2000/svg">
<path opacity="0.1" d="M548 350.518C850.652 350.518 1096 346.552 1096 341.658C1096 336.765 850.652 332.798 548 332.798C245.348 332.798 0 336.765 0 341.658C0 346.552 245.348 350.518 548 350.518Z" fill="#6C63FF"/>
<g opacity="0.4">
<path opacity="0.1" d="M672.56 334.917C677.26 334.917 681.07 329.934 681.07 323.787C681.07 317.64 677.26 312.657 672.56 312.657C667.86 312.657 664.05 317.64 664.05 323.787C664.05 329.934 667.86 334.917 672.56 334.917Z" fill="#3F3D56"/>
<path opacity="0.1" d="M679.28 276.157C680.463 274.087 681.074 271.74 681.05 269.357C681.05 263.207 677.24 258.217 672.55 258.217C667.86 258.217 664.04 263.217 664.04 269.357C664.014 271.742 664.629 274.09 665.82 276.157C664.653 278.235 664.04 280.578 664.04 282.962C664.04 285.345 664.653 287.689 665.82 289.767C664.653 291.845 664.04 294.188 664.04 296.572C664.04 298.955 664.653 301.299 665.82 303.377C664.629 305.443 664.014 307.792 664.04 310.177C664.04 316.327 667.85 321.317 672.55 321.317C677.25 321.317 681.05 316.317 681.05 310.177C681.074 307.793 680.463 305.446 679.28 303.377C680.437 301.296 681.045 298.953 681.045 296.572C681.045 294.19 680.437 291.848 679.28 289.767C680.437 287.686 681.045 285.343 681.045 282.962C681.045 280.58 680.437 278.238 679.28 276.157V276.157Z" fill="#3F3D56"/>
<path opacity="0.1" d="M640.72 149.007C639.552 147.532 638.493 145.975 637.55 144.347L659.9 140.677L635.73 140.857C633.411 135.81 632.146 130.344 632.012 124.792C631.878 119.24 632.877 113.719 634.95 108.567L667.38 125.397L637.47 103.397C640.267 98.545 644.034 94.3219 648.536 90.991C653.039 87.6601 658.179 85.2929 663.637 84.0373C669.095 82.7817 674.753 82.6646 680.258 83.6933C685.763 84.722 690.997 86.8744 695.633 90.0161C700.269 93.1579 704.208 97.2216 707.204 101.953C710.199 106.685 712.187 111.984 713.044 117.519C713.9 123.053 713.606 128.705 712.181 134.121C710.756 139.537 708.229 144.601 704.76 148.997C706.57 151.301 708.128 153.792 709.41 156.427L680.41 171.497L711.34 161.117C713.512 167.538 714.049 174.399 712.902 181.079C711.755 187.76 708.96 194.049 704.77 199.377C709.503 205.384 712.45 212.603 713.273 220.207C714.096 227.811 712.762 235.493 709.423 242.375C706.085 249.256 700.876 255.058 694.394 259.118C687.912 263.178 680.418 265.331 672.77 265.331C665.121 265.331 657.627 263.178 651.145 259.118C644.663 255.058 639.455 249.256 636.116 242.375C632.777 235.493 631.443 227.811 632.266 220.207C633.089 212.603 636.036 205.384 640.77 199.377C635.12 192.196 632.049 183.324 632.049 174.187C632.049 165.05 635.12 156.178 640.77 148.997L640.72 149.007Z" fill="#6C63FF"/>
<path opacity="0.1" d="M713.48 174.197C713.493 183.336 710.421 192.212 704.76 199.387C709.493 205.394 712.44 212.613 713.263 220.217C714.086 227.821 712.752 235.503 709.413 242.385C706.074 249.266 700.866 255.068 694.384 259.128C687.902 263.188 680.408 265.341 672.76 265.341C665.111 265.341 657.617 263.188 651.135 259.128C644.653 255.068 639.445 249.266 636.106 242.385C632.767 235.503 631.433 227.821 632.256 220.217C633.079 212.613 636.026 205.394 640.76 199.387C635.28 192.457 713.48 169.627 713.48 174.197Z" fill="black"/>
</g>
<g opacity="0.4">
<path opacity="0.1" d="M1038.58 337.378C1044.87 337.378 1049.96 330.707 1049.96 322.478C1049.96 314.249 1044.87 307.578 1038.58 307.578C1032.3 307.578 1027.2 314.249 1027.2 322.478C1027.2 330.707 1032.3 337.378 1038.58 337.378Z" fill="#3F3D56"/>
<path opacity="0.1" d="M1029.57 258.728C1027.98 255.957 1027.16 252.812 1027.19 249.618C1027.19 241.388 1032.29 234.718 1038.58 234.718C1044.87 234.718 1049.96 241.388 1049.96 249.618C1049.99 252.812 1049.17 255.957 1047.58 258.728C1049.14 261.509 1049.96 264.645 1049.96 267.833C1049.96 271.022 1049.14 274.157 1047.58 276.938C1049.14 279.719 1049.96 282.855 1049.96 286.043C1049.96 289.232 1049.14 292.367 1047.58 295.148C1049.17 297.919 1049.99 301.064 1049.96 304.258C1049.96 312.478 1044.86 319.158 1038.58 319.158C1032.3 319.158 1027.19 312.478 1027.19 304.258C1027.16 301.064 1027.98 297.919 1029.57 295.148C1028.01 292.367 1027.19 289.232 1027.19 286.043C1027.19 282.855 1028.01 279.719 1029.57 276.938C1028.01 274.157 1027.19 271.022 1027.19 267.833C1027.19 264.645 1028.01 261.509 1029.57 258.728V258.728Z" fill="#3F3D56"/>
<path opacity="0.1" d="M1081.18 88.5883C1082.74 86.6115 1084.16 84.5262 1085.42 82.3483L1055.52 77.4383L1087.86 77.6783C1090.96 70.9242 1092.64 63.6094 1092.81 56.1814C1092.99 48.7534 1091.64 41.3685 1088.86 34.4783L1045.47 56.9883L1085.47 27.5683C1081.75 21.0308 1076.72 15.3333 1070.69 10.8338C1064.67 6.33443 1057.77 3.13044 1050.45 1.42327C1043.12 -0.28389 1035.53 -0.457313 1028.13 0.913906C1020.74 2.28512 1013.7 5.17134 1007.48 9.39111C1001.25 13.6109 995.966 19.073 991.953 25.434C987.94 31.7951 985.286 38.9176 984.158 46.3537C983.031 53.7899 983.453 61.3789 985.4 68.6438C987.347 75.9087 990.775 82.6923 995.47 88.5683C993.046 91.6485 990.96 94.9811 989.25 98.5083L1028.08 118.728L986.69 104.838C983.781 113.43 983.061 122.612 984.596 131.552C986.131 140.493 989.872 148.909 995.48 156.038C989.154 164.08 985.218 173.74 984.123 183.913C983.028 194.086 984.818 204.362 989.288 213.566C993.758 222.769 1000.73 230.53 1009.4 235.959C1018.07 241.388 1028.1 244.267 1038.33 244.267C1048.56 244.267 1058.59 241.388 1067.26 235.959C1075.93 230.53 1082.9 222.769 1087.37 213.566C1091.84 204.362 1093.63 194.086 1092.54 183.913C1091.44 173.74 1087.51 164.08 1081.18 156.038C1088.74 146.428 1092.85 134.556 1092.85 122.328C1092.85 110.101 1088.74 98.2283 1081.18 88.6183V88.5883Z" fill="#6C63FF"/>
<path opacity="0.1" d="M983.81 122.298C983.79 134.529 987.903 146.408 995.48 156.008C989.154 164.05 985.218 173.71 984.123 183.883C983.028 194.056 984.818 204.332 989.288 213.536C993.758 222.739 1000.73 230.5 1009.4 235.929C1018.07 241.358 1028.1 244.237 1038.33 244.237C1048.56 244.237 1058.59 241.358 1067.26 235.929C1075.93 230.5 1082.9 222.739 1087.37 213.536C1091.84 204.332 1093.63 194.056 1092.54 183.883C1091.44 173.71 1087.51 164.05 1081.18 156.008C1088.49 146.728 983.81 116.178 983.81 122.298Z" fill="black"/>
</g>
<g opacity="0.4">
<path opacity="0.1" d="M928.72 335.748C933.42 335.748 937.23 330.765 937.23 324.618C937.23 318.471 933.42 313.488 928.72 313.488C924.02 313.488 920.21 318.471 920.21 324.618C920.21 330.765 924.02 335.748 928.72 335.748Z" fill="#3F3D56"/>
<path opacity="0.1" d="M922 276.988C920.817 274.919 920.206 272.572 920.23 270.188C920.23 264.038 924.04 259.048 928.73 259.048C933.42 259.048 937.24 264.048 937.24 270.188C937.266 272.573 936.651 274.922 935.46 276.988C936.627 279.067 937.24 281.41 937.24 283.793C937.24 286.177 936.627 288.52 935.46 290.598C936.627 292.677 937.24 295.02 937.24 297.403C937.24 299.787 936.627 302.13 935.46 304.208C936.651 306.275 937.266 308.623 937.24 311.008C937.24 317.158 933.43 322.148 928.73 322.148C924.03 322.148 920.23 317.148 920.23 311.008C920.206 308.625 920.817 306.278 922 304.208C920.842 302.127 920.235 299.785 920.235 297.403C920.235 295.022 920.842 292.68 922 290.598C920.842 288.517 920.235 286.175 920.235 283.793C920.235 281.412 920.842 279.07 922 276.988Z" fill="#3F3D56"/>
<path opacity="0.1" d="M928.72 267.708C933.42 267.708 937.23 262.725 937.23 256.578C937.23 250.431 933.42 245.448 928.72 245.448C924.02 245.448 920.21 250.431 920.21 256.578C920.21 262.725 924.02 267.708 928.72 267.708Z" fill="#3F3D56"/>
<path opacity="0.1" d="M928.72 254.098C933.42 254.098 937.23 249.115 937.23 242.968C937.23 236.821 933.42 231.838 928.72 231.838C924.02 231.838 920.21 236.821 920.21 242.968C920.21 249.115 924.02 254.098 928.72 254.098Z" fill="#3F3D56"/>
<path opacity="0.1" d="M960.56 149.838C961.728 148.364 962.787 146.806 963.73 145.178L941.38 141.508L965.55 141.688C967.869 136.642 969.134 131.176 969.268 125.624C969.402 120.072 968.402 114.551 966.33 109.398L933.9 126.228L963.81 104.228C961.013 99.3766 957.245 95.1534 952.743 91.8225C948.241 88.4916 943.101 86.1245 937.643 84.8689C932.185 83.6133 926.527 83.4962 921.022 84.5249C915.517 85.5535 910.283 87.7059 905.647 90.8477C901.01 93.9894 897.072 98.0531 894.076 102.785C891.081 107.517 889.093 112.816 888.236 118.35C887.38 123.885 887.673 129.536 889.099 134.952C890.524 140.368 893.05 145.432 896.52 149.828C894.71 152.133 893.151 154.623 891.87 157.258L920.87 172.328L890 161.958C887.827 168.379 887.29 175.24 888.438 181.921C889.585 188.601 892.38 194.89 896.57 200.218C891.836 206.226 888.889 213.445 888.066 221.049C887.244 228.653 888.578 236.335 891.916 243.216C895.255 250.097 900.463 255.9 906.946 259.96C913.428 264.019 920.922 266.172 928.57 266.172C936.218 266.172 943.712 264.019 950.194 259.96C956.676 255.9 961.885 250.097 965.224 243.216C968.562 236.335 969.896 228.653 969.073 221.049C968.25 213.445 965.304 206.226 960.57 200.218C966.22 193.037 969.291 184.165 969.291 175.028C969.291 165.891 966.22 157.019 960.57 149.838H960.56Z" fill="#6C63FF"/>
<path opacity="0.1" d="M887.8 175.028C887.786 184.168 890.859 193.044 896.52 200.218C891.786 206.226 888.839 213.445 888.016 221.049C887.193 228.653 888.528 236.335 891.866 243.216C895.205 250.097 900.413 255.9 906.895 259.96C913.377 264.019 920.871 266.172 928.52 266.172C936.168 266.172 943.662 264.019 950.144 259.96C956.626 255.9 961.835 250.097 965.173 243.216C968.512 236.335 969.846 228.653 969.023 221.049C968.2 213.445 965.254 206.226 960.52 200.218C966 193.288 887.8 170.458 887.8 175.028Z" fill="black"/>
</g>
<g opacity="0.4">
<path opacity="0.1" d="M61.59 337.378C67.875 337.378 72.97 330.707 72.97 322.478C72.97 314.249 67.875 307.578 61.59 307.578C55.305 307.578 50.21 314.249 50.21 322.478C50.21 330.707 55.305 337.378 61.59 337.378Z" fill="#3F3D56"/>
<path opacity="0.1" d="M70.5901 258.728C72.1777 255.957 72.9991 252.812 72.9701 249.618C72.9701 241.388 67.8701 234.718 61.5901 234.718C55.3101 234.718 50.2101 241.388 50.2101 249.618C50.178 252.811 50.996 255.956 52.5801 258.728C51.0256 261.511 50.2094 264.646 50.2094 267.833C50.2094 271.021 51.0256 274.155 52.5801 276.938C51.0256 279.721 50.2094 282.856 50.2094 286.043C50.2094 289.231 51.0256 292.365 52.5801 295.148C50.9928 297.92 50.1746 301.065 50.2101 304.258C50.2101 312.478 55.3001 319.158 61.5901 319.158C67.8801 319.158 73.0001 312.498 73.0001 304.278C73.032 301.084 72.2104 297.939 70.6201 295.168C72.1802 292.387 72.9995 289.252 72.9995 286.063C72.9995 282.875 72.1802 279.739 70.6201 276.958C72.1802 274.177 72.9995 271.042 72.9995 267.853C72.9995 264.665 72.1802 261.529 70.6201 258.748L70.5901 258.728Z" fill="#3F3D56"/>
<path opacity="0.1" d="M19 88.5883C17.4438 86.6091 16.027 84.5241 14.76 82.3483L44.67 77.4383L12.3 77.7283C9.20381 70.9742 7.51819 63.6594 7.34624 56.2314C7.1743 48.8035 8.51965 41.4185 11.3 34.5283L54.7 57.0383L14.7 27.6183C18.4281 21.1003 23.4625 15.4226 29.4876 10.9412C35.5126 6.45985 42.3984 3.27136 49.7134 1.57564C57.0283 -0.120086 64.6147 -0.286489 71.997 1.08687C79.3793 2.46022 86.3983 5.34373 92.614 9.55662C98.8298 13.7695 104.108 19.221 108.119 25.5693C112.129 31.9176 114.785 39.0259 115.919 46.4486C117.054 53.8713 116.643 61.4484 114.713 68.7049C112.782 75.9614 109.373 82.7409 104.7 88.6183C107.124 91.6985 109.21 95.0311 110.92 98.5583L72.08 118.728L113.48 104.838C116.382 113.432 117.097 122.613 115.561 131.552C114.024 140.491 110.285 148.907 104.68 156.038C111.006 164.08 114.942 173.74 116.037 183.913C117.132 194.086 115.342 204.362 110.872 213.566C106.402 222.769 99.4324 230.53 90.7598 235.959C82.0872 241.388 72.0618 244.267 61.83 244.267C51.5981 244.267 41.5728 241.388 32.9002 235.959C24.2276 230.53 17.2579 222.769 12.7879 213.566C8.3179 204.362 6.52809 194.086 7.62309 183.913C8.7181 173.74 12.6537 164.08 18.98 156.038C11.4197 146.428 7.30933 134.556 7.30933 122.328C7.30933 110.101 11.4197 98.2284 18.98 88.6183L19 88.5883Z" fill="#6C63FF"/>
<path opacity="0.1" d="M116.35 122.298C116.37 134.529 112.258 146.408 104.68 156.008C111.006 164.05 114.942 173.71 116.037 183.883C117.132 194.056 115.342 204.332 110.872 213.536C106.402 222.739 99.4325 230.5 90.7599 235.929C82.0873 241.358 72.0619 244.237 61.8301 244.237C51.5982 244.237 41.5729 241.358 32.9003 235.929C24.2277 230.5 17.258 222.739 12.788 213.536C8.318 204.332 6.52819 194.056 7.6232 183.883C8.71821 173.71 12.6538 164.05 18.9801 156.008C11.6701 146.728 116.35 116.178 116.35 122.298Z" fill="black"/>
</g>
<g opacity="0.4">
<path opacity="0.1" d="M171.44 335.748C176.14 335.748 179.95 330.765 179.95 324.618C179.95 318.471 176.14 313.488 171.44 313.488C166.74 313.488 162.93 318.471 162.93 324.618C162.93 330.765 166.74 335.748 171.44 335.748Z" fill="#030304"/>
<path opacity="0.1" d="M178.17 276.988C179.353 274.919 179.964 272.572 179.94 270.188C179.94 264.038 176.14 259.048 171.44 259.048C166.74 259.048 162.93 264.048 162.93 270.188C162.909 272.573 163.524 274.92 164.71 276.988C163.543 279.067 162.931 281.41 162.931 283.793C162.931 286.177 163.543 288.52 164.71 290.598C163.543 292.677 162.931 295.02 162.931 297.403C162.931 299.787 163.543 302.13 164.71 304.208C163.524 306.277 162.909 308.624 162.93 311.008C162.93 317.158 166.74 322.148 171.44 322.148C176.14 322.148 179.94 317.148 179.94 311.008C179.964 308.625 179.353 306.278 178.17 304.208C179.328 302.127 179.935 299.785 179.935 297.403C179.935 295.022 179.328 292.68 178.17 290.598C179.328 288.517 179.935 286.175 179.935 283.793C179.935 281.412 179.328 279.07 178.17 276.988V276.988Z" fill="#030304"/>
<path opacity="0.1" d="M139.6 149.838C138.436 148.361 137.376 146.804 136.43 145.178L158.78 141.508L134.61 141.688C132.291 136.642 131.026 131.176 130.892 125.624C130.758 120.072 131.758 114.551 133.83 109.398L166.26 126.228L136.35 104.228C139.147 99.3766 142.915 95.1534 147.417 91.8225C151.919 88.4916 157.059 86.1245 162.517 84.8689C167.975 83.6133 173.633 83.4962 179.138 84.5249C184.643 85.5535 189.877 87.7059 194.513 90.8477C199.15 93.9894 203.088 98.0531 206.084 102.785C209.08 107.517 211.068 112.816 211.924 118.35C212.78 123.885 212.487 129.536 211.061 134.952C209.636 140.368 207.11 145.432 203.64 149.828C205.457 152.128 207.016 154.619 208.29 157.258L179.29 172.328L210.22 161.948C212.393 168.369 212.93 175.23 211.782 181.911C210.635 188.591 207.84 194.88 203.65 200.208C208.384 206.216 211.331 213.435 212.154 221.039C212.977 228.643 211.642 236.325 208.304 243.206C204.965 250.087 199.757 255.89 193.275 259.95C186.792 264.009 179.299 266.162 171.65 266.162C164.002 266.162 156.508 264.009 150.026 259.95C143.544 255.89 138.335 250.087 134.997 243.206C131.658 236.325 130.324 228.643 131.147 221.039C131.97 213.435 134.916 206.216 139.65 200.208C134.001 193.027 130.929 184.155 130.929 175.018C130.929 165.881 134.001 157.01 139.65 149.828L139.6 149.838Z" fill="#6C63FF"/>
<path opacity="0.1" d="M212.36 175.028C212.374 184.168 209.301 193.044 203.64 200.218C208.374 206.226 211.321 213.445 212.144 221.049C212.967 228.653 211.632 236.335 208.294 243.216C204.955 250.097 199.747 255.9 193.265 259.96C186.783 264.019 179.289 266.172 171.64 266.172C163.992 266.172 156.498 264.019 150.016 259.96C143.534 255.9 138.325 250.097 134.987 243.216C131.648 236.335 130.314 228.653 131.137 221.049C131.96 213.445 134.907 206.226 139.64 200.218C134.14 193.288 212.36 170.458 212.36 175.028Z" fill="black"/>
</g>
<path opacity="0.1" d="M548 502.348C850.652 502.348 1096 498.382 1096 493.488C1096 488.595 850.652 484.628 548 484.628C245.348 484.628 0 488.595 0 493.488C0 498.382 245.348 502.348 548 502.348Z" fill="#6C63FF"/>
<path opacity="0.1" d="M548 575.098C850.652 575.098 1096 571.132 1096 566.238C1096 561.345 850.652 557.378 548 557.378C245.348 557.378 0 561.345 0 566.238C0 571.132 245.348 575.098 548 575.098Z" fill="#6C63FF"/>
<path opacity="0.1" d="M548 426.428C850.652 426.428 1096 422.462 1096 417.568C1096 412.675 850.652 408.708 548 408.708C245.348 408.708 0 412.675 0 417.568C0 422.462 245.348 426.428 548 426.428Z" fill="#6C63FF"/>
<path opacity="0.1" d="M808.79 110.728C805.22 110.054 801.53 110.458 798.19 111.888C796.185 112.782 794.015 113.243 791.82 113.243C789.625 113.243 787.455 112.782 785.45 111.888C783.078 110.847 780.508 110.334 777.918 110.384C775.328 110.434 772.78 111.046 770.45 112.178C769.123 112.884 767.643 113.254 766.14 113.258C760.06 113.258 755.01 107.138 753.96 99.0684C755.156 98.1765 756.174 97.0672 756.96 95.7984C760.52 90.0584 766.03 86.3684 772.23 86.3684C778.43 86.3684 783.87 90.0084 787.43 95.6884C788.49 97.4045 789.977 98.8168 791.745 99.7877C793.513 100.759 795.503 101.255 797.52 101.228H797.68C802.57 101.178 806.76 105.058 808.79 110.728Z" fill="#6C63FF"/>
<path opacity="0.1" d="M827.3 85.3783L817.48 91.5983L823.48 80.7583C821.79 79.4133 819.7 78.6707 817.54 78.6483H817.38C816.71 78.6574 816.041 78.6073 815.38 78.4983L812 80.6083L813.43 78.0083C811.067 77.1905 809.025 75.6426 807.6 73.5883L801.6 77.3683L805.36 70.5283C801.88 66.3483 797.18 63.7883 792.02 63.7883C785.82 63.7883 780.31 67.4683 776.74 73.2083C775.688 74.9247 774.2 76.332 772.428 77.2874C770.656 78.2428 768.662 78.7124 766.65 78.6483H766.32C759.48 78.6483 753.94 86.3983 753.94 95.9583C753.94 105.518 759.48 113.278 766.32 113.278C767.822 113.268 769.3 112.898 770.63 112.198C772.959 111.063 775.507 110.449 778.097 110.397C780.687 110.345 783.258 110.857 785.63 111.898C787.633 112.798 789.804 113.263 792 113.263C794.196 113.263 796.367 112.798 798.37 111.898C800.723 110.881 803.268 110.38 805.831 110.43C808.395 110.48 810.918 111.08 813.23 112.188C814.545 112.877 816.006 113.24 817.49 113.248C824.33 113.248 829.87 105.488 829.87 95.9283C829.911 92.2518 829.027 88.6239 827.3 85.3783V85.3783Z" fill="#6C63FF"/>
<path opacity="0.1" d="M391.26 105.318C388.758 104.846 386.171 105.128 383.83 106.128C382.428 106.755 380.91 107.078 379.375 107.078C377.84 107.078 376.322 106.755 374.92 106.128C373.261 105.4 371.463 105.041 369.652 105.077C367.84 105.114 366.058 105.544 364.43 106.338C363.503 106.822 362.475 107.079 361.43 107.088C357.18 107.088 353.64 102.808 352.9 97.1583C353.748 96.5365 354.471 95.7594 355.03 94.8683C357.52 90.8683 361.38 88.2683 365.72 88.2683C370.06 88.2683 373.87 90.8183 376.36 94.7883C377.103 95.9901 378.145 96.979 379.384 97.6589C380.623 98.3388 382.017 98.6865 383.43 98.6683H383.54C386.9 98.6483 389.83 101.368 391.26 105.318Z" fill="#6C63FF"/>
<path opacity="0.1" d="M404.21 87.5884L397.34 91.9484L401.51 84.3584C400.331 83.4147 398.87 82.8936 397.36 82.8784H397.24C396.764 82.8869 396.289 82.8501 395.82 82.7684L393.49 84.2484L394.49 82.4284C392.838 81.8539 391.41 80.7724 390.41 79.3384L386.24 81.9784L388.88 77.1984C387.771 75.7667 386.358 74.5996 384.743 73.7815C383.127 72.9634 381.35 72.5149 379.54 72.4684C375.2 72.4684 371.34 75.0484 368.85 79.0684C368.112 80.2703 367.069 81.2558 365.828 81.9249C364.586 82.5939 363.19 82.9229 361.78 82.8784H361.55C356.76 82.8784 352.88 88.2984 352.88 94.9984C352.88 101.698 356.76 107.118 361.55 107.118C362.596 107.11 363.626 106.85 364.55 106.358C366.178 105.568 367.958 105.141 369.768 105.107C371.577 105.072 373.373 105.431 375.03 106.158C376.44 106.802 377.97 107.142 379.52 107.158C381.046 107.156 382.554 106.836 383.95 106.218C385.597 105.506 387.377 105.155 389.172 105.189C390.966 105.224 392.732 105.643 394.35 106.418C395.276 106.903 396.305 107.157 397.35 107.158C402.13 107.158 406.01 101.728 406.01 95.0384C406.05 92.4427 405.431 89.8792 404.21 87.5884V87.5884Z" fill="#6C63FF"/>
<path opacity="0.1" d="M269.59 183.728C272.089 183.257 274.672 183.538 277.01 184.538C278.413 185.165 279.933 185.489 281.47 185.489C283.007 185.489 284.526 185.165 285.93 184.538C287.589 183.811 289.386 183.452 291.197 183.487C293.008 183.521 294.79 183.948 296.42 184.738C297.344 185.231 298.373 185.492 299.42 185.498C303.67 185.498 307.21 181.208 307.94 175.558C307.092 174.939 306.372 174.161 305.82 173.268C303.32 169.268 299.46 166.678 295.13 166.678C290.8 166.678 286.98 169.218 284.48 173.198C283.737 174.399 282.697 175.387 281.46 176.066C280.223 176.746 278.831 177.095 277.42 177.078H277.31C273.94 177.098 271 179.808 269.59 183.728Z" fill="#6C63FF"/>
<path opacity="0.1" d="M256.63 166.028L263.51 170.388L259.33 162.808C260.512 161.862 261.976 161.337 263.49 161.318H263.6C264.079 161.325 264.557 161.292 265.03 161.218L267.36 162.688L266.36 160.878C268.008 160.303 269.432 159.221 270.43 157.788L274.6 160.428L272 155.638C273.109 154.208 274.523 153.043 276.138 152.226C277.754 151.41 279.53 150.963 281.34 150.918C285.67 150.918 289.54 153.498 292.03 157.518C292.767 158.719 293.808 159.703 295.048 160.372C296.288 161.041 297.682 161.371 299.09 161.328H299.33C304.11 161.328 307.99 166.758 307.99 173.448C307.99 180.138 304.11 185.568 299.33 185.568C298.284 185.564 297.255 185.307 296.33 184.818C294.701 184.024 292.92 183.594 291.108 183.558C289.297 183.521 287.499 183.88 285.84 184.608C284.435 185.257 282.907 185.598 281.36 185.608C279.831 185.607 278.319 185.287 276.92 184.668C275.275 183.956 273.496 183.605 271.703 183.64C269.911 183.674 268.146 184.093 266.53 184.868C265.604 185.353 264.575 185.607 263.53 185.608C258.74 185.608 254.86 180.188 254.86 173.488C254.813 170.893 255.422 168.327 256.63 166.028V166.028Z" fill="#6C63FF"/>
<path d="M54.3101 418.618C56.9201 413.778 53.9601 407.858 50.5601 403.548C47.1601 399.238 43.0001 394.728 43.0901 389.258C43.2201 381.368 51.6001 376.698 58.2901 372.518C63.2582 369.403 67.8401 365.711 71.9401 361.518C73.6547 359.905 75.0728 358.002 76.1301 355.898C77.5201 352.818 77.4801 349.298 77.3901 345.898C77.0967 334.638 76.5401 323.385 75.7201 312.138" stroke="#3F3D56" stroke-width="4" stroke-miterlimit="10"/>
<path d="M88.4501 311.578C88.3535 309.516 87.7397 307.51 86.6649 305.747C85.5902 303.984 84.0892 302.519 82.3001 301.488L79.5401 306.938L79.6301 300.338C77.1271 299.601 74.4546 299.679 71.9984 300.56C69.5422 301.44 67.4294 303.079 65.965 305.238C64.5005 307.398 63.7601 309.967 63.8507 312.574C63.9413 315.182 64.8581 317.694 66.4689 319.746C68.0797 321.799 70.3011 323.287 72.8124 323.995C75.3238 324.703 77.9952 324.595 80.4411 323.686C82.887 322.777 84.9808 321.115 86.4204 318.939C87.8599 316.762 88.5707 314.185 88.4501 311.578Z" fill="#49EBD1"/>
<path d="M66.4899 394.898C65.2515 397.305 63.2544 399.237 60.8076 400.394C58.3608 401.552 55.6007 401.871 52.9544 401.301C50.3082 400.732 47.9234 399.306 46.1691 397.245C44.4148 395.184 43.3888 392.602 43.2499 389.898C43.1579 388.194 43.4306 386.489 44.0499 384.898C44.9565 382.578 46.545 380.588 48.606 379.189C50.667 377.79 53.1037 377.048 55.5945 377.063C58.0854 377.077 60.5135 377.845 62.5585 379.268C64.6036 380.69 66.1696 382.698 67.0499 385.028L59.3599 391.288L67.8199 389.288C67.8296 391.238 67.3736 393.161 66.4899 394.898V394.898Z" fill="#49EBD1"/>
<path d="M60.41 370.998C57.389 371.141 54.4213 370.166 52.0731 368.26C49.7248 366.354 48.1604 363.65 47.6782 360.665C47.1961 357.679 47.8299 354.62 49.4588 352.072C51.0878 349.524 53.5978 347.664 56.51 346.848L56.44 351.918L59.23 346.398C60.8453 346.323 62.4596 346.566 63.9808 347.115C65.502 347.663 66.9003 348.506 68.0959 349.594C69.2914 350.683 70.2608 351.997 70.9487 353.46C71.6366 354.924 72.0295 356.508 72.105 358.123C72.1805 359.739 71.9372 361.353 71.3888 362.874C70.8404 364.395 69.9978 365.794 68.909 366.989C67.8203 368.185 66.5067 369.154 65.0433 369.842C63.5799 370.53 61.9953 370.923 60.38 370.998H60.41Z" fill="#49EBD1"/>
<path d="M90.3 351.108C88.3914 351.207 86.486 350.86 84.7348 350.095C82.9836 349.329 81.4347 348.167 80.2107 346.699C78.9867 345.231 78.1212 343.498 77.6829 341.638C77.2446 339.778 77.2454 337.841 77.6853 335.981C78.1252 334.122 78.9921 332.39 80.2173 330.923C81.4425 329.456 82.9924 328.295 84.7443 327.531C86.4961 326.767 88.4018 326.421 90.3103 326.522C92.2188 326.622 94.0778 327.165 95.74 328.108L93.57 334.108L98 329.728C99.7918 331.371 101.057 333.508 101.636 335.868C102.216 338.229 102.083 340.709 101.255 342.994C100.427 345.28 98.9415 347.269 96.9848 348.711C95.0281 350.153 92.6881 350.984 90.26 351.098L90.3 351.108Z" fill="#49EBD1"/>
<path opacity="0.1" d="M86.7901 314.858C83.9501 315.168 81.1902 316.048 78.3302 316.228C75.4702 316.408 72.3302 315.718 70.5502 313.508C69.713 312.221 68.9517 310.885 68.2701 309.508C67.4927 308.295 66.4279 307.292 65.1701 306.588C64.3737 308.148 63.9195 309.861 63.8377 311.61C63.7558 313.36 64.0484 315.107 64.6957 316.735C65.3431 318.362 66.3304 319.833 67.5916 321.049C68.8528 322.264 70.3589 323.197 72.0093 323.784C73.6596 324.371 75.4162 324.599 77.1618 324.452C78.9073 324.306 80.6015 323.789 82.1313 322.936C83.661 322.082 84.991 320.912 86.0324 319.504C87.0738 318.096 87.8026 316.481 88.1702 314.768C87.7202 314.778 87.2501 314.808 86.7901 314.858Z" fill="black"/>
<path opacity="0.1" d="M90.2999 351.108C88.1774 351.209 86.0649 350.758 84.1682 349.8C82.2715 348.842 80.655 347.41 79.4761 345.642C78.2972 343.874 77.5959 341.831 77.4406 339.712C77.2853 337.593 77.6813 335.469 78.5899 333.548C79.5658 334.208 80.4046 335.05 81.0599 336.028C81.7953 337.43 82.61 338.789 83.4999 340.098C85.4199 342.348 88.6999 343.098 91.6699 342.948C94.6399 342.798 97.5099 341.948 100.47 341.698C100.88 341.698 101.29 341.638 101.71 341.628C101.097 344.234 99.6522 346.569 97.5932 348.28C95.5343 349.991 92.9739 350.984 90.2999 351.108Z" fill="black"/>
<path opacity="0.1" d="M60.41 370.998C58.3094 371.097 56.2186 370.656 54.337 369.716C52.4554 368.777 50.8457 367.372 49.6615 365.634C48.4772 363.897 47.7579 361.884 47.5721 359.79C47.3863 357.695 47.7402 355.588 48.6 353.668C49.6147 354.336 50.4991 355.184 51.21 356.168C52.0164 357.604 52.908 358.99 53.88 360.318C55.95 362.628 59.45 363.448 62.59 363.318C65.73 363.188 68.59 362.508 71.59 362.318C70.8434 364.738 69.3698 366.869 67.3696 368.422C65.3693 369.975 62.9394 370.875 60.41 370.998Z" fill="black"/>
<path opacity="0.1" d="M66.4899 394.898C65.2515 397.305 63.2544 399.237 60.8076 400.394C58.3608 401.552 55.6007 401.871 52.9544 401.301C50.3082 400.732 47.9234 399.306 46.1691 397.245C44.4148 395.184 43.3888 392.602 43.2499 389.898C43.1579 388.194 43.4306 386.489 44.0499 384.898C45.0639 385.564 45.9737 386.376 46.7499 387.308C47.9199 388.728 48.6899 390.308 50.0499 391.678C52.5599 394.148 56.6299 395.168 60.2399 395.258C62.3286 395.265 64.4157 395.145 66.4899 394.898V394.898Z" fill="black"/>
<path d="M951.221 567.781C953.831 562.941 950.871 557.021 947.471 552.711C944.071 548.401 939.911 543.891 940.001 538.421C940.131 530.531 948.511 525.861 955.201 521.681C960.17 518.566 964.751 514.874 968.851 510.681C970.566 509.067 971.984 507.165 973.041 505.061C974.431 501.981 974.391 498.461 974.301 495.061C974.008 483.801 973.451 472.548 972.631 461.301" stroke="#3F3D56" stroke-width="4" stroke-miterlimit="10"/>
<path d="M985.361 460.741C985.265 458.679 984.651 456.673 983.576 454.91C982.502 453.147 981.001 451.682 979.211 450.651L976.451 456.101L976.541 449.501C974.038 448.764 971.366 448.842 968.91 449.722C966.454 450.603 964.341 452.241 962.876 454.401C961.412 456.561 960.671 459.13 960.762 461.737C960.853 464.345 961.769 466.857 963.38 468.909C964.991 470.962 967.212 472.45 969.724 473.158C972.235 473.866 974.907 473.758 977.352 472.849C979.798 471.94 981.892 470.278 983.332 468.101C984.771 465.925 985.482 463.348 985.361 460.741Z" fill="#49EBD1"/>
<path d="M963.401 544.061C962.163 546.468 960.166 548.4 957.719 549.557C955.272 550.715 952.512 551.033 949.866 550.464C947.22 549.895 944.835 548.469 943.08 546.408C941.326 544.347 940.3 541.764 940.161 539.061C940.069 537.357 940.342 535.652 940.961 534.061C941.868 531.741 943.456 529.75 945.517 528.352C947.578 526.953 950.015 526.211 952.506 526.225C954.997 526.239 957.425 527.008 959.47 528.43C961.515 529.852 963.081 531.861 963.961 534.191L956.271 540.451L964.731 538.451C964.741 540.4 964.285 542.324 963.401 544.061V544.061Z" fill="#49EBD1"/>
<path d="M957.321 520.161C954.3 520.304 951.333 519.329 948.984 517.423C946.636 515.517 945.072 512.813 944.59 509.827C944.107 506.842 944.741 503.783 946.37 501.235C947.999 498.687 950.509 496.827 953.421 496.011L953.351 501.081L956.141 495.561C957.757 495.486 959.371 495.729 960.892 496.278C962.413 496.826 963.812 497.669 965.007 498.757C966.203 499.846 967.172 501.16 967.86 502.623C968.548 504.086 968.941 505.671 969.016 507.286C969.092 508.902 968.849 510.516 968.3 512.037C967.752 513.558 966.909 514.957 965.82 516.152C964.732 517.348 963.418 518.317 961.955 519.005C960.491 519.693 958.907 520.086 957.291 520.161H957.321Z" fill="#49EBD1"/>
<path d="M987.211 500.271C985.303 500.37 983.397 500.023 981.646 499.257C979.895 498.492 978.346 497.329 977.122 495.862C975.898 494.394 975.033 492.661 974.594 490.801C974.156 488.941 974.157 487.004 974.597 485.144C975.037 483.284 975.903 481.552 977.129 480.086C978.354 478.619 979.904 477.458 981.656 476.694C983.408 475.93 985.313 475.584 987.222 475.685C989.13 475.785 990.989 476.328 992.651 477.271L990.481 483.271L994.911 478.891C996.703 480.534 997.968 482.67 998.548 485.031C999.127 487.392 998.994 489.871 998.167 492.157C997.339 494.442 995.853 496.432 993.896 497.874C991.939 499.316 989.6 500.147 987.171 500.261L987.211 500.271Z" fill="#49EBD1"/>
<path opacity="0.1" d="M983.702 464.021C980.862 464.331 978.102 465.211 975.242 465.391C972.382 465.571 969.242 464.881 967.462 462.671C966.624 461.383 965.863 460.048 965.182 458.671C964.404 457.458 963.339 456.455 962.082 455.751C961.285 457.311 960.831 459.023 960.749 460.773C960.667 462.523 960.96 464.27 961.607 465.898C962.254 467.525 963.242 468.996 964.503 470.212C965.764 471.427 967.27 472.359 968.921 472.946C970.571 473.533 972.328 473.761 974.073 473.615C975.819 473.469 977.513 472.952 979.043 472.099C980.572 471.245 981.902 470.075 982.944 468.667C983.985 467.258 984.714 465.644 985.082 463.931C984.632 463.941 984.162 463.971 983.702 464.021Z" fill="black"/>
<path opacity="0.1" d="M987.211 500.271C985.089 500.372 982.976 499.921 981.08 498.963C979.183 498.005 977.566 496.573 976.387 494.805C975.209 493.037 974.507 490.994 974.352 488.875C974.197 486.755 974.593 484.632 975.501 482.711C976.477 483.37 977.316 484.213 977.971 485.191C978.707 486.593 979.521 487.952 980.411 489.261C982.331 491.511 985.611 492.261 988.581 492.111C991.551 491.961 994.421 491.111 997.381 490.861C997.791 490.861 998.201 490.801 998.621 490.791C998.009 493.397 996.564 495.732 994.505 497.443C992.446 499.154 989.885 500.146 987.211 500.271Z" fill="black"/>
<path opacity="0.1" d="M957.321 520.161C955.221 520.26 953.13 519.818 951.248 518.879C949.367 517.94 947.757 516.535 946.573 514.797C945.389 513.059 944.669 511.047 944.483 508.952C944.298 506.858 944.652 504.75 945.511 502.831C946.526 503.499 947.41 504.346 948.121 505.331C948.928 506.767 949.819 508.153 950.791 509.481C952.861 511.791 956.361 512.611 959.501 512.481C962.641 512.351 965.501 511.671 968.501 511.481C967.755 513.901 966.281 516.032 964.281 517.585C962.281 519.138 959.851 520.038 957.321 520.161Z" fill="black"/>
<path opacity="0.1" d="M963.401 544.061C962.163 546.468 960.166 548.4 957.719 549.557C955.272 550.715 952.512 551.033 949.866 550.464C947.22 549.895 944.835 548.469 943.08 546.408C941.326 544.347 940.3 541.764 940.161 539.061C940.069 537.357 940.342 535.652 940.961 534.061C941.975 534.727 942.885 535.539 943.661 536.471C944.831 537.891 945.601 539.471 946.961 540.841C949.471 543.311 953.541 544.331 957.151 544.421C959.24 544.428 961.327 544.307 963.401 544.061V544.061Z" fill="black"/>
<path d="M460.52 336.248C457.91 331.418 460.87 325.498 464.28 321.188C467.69 316.878 471.83 312.388 471.74 306.898C471.62 298.998 463.24 294.338 456.54 290.158C451.574 287.045 446.995 283.352 442.9 279.158C441.177 277.553 439.755 275.653 438.7 273.548C437.32 270.458 437.36 266.948 437.44 263.548C437.74 252.288 438.297 241.035 439.11 229.788" stroke="#3F3D56" stroke-width="4" stroke-miterlimit="10"/>
<path d="M426.39 229.218C426.485 227.156 427.097 225.151 428.17 223.388C429.243 221.625 430.742 220.16 432.53 219.128L435.29 224.578L435.21 217.978C436.524 217.596 437.892 217.431 439.26 217.488C441.692 217.602 444.035 218.434 445.994 219.879C447.954 221.324 449.44 223.317 450.266 225.607C451.093 227.897 451.221 230.381 450.636 232.744C450.051 235.107 448.778 237.243 446.979 238.883C445.18 240.523 442.935 241.593 440.528 241.957C438.121 242.321 435.66 241.963 433.456 240.928C431.252 239.894 429.405 238.229 428.147 236.145C426.889 234.061 426.278 231.65 426.39 229.218V229.218Z" fill="#49EBD1"/>
<path d="M448.34 312.538C449.631 315.051 451.746 317.043 454.331 318.181C456.916 319.319 459.813 319.533 462.538 318.788C465.262 318.043 467.647 316.383 469.293 314.088C470.939 311.793 471.746 309.002 471.578 306.182C471.41 303.363 470.278 300.687 468.371 298.603C466.465 296.52 463.899 295.155 461.106 294.739C458.312 294.322 455.461 294.879 453.029 296.315C450.597 297.752 448.733 299.981 447.75 302.628L455.44 308.888L446.98 306.888C446.973 308.854 447.44 310.792 448.34 312.538V312.538Z" fill="#49EBD1"/>
<path d="M454.42 288.638C457.442 288.784 460.412 287.811 462.762 285.906C465.113 284.001 466.679 281.297 467.163 278.31C467.646 275.323 467.013 272.263 465.384 269.714C463.755 267.164 461.243 265.304 458.33 264.488L458.39 269.558L455.6 264.038C452.339 263.878 449.148 265.019 446.729 267.212C444.31 269.404 442.86 272.467 442.7 275.728C442.63 277.149 442.809 278.57 443.23 279.928C443.968 282.358 445.44 284.499 447.443 286.058C449.447 287.618 451.884 288.519 454.42 288.638V288.638Z" fill="#49EBD1"/>
<path d="M424.54 268.728C426.448 268.826 428.353 268.477 430.104 267.711C431.854 266.944 433.402 265.781 434.625 264.313C435.848 262.845 436.712 261.112 437.149 259.252C437.587 257.392 437.585 255.455 437.145 253.596C436.704 251.737 435.837 250.005 434.611 248.539C433.386 247.073 431.836 245.913 430.084 245.149C428.332 244.386 426.427 244.041 424.519 244.141C422.611 244.242 420.752 244.785 419.09 245.728L421.27 251.728L416.79 247.438C415.595 248.521 414.627 249.829 413.94 251.288C413.253 252.747 412.863 254.328 412.79 255.938C412.731 257.077 412.835 258.219 413.1 259.328C413.728 261.925 415.183 264.247 417.247 265.943C419.311 267.638 421.871 268.616 424.54 268.728Z" fill="#49EBD1"/>
<path opacity="0.1" d="M428.05 232.498C430.89 232.808 433.65 233.688 436.5 233.868C439.35 234.048 442.5 233.358 444.29 231.148C445.124 229.86 445.882 228.525 446.56 227.148C447.341 225.934 448.409 224.932 449.67 224.228C450.468 225.789 450.923 227.502 451.006 229.253C451.088 231.003 450.796 232.752 450.149 234.38C449.501 236.009 448.513 237.481 447.251 238.697C445.989 239.913 444.482 240.846 442.83 241.432C441.178 242.019 439.421 242.246 437.674 242.099C435.928 241.951 434.233 241.433 432.703 240.577C431.173 239.722 429.843 238.55 428.803 237.14C427.762 235.729 427.035 234.113 426.67 232.398C427.12 232.408 427.58 232.448 428.05 232.498Z" fill="black"/>
<path opacity="0.1" d="M424.54 268.728C426.661 268.826 428.772 268.373 430.667 267.415C432.562 266.456 434.178 265.024 435.356 263.257C436.534 261.49 437.236 259.448 437.392 257.33C437.549 255.212 437.155 253.09 436.25 251.168C435.271 251.827 434.429 252.67 433.77 253.648C433.034 255.05 432.22 256.409 431.33 257.718C429.42 259.968 426.14 260.718 423.17 260.568C420.2 260.418 417.33 259.568 414.37 259.318C413.96 259.318 413.54 259.258 413.13 259.248C413.741 261.855 415.186 264.191 417.245 265.902C419.304 267.613 421.865 268.605 424.54 268.728V268.728Z" fill="black"/>
<path opacity="0.1" d="M454.42 288.638C456.522 288.74 458.614 288.3 460.497 287.362C462.38 286.424 463.991 285.018 465.176 283.279C466.361 281.541 467.08 279.527 467.265 277.431C467.449 275.335 467.093 273.227 466.23 271.308C465.217 271.974 464.335 272.822 463.63 273.808C462.824 275.244 461.932 276.63 460.96 277.958C458.88 280.268 455.39 281.088 452.24 280.958C449.09 280.828 446.24 280.148 443.24 279.958C443.983 282.38 445.455 284.514 447.456 286.068C449.457 287.621 451.889 288.519 454.42 288.638V288.638Z" fill="black"/>
<path opacity="0.1" d="M448.34 312.538C449.785 315.324 452.239 317.453 455.201 318.489C458.163 319.526 461.409 319.392 464.276 318.115C467.143 316.838 469.413 314.514 470.624 311.619C471.835 308.724 471.894 305.476 470.79 302.538C469.771 303.198 468.861 304.011 468.09 304.948C466.92 306.368 466.09 307.948 464.79 309.318C462.27 311.788 458.21 312.808 454.59 312.898C452.501 312.899 450.414 312.779 448.34 312.538V312.538Z" fill="black"/>
<path d="M935.05 415.92C990.256 415.92 1035.01 371.166 1035.01 315.96C1035.01 260.754 990.256 216 935.05 216C879.844 216 835.09 260.754 835.09 315.96C835.09 371.166 879.844 415.92 935.05 415.92Z" fill="#E3F7F7"/>
<path d="M977.96 341.74C974.48 338.26 966.11 333.01 961.96 331.05C957.17 328.75 955.41 328.79 952.02 331.24C949.2 333.24 947.37 335.17 944.13 334.46C940.89 333.75 934.47 328.91 928.26 322.72C922.05 316.53 917.23 310.15 916.54 306.86C915.85 303.57 917.75 301.78 919.77 298.96C922.21 295.57 922.28 293.81 919.96 289.02C917.96 284.87 912.77 276.52 909.26 273.02C905.75 269.52 904.99 270.29 903.07 271.02C901.094 271.848 899.197 272.852 897.4 274.02C893.92 276.35 891.97 278.29 890.6 281.21C889.23 284.13 887.68 289.55 895.65 303.74C901.53 314.595 908.976 324.525 917.75 333.21V333.21C926.464 342.004 936.428 349.464 947.32 355.35C961.5 363.35 966.93 361.76 969.85 360.4C972.77 359.04 974.71 357.11 977.03 353.6C978.2 351.805 979.204 349.907 980.03 347.93C980.69 346.01 981.47 345.23 977.96 341.74Z" fill="#3BB5AE"/>
<path opacity="0.1" d="M935.05 216.01C915.268 216 895.927 221.858 879.474 232.842C863.022 243.827 850.197 259.444 842.622 277.719C835.047 295.993 833.062 316.104 836.919 335.507C840.776 354.91 850.301 372.732 864.289 386.721C878.278 400.709 896.1 410.234 915.503 414.091C934.906 417.948 955.017 415.963 973.291 408.388C991.566 400.813 1007.18 387.988 1018.17 371.536C1029.15 355.083 1035.01 335.742 1035 315.96C1034.99 289.456 1024.45 264.041 1005.71 245.299C986.969 226.558 961.554 216.023 935.05 216.01V216.01ZM935.05 402.63C917.908 402.63 901.152 397.547 886.899 388.024C872.646 378.5 861.537 364.964 854.977 349.127C848.418 333.29 846.701 315.864 850.045 299.052C853.39 282.239 861.644 266.796 873.765 254.675C885.886 242.554 901.329 234.3 918.142 230.955C934.954 227.611 952.38 229.328 968.217 235.887C984.054 242.447 997.59 253.556 1007.11 267.809C1016.64 282.062 1021.72 298.818 1021.72 315.96C1021.72 327.342 1019.48 338.612 1015.12 349.127C1010.77 359.643 1004.38 369.197 996.335 377.245C988.287 385.293 978.732 391.677 968.217 396.033C957.702 400.388 946.432 402.63 935.05 402.63Z" fill="black" fill-opacity="0.4"/>
<path d="M534.96 572.328C590.166 572.328 634.92 527.575 634.92 472.368C634.92 417.162 590.166 372.408 534.96 372.408C479.754 372.408 435 417.162 435 472.368C435 527.575 479.754 572.328 534.96 572.328Z" fill="#E3F7F7"/>
<path d="M591.81 442.168L561.88 472.618C561.827 472.669 561.785 472.729 561.757 472.796C561.728 472.863 561.713 472.936 561.713 473.009C561.713 473.081 561.728 473.153 561.757 473.22C561.785 473.288 561.827 473.348 561.88 473.398L582.88 495.728C583.382 496.235 583.724 496.878 583.862 497.578C584 498.277 583.928 499.002 583.656 499.661C583.384 500.32 582.923 500.884 582.331 501.282C581.739 501.68 581.043 501.895 580.33 501.898C579.37 501.896 578.45 501.515 577.77 500.838L556.88 478.588C556.773 478.483 556.63 478.425 556.48 478.425C556.33 478.425 556.187 478.483 556.08 478.588L550.99 483.728C548.906 485.86 546.417 487.553 543.669 488.709C540.922 489.864 537.971 490.459 534.99 490.458C531.953 490.444 528.949 489.825 526.153 488.637C523.358 487.449 520.828 485.716 518.71 483.538L513.82 478.538C513.713 478.433 513.57 478.375 513.42 478.375C513.27 478.375 513.127 478.433 513.02 478.538L492.18 500.738C491.845 501.074 491.446 501.341 491.008 501.523C490.569 501.705 490.1 501.798 489.625 501.798C489.15 501.798 488.68 501.705 488.242 501.523C487.803 501.341 487.405 501.074 487.07 500.738C486.733 500.404 486.465 500.006 486.283 499.567C486.1 499.129 486.006 498.658 486.006 498.183C486.006 497.708 486.1 497.238 486.283 496.8C486.465 496.361 486.733 495.963 487.07 495.628L507.99 473.348C508.083 473.24 508.134 473.101 508.134 472.958C508.134 472.815 508.083 472.677 507.99 472.569L478.06 442.118C477.983 442.041 477.885 441.988 477.778 441.967C477.671 441.946 477.56 441.956 477.459 441.998C477.358 442.04 477.272 442.111 477.212 442.202C477.151 442.293 477.119 442.399 477.12 442.509V503.438C477.128 505.794 478.067 508.05 479.732 509.716C481.398 511.381 483.655 512.321 486.01 512.328H583.88C586.235 512.321 588.492 511.381 590.157 509.716C591.823 508.05 592.762 505.794 592.77 503.438V442.558C592.775 442.445 592.745 442.333 592.683 442.237C592.622 442.142 592.533 442.068 592.427 442.025C592.322 441.982 592.206 441.973 592.096 441.999C591.985 442.024 591.885 442.084 591.81 442.168V442.168Z" fill="#3BB5AE"/>
<path d="M534.96 483.228C536.989 483.248 539.001 482.86 540.877 482.087C542.753 481.314 544.454 480.172 545.88 478.728L589.47 434.358C587.922 433.077 585.979 432.37 583.97 432.358H486.03C484.02 432.365 482.075 433.072 480.53 434.358L524.13 478.728C525.543 480.164 527.229 481.301 529.089 482.074C530.949 482.847 532.946 483.24 534.96 483.228V483.228Z" fill="#3BB5AE"/>
<path d="M312.85 415.678C368.057 415.678 412.81 370.925 412.81 315.718C412.81 260.512 368.057 215.758 312.85 215.758C257.644 215.758 212.89 260.512 212.89 315.718C212.89 370.925 257.644 415.678 312.85 415.678Z" fill="#E3F7F7"/>
<path d="M312.85 267.888L273 359.828L276.72 363.548L312.86 347.608L349 363.548L352.72 359.828L312.85 267.888Z" fill="#3BB5AE"/>
<path opacity="0.1" d="M312.85 215.728C293.07 215.719 273.731 221.575 257.279 232.557C240.828 243.539 228.003 259.154 220.426 277.425C212.85 295.697 210.862 315.805 214.715 335.207C218.568 354.608 228.088 372.431 242.071 386.421C256.055 400.412 273.873 409.941 293.272 413.803C312.672 417.666 332.781 415.688 351.057 408.121C369.332 400.554 384.953 387.737 395.943 371.291C406.934 354.845 412.8 335.509 412.8 315.728C412.8 289.215 402.271 263.788 383.528 245.035C364.785 226.283 339.363 215.742 312.85 215.728V215.728ZM312.85 402.348C295.706 402.348 278.947 397.264 264.693 387.738C250.439 378.213 239.331 364.674 232.772 348.834C226.214 332.994 224.501 315.565 227.849 298.752C231.197 281.938 239.457 266.495 251.583 254.376C263.709 242.257 279.156 234.006 295.972 230.668C312.788 227.329 330.216 229.053 346.052 235.62C361.888 242.188 375.42 253.304 384.938 267.564C394.455 281.823 399.53 298.585 399.52 315.728C399.517 338.713 390.385 360.755 374.131 377.007C357.878 393.259 335.834 402.388 312.85 402.388V402.348Z" fill="black" fill-opacity="0.4"/>
<path opacity="0.1" d="M536.93 372C517.15 371.99 497.811 377.847 481.359 388.829C464.908 399.811 452.083 415.425 444.506 433.697C436.93 451.969 434.942 472.077 438.795 491.478C442.648 510.88 452.168 528.703 466.152 542.693C480.135 556.683 497.953 566.212 517.353 570.075C536.752 573.937 556.861 571.96 575.137 564.393C593.412 556.825 609.033 544.008 620.023 527.562C631.014 511.116 636.88 491.78 636.88 472C636.88 445.487 626.351 420.059 607.608 401.307C588.865 382.555 563.443 372.013 536.93 372V372ZM536.93 558.62C519.786 558.62 503.027 553.536 488.773 544.01C474.52 534.484 463.411 520.945 456.853 505.106C450.294 489.266 448.581 471.837 451.929 455.023C455.277 438.209 463.537 422.766 475.663 410.647C487.789 398.528 503.236 390.278 520.052 386.939C536.868 383.601 554.296 385.324 570.132 391.892C585.968 398.459 599.5 409.576 609.018 423.835C618.535 438.095 623.61 454.856 623.6 472C623.597 494.985 614.465 517.027 598.211 533.279C581.958 549.53 559.915 558.66 536.93 558.66V558.62Z" fill="black" fill-opacity="0.4"/>
<path d="M806.871 356.671C805.395 353.069 803.882 349.477 802.33 345.897C801.051 342.403 799.173 339.158 796.78 336.31C795.87 335.285 794.763 334.454 793.524 333.868C792.161 333.366 790.728 333.08 789.276 333.022C787.063 332.743 784.828 332.683 782.603 332.843C781.74 332.583 780.764 332.241 779.803 331.85C784.619 330.585 788.902 327.806 792.02 323.924C795.137 320.041 796.926 315.26 797.121 310.284C797.121 309.959 797.121 309.617 797.121 309.291C797.134 306.245 796.547 303.227 795.393 300.408C794.24 297.589 792.542 295.025 790.397 292.862C788.253 290.7 785.703 288.98 782.894 287.803C780.085 286.625 777.071 286.013 774.025 286C769.738 285.992 765.535 287.193 761.9 289.467C757.099 288.378 752.071 288.949 747.637 291.086C743.203 293.223 739.624 296.801 737.485 301.235C734.789 303.814 732.659 306.925 731.23 310.372C729.801 313.818 729.104 317.524 729.184 321.254C729.184 321.596 729.184 321.954 729.184 322.28C729.608 334.926 737.778 345.066 748.097 346.092C746.994 346.588 745.982 347.264 745.103 348.094C741.945 351.137 741.424 355.972 741.082 360.366L740.838 363.621L735.369 365.574C735.195 365.637 735.042 365.745 734.925 365.889C734.809 366.032 734.734 366.204 734.709 366.387C734.683 366.57 734.709 366.757 734.782 366.926C734.856 367.096 734.974 367.242 735.125 367.349L740.35 371.076C740.35 371.385 740.35 371.694 740.35 372.004C740.35 372.313 740.35 372.704 740.448 373.062C739.555 373.848 738.863 374.835 738.429 375.942C737.921 377.651 737.76 379.444 737.957 381.216L738.153 385.757C738.127 389.175 738.593 392.579 739.536 395.865C740.22 397.883 743.182 402.749 745.314 402.782C743.345 411.734 742.824 430.614 742.824 430.614C742.58 430.859 743.263 431.086 744.452 431.282C745.623 440.266 749.448 465.462 756.236 476.546C757.304 480.16 758.157 483.834 758.791 487.549C758.791 487.549 760.728 511.491 763.283 518.604C765.464 524.658 767.189 539.6 767.661 543.93C767.219 544.043 766.817 544.277 766.498 544.604C766.179 544.931 765.957 545.34 765.855 545.785C764.569 549.659 756.236 555.551 756.236 555.551C753.681 556.827 751.27 558.371 749.041 560.157C746.421 562.517 746.519 564.649 758.156 563.315C780.617 560.727 784.458 553.549 784.458 553.549C784.458 553.549 784.1 552.344 783.563 550.782C782.877 548.351 781.888 546.015 780.617 543.832C780.292 543.523 779.966 544.043 779.576 544.857C777.881 534.472 777.368 523.929 778.046 513.428C778.046 513.428 778.68 502.425 775.474 494.661C774.76 490.596 774.76 486.438 775.474 482.373C776.76 477.197 770.347 451.952 770.347 451.952L766.669 433.365C767.17 434 767.521 434.74 767.694 435.53L767.792 435.904L767.889 436.441C767.926 436.631 768.016 436.806 768.15 436.946C770.656 447.363 777.525 476.22 777.525 480.452C777.525 485.628 783.938 498.568 783.938 498.568C783.938 498.568 786.493 519.922 790.985 528.321C794.403 534.717 794.485 544.092 794.322 548.226C794.322 548.226 793.557 553.549 792.271 554.835C791.249 556.106 790.431 557.528 789.846 559.05L789.699 559.359C789.699 559.359 787.779 563.249 789.065 563.901C793.956 565.819 799.248 566.485 804.462 565.837C804.462 565.837 807.034 562.582 807.034 561.313C806.98 560.537 806.882 559.766 806.741 559.001C806.269 555.941 805.39 551.124 805.373 551.075C805.911 548.991 803.746 543.197 803.746 543.197L803.095 525.082C804.286 512.816 802.752 500.438 798.603 488.834C798.603 488.834 795.347 477.197 796.047 473.958C796.747 470.719 794.761 436.425 794.761 436.425L794.566 435.937C794.392 433.511 794.458 431.074 794.761 428.661C795.396 420.897 792.841 404.719 792.19 404.084C791.659 402.345 791.352 400.546 791.278 398.729C791.425 397.378 791.864 393.423 792.466 388.508C798.795 388.291 805.107 387.748 811.379 386.88C811.985 386.88 812.568 386.647 813.007 386.229C813.264 385.838 813.395 385.378 813.381 384.911C814.13 375.161 810.566 365.688 806.871 356.671ZM793.964 377.196C794.631 372.557 795.347 368.065 796.063 364.728L796.161 365.021C797.393 368.375 798.426 371.799 799.254 375.275C797.545 376.057 795.776 376.699 793.964 377.196Z" fill="url(#paint0_linear)"/>
<path d="M744.11 429.589C744.11 429.589 747.951 464.143 756.268 477.571C757.337 481.141 758.19 484.772 758.824 488.444C758.824 488.444 760.744 512.109 763.3 519.141C765.855 526.172 767.775 545.378 767.775 545.378C767.775 545.378 776.727 555.599 779.934 547.299C777.92 536.331 777.275 525.156 778.013 514.03C778.013 514.03 778.648 503.157 775.458 495.475C774.744 491.459 774.744 487.349 775.458 483.333C776.727 478.206 770.331 453.271 770.331 453.271L765.22 428.319L744.11 429.589Z" fill="#BE6F72"/>
<path d="M784.41 553.695C784.41 553.695 780.569 560.727 758.189 563.282C746.568 564.6 746.486 562.501 749.107 560.157C751.328 558.391 753.728 556.864 756.268 555.6C756.268 555.6 764.585 549.854 765.855 546.013C767.125 542.172 771.617 545.378 771.617 545.378C778.013 554.965 779.299 542.807 780.569 544.092C781.843 546.239 782.833 548.543 783.515 550.945C784.052 552.491 784.41 553.695 784.41 553.695Z" fill="#FF6F61"/>
<path opacity="0.1" d="M784.41 553.695C784.41 553.695 780.569 560.727 758.189 563.282C746.568 564.6 746.486 562.501 749.107 560.157C750.93 561.312 754.608 561.784 762.014 558.806C772.675 554.444 780.406 551.921 783.515 550.944C784.052 552.491 784.41 553.695 784.41 553.695Z" fill="black"/>
<path opacity="0.1" d="M778.013 514.03C778.013 514.03 778.648 503.157 775.458 495.475C774.744 491.459 774.744 487.349 775.458 483.333C776.727 478.206 770.331 453.271 770.331 453.271L765.22 428.319L760.793 428.58L765.855 453.271C765.855 453.271 772.251 478.206 770.982 483.333C770.268 487.349 770.268 491.459 770.982 495.475C774.237 503.157 773.537 514.03 773.537 514.03C772.799 525.156 773.444 536.331 775.458 547.299C775.111 548.34 774.466 549.257 773.602 549.935C775.979 551.01 778.485 550.961 779.934 547.299C777.92 536.331 777.275 525.156 778.013 514.03V514.03Z" fill="black"/>
<path d="M773.846 289.19C769.578 289.181 765.394 290.371 761.769 292.624C756.983 291.519 751.964 292.068 747.531 294.182C743.097 296.295 739.51 299.848 737.355 304.262C734.67 306.801 732.546 309.873 731.12 313.282C729.693 316.69 728.995 320.36 729.07 324.054C729.07 337.661 738.234 348.68 749.529 348.68C757.668 348.68 764.797 342.885 768.068 334.503C769.948 335.001 771.885 335.253 773.83 335.252C779.938 335.252 785.796 332.825 790.115 328.506C794.434 324.187 796.861 318.329 796.861 312.221C796.861 306.113 794.434 300.255 790.115 295.936C785.796 291.617 779.938 289.19 773.83 289.19H773.846Z" fill="#3F3D56"/>
<path d="M792.727 432.795L794.647 437.906C794.647 437.906 796.568 471.809 795.917 475.016C795.266 478.222 798.489 489.664 798.489 489.664C802.625 501.119 804.154 513.352 802.965 525.472L803.599 543.376C803.599 543.376 806.155 550.407 804.885 551.693C803.616 552.979 793.964 550.554 793.964 550.554C793.964 550.554 795.25 537.126 790.709 528.809C786.168 520.492 783.677 499.381 783.677 499.381C783.677 499.381 777.281 486.588 777.281 481.477C777.281 476.367 767.043 434.781 767.043 434.781L792.727 432.795Z" fill="#BE6F72"/>
<path d="M742.824 432.161C742.824 432.161 743.475 409.13 746.079 402.098C747.405 398.813 748.36 395.39 748.928 391.893C748.928 391.893 787.649 398.892 790.855 396.337C790.855 396.337 791.49 405.289 792.141 405.923C792.792 406.558 795.396 422.558 794.696 430.24C793.997 437.922 794.696 437.906 794.696 437.906C794.696 437.906 768.459 441.747 767.824 437.906C767.19 434.065 765.269 434.081 765.269 434.081C765.269 434.081 741.555 433.365 742.824 432.161Z" fill="#3F3D56"/>
<g opacity="0.1">
<path opacity="0.1" d="M763.934 432.161C763.934 432.161 747.755 431.721 742.873 430.842C742.873 431.672 742.873 432.161 742.873 432.161C741.603 433.43 765.269 434.081 765.269 434.081C765.591 434.111 765.897 434.235 766.148 434.439C765.285 432.16 763.934 432.161 763.934 432.161Z" fill="black"/>
<path opacity="0.1" d="M792.092 405.923C791.441 405.289 790.806 396.337 790.806 396.337C790.474 396.543 790.103 396.676 789.716 396.727C789.943 399.429 790.383 403.58 790.806 404.003C791.229 404.426 794.061 420.637 793.361 428.319C792.662 436.002 793.361 435.985 793.361 435.985C793.361 435.985 772.609 439.029 767.58 436.995C767.58 437.271 767.726 437.58 767.775 437.906C768.41 441.747 794.647 437.906 794.647 437.906C794.647 437.906 793.996 437.906 794.647 430.24C795.298 422.574 792.727 406.574 792.092 405.923Z" fill="black"/>
</g>
<path d="M771.014 329.49C771.565 330.722 772.402 331.804 773.456 332.648C774.134 333.151 774.919 333.491 775.751 333.641C774.318 334.471 772.756 335.089 771.324 335.919C769.071 337.434 766.898 339.063 764.813 340.802C762.682 342.516 760.072 343.528 757.342 343.699C758.3 342.408 758.901 340.887 759.084 339.29C759.267 337.693 759.025 336.075 758.384 334.601C757.798 333.635 757.411 332.561 757.245 331.443C757.245 329.604 758.872 328.188 760.386 327.211C761.607 326.381 762.86 325.584 764.129 324.786C765.122 324.168 766.62 322.866 767.873 322.915C769.126 322.963 769.273 324.07 769.501 325.209C769.823 326.694 770.332 328.133 771.014 329.49V329.49Z" fill="#BE6F72"/>
<path opacity="0.1" d="M771.014 329.49C771.565 330.722 772.402 331.804 773.456 332.648C774.134 333.151 774.919 333.491 775.751 333.641C774.318 334.471 772.756 335.089 771.324 335.919C769.071 337.434 766.898 339.063 764.813 340.802C762.682 342.516 760.072 343.528 757.342 343.699C758.3 342.408 758.901 340.887 759.084 339.29C759.267 337.693 759.025 336.075 758.384 334.601C757.798 333.635 757.411 332.561 757.245 331.443C757.245 329.604 758.872 328.188 760.386 327.211C761.607 326.381 762.86 325.584 764.129 324.786C765.122 324.168 766.62 322.866 767.873 322.915C769.126 322.963 769.273 324.07 769.501 325.209C769.823 326.694 770.332 328.133 771.014 329.49V329.49Z" fill="black"/>
<path d="M786.005 367.235C794.131 367.235 800.719 360.647 800.719 352.521C800.719 344.395 794.131 337.807 786.005 337.807C777.879 337.807 771.291 344.395 771.291 352.521C771.291 360.647 777.879 367.235 786.005 367.235Z" fill="#BE6F72"/>
<path d="M806.79 561.361C806.79 562.647 804.234 565.837 804.234 565.837C799.038 566.475 793.764 565.815 788.886 563.917C787.6 563.282 789.52 559.441 789.52 559.441L789.667 559.131C790.253 557.625 791.072 556.219 792.092 554.965C793.362 553.695 794.127 548.454 794.127 548.454C798.098 541.944 805.146 551.27 805.146 551.27C805.146 551.27 806.041 556.153 806.513 559.115C806.676 560.173 806.79 561.036 806.79 561.361Z" fill="#FF6F61"/>
<path opacity="0.1" d="M806.79 561.361C806.79 562.647 804.234 565.837 804.234 565.837C799.038 566.475 793.764 565.815 788.886 563.917C787.6 563.282 789.52 559.441 789.52 559.441L789.667 559.131C794.025 561.156 798.796 562.137 803.599 561.996L806.513 559.083C806.676 560.173 806.79 561.036 806.79 561.361Z" fill="black"/>
<path d="M756.577 336.196C764.524 336.196 770.965 329.754 770.965 321.807C770.965 313.861 764.524 307.419 756.577 307.419C748.631 307.419 742.189 313.861 742.189 321.807C742.189 329.754 748.631 336.196 756.577 336.196Z" fill="#BE6F72"/>
<path d="M744.972 350.584C741.815 353.595 741.294 358.364 740.968 362.71L740.48 369.074C740.304 370.788 740.266 372.513 740.366 374.233C740.366 375.291 740.627 376.366 740.724 377.489C740.822 378.612 740.855 380.028 740.871 381.314V390.721C740.717 392.663 741.076 394.61 741.913 396.369C742.359 397.22 743.108 397.872 744.012 398.197C744.916 398.523 745.909 398.497 746.795 398.127C747.807 397.347 748.519 396.244 748.814 395.002C750.401 391.185 751.495 387.181 752.069 383.088C752.199 381.672 752.215 380.256 752.346 378.84C752.476 377.423 752.72 375.942 752.931 374.51C753.843 368.52 754.25 362.466 754.657 356.427C754.771 354.637 756.382 347.589 754.038 346.808C752.899 346.434 750.539 347.605 749.448 347.996C747.797 348.548 746.275 349.429 744.972 350.584V350.584Z" fill="#BE6F72"/>
<path opacity="0.1" d="M744.972 350.584C741.815 353.595 741.294 358.364 740.968 362.71L740.48 369.074C740.304 370.788 740.266 372.513 740.366 374.233C740.366 375.291 740.627 376.366 740.724 377.489C740.822 378.612 740.855 380.028 740.871 381.314V390.721C740.717 392.663 741.076 394.61 741.913 396.369C742.359 397.22 743.108 397.872 744.012 398.197C744.916 398.523 745.909 398.497 746.795 398.127C747.807 397.347 748.519 396.244 748.814 395.002C750.401 391.185 751.495 387.181 752.069 383.088C752.199 381.672 752.215 380.256 752.346 378.84C752.476 377.423 752.72 375.942 752.931 374.51C753.843 368.52 754.25 362.466 754.657 356.427C754.771 354.637 756.382 347.589 754.038 346.808C752.899 346.434 750.539 347.605 749.448 347.996C747.797 348.548 746.275 349.429 744.972 350.584V350.584Z" fill="black"/>
<path d="M774.807 331.085C774.807 331.085 763.934 339.402 757.538 341.323C757.538 341.323 753.746 345.652 753.094 346.694C752.443 347.736 751.141 359.227 749.839 361.798C748.537 364.37 745.363 370.116 749.839 375.861C749.839 375.861 751.109 381.623 750.474 383.543C749.839 385.464 747.512 392.495 749.628 392.821C751.744 393.146 758.156 397.606 763.902 396.337C769.647 395.067 791.099 401.219 791.099 401.219C791.099 401.219 794.648 368.26 797.219 362.433L791.458 360.513C791.458 360.513 775.474 350.926 785.061 336.212C785.045 336.212 776.06 334.292 774.807 331.085Z" fill="#FF6F61"/>
<path d="M735.109 369.611L748.325 378.97C748.493 379.093 748.695 379.159 748.903 379.159C749.111 379.159 749.313 379.093 749.481 378.97L753.062 376.284C753.172 376.189 753.26 376.072 753.321 375.94C753.381 375.808 753.413 375.665 753.413 375.519C753.413 375.374 753.381 375.23 753.321 375.098C753.26 374.966 753.172 374.849 753.062 374.754L742.889 365.721C742.757 365.601 742.595 365.519 742.42 365.485C742.245 365.45 742.064 365.464 741.896 365.526L735.369 367.869C735.198 367.929 735.046 368.034 734.93 368.173C734.814 368.313 734.738 368.482 734.711 368.661C734.684 368.841 734.707 369.024 734.777 369.192C734.847 369.359 734.962 369.504 735.109 369.611V369.611Z" fill="#3F3D56"/>
<path d="M739.552 397.801C738.618 394.558 738.152 391.199 738.169 387.824L737.974 383.315C737.777 381.565 737.938 379.793 738.446 378.107C738.947 376.95 739.7 375.92 740.648 375.089C741.597 374.259 742.718 373.65 743.931 373.305C746.361 372.631 748.9 372.448 751.402 372.768C751.739 372.769 752.07 372.859 752.362 373.029C752.617 373.265 752.798 373.57 752.883 373.908C753.253 374.629 753.47 375.42 753.52 376.229C753.57 377.038 753.453 377.849 753.176 378.611C752.798 379.232 752.286 379.76 751.678 380.158C749.904 381.427 747.837 382.274 746.161 383.657C745.82 383.887 745.559 384.217 745.412 384.601C745.331 384.938 745.331 385.289 745.412 385.627C745.62 386.522 745.903 387.399 746.258 388.247C746.402 388.673 746.655 389.055 746.991 389.354C747.3 389.614 747.707 389.712 748.032 389.956C748.732 390.526 750.197 391.274 750.116 392.17C749.872 395.425 747.918 399.071 747.153 402.293C745.689 408.592 740.497 400.552 739.552 397.801Z" fill="#BE6F72"/>
<g opacity="0.1">
<path opacity="0.1" d="M760.109 396.337H759.751C761.133 396.605 762.553 396.605 763.934 396.337H764.341C762.938 396.132 761.513 396.132 760.109 396.337Z" fill="black"/>
<path opacity="0.1" d="M793.687 361.473C791.392 366.632 788.007 394.579 787.405 400.129C789.651 400.715 791.132 401.138 791.132 401.138C791.132 401.138 794.648 368.26 797.219 362.433L793.687 361.473Z" fill="black"/>
</g>
<path d="M786.509 352.977C786.629 353.619 786.876 354.231 787.237 354.776C787.598 355.322 788.064 355.789 788.609 356.15C789.967 357.289 791.215 358.553 792.336 359.927C793.944 362.188 795.191 364.687 796.031 367.332C797.252 370.644 798.279 374.025 799.107 377.456C790.969 381.232 781.724 381.053 773.065 383.543C769.337 384.526 765.955 386.527 763.299 389.321C761.975 390.726 760.968 392.4 760.348 394.228C759.727 396.056 759.507 397.996 759.702 399.917C759.715 400.142 759.782 400.359 759.897 400.552C760.039 400.712 760.215 400.836 760.413 400.915C760.611 400.994 760.825 401.026 761.037 401.008C763.2 401.005 765.301 400.283 767.01 398.957C768.699 397.637 770.234 396.13 771.584 394.465C772.422 393.373 773.55 392.538 774.839 392.056C779.543 390.624 784.605 390.705 789.488 390.624C796.791 390.481 804.079 389.905 811.314 388.898C811.578 388.93 811.846 388.901 812.097 388.814C812.348 388.727 812.577 388.584 812.765 388.396C812.953 388.208 813.096 387.979 813.183 387.728C813.27 387.477 813.299 387.209 813.267 386.945C813.983 377.342 810.419 367.967 806.757 359.064C805.292 355.494 803.784 351.94 802.232 348.403C800.954 344.947 799.081 341.741 796.698 338.93C795.793 337.909 794.684 337.088 793.443 336.521C792.042 336.016 790.569 335.741 789.081 335.708C786.712 335.388 784.314 335.344 781.935 335.577C781.556 336.776 781.326 338.017 781.252 339.272C781.382 343.667 783.303 347.784 785.191 351.756C785.435 352.358 786.135 352.391 786.509 352.977Z" fill="#BE6F72"/>
<path opacity="0.1" d="M760.451 361.212C759.35 363.097 758.787 365.248 758.823 367.43C758.827 368.292 758.965 369.149 759.23 369.969C759.675 371.12 760.372 372.156 761.271 373.001C762.17 373.846 763.247 374.479 764.422 374.852" stroke="black" stroke-miterlimit="10"/>
<path d="M768.736 307.745C767.934 307.742 767.137 307.869 766.376 308.119C764.243 304.864 759.23 302.618 753.355 302.618C745.574 302.618 739.276 306.638 739.276 311.586C739.276 316.534 745.574 320.538 753.355 320.538C756.268 320.57 759.152 319.958 761.802 318.748C762.398 319.981 763.313 321.032 764.453 321.791C765.593 322.55 766.915 322.99 768.283 323.066C769.65 323.141 771.013 322.848 772.229 322.219C773.445 321.589 774.47 320.645 775.198 319.484C775.926 318.324 776.33 316.99 776.367 315.621C776.405 314.252 776.075 312.898 775.412 311.7C774.749 310.501 773.777 309.503 772.597 308.807C771.417 308.112 770.073 307.745 768.703 307.745H768.736Z" fill="#3F3D56"/>
<path opacity="0.1" d="M769.37 321.173C767.927 321.173 766.513 320.765 765.292 319.996C764.071 319.228 763.092 318.129 762.469 316.827C759.819 318.038 756.935 318.649 754.022 318.618C746.258 318.618 739.959 314.614 739.959 309.666C739.934 309.368 739.934 309.068 739.959 308.771C739.496 309.637 739.25 310.604 739.243 311.586C739.243 316.469 745.542 320.538 753.322 320.538C756.235 320.57 759.119 319.959 761.769 318.748C762.47 320.201 763.612 321.396 765.032 322.163C766.451 322.929 768.077 323.228 769.677 323.017C771.276 322.806 772.768 322.096 773.941 320.988C775.113 319.879 775.906 318.429 776.206 316.843C775.587 318.133 774.618 319.223 773.409 319.989C772.2 320.754 770.801 321.164 769.37 321.173V321.173Z" fill="black"/>
<path opacity="0.1" d="M737.371 308.038C739.527 303.624 743.113 300.071 747.547 297.958C751.981 295.844 757 295.295 761.786 296.4C765.135 294.333 768.958 293.158 772.89 292.99C776.822 292.821 780.732 293.663 784.246 295.437C787.759 297.21 790.759 299.854 792.96 303.118C795.16 306.381 796.486 310.154 796.812 314.076C796.812 313.442 796.812 312.807 796.812 312.156C796.803 308.062 795.703 304.045 793.624 300.519C791.545 296.992 788.564 294.084 784.986 292.094C781.409 290.104 777.366 289.104 773.273 289.197C769.181 289.29 765.187 290.473 761.704 292.624C756.919 291.519 751.9 292.068 747.466 294.182C743.032 296.295 739.445 299.848 737.29 304.262C734.606 306.801 732.482 309.873 731.055 313.282C729.628 316.69 728.93 320.36 729.006 324.054C729.006 324.705 729.006 325.34 729.006 325.974C729.325 319.128 732.331 312.683 737.371 308.038Z" fill="black"/>
<path d="M445.209 447.218C445.232 444.53 444.623 441.873 443.433 439.462C442.243 437.051 440.504 434.953 438.356 433.336C438.329 428.584 436.625 423.993 433.542 420.376C430.46 416.758 426.199 414.346 421.511 413.565C420.787 410.11 419.167 406.907 416.813 404.276C414.46 401.646 411.455 399.681 408.102 398.578V398.578C407.288 398.324 406.456 398.13 405.613 398H405.368H404.93H404.579H404.194H403.72H402.651C397.994 398.108 393.524 399.86 390.034 402.945C386.544 406.031 384.258 410.253 383.581 414.862C377.428 413.442 371.802 415.282 370.768 419.174C370.509 420.207 370.57 421.295 370.943 422.294C371.995 425.308 375.413 428.201 379.988 429.62L380.584 429.796L381.477 430.023H381.67C380.693 432.101 380.19 434.371 380.198 436.667C380.184 439.484 380.947 442.251 382.403 444.663C383.86 447.075 385.953 449.039 388.454 450.338L388.05 450.584C387.48 451.102 387.026 451.736 386.718 452.442C385.612 454.398 384.747 456.482 384.142 458.647C383.703 460.505 383.633 462.433 383.09 464.273C382.073 467.656 379.479 470.513 379.181 474.036C379.041 475.614 379.304 477.542 378.182 478.558C377.906 478.798 377.607 479.01 377.288 479.189C376.511 479.738 375.85 480.435 375.343 481.24C375.007 481.97 374.544 482.635 373.975 483.203C372.959 483.957 371.294 483.887 370.803 485.061C370.312 486.236 371.592 487.62 371.294 488.9C370.996 490.179 369.909 490.425 369.12 491.143C368.203 492.13 367.557 493.338 367.245 494.649C365.586 494.965 363.878 494.913 362.243 494.495C360.607 494.077 359.083 493.304 357.78 492.23C358.227 493.362 358.555 494.537 358.761 495.736C357.236 494.572 355.506 493.703 353.661 493.177C351.584 492.233 349.732 490.859 348.227 489.145L351.137 488.742L338.289 469.128L334.485 468.34L337.885 474.877C337.601 475.007 337.35 475.199 337.15 475.438C336.949 475.678 336.805 475.959 336.729 476.262C336.548 476.99 336.506 477.745 336.606 478.488C336.78 480.259 337.073 482.015 337.482 483.747L338.464 488.339C338.552 488.76 338.657 489.198 338.779 489.618C337.497 489.556 336.213 489.698 334.976 490.039C332.428 489.092 329.773 488.462 327.071 488.164C326.492 488.046 325.896 488.046 325.318 488.164C324.663 488.474 324.092 488.937 323.653 489.513C321.44 492.08 319.474 494.85 317.781 497.787C310.77 509.811 301.638 520.31 292.996 531.177C287.037 533.596 281.025 535.892 275.013 538.188L262.077 543.131C259.555 544.276 256.819 544.873 254.049 544.884C252.822 544.884 251.297 544.621 250.544 545.673C250.206 546.22 249.94 546.809 249.755 547.426L248.423 547.566C247.81 545.461 246.752 543.513 245.32 541.852C245.005 541.906 244.707 542.036 244.454 542.232C244.2 542.428 243.998 542.682 243.866 542.973C243.55 543.552 243.357 544.183 242.989 544.726C242.306 545.743 241.096 546.234 240.237 547.093C239.378 547.951 238.835 549.284 237.889 550.16C236.598 551.115 235.082 551.718 233.489 551.913C231.087 552.473 228.771 553.352 226.601 554.524C225.806 555.022 224.952 555.416 224.059 555.699C223.072 555.891 222.06 555.927 221.062 555.804L214.226 555.296C213.612 555.219 212.989 555.249 212.385 555.383C211.699 555.663 211.119 556.153 210.729 556.783C210.338 557.412 210.157 558.15 210.212 558.889C210.3 559.631 210.538 560.348 210.912 560.996C211.286 561.644 211.787 562.209 212.385 562.657C213.568 563.531 214.881 564.211 216.277 564.673C222.192 566.976 228.29 568.782 234.506 570.072V571.456C238.855 573.649 243.658 574.789 248.528 574.787C248.889 574.811 249.251 574.745 249.58 574.594C250.027 574.259 250.339 573.773 250.456 573.227C251.91 568.879 252.828 564.37 253.191 559.8V559.8C254.046 559.743 254.884 559.529 255.662 559.169C258.011 558.521 260.359 560.133 262.796 560.396C265.793 560.729 268.562 558.977 271.402 557.907L272.629 557.504C271.82 558.544 270.864 559.459 269.789 560.221C268.615 561.062 267.3 561.693 266.161 562.57C265.196 563.443 264.165 564.24 263.076 564.954C262.308 565.309 261.518 565.613 260.71 565.865C259.515 566.309 258.379 566.898 257.327 567.618C256.395 568.173 255.608 568.942 255.031 569.861C254.743 570.331 254.575 570.865 254.541 571.415C254.507 571.965 254.609 572.515 254.838 573.016C255.081 573.426 255.408 573.778 255.798 574.05C256.188 574.322 256.632 574.508 257.099 574.594C258.023 574.734 258.962 574.734 259.886 574.594C263.602 574.313 267.3 573.98 270.999 573.647C272.562 573.548 274.116 573.326 275.644 572.981C276.45 572.788 277.256 572.526 278.063 572.298C279.446 571.948 280.861 571.737 282.287 571.667C282.7 571.635 283.115 571.676 283.514 571.789C284.373 572.07 284.986 572.946 285.863 573.122C286.457 573.197 287.06 573.118 287.615 572.894C290.317 572.312 293.072 572.018 295.836 572.017C297.045 572.017 298.465 571.719 299.026 570.598C299.587 569.476 298.57 567.67 298.115 566.181C297.881 565.228 297.751 564.252 297.729 563.271C297.517 560.856 296.826 558.509 295.696 556.365C295.086 555.365 294.575 554.309 294.171 553.21C299.472 551.196 304.543 548.622 309.297 545.533C311.902 543.646 314.822 542.239 317.921 541.378C321.581 540.942 325.292 541.374 328.753 542.64C337.181 545.083 345.472 547.973 353.591 551.299C357.464 552.894 361.32 554.577 365.317 555.786C366.482 557.35 367.891 558.717 369.488 559.835C372.249 561.388 375.349 562.237 378.515 562.307C382.74 562.692 386.982 562.85 391.223 562.78C394.47 562.921 397.707 562.322 400.688 561.027C401.4 560.672 402.065 560.23 402.669 559.713C403.813 559.81 404.966 559.654 406.044 559.258C407.122 558.861 408.1 558.232 408.909 557.417C411.207 555.447 412.861 552.834 413.659 549.915C414.693 545.918 413.904 541.151 416.358 537.961C417.007 537.084 417.865 536.383 418.514 535.507C419.299 534.306 419.691 532.891 419.636 531.458C419.665 531.401 419.7 531.348 419.741 531.3C420.279 530.012 420.633 528.655 420.793 527.269C421.094 526.179 421.474 525.112 421.932 524.078C423.178 520.986 424.266 517.833 425.192 514.631C425.825 512.501 426.328 510.336 426.699 508.145C426.962 506.393 427.12 504.64 427.26 502.887C427.446 500.125 427.982 497.398 428.855 494.772C431.05 488.519 432.291 481.972 432.536 475.351V474.965C435.766 474.594 438.74 473.029 440.874 470.577C443.008 468.125 444.148 464.964 444.07 461.714C444.07 459.763 443.658 457.833 442.86 456.053C444.411 453.367 445.221 450.319 445.209 447.218ZM382.494 523.412C382.687 524.096 382.915 524.762 383.143 525.428C382.108 524.429 381.109 523.395 380.075 522.378C380.478 522.518 380.899 522.641 381.285 522.799C381.69 522.964 382.077 523.17 382.441 523.412H382.494ZM377.534 520.047C371.469 514.789 364.458 510.705 358.253 505.604C361.636 507.269 364.931 509.215 368.191 511.073C372.059 513.281 375.979 515.402 379.952 517.435C379.3 518.453 378.462 519.339 377.481 520.047H377.534ZM380.11 506.796L380.408 506.498C380.408 507.252 380.408 507.935 380.408 508.584L378.778 508.023C379.229 507.64 379.657 507.231 380.058 506.796H380.11ZM326.773 520.993C329.261 518.177 331.424 515.091 333.223 511.791C335.624 515.98 339.533 519.013 342.846 522.536C337.5 521.852 332.136 521.274 326.773 520.993Z" fill="url(#paint1_linear)"/>
<path d="M335.397 469.952L339.218 470.724L352.241 489.987L346.509 490.758L335.397 469.952Z" fill="#2F2E41"/>
<path d="M242.744 548.092C243.78 551.491 245.057 554.812 246.565 558.03C250.88 557.118 255.126 555.906 259.273 554.402C258.455 553.186 257.571 552.016 256.626 550.896C255.597 549.777 254.381 548.846 253.033 548.145C251.596 547.819 250.105 547.819 248.668 548.145C246.705 548.092 244.724 548.127 242.744 548.092Z" fill="#FBBEBE"/>
<path d="M253.05 553.228C252.014 552.763 251.089 552.082 250.339 551.229C249.589 550.376 249.031 549.372 248.703 548.285C248.036 546.101 246.906 544.086 245.39 542.378C245.071 542.421 244.769 542.546 244.511 542.739C244.253 542.932 244.049 543.188 243.918 543.482C243.603 544.043 243.41 544.674 243.059 545.235C242.358 546.234 241.131 546.725 240.255 547.566C239.378 548.407 238.853 549.722 237.906 550.581C236.605 551.54 235.077 552.144 233.471 552.334C231.032 552.884 228.675 553.75 226.46 554.91C225.65 555.395 224.785 555.783 223.884 556.067C222.884 556.216 221.868 556.216 220.869 556.067L213.963 555.576C213.383 555.481 212.79 555.481 212.21 555.576C211.505 555.831 210.906 556.315 210.509 556.951C210.112 557.586 209.939 558.337 210.019 559.082C210.101 559.821 210.338 560.534 210.716 561.175C211.094 561.815 211.603 562.369 212.21 562.798C213.41 563.659 214.734 564.333 216.136 564.796C222.149 567.061 228.34 568.819 234.646 570.054V571.422C239.037 573.577 243.864 574.698 248.756 574.699C249.115 574.721 249.475 574.661 249.807 574.524C250.255 574.189 250.567 573.704 250.684 573.157C252.345 568.316 253.319 563.265 253.576 558.153C253.689 556.854 253.588 555.546 253.278 554.279C252.892 553.035 254.189 553.561 252.998 553.07" fill="#2F2E41"/>
<path d="M385.491 527.198C365.019 528.425 344.792 522.431 324.284 521.8C321.738 521.632 319.182 521.791 316.677 522.273C314.068 522.98 311.542 523.962 309.14 525.2C298.15 530.318 286.774 534.56 275.416 538.784L262.358 543.64C259.818 544.787 257.064 545.384 254.277 545.392C253.033 545.392 251.508 545.13 250.772 546.164C248.651 549.319 249.65 553.929 251.052 557.469C251.508 558.609 252.279 559.853 253.506 559.976C254.367 559.918 255.21 559.704 255.995 559.345C258.361 558.714 260.728 560.309 263.181 560.572C266.196 560.887 269.001 559.169 271.858 558.118C276.59 556.365 281.744 556.365 286.721 555.594C295.047 554.209 302.777 550.335 309.999 545.936C312.624 544.065 315.562 542.676 318.675 541.834C322.362 541.399 326.1 541.825 329.595 543.079C338.088 545.475 346.449 548.319 354.642 551.597C358.902 553.451 363.268 555.049 367.718 556.382C377.431 558.924 387.701 558.31 397.042 554.63C400.32 553.333 403.878 551.124 404.053 547.513C404.176 545.498 402.599 543.727 401.565 541.992C400.898 540.888 400.215 539.784 399.496 538.714C395.991 533.631 391.714 526.83 385.491 527.198Z" fill="#2F2E41"/>
<path opacity="0.1" d="M385.491 527.198C365.019 528.425 344.792 522.431 324.284 521.8C321.738 521.632 319.182 521.791 316.677 522.273C314.068 522.98 311.542 523.962 309.14 525.2C298.15 530.318 286.774 534.56 275.416 538.784L262.358 543.64C259.818 544.787 257.064 545.384 254.277 545.392C253.033 545.392 251.508 545.13 250.772 546.164C248.651 549.319 249.65 553.929 251.052 557.469C251.508 558.609 252.279 559.853 253.506 559.976C254.367 559.918 255.21 559.704 255.995 559.345C258.361 558.714 260.728 560.309 263.181 560.572C266.196 560.887 269.001 559.169 271.858 558.118C276.59 556.365 281.744 556.365 286.721 555.594C295.047 554.209 302.777 550.335 309.999 545.936C312.624 544.065 315.562 542.676 318.675 541.834C322.362 541.399 326.1 541.825 329.595 543.079C338.088 545.475 346.449 548.319 354.642 551.597C358.902 553.451 363.268 555.049 367.718 556.382C377.431 558.924 387.701 558.31 397.042 554.63C400.32 553.333 403.878 551.124 404.053 547.513C404.176 545.498 402.599 543.727 401.565 541.992C400.898 540.888 400.215 539.784 399.496 538.714C395.991 533.631 391.714 526.83 385.491 527.198Z" fill="black"/>
<path d="M282.059 549.038C285.261 550.125 288.492 551.13 291.752 552.053C293.505 549.056 297.01 546.97 297.764 543.534C297.808 543.386 297.808 543.227 297.764 543.079C297.677 542.933 297.549 542.817 297.396 542.746C295.052 541.459 292.456 540.699 289.789 540.52C287.685 540.397 286.721 542.588 285.775 544.13C285.407 544.814 282.918 549.371 282.059 549.038Z" fill="#FBBEBE"/>
<path d="M286.546 546.9C285.588 546.738 284.674 546.378 283.863 545.844C283.051 545.31 282.359 544.613 281.831 543.798C281.393 543.009 280.902 541.94 279.991 542.045C279.079 542.15 278.781 543.096 278.588 543.92C277.982 547.026 277.096 550.071 275.942 553.017C274.785 555.979 272.824 558.559 270.28 560.467C269.088 561.29 267.774 561.904 266.599 562.78C265.627 563.642 264.59 564.427 263.497 565.129C262.723 565.476 261.927 565.769 261.113 566.005C259.916 566.456 258.774 567.044 257.713 567.758C256.767 568.301 255.967 569.065 255.381 569.984C255.092 570.444 254.924 570.97 254.893 571.513C254.862 572.056 254.97 572.597 255.206 573.087C255.451 573.49 255.78 573.836 256.17 574.102C256.56 574.368 257.002 574.548 257.467 574.629C258.403 574.769 259.354 574.769 260.289 574.629C264.023 574.366 267.756 574.033 271.49 573.7C273.063 573.599 274.627 573.382 276.17 573.052L278.606 572.386C279.998 572.018 281.426 571.806 282.865 571.755C283.284 571.716 283.706 571.758 284.11 571.877C284.969 572.158 285.582 573.017 286.476 573.192C287.07 573.249 287.669 573.171 288.229 572.964C290.953 572.38 293.733 572.092 296.52 572.105C297.746 572.105 299.184 571.79 299.745 570.703C300.446 569.336 299.289 567.811 298.816 566.338C298.589 565.402 298.46 564.444 298.43 563.481C298.221 561.098 297.523 558.783 296.379 556.681C295.433 554.928 294.136 553 294.802 551.142C295.133 550.552 295.347 549.903 295.433 549.231C295.17 546.216 288.264 547.286 286.546 546.9Z" fill="#2F2E41"/>
<path d="M354.8 494.351C351.167 492.759 348.255 489.872 346.632 486.253C346.299 485.482 346.018 484.658 345.685 483.887C344.616 481.275 342.947 478.951 340.813 477.104C340.587 476.865 340.316 476.675 340.014 476.545C339.713 476.416 339.388 476.349 339.06 476.35C338.734 476.448 338.44 476.631 338.209 476.881C337.978 477.131 337.818 477.437 337.745 477.77C337.549 478.483 337.502 479.228 337.605 479.961C337.783 481.684 338.076 483.394 338.481 485.079L339.48 489.601C339.613 490.293 339.818 490.969 340.094 491.617C340.521 492.375 341.086 493.046 341.759 493.597C342.67 494.439 343.599 495.245 344.528 496.051C345.066 496.519 345.654 496.924 346.281 497.261C347.26 497.728 348.308 498.036 349.384 498.172C353.566 498.717 357.557 500.255 361.022 502.659C361.022 502.659 361.022 499.627 361.022 499.294C360.978 498.413 360.673 497.565 360.146 496.858C358.54 495.688 356.726 494.837 354.8 494.351V494.351Z" fill="#FBBEBE"/>
<path opacity="0.1" d="M354.8 494.351C351.167 492.759 348.255 489.872 346.632 486.253C346.299 485.482 346.018 484.658 345.685 483.887C344.616 481.275 342.947 478.951 340.813 477.104C340.587 476.865 340.316 476.675 340.014 476.545C339.713 476.416 339.388 476.349 339.06 476.35C338.734 476.448 338.44 476.631 338.209 476.881C337.978 477.131 337.818 477.437 337.745 477.77C337.549 478.483 337.502 479.228 337.605 479.961C337.783 481.684 338.076 483.394 338.481 485.079L339.48 489.601C339.613 490.293 339.818 490.969 340.094 491.617C340.521 492.375 341.086 493.046 341.759 493.597C342.67 494.439 343.599 495.245 344.528 496.051C345.066 496.519 345.654 496.924 346.281 497.261C347.26 497.728 348.308 498.036 349.384 498.172C353.566 498.717 357.557 500.255 361.022 502.659C361.022 502.659 361.022 499.627 361.022 499.294C360.978 498.413 360.673 497.565 360.146 496.858C358.54 495.688 356.726 494.837 354.8 494.351V494.351Z" fill="black"/>
<path d="M396.481 459.751C399.23 459.751 401.459 457.507 401.459 454.738C401.459 451.969 399.23 449.725 396.481 449.725C393.732 449.725 391.503 451.969 391.503 454.738C391.503 457.507 393.732 459.751 396.481 459.751Z" fill="#2F2E41"/>
<path d="M393.396 451.723C392.064 451.403 390.66 451.604 389.47 452.284C388.896 452.795 388.436 453.423 388.121 454.124C387.006 456.042 386.135 458.091 385.526 460.224C385.088 461.977 385.018 463.958 384.457 465.763C383.441 469.093 380.829 471.915 380.531 475.386C380.391 476.946 380.654 478.769 379.514 479.82C379.235 480.062 378.936 480.279 378.62 480.469C377.831 480.995 377.162 481.682 376.657 482.485C376.314 483.199 375.845 483.847 375.273 484.395C374.256 485.149 372.573 485.079 372.083 486.148C371.592 487.217 372.871 488.672 372.573 489.934C372.275 491.196 371.171 491.441 370.382 492.142C369.453 493.124 368.8 494.333 368.489 495.648C366.823 495.969 365.108 495.924 363.461 495.515C361.815 495.107 360.277 494.344 358.954 493.282C360.111 496.795 360.616 500.49 360.444 504.184C360.531 504.775 360.499 505.378 360.348 505.956C360.197 506.534 359.932 507.076 359.568 507.55C363.522 507.844 367.437 508.525 371.259 509.583C372.914 510.135 374.704 510.135 376.359 509.583C377.246 509.107 378.041 508.478 378.708 507.725C380.811 505.586 383.02 503.255 383.528 500.293C383.654 498.619 383.683 496.94 383.616 495.262C383.816 493.182 384.245 491.131 384.895 489.145C386.005 485.024 386.75 480.812 387.121 476.56C387.349 473.931 389.628 471.828 390.82 469.549C393.063 465.114 395.377 460.505 395.535 455.527C395.605 453.914 395.044 451.898 393.396 451.723Z" fill="#2F2E41"/>
<path opacity="0.1" d="M393.396 451.723C392.064 451.403 390.66 451.604 389.47 452.284C388.896 452.795 388.436 453.423 388.121 454.124C387.006 456.042 386.135 458.091 385.526 460.224C385.088 461.977 385.018 463.958 384.457 465.763C383.441 469.093 380.829 471.915 380.531 475.386C380.391 476.946 380.654 478.769 379.514 479.82C379.235 480.062 378.936 480.279 378.62 480.469C377.831 480.995 377.162 481.682 376.657 482.485C376.314 483.199 375.845 483.847 375.273 484.395C374.256 485.149 372.573 485.079 372.083 486.148C371.592 487.217 372.871 488.672 372.573 489.934C372.275 491.196 371.171 491.441 370.382 492.142C369.453 493.124 368.8 494.333 368.489 495.648C366.823 495.969 365.108 495.924 363.461 495.515C361.815 495.107 360.277 494.344 358.954 493.282C360.111 496.795 360.616 500.49 360.444 504.184C360.531 504.775 360.499 505.378 360.348 505.956C360.197 506.534 359.932 507.076 359.568 507.55C363.522 507.844 367.437 508.525 371.259 509.583C372.914 510.135 374.704 510.135 376.359 509.583C377.246 509.107 378.041 508.478 378.708 507.725C380.811 505.586 383.02 503.255 383.528 500.293C383.654 498.619 383.683 496.94 383.616 495.262C383.816 493.182 384.245 491.131 384.895 489.145C386.005 485.024 386.75 480.812 387.121 476.56C387.349 473.931 389.628 471.828 390.82 469.549C393.063 465.114 395.377 460.505 395.535 455.527C395.605 453.914 395.044 451.898 393.396 451.723Z" fill="black"/>
<path d="M388.734 531.51C384.475 529.477 381.355 525.709 377.902 522.466C371.329 516.279 363.284 511.949 356.36 506.112C351.768 502.274 347.596 497.804 342.636 494.579C338.192 491.762 333.161 490.005 327.93 489.443C327.353 489.311 326.754 489.311 326.177 489.443C325.514 489.725 324.939 490.179 324.512 490.758C322.276 493.279 320.287 496.009 318.57 498.908C309.806 513.807 297.343 526.322 287.019 540.169C286.782 540.457 286.609 540.791 286.511 541.151C286.468 541.688 286.603 542.224 286.897 542.676L289 546.777C290.175 549.091 292.068 551.773 294.592 551.317C295.728 550.988 296.745 550.336 297.519 549.441L306.949 540.415L316.835 530.967C322.619 525.446 328.508 519.784 332.294 512.703C335.239 517.821 340.48 521.169 344.055 525.849C345.423 527.602 346.544 529.582 347.771 531.475C349.717 534.49 351.943 537.33 354.151 540.239L365.492 554.7C366.929 556.742 368.708 558.521 370.75 559.958C373.547 561.48 376.665 562.315 379.847 562.395C384.107 562.774 388.384 562.926 392.66 562.85C395.935 562.982 399.198 562.383 402.213 561.097C403.716 560.437 404.999 559.363 405.915 558C406.83 556.638 407.34 555.043 407.384 553.403C407.209 551.705 406.652 550.069 405.754 548.618C401.652 541.308 396.359 535.139 388.734 531.51Z" fill="#2F2E41"/>
<path d="M399.549 462.065C401.669 462.065 403.387 460.338 403.387 458.208C403.387 456.079 401.669 454.352 399.549 454.352C397.429 454.352 395.71 456.079 395.71 458.208C395.71 460.338 397.429 462.065 399.549 462.065Z" fill="#E8E8F0"/>
<path d="M398.707 455.317C399.564 457.038 399.715 459.025 399.128 460.855C398.523 462.653 397.692 464.367 396.657 465.956C395.766 467.593 394.69 469.122 393.449 470.513C399.373 470.794 405.105 468.48 410.311 465.676C414.518 463.414 418.707 460.628 420.95 456.403C420.281 456.563 419.585 456.58 418.909 456.453C418.233 456.326 417.59 456.058 417.024 455.667C415.894 454.89 414.884 453.951 414.027 452.88L411.065 449.55C410.393 448.817 409.805 448.012 409.312 447.148C408.661 445.968 408.386 444.616 408.523 443.275C407.342 444.507 406.025 445.6 404.597 446.535C402.476 447.92 400.145 448.919 398.006 450.286C397.27 450.777 395.587 451.548 396.026 452.53C396.464 453.511 398.111 454.265 398.707 455.317Z" fill="#FBBEBE"/>
<path opacity="0.1" d="M398.707 455.317C399.564 457.038 399.715 459.025 399.128 460.855C398.523 462.653 397.692 464.367 396.657 465.956C395.766 467.593 394.69 469.122 393.449 470.513C399.373 470.794 405.105 468.48 410.311 465.676C414.518 463.414 418.707 460.628 420.95 456.403C420.281 456.563 419.585 456.58 418.909 456.453C418.233 456.326 417.59 456.058 417.024 455.667C415.894 454.89 414.884 453.951 414.027 452.88L411.065 449.55C410.393 448.817 409.805 448.012 409.312 447.148C408.661 445.968 408.386 444.616 408.523 443.275C407.342 444.507 406.025 445.6 404.597 446.535C402.476 447.92 400.145 448.919 398.006 450.286C397.27 450.777 395.587 451.548 396.026 452.53C396.464 453.511 398.111 454.265 398.707 455.317Z" fill="black"/>
<path d="M398.777 455.895C398.177 456.74 397.855 457.751 397.855 458.787C397.855 459.823 398.177 460.834 398.777 461.679C398.953 461.889 399.584 463.204 399.847 463.222C399.975 463.211 400.101 463.174 400.215 463.114C400.33 463.054 400.431 462.971 400.513 462.871C401.861 461.466 403.114 459.973 404.264 458.401C405.438 456.834 407.125 455.73 409.031 455.281C411.393 455.191 413.713 455.915 415.604 457.332C416.483 457.733 417.258 458.333 417.865 459.085C418.288 459.858 418.539 460.713 418.602 461.591C419.174 466.882 419.397 472.205 419.268 477.524C419.368 481.366 419.116 485.209 418.514 489.005C418.128 490.951 417.567 492.861 417.304 494.842C417.099 496.587 417.017 498.344 417.059 500.1V507.427C417.012 508.771 417.106 510.116 417.339 511.441C417.69 513.036 418.444 514.526 418.952 516.086C419.476 517.878 419.834 519.714 420.021 521.572L421.02 529.144C421.336 531.528 421.581 534.14 420.126 536.155C419.478 537.014 418.619 537.715 417.953 538.574C415.482 541.799 416.2 546.409 415.236 550.353C414.424 553.24 412.748 555.809 410.433 557.715C409.608 558.531 408.614 559.157 407.521 559.547C406.427 559.938 405.262 560.084 404.106 559.976C401.021 559.397 399.181 556.19 398.339 553.157C397.498 550.125 397.2 546.83 395.377 544.271C393.704 542.334 391.727 540.682 389.523 539.38C387.293 538.059 385.655 535.932 384.948 533.438C384.755 532.334 384.948 531.195 384.755 530.073C384.59 528.661 384.05 527.32 383.189 526.188C382.329 525.057 381.181 524.177 379.865 523.64C378.287 523.027 376.359 522.799 375.448 521.362C377.704 519.949 379.349 517.741 380.058 515.174C380.755 512.625 381.132 509.999 381.179 507.357L381.705 498.593C381.951 494.649 382.056 490.758 383.791 487.217C384.562 485.64 385.544 484.15 386.333 482.59C387.402 480.398 388.31 478.131 389.049 475.807C390.311 472.196 391.573 468.585 392.695 464.939C393.133 463.169 393.805 461.466 394.693 459.874C395.64 458.226 397.007 456.245 398.777 455.895Z" fill="#E8E8F0"/>
<path d="M379.234 513.106H381.565L382.056 509.6C382.119 508.897 382.285 508.206 382.547 507.55C382.932 506.853 383.384 506.196 383.896 505.587C386.175 502.344 386.017 498.049 386.578 494.106C387.594 488.895 389.316 483.847 391.696 479.102L396.218 469.023C396.63 468.199 396.959 467.336 397.2 466.447C397.389 465.465 397.483 464.467 397.48 463.467C397.48 461.907 397.971 456.228 398.024 454.703C398.024 454.125 396.744 454.44 396.481 453.932C395.92 452.81 395.149 455.842 394.08 456.508C393.075 457.275 392.344 458.344 391.994 459.558C391.013 462.082 390.417 464.817 389.505 467.323C388.713 469.939 387.257 472.306 385.281 474.194C384.352 475 383.283 475.649 382.406 476.525C379.602 479.295 379.321 483.694 379.234 487.655C379.164 490.074 378.708 513.106 379.234 513.106Z" fill="#2F2E41"/>
<path d="M412.782 451.706C411.699 452.272 410.76 453.081 410.04 454.069C409.32 455.057 408.837 456.197 408.628 457.402C408.228 459.819 407.521 462.175 406.525 464.413C403.685 469.356 396.446 470.794 394.431 476.14C393.924 477.937 393.653 479.793 393.624 481.661C393.274 485.5 392.012 489.198 391.626 493.019C391.433 495.993 391.504 498.979 391.837 501.941L394.378 532.124C394.865 536.564 394.61 541.054 393.624 545.41C396.23 545.782 398.886 545.341 401.232 544.148C403.598 543.061 405.771 541.572 408.067 540.31C411.994 538.136 416.341 536.611 419.794 533.719C420.413 533.226 420.946 532.634 421.371 531.966C421.899 530.699 422.253 529.367 422.423 528.005C422.721 526.937 423.102 525.894 423.562 524.885C424.827 521.838 425.927 518.725 426.857 515.56C427.49 513.466 427.993 511.335 428.365 509.18C428.645 507.427 428.803 505.674 428.943 503.921C429.126 501.204 429.669 498.522 430.556 495.946C432.755 489.791 434.002 483.337 434.254 476.806C434.322 475.866 434.257 474.922 434.061 474.001C433.676 472.875 433.159 471.798 432.519 470.794C431.467 468.813 430.766 466.64 429.855 464.624C427.369 460.184 423.807 456.441 419.496 453.739C417.462 452.354 415.079 450.882 412.782 451.706Z" fill="#2F2E41"/>
<path d="M359.83 500.959C358.031 500.015 356.402 498.776 355.01 497.296C354.379 496.56 353.853 495.736 353.257 495C351.632 493.251 349.519 492.03 347.193 491.494C344.891 490.988 342.538 490.759 340.182 490.811C338.6 490.705 337.013 490.895 335.502 491.371C334.748 491.624 334.069 492.061 333.527 492.643C332.986 493.224 332.598 493.932 332.399 494.702C332.336 495.655 332.52 496.608 332.935 497.468C333.35 498.328 333.98 499.066 334.765 499.61C336.134 500.733 337.75 501.514 339.481 501.888C340.889 502.138 342.312 502.308 343.74 502.397C352.118 503.273 359.603 507.83 366.947 511.984C373.397 515.654 379.976 519.066 386.683 522.221C386.943 520.216 387.054 518.195 387.016 516.174C387.016 514.666 386.894 512.352 385.474 511.459C383.454 510.613 381.351 509.985 379.199 509.583C374.873 508.17 370.651 506.46 366.561 504.465C364.247 503.466 362.021 502.239 359.83 500.959Z" fill="#FBBEBE"/>
<path d="M396.481 453.599C404.729 453.599 411.415 446.873 411.415 438.577C411.415 430.281 404.729 423.556 396.481 423.556C388.233 423.556 381.547 430.281 381.547 438.577C381.547 446.873 388.233 453.599 396.481 453.599Z" fill="#FBBEBE"/>
<path d="M417.042 468.725C415.849 470.399 414.877 472.219 414.15 474.141C412.397 477.928 409.417 481.153 407.962 485.167C406.507 489.18 406.49 494.334 403.493 497.611C402.893 498.113 402.439 498.767 402.178 499.504C402.166 499.963 402.119 500.42 402.038 500.872C401.6 502.063 399.654 502.116 399.286 503.343C399.181 503.694 399.286 504.079 399.111 504.43C398.813 505.218 397.761 505.341 397.077 505.814C395.623 506.796 395.921 509.075 394.886 510.494C394.435 511.023 393.852 511.423 393.197 511.654C392.541 511.885 391.836 511.938 391.153 511.809C389.793 511.532 388.486 511.041 387.279 510.354C386.845 510.117 386.369 509.968 385.877 509.916C385.295 509.936 384.733 510.132 384.264 510.477C382.943 511.451 381.883 512.737 381.179 514.22C380.476 515.703 380.151 517.338 380.233 518.978C380.434 522.262 381.218 525.485 382.547 528.496C382.694 529.017 382.951 529.501 383.3 529.915C383.822 530.325 384.454 530.57 385.116 530.62C385.777 530.67 386.439 530.523 387.016 530.196C388.16 529.517 389.377 528.97 390.645 528.566C392.958 528.145 395.219 529.74 397.568 529.6C399.278 529.347 400.889 528.639 402.231 527.549C404.589 526.142 406.708 524.367 408.506 522.291C409.522 520.941 410.258 519.416 411.17 517.979C412.33 516.232 413.588 514.552 414.938 512.948L423.562 502.431C424.419 501.433 425.192 500.366 425.876 499.241C426.642 497.707 427.23 496.09 427.629 494.421C428.55 491.644 429.139 488.767 429.381 485.85C429.435 483.439 429.223 481.029 428.75 478.664C428.489 476.309 427.899 474.002 426.998 471.81C425.122 467.849 420.565 464.624 417.042 468.725Z" fill="#2F2E41"/>
<path d="M447.049 449.129C447.062 446.466 446.443 443.839 445.242 441.462C444.042 439.085 442.294 437.027 440.143 435.457C440.073 430.727 438.328 426.175 435.218 422.609C432.109 419.044 427.836 416.696 423.159 415.984C422.26 411.499 419.805 407.475 416.228 404.624C412.651 401.773 408.182 400.277 403.609 400.401C399.036 400.524 394.654 402.26 391.237 405.3C387.819 408.34 385.586 412.491 384.93 417.018C378.726 415.616 373.047 417.438 372.012 421.26C370.978 425.081 375.36 430.024 381.898 431.776C383.96 432.354 386.108 432.568 388.243 432.407C389.765 434.65 391.74 436.55 394.04 437.984C396.341 439.418 398.916 440.354 401.6 440.733C402.395 444.347 404.18 447.667 406.756 450.323C409.331 452.979 412.596 454.866 416.183 455.772C417.182 458.167 418.724 460.298 420.687 461.995C420.687 462.468 420.687 462.959 420.687 463.449C420.687 465.109 421.014 466.752 421.649 468.286C422.285 469.819 423.215 471.212 424.389 472.386C425.562 473.559 426.956 474.49 428.489 475.125C430.022 475.76 431.665 476.087 433.325 476.087C434.985 476.087 436.628 475.76 438.161 475.125C439.695 474.49 441.088 473.559 442.261 472.386C443.435 471.212 444.366 469.819 445.001 468.286C445.636 466.752 445.963 465.109 445.963 463.449C445.964 461.521 445.551 459.614 444.753 457.858C446.296 455.21 447.09 452.193 447.049 449.129V449.129Z" fill="#F86D70"/>
<path opacity="0.1" d="M376.219 422.066C377.253 418.245 382.932 416.422 389.137 417.824C389.873 413.225 392.212 409.034 395.741 405.993C399.27 402.952 403.76 401.257 408.418 401.208H409.697C407.913 400.665 406.059 400.387 404.194 400.384C399.536 400.433 395.045 402.128 391.517 405.169C387.988 408.21 385.649 412.401 384.913 417C378.708 415.598 373.029 417.421 371.995 421.242C370.961 425.063 375.343 430.006 381.881 431.759C383.106 432.098 384.363 432.316 385.632 432.408C379.374 430.532 375.185 425.975 376.219 422.066Z" fill="black"/>
<path opacity="0.1" d="M424.824 464.186C424.798 463.707 424.798 463.227 424.824 462.748C422.85 461.061 421.306 458.928 420.319 456.526C416.727 455.624 413.458 453.736 410.882 451.076C408.305 448.416 406.523 445.088 405.736 441.469C403.049 441.098 400.471 440.167 398.167 438.735C395.863 437.304 393.885 435.405 392.362 433.161C391.118 433.265 389.865 433.229 388.629 433.056C390.164 435.12 392.092 436.86 394.304 438.175C396.515 439.489 398.965 440.353 401.512 440.716C402.307 444.329 404.092 447.65 406.668 450.306C409.244 452.962 412.508 454.849 416.095 455.755C417.094 458.15 418.636 460.28 420.6 461.977C420.6 462.45 420.6 462.941 420.6 463.432C420.543 466.829 421.833 470.111 424.188 472.561C426.542 475.011 429.77 476.429 433.167 476.508C430.689 475.545 428.562 473.851 427.072 471.649C425.581 469.448 424.797 466.844 424.824 464.186V464.186Z" fill="black"/>
<path d="M403.33 444.091C404.34 443.324 404.328 441.609 403.303 440.26C402.278 438.911 400.629 438.439 399.619 439.206C398.609 439.973 398.621 441.689 399.646 443.038C400.671 444.387 402.32 444.859 403.33 444.091Z" fill="#FBBEBE"/>
<defs>
<linearGradient id="paint0_linear" x1="771.291" y1="566.147" x2="771.291" y2="286" gradientUnits="userSpaceOnUse">
<stop stop-color="#808080" stop-opacity="0.25"/>
<stop offset="0.54" stop-color="#808080" stop-opacity="0.12"/>
<stop offset="1" stop-color="#808080" stop-opacity="0.1"/>
</linearGradient>
<linearGradient id="paint1_linear" x1="108997" y1="117201" x2="108997" y2="99346.5" gradientUnits="userSpaceOnUse">
<stop stop-color="#808080" stop-opacity="0.25"/>
<stop offset="0.54" stop-color="#808080" stop-opacity="0.12"/>
<stop offset="1" stop-color="#808080" stop-opacity="0.1"/>
</linearGradient>
</defs>
</svg>
