<svg width="1052" height="575" viewBox="0 0 1052 575" fill="none" xmlns="http://www.w3.org/2000/svg">
<g opacity="0.1">
<path opacity="0.1" d="M438.42 377.378C444.705 377.378 449.8 370.707 449.8 362.478C449.8 354.249 444.705 347.578 438.42 347.578C432.135 347.578 427.04 354.249 427.04 362.478C427.04 370.707 432.135 377.378 438.42 377.378Z" fill="#3F3D56"/>
<path opacity="0.1" d="M447.43 298.728C449.017 295.957 449.839 292.812 449.81 289.618C449.81 281.388 444.71 274.718 438.42 274.718C432.13 274.718 427 281.408 427 289.638C426.971 292.832 427.792 295.977 429.38 298.748C427.82 301.529 427 304.665 427 307.853C427 311.042 427.82 314.177 429.38 316.958C427.82 319.739 427 322.875 427 326.063C427 329.252 427.82 332.387 429.38 335.168C427.79 337.939 426.968 341.084 427 344.278C427 352.498 432.1 359.178 438.38 359.178C444.66 359.178 449.77 352.498 449.77 344.278C449.802 341.084 448.98 337.939 447.39 335.168C448.95 332.387 449.769 329.252 449.769 326.063C449.769 322.875 448.95 319.739 447.39 316.958C448.95 314.177 449.769 311.042 449.769 307.853C449.769 304.665 448.95 301.529 447.39 298.748L447.43 298.728Z" fill="#3F3D56"/>
<path opacity="0.1" d="M438.42 286.328C444.705 286.328 449.8 279.657 449.8 271.428C449.8 263.199 444.705 256.528 438.42 256.528C432.135 256.528 427.04 263.199 427.04 271.428C427.04 279.657 432.135 286.328 438.42 286.328Z" fill="#3F3D56"/>
<path opacity="0.1" d="M438.42 268.118C444.705 268.118 449.8 261.447 449.8 253.218C449.8 244.989 444.705 238.318 438.42 238.318C432.135 238.318 427.04 244.989 427.04 253.218C427.04 261.447 432.135 268.118 438.42 268.118Z" fill="#3F3D56"/>
<path opacity="0.1" d="M395.82 128.588C394.261 126.611 392.844 124.526 391.58 122.348L421.48 117.438L389.14 117.678C386.044 110.924 384.358 103.609 384.186 96.1814C384.014 88.7534 385.36 81.3685 388.14 74.4783L431.53 96.9883L391.53 67.5683C395.249 61.0308 400.28 55.3333 406.307 50.8338C412.334 46.3344 419.226 43.1304 426.551 41.4233C433.876 39.7161 441.475 39.5427 448.87 40.9139C456.265 42.2851 463.297 45.1713 469.522 49.3911C475.748 53.6109 481.034 59.073 485.047 65.434C489.06 71.7951 491.714 78.9176 492.842 86.3537C493.97 93.7899 493.547 101.379 491.6 108.644C489.653 115.909 486.225 122.692 481.53 128.568C483.955 131.648 486.04 134.981 487.75 138.508L448.92 158.728L490.31 144.838C493.219 153.43 493.939 162.612 492.404 171.552C490.869 180.493 487.128 188.909 481.52 196.038C487.846 204.08 491.782 213.74 492.877 223.913C493.972 234.086 492.182 244.362 487.712 253.566C483.242 262.769 476.272 270.53 467.6 275.959C458.927 281.388 448.902 284.267 438.67 284.267C428.438 284.267 418.413 281.388 409.74 275.959C401.068 270.53 394.098 262.769 389.628 253.566C385.158 244.362 383.368 234.086 384.463 223.913C385.558 213.74 389.494 204.08 395.82 196.038C388.26 186.428 384.149 174.556 384.149 162.328C384.149 150.101 388.26 138.228 395.82 128.618V128.588Z" fill="#6C63FF"/>
<path opacity="0.1" d="M493.19 162.298C493.21 174.529 489.097 186.408 481.52 196.008C487.846 204.05 491.782 213.71 492.877 223.883C493.972 234.056 492.182 244.332 487.712 253.536C483.242 262.739 476.272 270.5 467.6 275.929C458.927 281.358 448.902 284.237 438.67 284.237C428.438 284.237 418.413 281.358 409.74 275.929C401.068 270.5 394.098 262.739 389.628 253.536C385.158 244.332 383.368 234.056 384.463 223.883C385.558 213.71 389.494 204.05 395.82 196.008C388.51 186.728 493.19 156.178 493.19 162.298Z" fill="black"/>
</g>
<g opacity="0.1">
<path opacity="0.1" d="M571.28 341.748C575.98 341.748 579.79 336.765 579.79 330.618C579.79 324.471 575.98 319.488 571.28 319.488C566.58 319.488 562.77 324.471 562.77 330.618C562.77 336.765 566.58 341.748 571.28 341.748Z" fill="#3F3D56"/>
<path opacity="0.1" d="M578 282.988C579.183 280.919 579.794 278.572 579.77 276.188C579.77 270.038 575.96 265.048 571.27 265.048C566.58 265.048 562.76 270.048 562.76 276.188C562.734 278.573 563.349 280.922 564.54 282.988C563.373 285.067 562.76 287.41 562.76 289.793C562.76 292.177 563.373 294.52 564.54 296.598C563.373 298.677 562.76 301.02 562.76 303.403C562.76 305.787 563.373 308.13 564.54 310.208C563.349 312.275 562.734 314.623 562.76 317.008C562.76 323.158 566.57 328.148 571.27 328.148C575.97 328.148 579.77 323.148 579.77 317.008C579.794 314.625 579.183 312.278 578 310.208C579.158 308.127 579.765 305.785 579.765 303.403C579.765 301.022 579.158 298.68 578 296.598C579.158 294.517 579.765 292.175 579.765 289.793C579.765 287.412 579.158 285.07 578 282.988V282.988Z" fill="#3F3D56"/>
<path opacity="0.1" d="M571.28 273.708C575.98 273.708 579.79 268.725 579.79 262.578C579.79 256.431 575.98 251.448 571.28 251.448C566.58 251.448 562.77 256.431 562.77 262.578C562.77 268.725 566.58 273.708 571.28 273.708Z" fill="#3F3D56"/>
<path opacity="0.1" d="M571.28 260.098C575.98 260.098 579.79 255.115 579.79 248.968C579.79 242.821 575.98 237.838 571.28 237.838C566.58 237.838 562.77 242.821 562.77 248.968C562.77 255.115 566.58 260.098 571.28 260.098Z" fill="#3F3D56"/>
<path opacity="0.1" d="M539.44 155.838C538.272 154.364 537.213 152.806 536.27 151.178L558.62 147.508L534.45 147.688C532.131 142.642 530.866 137.176 530.732 131.624C530.598 126.072 531.598 120.551 533.67 115.398L566.1 132.228L536.19 110.228C538.987 105.377 542.754 101.153 547.257 97.8225C551.759 94.4916 556.899 92.1245 562.357 90.8689C567.815 89.6133 573.473 89.4962 578.978 90.5249C584.483 91.5535 589.717 93.7059 594.353 96.8477C598.989 99.9894 602.928 104.053 605.924 108.785C608.919 113.517 610.907 118.816 611.764 124.35C612.62 129.885 612.327 135.536 610.901 140.952C609.476 146.368 606.95 151.432 603.48 155.828C605.29 158.133 606.849 160.623 608.13 163.258L579.13 178.328L610.06 167.948C612.232 174.369 612.769 181.23 611.622 187.911C610.475 194.591 607.68 200.88 603.49 206.208C608.224 212.216 611.17 219.435 611.993 227.039C612.816 234.643 611.482 242.325 608.144 249.206C604.805 256.087 599.596 261.89 593.114 265.95C586.632 270.009 579.138 272.162 571.49 272.162C563.842 272.162 556.348 270.009 549.865 265.95C543.383 261.89 538.175 256.087 534.836 249.206C531.498 242.325 530.163 234.643 530.986 227.039C531.809 219.435 534.756 212.216 539.49 206.208C533.84 199.027 530.769 190.155 530.769 181.018C530.769 171.881 533.84 163.01 539.49 155.828L539.44 155.838Z" fill="#6C63FF"/>
<path opacity="0.1" d="M612.2 181.028C612.213 190.168 609.141 199.044 603.48 206.218C608.213 212.226 611.16 219.445 611.983 227.049C612.806 234.653 611.472 242.335 608.133 249.216C604.795 256.097 599.586 261.9 593.104 265.96C586.622 270.019 579.128 272.172 571.48 272.172C563.831 272.172 556.337 270.019 549.855 265.96C543.373 261.9 538.165 256.097 534.826 249.216C531.488 242.335 530.153 234.653 530.976 227.049C531.799 219.445 534.746 212.226 539.48 206.218C534 199.288 612.2 176.458 612.2 181.028Z" fill="black"/>
</g>
<g opacity="0.1">
<path opacity="0.1" d="M997.58 337.378C1003.87 337.378 1008.96 330.707 1008.96 322.478C1008.96 314.249 1003.87 307.578 997.58 307.578C991.295 307.578 986.2 314.249 986.2 322.478C986.2 330.707 991.295 337.378 997.58 337.378Z" fill="#3F3D56"/>
<path opacity="0.1" d="M988.57 258.728C986.983 255.957 986.161 252.812 986.19 249.618C986.19 241.388 991.29 234.718 997.58 234.718C1003.87 234.718 1008.96 241.388 1008.96 249.618C1008.99 252.812 1008.17 255.957 1006.58 258.728C1008.14 261.509 1008.96 264.645 1008.96 267.833C1008.96 271.022 1008.14 274.157 1006.58 276.938C1008.14 279.719 1008.96 282.855 1008.96 286.043C1008.96 289.232 1008.14 292.367 1006.58 295.148C1008.17 297.919 1008.99 301.064 1008.96 304.258C1008.96 312.478 1003.86 319.158 997.58 319.158C991.3 319.158 986.19 312.478 986.19 304.258C986.158 301.064 986.98 297.919 988.57 295.148C987.01 292.367 986.191 289.232 986.191 286.043C986.191 282.855 987.01 279.719 988.57 276.938C987.01 274.157 986.191 271.022 986.191 267.833C986.191 264.645 987.01 261.509 988.57 258.728V258.728Z" fill="#3F3D56"/>
<path opacity="0.1" d="M997.58 246.328C1003.87 246.328 1008.96 239.657 1008.96 231.428C1008.96 223.199 1003.87 216.528 997.58 216.528C991.295 216.528 986.2 223.199 986.2 231.428C986.2 239.657 991.295 246.328 997.58 246.328Z" fill="#3F3D56"/>
<path opacity="0.1" d="M997.58 228.118C1003.87 228.118 1008.96 221.447 1008.96 213.218C1008.96 204.989 1003.87 198.318 997.58 198.318C991.295 198.318 986.2 204.989 986.2 213.218C986.2 221.447 991.295 228.118 997.58 228.118Z" fill="#3F3D56"/>
<path opacity="0.1" d="M1040.18 88.5883C1041.74 86.6115 1043.16 84.5262 1044.42 82.3483L1014.52 77.4383L1046.86 77.6783C1049.96 70.9242 1051.64 63.6094 1051.81 56.1814C1051.99 48.7534 1050.64 41.3685 1047.86 34.4783L1004.47 56.9883L1044.47 27.5683C1040.75 21.0308 1035.72 15.3333 1029.69 10.8338C1023.67 6.33443 1016.77 3.13044 1009.45 1.42327C1002.12 -0.28389 994.526 -0.457313 987.13 0.913906C979.735 2.28512 972.704 5.17134 966.478 9.39111C960.252 13.6109 954.966 19.073 950.953 25.434C946.94 31.7951 944.286 38.9176 943.158 46.3537C942.031 53.7899 942.453 61.3789 944.4 68.6438C946.347 75.9087 949.775 82.6923 954.47 88.5683C952.046 91.6485 949.96 94.9811 948.25 98.5083L987.08 118.728L945.69 104.838C942.781 113.43 942.061 122.612 943.596 131.552C945.131 140.493 948.872 148.909 954.48 156.038C948.154 164.08 944.218 173.74 943.123 183.913C942.028 194.086 943.818 204.362 948.288 213.566C952.758 222.769 959.728 230.53 968.4 235.959C977.073 241.388 987.098 244.267 997.33 244.267C1007.56 244.267 1017.59 241.388 1026.26 235.959C1034.93 230.53 1041.9 222.769 1046.37 213.566C1050.84 204.362 1052.63 194.086 1051.54 183.913C1050.44 173.74 1046.51 164.08 1040.18 156.038C1047.74 146.428 1051.85 134.556 1051.85 122.328C1051.85 110.101 1047.74 98.2283 1040.18 88.6183V88.5883Z" fill="#6C63FF"/>
<path opacity="0.1" d="M942.81 122.298C942.79 134.529 946.903 146.408 954.48 156.008C948.154 164.05 944.218 173.71 943.123 183.883C942.028 194.056 943.818 204.332 948.288 213.536C952.758 222.739 959.728 230.5 968.4 235.929C977.073 241.358 987.098 244.237 997.33 244.237C1007.56 244.237 1017.59 241.358 1026.26 235.929C1034.93 230.5 1041.9 222.739 1046.37 213.536C1050.84 204.332 1052.63 194.056 1051.54 183.883C1050.44 173.71 1046.51 164.05 1040.18 156.008C1047.49 146.728 942.81 116.178 942.81 122.298Z" fill="black"/>
</g>
<g opacity="0.1">
<path opacity="0.1" d="M887.72 335.748C892.42 335.748 896.23 330.765 896.23 324.618C896.23 318.471 892.42 313.488 887.72 313.488C883.02 313.488 879.21 318.471 879.21 324.618C879.21 330.765 883.02 335.748 887.72 335.748Z" fill="#3F3D56"/>
<path opacity="0.1" d="M881 276.988C879.817 274.919 879.206 272.572 879.23 270.188C879.23 264.038 883.04 259.048 887.73 259.048C892.42 259.048 896.24 264.048 896.24 270.188C896.266 272.573 895.651 274.922 894.46 276.988C895.627 279.067 896.24 281.41 896.24 283.793C896.24 286.177 895.627 288.52 894.46 290.598C895.627 292.677 896.24 295.02 896.24 297.403C896.24 299.787 895.627 302.13 894.46 304.208C895.651 306.275 896.266 308.623 896.24 311.008C896.24 317.158 892.43 322.148 887.73 322.148C883.03 322.148 879.23 317.148 879.23 311.008C879.206 308.625 879.817 306.278 881 304.208C879.842 302.127 879.235 299.785 879.235 297.403C879.235 295.022 879.842 292.68 881 290.598C879.842 288.517 879.235 286.175 879.235 283.793C879.235 281.412 879.842 279.07 881 276.988Z" fill="#3F3D56"/>
<path opacity="0.1" d="M887.72 267.708C892.42 267.708 896.23 262.725 896.23 256.578C896.23 250.431 892.42 245.448 887.72 245.448C883.02 245.448 879.21 250.431 879.21 256.578C879.21 262.725 883.02 267.708 887.72 267.708Z" fill="#3F3D56"/>
<path opacity="0.1" d="M887.72 254.098C892.42 254.098 896.23 249.115 896.23 242.968C896.23 236.821 892.42 231.838 887.72 231.838C883.02 231.838 879.21 236.821 879.21 242.968C879.21 249.115 883.02 254.098 887.72 254.098Z" fill="#3F3D56"/>
<path opacity="0.1" d="M919.56 149.838C920.728 148.364 921.787 146.806 922.73 145.178L900.38 141.508L924.55 141.688C926.869 136.642 928.134 131.176 928.268 125.624C928.402 120.072 927.402 114.551 925.33 109.398L892.9 126.228L922.81 104.228C920.013 99.3766 916.245 95.1534 911.743 91.8225C907.241 88.4916 902.101 86.1245 896.643 84.8689C891.185 83.6133 885.527 83.4962 880.022 84.5249C874.517 85.5535 869.283 87.7059 864.647 90.8477C860.01 93.9894 856.072 98.0531 853.076 102.785C850.081 107.517 848.093 112.816 847.236 118.35C846.38 123.885 846.673 129.536 848.099 134.952C849.524 140.368 852.05 145.432 855.52 149.828C853.71 152.133 852.151 154.623 850.87 157.258L879.87 172.328L849 161.958C846.827 168.379 846.29 175.24 847.438 181.921C848.585 188.601 851.38 194.89 855.57 200.218C850.836 206.226 847.889 213.445 847.066 221.049C846.244 228.653 847.578 236.335 850.916 243.216C854.255 250.097 859.463 255.9 865.946 259.96C872.428 264.019 879.922 266.172 887.57 266.172C895.218 266.172 902.712 264.019 909.194 259.96C915.676 255.9 920.885 250.097 924.224 243.216C927.562 236.335 928.896 228.653 928.073 221.049C927.25 213.445 924.304 206.226 919.57 200.218C925.22 193.037 928.291 184.165 928.291 175.028C928.291 165.891 925.22 157.019 919.57 149.838H919.56Z" fill="#6C63FF"/>
<path opacity="0.1" d="M846.8 175.028C846.786 184.168 849.859 193.044 855.52 200.218C850.786 206.226 847.839 213.445 847.016 221.049C846.193 228.653 847.528 236.335 850.866 243.216C854.205 250.097 859.413 255.9 865.895 259.96C872.377 264.019 879.871 266.172 887.52 266.172C895.168 266.172 902.662 264.019 909.144 259.96C915.626 255.9 920.835 250.097 924.173 243.216C927.512 236.335 928.846 228.653 928.023 221.049C927.2 213.445 924.254 206.226 919.52 200.218C925 193.288 846.8 170.458 846.8 175.028Z" fill="black"/>
</g>
<g opacity="0.1">
<path opacity="0.1" d="M130.44 335.748C135.14 335.748 138.95 330.765 138.95 324.618C138.95 318.471 135.14 313.488 130.44 313.488C125.74 313.488 121.93 318.471 121.93 324.618C121.93 330.765 125.74 335.748 130.44 335.748Z" fill="#3F3D56"/>
<path opacity="0.1" d="M137.17 276.988C138.353 274.919 138.964 272.572 138.94 270.188C138.94 264.038 135.14 259.048 130.44 259.048C125.74 259.048 121.93 264.048 121.93 270.188C121.909 272.573 122.524 274.92 123.71 276.988C122.543 279.067 121.931 281.41 121.931 283.793C121.931 286.177 122.543 288.52 123.71 290.598C122.543 292.677 121.931 295.02 121.931 297.403C121.931 299.787 122.543 302.13 123.71 304.208C122.524 306.277 121.909 308.624 121.93 311.008C121.93 317.158 125.74 322.148 130.44 322.148C135.14 322.148 138.94 317.148 138.94 311.008C138.964 308.625 138.353 306.278 137.17 304.208C138.328 302.127 138.935 299.785 138.935 297.403C138.935 295.022 138.328 292.68 137.17 290.598C138.328 288.517 138.935 286.175 138.935 283.793C138.935 281.412 138.328 279.07 137.17 276.988V276.988Z" fill="#3F3D56"/>
<path opacity="0.1" d="M130.44 267.708C135.14 267.708 138.95 262.725 138.95 256.578C138.95 250.431 135.14 245.448 130.44 245.448C125.74 245.448 121.93 250.431 121.93 256.578C121.93 262.725 125.74 267.708 130.44 267.708Z" fill="#3F3D56"/>
<path opacity="0.1" d="M130.44 254.098C135.14 254.098 138.95 249.115 138.95 242.968C138.95 236.821 135.14 231.838 130.44 231.838C125.74 231.838 121.93 236.821 121.93 242.968C121.93 249.115 125.74 254.098 130.44 254.098Z" fill="#3F3D56"/>
<path opacity="0.1" d="M98.6001 149.838C97.4357 148.361 96.3764 146.804 95.4301 145.178L117.78 141.508L93.6101 141.688C91.2914 136.642 90.0264 131.176 89.8923 125.624C89.7582 120.072 90.7578 114.551 92.8301 109.398L125.26 126.228L95.3501 104.228C98.1473 99.3766 101.915 95.1534 106.417 91.8225C110.919 88.4916 116.059 86.1245 121.517 84.8689C126.975 83.6133 132.633 83.4962 138.138 84.5249C143.643 85.5535 148.877 87.7059 153.513 90.8477C158.15 93.9894 162.088 98.0531 165.084 102.785C168.08 107.517 170.068 112.816 170.924 118.35C171.78 123.885 171.487 129.536 170.061 134.952C168.636 140.368 166.11 145.432 162.64 149.828C164.457 152.128 166.016 154.619 167.29 157.258L138.29 172.328L169.22 161.948C171.393 168.369 171.93 175.23 170.782 181.911C169.635 188.591 166.84 194.88 162.65 200.208C167.384 206.216 170.331 213.435 171.154 221.039C171.977 228.643 170.642 236.325 167.304 243.206C163.965 250.087 158.757 255.89 152.275 259.95C145.792 264.009 138.299 266.162 130.65 266.162C123.002 266.162 115.508 264.009 109.026 259.95C102.544 255.89 97.3352 250.087 93.9965 243.206C90.6578 236.325 89.3236 228.643 90.1466 221.039C90.9696 213.435 93.9165 206.216 98.6501 200.208C93.0005 193.027 89.929 184.155 89.929 175.018C89.929 165.881 93.0005 157.01 98.6501 149.828L98.6001 149.838Z" fill="#6C63FF"/>
<path opacity="0.1" d="M171.36 175.028C171.374 184.168 168.301 193.044 162.64 200.218C167.374 206.226 170.321 213.445 171.144 221.049C171.967 228.653 170.632 236.335 167.294 243.216C163.955 250.097 158.747 255.9 152.265 259.96C145.783 264.019 138.289 266.172 130.64 266.172C122.992 266.172 115.498 264.019 109.016 259.96C102.534 255.9 97.3253 250.097 93.9866 243.216C90.6479 236.335 89.3137 228.653 90.1367 221.049C90.9597 213.445 93.9065 206.226 98.6402 200.218C93.1402 193.288 171.36 170.458 171.36 175.028Z" fill="black"/>
</g>
<path opacity="0.1" d="M767.79 110.728C764.22 110.054 760.53 110.458 757.19 111.888C755.185 112.782 753.015 113.243 750.82 113.243C748.625 113.243 746.455 112.782 744.45 111.888C742.078 110.847 739.508 110.334 736.918 110.384C734.328 110.434 731.78 111.046 729.45 112.178C728.123 112.884 726.643 113.254 725.14 113.258C719.06 113.258 714.01 107.138 712.96 99.0684C714.156 98.1765 715.174 97.0672 715.96 95.7984C719.52 90.0584 725.03 86.3684 731.23 86.3684C737.43 86.3684 742.87 90.0084 746.43 95.6884C747.49 97.4045 748.977 98.8168 750.745 99.7877C752.513 100.759 754.503 101.255 756.52 101.228H756.68C761.57 101.178 765.76 105.058 767.79 110.728Z" fill="#6C63FF"/>
<path opacity="0.1" d="M786.3 85.3783L776.48 91.5983L782.48 80.7583C780.79 79.4133 778.7 78.6707 776.54 78.6483H776.38C775.71 78.6574 775.041 78.6073 774.38 78.4983L771 80.6083L772.43 78.0083C770.067 77.1905 768.025 75.6426 766.6 73.5883L760.6 77.3683L764.36 70.5283C760.88 66.3483 756.18 63.7883 751.02 63.7883C744.82 63.7883 739.31 67.4683 735.74 73.2083C734.688 74.9247 733.2 76.332 731.428 77.2874C729.656 78.2428 727.662 78.7124 725.65 78.6483H725.32C718.48 78.6483 712.94 86.3983 712.94 95.9583C712.94 105.518 718.48 113.278 725.32 113.278C726.822 113.268 728.3 112.898 729.63 112.198C731.959 111.063 734.507 110.449 737.097 110.397C739.687 110.345 742.258 110.857 744.63 111.898C746.633 112.798 748.804 113.263 751 113.263C753.196 113.263 755.367 112.798 757.37 111.898C759.723 110.881 762.268 110.38 764.831 110.43C767.395 110.48 769.918 111.08 772.23 112.188C773.545 112.877 775.006 113.24 776.49 113.248C783.33 113.248 788.87 105.488 788.87 95.9283C788.911 92.2518 788.027 88.6239 786.3 85.3783V85.3783Z" fill="#6C63FF"/>
<path opacity="0.1" d="M350.26 105.318C347.758 104.846 345.171 105.128 342.83 106.128C341.428 106.755 339.91 107.078 338.375 107.078C336.84 107.078 335.322 106.755 333.92 106.128C332.261 105.4 330.463 105.041 328.652 105.077C326.84 105.114 325.058 105.544 323.43 106.338C322.503 106.822 321.475 107.079 320.43 107.088C316.18 107.088 312.64 102.808 311.9 97.1583C312.748 96.5365 313.471 95.7594 314.03 94.8683C316.52 90.8683 320.38 88.2683 324.72 88.2683C329.06 88.2683 332.87 90.8183 335.36 94.7883C336.103 95.9901 337.145 96.979 338.384 97.6589C339.623 98.3388 341.017 98.6865 342.43 98.6683H342.54C345.9 98.6483 348.83 101.368 350.26 105.318Z" fill="#6C63FF"/>
<path opacity="0.1" d="M363.21 87.5884L356.34 91.9484L360.51 84.3584C359.331 83.4147 357.87 82.8936 356.36 82.8784H356.24C355.764 82.8869 355.289 82.8501 354.82 82.7684L352.49 84.2484L353.49 82.4284C351.838 81.8539 350.41 80.7724 349.41 79.3384L345.24 81.9784L347.88 77.1984C346.771 75.7667 345.358 74.5996 343.743 73.7815C342.127 72.9634 340.35 72.5149 338.54 72.4684C334.2 72.4684 330.34 75.0484 327.85 79.0684C327.112 80.2703 326.069 81.2558 324.828 81.9249C323.586 82.5939 322.19 82.9229 320.78 82.8784H320.55C315.76 82.8784 311.88 88.2984 311.88 94.9984C311.88 101.698 315.76 107.118 320.55 107.118C321.596 107.11 322.626 106.85 323.55 106.358C325.178 105.568 326.958 105.141 328.768 105.107C330.577 105.072 332.373 105.431 334.03 106.158C335.44 106.802 336.97 107.142 338.52 107.158C340.046 107.156 341.554 106.836 342.95 106.218C344.597 105.506 346.377 105.155 348.172 105.189C349.966 105.224 351.732 105.643 353.35 106.418C354.276 106.903 355.305 107.157 356.35 107.158C361.13 107.158 365.01 101.728 365.01 95.0384C365.05 92.4427 364.431 89.8792 363.21 87.5884V87.5884Z" fill="#6C63FF"/>
<path opacity="0.1" d="M228.59 183.728C231.089 183.257 233.672 183.538 236.01 184.538C237.413 185.165 238.933 185.489 240.47 185.489C242.007 185.489 243.526 185.165 244.93 184.538C246.589 183.811 248.386 183.452 250.197 183.487C252.008 183.521 253.79 183.948 255.42 184.738C256.344 185.231 257.373 185.492 258.42 185.498C262.67 185.498 266.21 181.208 266.94 175.558C266.092 174.939 265.372 174.161 264.82 173.268C262.32 169.268 258.46 166.678 254.13 166.678C249.8 166.678 245.98 169.218 243.48 173.198C242.737 174.399 241.697 175.387 240.46 176.066C239.223 176.746 237.831 177.095 236.42 177.078H236.31C232.94 177.098 230 179.808 228.59 183.728Z" fill="#6C63FF"/>
<path opacity="0.1" d="M215.63 166.028L222.51 170.388L218.33 162.808C219.512 161.862 220.976 161.337 222.49 161.318H222.6C223.079 161.325 223.557 161.292 224.03 161.218L226.36 162.688L225.36 160.878C227.008 160.303 228.432 159.221 229.43 157.788L233.6 160.428L231 155.638C232.109 154.208 233.523 153.043 235.138 152.226C236.754 151.41 238.53 150.963 240.34 150.918C244.67 150.918 248.54 153.498 251.03 157.518C251.767 158.719 252.808 159.703 254.048 160.372C255.288 161.041 256.682 161.371 258.09 161.328H258.33C263.11 161.328 266.99 166.758 266.99 173.448C266.99 180.138 263.11 185.568 258.33 185.568C257.284 185.564 256.255 185.307 255.33 184.818C253.701 184.024 251.92 183.594 250.108 183.558C248.297 183.521 246.499 183.88 244.84 184.608C243.435 185.257 241.907 185.598 240.36 185.608C238.831 185.607 237.319 185.287 235.92 184.668C234.275 183.956 232.496 183.605 230.703 183.64C228.911 183.674 227.146 184.093 225.53 184.868C224.604 185.353 223.575 185.607 222.53 185.608C217.74 185.608 213.86 180.188 213.86 173.488C213.813 170.893 214.422 168.327 215.63 166.028V166.028Z" fill="#6C63FF"/>
<path d="M13.3101 418.618C15.9201 413.778 12.9601 407.858 9.56006 403.548C6.16006 399.238 2.00006 394.728 2.09006 389.258C2.22006 381.368 10.6001 376.698 17.2901 372.518C22.2582 369.403 26.8401 365.711 30.9401 361.518C32.6547 359.905 34.0728 358.002 35.1301 355.898C36.5201 352.818 36.4801 349.298 36.3901 345.898C36.0967 334.638 35.5401 323.385 34.7201 312.138" stroke="#3F3D56" stroke-width="4" stroke-miterlimit="10"/>
<path d="M47.4501 311.578C47.3535 309.516 46.7397 307.51 45.6649 305.747C44.5902 303.984 43.0892 302.519 41.3001 301.488L38.5401 306.938L38.6301 300.338C36.1271 299.601 33.4546 299.679 30.9984 300.56C28.5422 301.44 26.4294 303.079 24.965 305.238C23.5005 307.398 22.7601 309.967 22.8507 312.574C22.9413 315.182 23.8581 317.694 25.4689 319.746C27.0797 321.799 29.3011 323.287 31.8124 323.995C34.3238 324.703 36.9952 324.595 39.4411 323.686C41.887 322.777 43.9808 321.115 45.4204 318.939C46.8599 316.762 47.5707 314.185 47.4501 311.578Z" fill="#49EBD1"/>
<path d="M25.4899 394.898C24.2515 397.305 22.2544 399.237 19.8076 400.394C17.3608 401.552 14.6007 401.871 11.9544 401.301C9.30821 400.732 6.9234 399.306 5.16909 397.245C3.41477 395.184 2.38877 392.602 2.24987 389.898C2.15786 388.194 2.4306 386.489 3.04987 384.898C3.95646 382.578 5.54502 380.588 7.60602 379.189C9.66703 377.79 12.1037 377.048 14.5945 377.063C17.0854 377.077 19.5135 377.845 21.5585 379.268C23.6036 380.69 25.1696 382.698 26.0499 385.028L18.3599 391.288L26.8199 389.288C26.8296 391.238 26.3736 393.161 25.4899 394.898V394.898Z" fill="#49EBD1"/>
<path d="M19.41 370.998C16.389 371.141 13.4213 370.166 11.0731 368.26C8.72481 366.354 7.16039 363.65 6.67823 360.665C6.19607 357.679 6.82991 354.62 8.45883 352.072C10.0878 349.524 12.5978 347.664 15.51 346.848L15.44 351.918L18.23 346.398C19.8453 346.323 21.4596 346.566 22.9808 347.115C24.502 347.663 25.9003 348.506 27.0959 349.594C28.2914 350.683 29.2608 351.997 29.9487 353.46C30.6366 354.924 31.0295 356.508 31.105 358.123C31.1805 359.739 30.9372 361.353 30.3888 362.874C29.8404 364.395 28.9978 365.794 27.909 366.989C26.8203 368.185 25.5067 369.154 24.0433 369.842C22.5799 370.53 20.9953 370.923 19.38 370.998H19.41Z" fill="#49EBD1"/>
<path d="M49.3 351.108C47.3914 351.207 45.486 350.86 43.7348 350.095C41.9836 349.329 40.4347 348.167 39.2107 346.699C37.9867 345.231 37.1212 343.498 36.6829 341.638C36.2446 339.778 36.2454 337.841 36.6853 335.981C37.1252 334.122 37.9921 332.39 39.2173 330.923C40.4425 329.456 41.9924 328.295 43.7443 327.531C45.4961 326.767 47.4018 326.421 49.3103 326.522C51.2188 326.622 53.0778 327.165 54.74 328.108L52.57 334.108L57 329.728C58.7918 331.371 60.057 333.508 60.6364 335.868C61.2157 338.229 61.0831 340.709 60.2553 342.994C59.4275 345.28 57.9415 347.269 55.9848 348.711C54.0281 350.153 51.6881 350.984 49.26 351.098L49.3 351.108Z" fill="#49EBD1"/>
<path opacity="0.1" d="M45.7901 314.858C42.9501 315.168 40.1902 316.048 37.3302 316.228C34.4702 316.408 31.3302 315.718 29.5502 313.508C28.713 312.221 27.9517 310.885 27.2701 309.508C26.4927 308.295 25.4279 307.292 24.1701 306.588C23.3737 308.148 22.9195 309.861 22.8377 311.61C22.7558 313.36 23.0484 315.107 23.6957 316.735C24.3431 318.362 25.3304 319.833 26.5916 321.049C27.8528 322.264 29.3589 323.197 31.0093 323.784C32.6596 324.371 34.4162 324.599 36.1618 324.452C37.9073 324.306 39.6015 323.789 41.1313 322.936C42.661 322.082 43.991 320.912 45.0324 319.504C46.0738 318.096 46.8026 316.481 47.1702 314.768C46.7202 314.778 46.2501 314.808 45.7901 314.858Z" fill="black"/>
<path opacity="0.1" d="M49.2999 351.108C47.1774 351.209 45.0649 350.758 43.1682 349.8C41.2715 348.842 39.655 347.41 38.4761 345.642C37.2972 343.874 36.5959 341.831 36.4406 339.712C36.2853 337.593 36.6813 335.469 37.5899 333.548C38.5658 334.208 39.4046 335.05 40.0599 336.028C40.7953 337.43 41.61 338.789 42.4999 340.098C44.4199 342.348 47.6999 343.098 50.6699 342.948C53.6399 342.798 56.5099 341.948 59.4699 341.698C59.8799 341.698 60.2899 341.638 60.7099 341.628C60.0974 344.234 58.6522 346.569 56.5932 348.28C54.5343 349.991 51.9739 350.984 49.2999 351.108Z" fill="black"/>
<path opacity="0.1" d="M19.41 370.998C17.3094 371.097 15.2186 370.656 13.337 369.716C11.4554 368.777 9.8457 367.372 8.66145 365.634C7.47721 363.897 6.75788 361.884 6.57208 359.79C6.38627 357.695 6.74017 355.588 7.60004 353.668C8.61466 354.336 9.49911 355.184 10.21 356.168C11.0164 357.604 11.908 358.99 12.88 360.318C14.95 362.628 18.45 363.448 21.59 363.318C24.73 363.188 27.59 362.508 30.59 362.318C29.8434 364.738 28.3698 366.869 26.3696 368.422C24.3693 369.975 21.9394 370.875 19.41 370.998Z" fill="black"/>
<path opacity="0.1" d="M25.4899 394.898C24.2515 397.305 22.2544 399.237 19.8076 400.394C17.3608 401.552 14.6007 401.871 11.9544 401.301C9.30821 400.732 6.9234 399.306 5.16909 397.245C3.41477 395.184 2.38877 392.602 2.24987 389.898C2.15786 388.194 2.4306 386.489 3.04987 384.898C4.06387 385.564 4.97373 386.376 5.74987 387.308C6.91987 388.728 7.68987 390.308 9.04987 391.678C11.5599 394.148 15.6299 395.168 19.2399 395.258C21.3286 395.265 23.4157 395.145 25.4899 394.898V394.898Z" fill="black"/>
<path d="M910.221 567.781C912.831 562.941 909.871 557.021 906.471 552.711C903.071 548.401 898.911 543.891 899.001 538.421C899.131 530.531 907.511 525.861 914.201 521.681C919.17 518.566 923.751 514.874 927.851 510.681C929.566 509.067 930.984 507.165 932.041 505.061C933.431 501.981 933.391 498.461 933.301 495.061C933.008 483.801 932.451 472.548 931.631 461.301" stroke="#3F3D56" stroke-width="4" stroke-miterlimit="10"/>
<path d="M944.361 460.741C944.265 458.679 943.651 456.673 942.576 454.91C941.502 453.147 940.001 451.682 938.211 450.651L935.451 456.101L935.541 449.501C933.038 448.764 930.366 448.842 927.91 449.722C925.454 450.603 923.341 452.241 921.876 454.401C920.412 456.561 919.671 459.13 919.762 461.737C919.853 464.345 920.769 466.857 922.38 468.909C923.991 470.962 926.212 472.45 928.724 473.158C931.235 473.866 933.907 473.758 936.352 472.849C938.798 471.94 940.892 470.278 942.332 468.101C943.771 465.925 944.482 463.348 944.361 460.741Z" fill="#49EBD1"/>
<path d="M922.401 544.061C921.163 546.468 919.166 548.4 916.719 549.557C914.272 550.715 911.512 551.033 908.866 550.464C906.22 549.895 903.835 548.469 902.08 546.408C900.326 544.347 899.3 541.764 899.161 539.061C899.069 537.357 899.342 535.652 899.961 534.061C900.868 531.741 902.456 529.75 904.517 528.352C906.578 526.953 909.015 526.211 911.506 526.225C913.997 526.239 916.425 527.008 918.47 528.43C920.515 529.852 922.081 531.861 922.961 534.191L915.271 540.451L923.731 538.451C923.741 540.4 923.285 542.324 922.401 544.061V544.061Z" fill="#49EBD1"/>
<path d="M916.321 520.161C913.3 520.304 910.333 519.329 907.984 517.423C905.636 515.517 904.072 512.813 903.59 509.827C903.107 506.842 903.741 503.783 905.37 501.235C906.999 498.687 909.509 496.827 912.421 496.011L912.351 501.081L915.141 495.561C916.757 495.486 918.371 495.729 919.892 496.278C921.413 496.826 922.812 497.669 924.007 498.757C925.203 499.846 926.172 501.16 926.86 502.623C927.548 504.086 927.941 505.671 928.016 507.286C928.092 508.902 927.849 510.516 927.3 512.037C926.752 513.558 925.909 514.957 924.82 516.152C923.732 517.348 922.418 518.317 920.955 519.005C919.491 519.693 917.907 520.086 916.291 520.161H916.321Z" fill="#49EBD1"/>
<path d="M946.211 500.271C944.303 500.37 942.397 500.023 940.646 499.257C938.895 498.492 937.346 497.329 936.122 495.862C934.898 494.394 934.033 492.661 933.594 490.801C933.156 488.941 933.157 487.004 933.597 485.144C934.037 483.284 934.903 481.552 936.129 480.086C937.354 478.619 938.904 477.458 940.656 476.694C942.408 475.93 944.313 475.584 946.222 475.685C948.13 475.785 949.989 476.328 951.651 477.271L949.481 483.271L953.911 478.891C955.703 480.534 956.968 482.67 957.548 485.031C958.127 487.392 957.994 489.871 957.167 492.157C956.339 494.442 954.853 496.432 952.896 497.874C950.939 499.316 948.6 500.147 946.171 500.261L946.211 500.271Z" fill="#49EBD1"/>
<path opacity="0.1" d="M942.702 464.021C939.862 464.331 937.102 465.211 934.242 465.391C931.382 465.571 928.242 464.881 926.462 462.671C925.624 461.383 924.863 460.048 924.182 458.671C923.404 457.458 922.339 456.455 921.082 455.751C920.285 457.311 919.831 459.023 919.749 460.773C919.667 462.523 919.96 464.27 920.607 465.898C921.254 467.525 922.242 468.996 923.503 470.212C924.764 471.427 926.27 472.359 927.921 472.946C929.571 473.533 931.328 473.761 933.073 473.615C934.819 473.469 936.513 472.952 938.043 472.099C939.572 471.245 940.902 470.075 941.944 468.667C942.985 467.258 943.714 465.644 944.082 463.931C943.632 463.941 943.162 463.971 942.702 464.021Z" fill="black"/>
<path opacity="0.1" d="M946.211 500.271C944.089 500.372 941.976 499.921 940.08 498.963C938.183 498.005 936.566 496.573 935.387 494.805C934.209 493.037 933.507 490.994 933.352 488.875C933.197 486.755 933.593 484.632 934.501 482.711C935.477 483.37 936.316 484.213 936.971 485.191C937.707 486.593 938.521 487.952 939.411 489.261C941.331 491.511 944.611 492.261 947.581 492.111C950.551 491.961 953.421 491.111 956.381 490.861C956.791 490.861 957.201 490.801 957.621 490.791C957.009 493.397 955.564 495.732 953.505 497.443C951.446 499.154 948.885 500.146 946.211 500.271Z" fill="black"/>
<path opacity="0.1" d="M916.321 520.161C914.221 520.26 912.13 519.818 910.248 518.879C908.367 517.94 906.757 516.535 905.573 514.797C904.389 513.059 903.669 511.047 903.483 508.952C903.298 506.858 903.652 504.75 904.511 502.831C905.526 503.499 906.41 504.346 907.121 505.331C907.928 506.767 908.819 508.153 909.791 509.481C911.861 511.791 915.361 512.611 918.501 512.481C921.641 512.351 924.501 511.671 927.501 511.481C926.755 513.901 925.281 516.032 923.281 517.585C921.281 519.138 918.851 520.038 916.321 520.161Z" fill="black"/>
<path opacity="0.1" d="M922.401 544.061C921.163 546.468 919.166 548.4 916.719 549.557C914.272 550.715 911.512 551.033 908.866 550.464C906.22 549.895 903.835 548.469 902.08 546.408C900.326 544.347 899.3 541.764 899.161 539.061C899.069 537.357 899.342 535.652 899.961 534.061C900.975 534.727 901.885 535.539 902.661 536.471C903.831 537.891 904.601 539.471 905.961 540.841C908.471 543.311 912.541 544.331 916.151 544.421C918.24 544.428 920.327 544.307 922.401 544.061V544.061Z" fill="black"/>
<path d="M419.52 336.248C416.91 331.418 419.87 325.498 423.28 321.188C426.69 316.878 430.83 312.388 430.74 306.898C430.62 298.998 422.24 294.338 415.54 290.158C410.574 287.045 405.995 283.352 401.9 279.158C400.177 277.553 398.755 275.653 397.7 273.548C396.32 270.458 396.36 266.948 396.44 263.548C396.74 252.288 397.297 241.035 398.11 229.788" stroke="#3F3D56" stroke-width="4" stroke-miterlimit="10"/>
<path d="M385.39 229.218C385.485 227.156 386.097 225.151 387.17 223.388C388.243 221.625 389.742 220.16 391.53 219.128L394.29 224.578L394.21 217.978C395.524 217.596 396.892 217.431 398.26 217.488C400.692 217.602 403.035 218.434 404.994 219.879C406.954 221.324 408.44 223.317 409.266 225.607C410.093 227.897 410.221 230.381 409.636 232.744C409.051 235.107 407.778 237.243 405.979 238.883C404.18 240.523 401.935 241.593 399.528 241.957C397.121 242.321 394.66 241.963 392.456 240.928C390.252 239.894 388.405 238.229 387.147 236.145C385.889 234.061 385.278 231.65 385.39 229.218V229.218Z" fill="#49EBD1"/>
<path d="M407.34 312.538C408.631 315.051 410.746 317.043 413.331 318.181C415.916 319.319 418.813 319.533 421.538 318.788C424.262 318.043 426.647 316.383 428.293 314.088C429.939 311.793 430.746 309.002 430.578 306.182C430.41 303.363 429.278 300.687 427.371 298.603C425.465 296.52 422.899 295.155 420.106 294.739C417.312 294.322 414.461 294.879 412.029 296.315C409.597 297.752 407.733 299.981 406.75 302.628L414.44 308.888L405.98 306.888C405.973 308.854 406.44 310.792 407.34 312.538V312.538Z" fill="#49EBD1"/>
<path d="M413.42 288.638C416.442 288.784 419.412 287.811 421.762 285.906C424.113 284.001 425.679 281.297 426.163 278.31C426.646 275.323 426.013 272.263 424.384 269.714C422.755 267.164 420.243 265.304 417.33 264.488L417.39 269.558L414.6 264.038C411.339 263.878 408.148 265.019 405.729 267.212C403.31 269.404 401.86 272.467 401.7 275.728C401.63 277.149 401.809 278.57 402.23 279.928C402.968 282.358 404.44 284.499 406.443 286.058C408.447 287.618 410.884 288.519 413.42 288.638V288.638Z" fill="#49EBD1"/>
<path d="M383.54 268.728C385.448 268.826 387.353 268.477 389.104 267.711C390.854 266.944 392.402 265.781 393.625 264.313C394.848 262.845 395.712 261.112 396.149 259.252C396.587 257.392 396.585 255.455 396.145 253.596C395.704 251.737 394.837 250.005 393.611 248.539C392.386 247.073 390.836 245.913 389.084 245.149C387.332 244.386 385.427 244.041 383.519 244.141C381.611 244.242 379.752 244.785 378.09 245.728L380.27 251.728L375.79 247.438C374.595 248.521 373.627 249.829 372.94 251.288C372.253 252.747 371.863 254.328 371.79 255.938C371.731 257.077 371.835 258.219 372.1 259.328C372.728 261.925 374.183 264.247 376.247 265.943C378.311 267.638 380.871 268.616 383.54 268.728Z" fill="#49EBD1"/>
<path opacity="0.1" d="M387.05 232.498C389.89 232.808 392.65 233.688 395.5 233.868C398.35 234.048 401.5 233.358 403.29 231.148C404.124 229.86 404.882 228.525 405.56 227.148C406.341 225.934 407.409 224.932 408.67 224.228C409.468 225.789 409.923 227.502 410.006 229.253C410.088 231.003 409.796 232.752 409.149 234.38C408.501 236.009 407.513 237.481 406.251 238.697C404.989 239.913 403.482 240.846 401.83 241.432C400.178 242.019 398.421 242.246 396.674 242.099C394.928 241.951 393.233 241.433 391.703 240.577C390.173 239.722 388.843 238.55 387.803 237.14C386.762 235.729 386.035 234.113 385.67 232.398C386.12 232.408 386.58 232.448 387.05 232.498Z" fill="black"/>
<path opacity="0.1" d="M383.54 268.728C385.661 268.826 387.772 268.373 389.667 267.415C391.562 266.456 393.178 265.024 394.356 263.257C395.534 261.49 396.236 259.448 396.392 257.33C396.549 255.212 396.155 253.09 395.25 251.168C394.271 251.827 393.429 252.67 392.77 253.648C392.034 255.05 391.22 256.409 390.33 257.718C388.42 259.968 385.14 260.718 382.17 260.568C379.2 260.418 376.33 259.568 373.37 259.318C372.96 259.318 372.54 259.258 372.13 259.248C372.741 261.855 374.186 264.191 376.245 265.902C378.304 267.613 380.865 268.605 383.54 268.728V268.728Z" fill="black"/>
<path opacity="0.1" d="M413.42 288.638C415.522 288.74 417.614 288.3 419.497 287.362C421.38 286.424 422.991 285.018 424.176 283.279C425.361 281.541 426.08 279.527 426.265 277.431C426.449 275.335 426.093 273.227 425.23 271.308C424.217 271.974 423.335 272.822 422.63 273.808C421.824 275.244 420.932 276.63 419.96 277.958C417.88 280.268 414.39 281.088 411.24 280.958C408.09 280.828 405.24 280.148 402.24 279.958C402.983 282.38 404.455 284.514 406.456 286.068C408.457 287.621 410.889 288.519 413.42 288.638V288.638Z" fill="black"/>
<path opacity="0.1" d="M407.34 312.538C408.785 315.324 411.239 317.453 414.201 318.489C417.163 319.526 420.409 319.392 423.276 318.115C426.143 316.838 428.413 314.514 429.624 311.619C430.835 308.724 430.894 305.476 429.79 302.538C428.771 303.198 427.861 304.011 427.09 304.948C425.92 306.368 425.09 307.948 423.79 309.318C421.27 311.788 417.21 312.808 413.59 312.898C411.501 312.899 409.414 312.779 407.34 312.538V312.538Z" fill="black"/>
<path d="M894.05 415.92C949.256 415.92 994.01 371.166 994.01 315.96C994.01 260.754 949.256 216 894.05 216C838.844 216 794.09 260.754 794.09 315.96C794.09 371.166 838.844 415.92 894.05 415.92Z" fill="#E3F7F7"/>
<path d="M936.96 341.74C933.48 338.26 925.11 333.01 920.96 331.05C916.17 328.75 914.41 328.79 911.02 331.24C908.2 333.24 906.37 335.17 903.13 334.46C899.89 333.75 893.47 328.91 887.26 322.72C881.05 316.53 876.23 310.15 875.54 306.86C874.85 303.57 876.75 301.78 878.77 298.96C881.21 295.57 881.28 293.81 878.96 289.02C876.96 284.87 871.77 276.52 868.26 273.02C864.75 269.52 863.99 270.29 862.07 271.02C860.094 271.848 858.197 272.852 856.4 274.02C852.92 276.35 850.97 278.29 849.6 281.21C848.23 284.13 846.68 289.55 854.65 303.74C860.53 314.595 867.976 324.525 876.75 333.21V333.21C885.464 342.004 895.428 349.464 906.32 355.35C920.5 363.35 925.93 361.76 928.85 360.4C931.77 359.04 933.71 357.11 936.03 353.6C937.2 351.805 938.204 349.907 939.03 347.93C939.69 346.01 940.47 345.23 936.96 341.74Z" fill="#3BB5AE"/>
<path opacity="0.1" d="M894.05 216.01C874.268 216 854.927 221.858 838.474 232.842C822.022 243.827 809.197 259.444 801.622 277.719C794.047 295.993 792.062 316.104 795.919 335.507C799.776 354.91 809.301 372.732 823.289 386.721C837.278 400.709 855.1 410.234 874.503 414.091C893.906 417.948 914.017 415.963 932.291 408.388C950.566 400.813 966.183 387.988 977.168 371.536C988.152 355.083 994.01 335.742 994 315.96C993.987 289.456 983.452 264.041 964.711 245.299C945.969 226.558 920.554 216.023 894.05 216.01V216.01ZM894.05 402.63C876.908 402.63 860.152 397.547 845.899 388.024C831.646 378.5 820.537 364.964 813.977 349.127C807.418 333.29 805.701 315.864 809.045 299.052C812.39 282.239 820.644 266.796 832.765 254.675C844.886 242.554 860.329 234.3 877.142 230.955C893.954 227.611 911.38 229.328 927.217 235.887C943.054 242.447 956.59 253.556 966.113 267.809C975.637 282.062 980.72 298.818 980.72 315.96C980.72 327.342 978.478 338.612 974.123 349.127C969.767 359.643 963.383 369.197 955.335 377.245C947.287 385.293 937.732 391.677 927.217 396.033C916.702 400.388 905.432 402.63 894.05 402.63Z" fill="black" fill-opacity="0.4"/>
<path d="M493.96 572.328C549.166 572.328 593.92 527.575 593.92 472.368C593.92 417.162 549.166 372.408 493.96 372.408C438.754 372.408 394 417.162 394 472.368C394 527.575 438.754 572.328 493.96 572.328Z" fill="#E3F7F7"/>
<path d="M550.81 442.168L520.88 472.618C520.827 472.669 520.785 472.729 520.757 472.796C520.728 472.863 520.713 472.936 520.713 473.009C520.713 473.081 520.728 473.153 520.757 473.22C520.785 473.288 520.827 473.348 520.88 473.398L541.88 495.728C542.382 496.235 542.724 496.878 542.862 497.578C543 498.277 542.928 499.002 542.656 499.661C542.384 500.32 541.923 500.884 541.331 501.282C540.739 501.68 540.043 501.895 539.33 501.898C538.37 501.896 537.45 501.515 536.77 500.838L515.88 478.588C515.773 478.483 515.63 478.425 515.48 478.425C515.33 478.425 515.187 478.483 515.08 478.588L509.99 483.728C507.906 485.86 505.417 487.553 502.669 488.709C499.922 489.864 496.971 490.459 493.99 490.458C490.953 490.444 487.949 489.825 485.153 488.637C482.358 487.449 479.828 485.716 477.71 483.538L472.82 478.538C472.713 478.433 472.57 478.375 472.42 478.375C472.27 478.375 472.127 478.433 472.02 478.538L451.18 500.738C450.845 501.074 450.446 501.341 450.008 501.523C449.569 501.705 449.1 501.798 448.625 501.798C448.15 501.798 447.68 501.705 447.242 501.523C446.803 501.341 446.405 501.074 446.07 500.738C445.733 500.404 445.465 500.006 445.283 499.567C445.1 499.129 445.006 498.658 445.006 498.183C445.006 497.708 445.1 497.238 445.283 496.8C445.465 496.361 445.733 495.963 446.07 495.628L466.99 473.348C467.083 473.24 467.134 473.101 467.134 472.958C467.134 472.815 467.083 472.677 466.99 472.569L437.06 442.118C436.983 442.041 436.885 441.988 436.778 441.967C436.671 441.946 436.56 441.956 436.459 441.998C436.358 442.04 436.272 442.111 436.212 442.202C436.151 442.293 436.119 442.399 436.12 442.509V503.438C436.128 505.794 437.067 508.05 438.732 509.716C440.398 511.381 442.655 512.321 445.01 512.328H542.88C545.235 512.321 547.492 511.381 549.157 509.716C550.823 508.05 551.762 505.794 551.77 503.438V442.558C551.775 442.445 551.745 442.333 551.683 442.237C551.622 442.142 551.533 442.068 551.427 442.025C551.322 441.982 551.206 441.973 551.096 441.999C550.985 442.024 550.885 442.084 550.81 442.168V442.168Z" fill="#3BB5AE"/>
<path d="M493.96 483.228C495.989 483.248 498.001 482.86 499.877 482.087C501.753 481.314 503.454 480.172 504.88 478.728L548.47 434.358C546.922 433.077 544.979 432.37 542.97 432.358H445.03C443.02 432.365 441.075 433.072 439.53 434.358L483.13 478.728C484.543 480.164 486.229 481.301 488.089 482.074C489.949 482.847 491.946 483.24 493.96 483.228V483.228Z" fill="#3BB5AE"/>
<path d="M271.85 415.678C327.057 415.678 371.81 370.925 371.81 315.718C371.81 260.512 327.057 215.758 271.85 215.758C216.644 215.758 171.89 260.512 171.89 315.718C171.89 370.925 216.644 415.678 271.85 415.678Z" fill="#E3F7F7"/>
<path d="M271.85 267.888L232 359.828L235.72 363.548L271.86 347.608L308 363.548L311.72 359.828L271.85 267.888Z" fill="#3BB5AE"/>
<path opacity="0.1" d="M271.85 215.728C252.07 215.719 232.731 221.575 216.279 232.557C199.828 243.539 187.003 259.154 179.426 277.425C171.85 295.697 169.862 315.805 173.715 335.207C177.568 354.608 187.088 372.431 201.071 386.421C215.055 400.412 232.873 409.941 252.272 413.803C271.672 417.666 291.781 415.688 310.057 408.121C328.332 400.554 343.953 387.737 354.943 371.291C365.934 354.845 371.8 335.509 371.8 315.728C371.8 289.215 361.271 263.788 342.528 245.035C323.785 226.283 298.363 215.742 271.85 215.728V215.728ZM271.85 402.348C254.706 402.348 237.947 397.264 223.693 387.738C209.439 378.213 198.331 364.674 191.772 348.834C185.214 332.994 183.501 315.565 186.849 298.752C190.197 281.938 198.457 266.495 210.583 254.376C222.709 242.257 238.156 234.006 254.972 230.668C271.788 227.329 289.216 229.053 305.052 235.62C320.888 242.188 334.42 253.304 343.938 267.564C353.455 281.823 358.53 298.585 358.52 315.728C358.517 338.713 349.385 360.755 333.131 377.007C316.878 393.259 294.834 402.388 271.85 402.388V402.348Z" fill="black" fill-opacity="0.4"/>
<path opacity="0.1" d="M495.93 372C476.15 371.99 456.811 377.847 440.359 388.829C423.908 399.811 411.083 415.425 403.506 433.697C395.93 451.969 393.942 472.077 397.795 491.478C401.648 510.88 411.168 528.703 425.152 542.693C439.135 556.683 456.953 566.212 476.353 570.075C495.752 573.937 515.861 571.96 534.137 564.393C552.412 556.825 568.033 544.008 579.023 527.562C590.014 511.116 595.88 491.78 595.88 472C595.88 445.487 585.351 420.059 566.608 401.307C547.865 382.555 522.443 372.013 495.93 372V372ZM495.93 558.62C478.786 558.62 462.027 553.536 447.773 544.01C433.52 534.484 422.411 520.945 415.853 505.106C409.294 489.266 407.581 471.837 410.929 455.023C414.277 438.209 422.537 422.766 434.663 410.647C446.789 398.528 462.236 390.278 479.052 386.939C495.868 383.601 513.296 385.324 529.132 391.892C544.968 398.459 558.5 409.576 568.018 423.835C577.535 438.095 582.61 454.856 582.6 472C582.597 494.985 573.465 517.027 557.211 533.279C540.958 549.53 518.915 558.66 495.93 558.66V558.62Z" fill="black" fill-opacity="0.4"/>
<path d="M765.871 356.671C764.395 353.069 762.882 349.477 761.33 345.897C760.051 342.403 758.173 339.158 755.78 336.31C754.87 335.285 753.763 334.454 752.524 333.868C751.161 333.366 749.728 333.08 748.276 333.022C746.063 332.743 743.828 332.683 741.603 332.843C740.74 332.583 739.764 332.241 738.803 331.85C743.619 330.585 747.902 327.806 751.02 323.924C754.137 320.041 755.926 315.26 756.121 310.284C756.121 309.959 756.121 309.617 756.121 309.291C756.134 306.245 755.547 303.227 754.393 300.408C753.24 297.589 751.542 295.025 749.397 292.862C747.253 290.7 744.703 288.98 741.894 287.803C739.085 286.625 736.071 286.013 733.025 286C728.738 285.992 724.535 287.193 720.9 289.467C716.099 288.378 711.071 288.949 706.637 291.086C702.203 293.223 698.624 296.801 696.485 301.235C693.789 303.814 691.659 306.925 690.23 310.372C688.801 313.818 688.104 317.524 688.184 321.254C688.184 321.596 688.184 321.954 688.184 322.28C688.608 334.926 696.778 345.066 707.097 346.092C705.994 346.588 704.982 347.264 704.103 348.094C700.945 351.137 700.424 355.972 700.082 360.366L699.838 363.621L694.369 365.574C694.195 365.637 694.042 365.745 693.925 365.889C693.809 366.032 693.734 366.204 693.709 366.387C693.683 366.57 693.709 366.757 693.782 366.926C693.856 367.096 693.974 367.242 694.125 367.349L699.35 371.076C699.35 371.385 699.35 371.694 699.35 372.004C699.35 372.313 699.35 372.704 699.448 373.062C698.555 373.848 697.863 374.835 697.429 375.942C696.921 377.651 696.76 379.444 696.957 381.216L697.153 385.757C697.127 389.175 697.593 392.579 698.536 395.865C699.22 397.883 702.182 402.749 704.314 402.782C702.345 411.734 701.824 430.614 701.824 430.614C701.58 430.859 702.263 431.086 703.452 431.282C704.623 440.266 708.448 465.462 715.236 476.546C716.304 480.16 717.157 483.834 717.791 487.549C717.791 487.549 719.728 511.491 722.283 518.604C724.464 524.658 726.189 539.6 726.661 543.93C726.219 544.043 725.817 544.277 725.498 544.604C725.179 544.931 724.957 545.34 724.855 545.785C723.569 549.659 715.236 555.551 715.236 555.551C712.681 556.827 710.27 558.371 708.041 560.157C705.421 562.517 705.519 564.649 717.156 563.315C739.617 560.727 743.458 553.549 743.458 553.549C743.458 553.549 743.1 552.344 742.563 550.782C741.877 548.351 740.888 546.015 739.617 543.832C739.292 543.523 738.966 544.043 738.576 544.857C736.881 534.472 736.368 523.929 737.046 513.428C737.046 513.428 737.68 502.425 734.474 494.661C733.76 490.596 733.76 486.438 734.474 482.373C735.76 477.197 729.347 451.952 729.347 451.952L725.669 433.365C726.17 434 726.521 434.74 726.694 435.53L726.792 435.904L726.889 436.441C726.926 436.631 727.016 436.806 727.15 436.946C729.656 447.363 736.525 476.22 736.525 480.452C736.525 485.628 742.938 498.568 742.938 498.568C742.938 498.568 745.493 519.922 749.985 528.321C753.403 534.717 753.485 544.092 753.322 548.226C753.322 548.226 752.557 553.549 751.271 554.835C750.249 556.106 749.431 557.528 748.846 559.05L748.699 559.359C748.699 559.359 746.779 563.249 748.065 563.901C752.956 565.819 758.248 566.485 763.462 565.837C763.462 565.837 766.034 562.582 766.034 561.313C765.98 560.537 765.882 559.766 765.741 559.001C765.269 555.941 764.39 551.124 764.373 551.075C764.911 548.991 762.746 543.197 762.746 543.197L762.095 525.082C763.286 512.816 761.752 500.438 757.603 488.834C757.603 488.834 754.347 477.197 755.047 473.958C755.747 470.719 753.761 436.425 753.761 436.425L753.566 435.937C753.392 433.511 753.458 431.074 753.761 428.661C754.396 420.897 751.841 404.719 751.19 404.084C750.659 402.345 750.352 400.546 750.278 398.729C750.425 397.378 750.864 393.423 751.466 388.508C757.795 388.291 764.107 387.748 770.379 386.88C770.985 386.88 771.568 386.647 772.007 386.229C772.264 385.838 772.395 385.378 772.381 384.911C773.13 375.161 769.566 365.688 765.871 356.671ZM752.964 377.196C753.631 372.557 754.347 368.065 755.063 364.728L755.161 365.021C756.393 368.375 757.426 371.799 758.254 375.275C756.545 376.057 754.776 376.699 752.964 377.196Z" fill="url(#paint0_linear)"/>
<path d="M703.11 429.589C703.11 429.589 706.951 464.143 715.268 477.571C716.337 481.141 717.19 484.772 717.824 488.444C717.824 488.444 719.744 512.109 722.3 519.141C724.855 526.172 726.775 545.378 726.775 545.378C726.775 545.378 735.727 555.599 738.934 547.299C736.92 536.331 736.275 525.156 737.013 514.03C737.013 514.03 737.648 503.157 734.458 495.475C733.744 491.459 733.744 487.349 734.458 483.333C735.727 478.206 729.331 453.271 729.331 453.271L724.22 428.319L703.11 429.589Z" fill="#BE6F72"/>
<path d="M743.41 553.695C743.41 553.695 739.569 560.727 717.189 563.282C705.568 564.6 705.486 562.501 708.107 560.157C710.328 558.391 712.728 556.864 715.268 555.6C715.268 555.6 723.585 549.854 724.855 546.013C726.125 542.172 730.617 545.378 730.617 545.378C737.013 554.965 738.299 542.807 739.569 544.092C740.843 546.239 741.833 548.543 742.515 550.945C743.052 552.491 743.41 553.695 743.41 553.695Z" fill="#FF6F61"/>
<path opacity="0.1" d="M743.41 553.695C743.41 553.695 739.569 560.727 717.189 563.282C705.568 564.6 705.486 562.501 708.107 560.157C709.93 561.312 713.608 561.784 721.014 558.806C731.675 554.444 739.406 551.921 742.515 550.944C743.052 552.491 743.41 553.695 743.41 553.695Z" fill="black"/>
<path opacity="0.1" d="M737.013 514.03C737.013 514.03 737.648 503.157 734.458 495.475C733.744 491.459 733.744 487.349 734.458 483.333C735.727 478.206 729.331 453.271 729.331 453.271L724.22 428.319L719.793 428.58L724.855 453.271C724.855 453.271 731.251 478.206 729.982 483.333C729.268 487.349 729.268 491.459 729.982 495.475C733.237 503.157 732.537 514.03 732.537 514.03C731.799 525.156 732.444 536.331 734.458 547.299C734.111 548.34 733.466 549.257 732.602 549.935C734.979 551.01 737.485 550.961 738.934 547.299C736.92 536.331 736.275 525.156 737.013 514.03V514.03Z" fill="black"/>
<path d="M732.846 289.19C728.578 289.181 724.394 290.371 720.769 292.624C715.983 291.519 710.964 292.068 706.531 294.182C702.097 296.295 698.51 299.848 696.355 304.262C693.67 306.801 691.546 309.873 690.12 313.282C688.693 316.69 687.995 320.36 688.07 324.054C688.07 337.661 697.234 348.68 708.529 348.68C716.668 348.68 723.797 342.885 727.068 334.503C728.948 335.001 730.885 335.253 732.83 335.252C738.938 335.252 744.796 332.825 749.115 328.506C753.434 324.187 755.861 318.329 755.861 312.221C755.861 306.113 753.434 300.255 749.115 295.936C744.796 291.617 738.938 289.19 732.83 289.19H732.846Z" fill="#3F3D56"/>
<path d="M751.727 432.795L753.647 437.906C753.647 437.906 755.568 471.809 754.917 475.016C754.266 478.222 757.489 489.664 757.489 489.664C761.625 501.119 763.154 513.352 761.965 525.472L762.599 543.376C762.599 543.376 765.155 550.407 763.885 551.693C762.616 552.979 752.964 550.554 752.964 550.554C752.964 550.554 754.25 537.126 749.709 528.809C745.168 520.492 742.677 499.381 742.677 499.381C742.677 499.381 736.281 486.588 736.281 481.477C736.281 476.367 726.043 434.781 726.043 434.781L751.727 432.795Z" fill="#BE6F72"/>
<path d="M701.824 432.161C701.824 432.161 702.475 409.13 705.079 402.098C706.405 398.813 707.36 395.39 707.928 391.893C707.928 391.893 746.649 398.892 749.855 396.337C749.855 396.337 750.49 405.289 751.141 405.923C751.792 406.558 754.396 422.558 753.696 430.24C752.997 437.922 753.696 437.906 753.696 437.906C753.696 437.906 727.459 441.747 726.824 437.906C726.19 434.065 724.269 434.081 724.269 434.081C724.269 434.081 700.555 433.365 701.824 432.161Z" fill="#3F3D56"/>
<g opacity="0.1">
<path opacity="0.1" d="M722.934 432.161C722.934 432.161 706.755 431.721 701.873 430.842C701.873 431.672 701.873 432.161 701.873 432.161C700.603 433.43 724.269 434.081 724.269 434.081C724.591 434.111 724.897 434.235 725.148 434.439C724.285 432.16 722.934 432.161 722.934 432.161Z" fill="black"/>
<path opacity="0.1" d="M751.092 405.923C750.441 405.289 749.806 396.337 749.806 396.337C749.474 396.543 749.103 396.676 748.716 396.727C748.943 399.429 749.383 403.58 749.806 404.003C750.229 404.426 753.061 420.637 752.361 428.319C751.662 436.002 752.361 435.985 752.361 435.985C752.361 435.985 731.609 439.029 726.58 436.995C726.58 437.271 726.726 437.58 726.775 437.906C727.41 441.747 753.647 437.906 753.647 437.906C753.647 437.906 752.996 437.906 753.647 430.24C754.298 422.574 751.727 406.574 751.092 405.923Z" fill="black"/>
</g>
<path d="M730.014 329.49C730.565 330.722 731.402 331.804 732.456 332.648C733.134 333.151 733.919 333.491 734.751 333.641C733.318 334.471 731.756 335.089 730.324 335.919C728.071 337.434 725.898 339.063 723.813 340.802C721.682 342.516 719.072 343.528 716.342 343.699C717.3 342.408 717.901 340.887 718.084 339.29C718.267 337.693 718.025 336.075 717.384 334.601C716.798 333.635 716.411 332.561 716.245 331.443C716.245 329.604 717.872 328.188 719.386 327.211C720.607 326.381 721.86 325.584 723.129 324.786C724.122 324.168 725.62 322.866 726.873 322.915C728.126 322.963 728.273 324.07 728.501 325.209C728.823 326.694 729.332 328.133 730.014 329.49V329.49Z" fill="#BE6F72"/>
<path opacity="0.1" d="M730.014 329.49C730.565 330.722 731.402 331.804 732.456 332.648C733.134 333.151 733.919 333.491 734.751 333.641C733.318 334.471 731.756 335.089 730.324 335.919C728.071 337.434 725.898 339.063 723.813 340.802C721.682 342.516 719.072 343.528 716.342 343.699C717.3 342.408 717.901 340.887 718.084 339.29C718.267 337.693 718.025 336.075 717.384 334.601C716.798 333.635 716.411 332.561 716.245 331.443C716.245 329.604 717.872 328.188 719.386 327.211C720.607 326.381 721.86 325.584 723.129 324.786C724.122 324.168 725.62 322.866 726.873 322.915C728.126 322.963 728.273 324.07 728.501 325.209C728.823 326.694 729.332 328.133 730.014 329.49V329.49Z" fill="black"/>
<path d="M745.005 367.235C753.131 367.235 759.719 360.647 759.719 352.521C759.719 344.395 753.131 337.807 745.005 337.807C736.879 337.807 730.291 344.395 730.291 352.521C730.291 360.647 736.879 367.235 745.005 367.235Z" fill="#BE6F72"/>
<path d="M765.79 561.361C765.79 562.647 763.234 565.837 763.234 565.837C758.038 566.475 752.764 565.815 747.886 563.917C746.6 563.282 748.52 559.441 748.52 559.441L748.667 559.131C749.253 557.625 750.072 556.219 751.092 554.965C752.362 553.695 753.127 548.454 753.127 548.454C757.098 541.944 764.146 551.27 764.146 551.27C764.146 551.27 765.041 556.153 765.513 559.115C765.676 560.173 765.79 561.036 765.79 561.361Z" fill="#FF6F61"/>
<path opacity="0.1" d="M765.79 561.361C765.79 562.647 763.234 565.837 763.234 565.837C758.038 566.475 752.764 565.815 747.886 563.917C746.6 563.282 748.52 559.441 748.52 559.441L748.667 559.131C753.025 561.156 757.796 562.137 762.599 561.996L765.513 559.083C765.676 560.173 765.79 561.036 765.79 561.361Z" fill="black"/>
<path d="M715.577 336.196C723.524 336.196 729.965 329.754 729.965 321.807C729.965 313.861 723.524 307.419 715.577 307.419C707.631 307.419 701.189 313.861 701.189 321.807C701.189 329.754 707.631 336.196 715.577 336.196Z" fill="#BE6F72"/>
<path d="M703.972 350.584C700.815 353.595 700.294 358.364 699.968 362.71L699.48 369.074C699.304 370.788 699.266 372.513 699.366 374.233C699.366 375.291 699.627 376.366 699.724 377.489C699.822 378.612 699.855 380.028 699.871 381.314V390.721C699.717 392.663 700.076 394.61 700.913 396.369C701.359 397.22 702.108 397.872 703.012 398.197C703.916 398.523 704.909 398.497 705.795 398.127C706.807 397.347 707.519 396.244 707.814 395.002C709.401 391.185 710.495 387.181 711.069 383.088C711.199 381.672 711.215 380.256 711.346 378.84C711.476 377.423 711.72 375.942 711.931 374.51C712.843 368.52 713.25 362.466 713.657 356.427C713.771 354.637 715.382 347.589 713.038 346.808C711.899 346.434 709.539 347.605 708.448 347.996C706.797 348.548 705.275 349.429 703.972 350.584V350.584Z" fill="#BE6F72"/>
<path opacity="0.1" d="M703.972 350.584C700.815 353.595 700.294 358.364 699.968 362.71L699.48 369.074C699.304 370.788 699.266 372.513 699.366 374.233C699.366 375.291 699.627 376.366 699.724 377.489C699.822 378.612 699.855 380.028 699.871 381.314V390.721C699.717 392.663 700.076 394.61 700.913 396.369C701.359 397.22 702.108 397.872 703.012 398.197C703.916 398.523 704.909 398.497 705.795 398.127C706.807 397.347 707.519 396.244 707.814 395.002C709.401 391.185 710.495 387.181 711.069 383.088C711.199 381.672 711.215 380.256 711.346 378.84C711.476 377.423 711.72 375.942 711.931 374.51C712.843 368.52 713.25 362.466 713.657 356.427C713.771 354.637 715.382 347.589 713.038 346.808C711.899 346.434 709.539 347.605 708.448 347.996C706.797 348.548 705.275 349.429 703.972 350.584V350.584Z" fill="black"/>
<path d="M733.807 331.085C733.807 331.085 722.934 339.402 716.538 341.323C716.538 341.323 712.746 345.652 712.094 346.694C711.443 347.736 710.141 359.227 708.839 361.798C707.537 364.37 704.363 370.116 708.839 375.861C708.839 375.861 710.109 381.623 709.474 383.543C708.839 385.464 706.512 392.495 708.628 392.821C710.744 393.146 717.156 397.606 722.902 396.337C728.647 395.067 750.099 401.219 750.099 401.219C750.099 401.219 753.648 368.26 756.219 362.433L750.458 360.513C750.458 360.513 734.474 350.926 744.061 336.212C744.045 336.212 735.06 334.292 733.807 331.085Z" fill="#FF6F61"/>
<path d="M694.109 369.611L707.325 378.97C707.493 379.093 707.695 379.159 707.903 379.159C708.111 379.159 708.313 379.093 708.481 378.97L712.062 376.284C712.172 376.189 712.26 376.072 712.321 375.94C712.381 375.808 712.413 375.665 712.413 375.519C712.413 375.374 712.381 375.23 712.321 375.098C712.26 374.966 712.172 374.849 712.062 374.754L701.889 365.721C701.757 365.601 701.595 365.519 701.42 365.485C701.245 365.45 701.064 365.464 700.896 365.526L694.369 367.869C694.198 367.929 694.046 368.034 693.93 368.173C693.814 368.313 693.738 368.482 693.711 368.661C693.684 368.841 693.707 369.024 693.777 369.192C693.847 369.359 693.962 369.504 694.109 369.611V369.611Z" fill="#3F3D56"/>
<path d="M698.552 397.801C697.618 394.558 697.152 391.199 697.169 387.824L696.974 383.315C696.777 381.565 696.938 379.793 697.446 378.107C697.947 376.95 698.7 375.92 699.648 375.089C700.597 374.259 701.718 373.65 702.931 373.305C705.361 372.631 707.9 372.448 710.402 372.768C710.739 372.769 711.07 372.859 711.362 373.029C711.617 373.265 711.798 373.57 711.883 373.908C712.253 374.629 712.47 375.42 712.52 376.229C712.57 377.038 712.453 377.849 712.176 378.611C711.798 379.232 711.286 379.76 710.678 380.158C708.904 381.427 706.837 382.274 705.161 383.657C704.82 383.887 704.559 384.217 704.412 384.601C704.331 384.938 704.331 385.289 704.412 385.627C704.62 386.522 704.903 387.399 705.258 388.247C705.402 388.673 705.655 389.055 705.991 389.354C706.3 389.614 706.707 389.712 707.032 389.956C707.732 390.526 709.197 391.274 709.116 392.17C708.872 395.425 706.918 399.071 706.153 402.293C704.689 408.592 699.497 400.552 698.552 397.801Z" fill="#BE6F72"/>
<g opacity="0.1">
<path opacity="0.1" d="M719.109 396.337H718.751C720.133 396.605 721.553 396.605 722.934 396.337H723.341C721.938 396.132 720.513 396.132 719.109 396.337Z" fill="black"/>
<path opacity="0.1" d="M752.687 361.473C750.392 366.632 747.007 394.579 746.405 400.129C748.651 400.715 750.132 401.138 750.132 401.138C750.132 401.138 753.648 368.26 756.219 362.433L752.687 361.473Z" fill="black"/>
</g>
<path d="M745.509 352.977C745.629 353.619 745.876 354.231 746.237 354.776C746.598 355.322 747.064 355.789 747.609 356.15C748.967 357.289 750.215 358.553 751.336 359.927C752.944 362.188 754.191 364.687 755.031 367.332C756.252 370.644 757.279 374.025 758.107 377.456C749.969 381.232 740.724 381.053 732.065 383.543C728.337 384.526 724.955 386.527 722.299 389.321C720.975 390.726 719.968 392.4 719.348 394.228C718.727 396.056 718.507 397.996 718.702 399.917C718.715 400.142 718.782 400.359 718.897 400.552C719.039 400.712 719.215 400.836 719.413 400.915C719.611 400.994 719.825 401.026 720.037 401.008C722.2 401.005 724.301 400.283 726.01 398.957C727.699 397.637 729.234 396.13 730.584 394.465C731.422 393.373 732.55 392.538 733.839 392.056C738.543 390.624 743.605 390.705 748.488 390.624C755.791 390.481 763.079 389.905 770.314 388.898C770.578 388.93 770.846 388.901 771.097 388.814C771.348 388.727 771.577 388.584 771.765 388.396C771.953 388.208 772.096 387.979 772.183 387.728C772.27 387.477 772.299 387.209 772.267 386.945C772.983 377.342 769.419 367.967 765.757 359.064C764.292 355.494 762.784 351.94 761.232 348.403C759.954 344.947 758.081 341.741 755.698 338.93C754.793 337.909 753.684 337.088 752.443 336.521C751.042 336.016 749.569 335.741 748.081 335.708C745.712 335.388 743.314 335.344 740.935 335.577C740.556 336.776 740.326 338.017 740.252 339.272C740.382 343.667 742.303 347.784 744.191 351.756C744.435 352.358 745.135 352.391 745.509 352.977Z" fill="#BE6F72"/>
<path opacity="0.1" d="M719.451 361.212C718.35 363.097 717.787 365.248 717.823 367.43C717.827 368.292 717.965 369.149 718.23 369.969C718.675 371.12 719.372 372.156 720.271 373.001C721.17 373.846 722.247 374.479 723.422 374.852" stroke="black" stroke-miterlimit="10"/>
<path d="M727.736 307.745C726.934 307.742 726.137 307.869 725.376 308.119C723.243 304.864 718.23 302.618 712.355 302.618C704.574 302.618 698.276 306.638 698.276 311.586C698.276 316.534 704.574 320.538 712.355 320.538C715.268 320.57 718.152 319.958 720.802 318.748C721.398 319.981 722.313 321.032 723.453 321.791C724.593 322.55 725.915 322.99 727.283 323.066C728.65 323.141 730.013 322.848 731.229 322.219C732.445 321.589 733.47 320.645 734.198 319.484C734.926 318.324 735.33 316.99 735.367 315.621C735.405 314.252 735.075 312.898 734.412 311.7C733.749 310.501 732.777 309.503 731.597 308.807C730.417 308.112 729.073 307.745 727.703 307.745H727.736Z" fill="#3F3D56"/>
<path opacity="0.1" d="M728.37 321.173C726.927 321.173 725.513 320.765 724.292 319.996C723.071 319.228 722.092 318.129 721.469 316.827C718.819 318.038 715.935 318.649 713.022 318.618C705.258 318.618 698.959 314.614 698.959 309.666C698.934 309.368 698.934 309.068 698.959 308.771C698.496 309.637 698.25 310.604 698.243 311.586C698.243 316.469 704.542 320.538 712.322 320.538C715.235 320.57 718.119 319.959 720.769 318.748C721.47 320.201 722.612 321.396 724.032 322.163C725.451 322.929 727.077 323.228 728.677 323.017C730.276 322.806 731.768 322.096 732.941 320.988C734.113 319.879 734.906 318.429 735.206 316.843C734.587 318.133 733.618 319.223 732.409 319.989C731.2 320.754 729.801 321.164 728.37 321.173V321.173Z" fill="black"/>
<path opacity="0.1" d="M696.371 308.038C698.527 303.624 702.113 300.071 706.547 297.958C710.981 295.844 716 295.295 720.786 296.4C724.135 294.333 727.958 293.158 731.89 292.99C735.822 292.821 739.732 293.663 743.246 295.437C746.759 297.21 749.759 299.854 751.96 303.118C754.16 306.381 755.486 310.154 755.812 314.076C755.812 313.442 755.812 312.807 755.812 312.156C755.803 308.062 754.703 304.045 752.624 300.519C750.545 296.992 747.564 294.084 743.986 292.094C740.409 290.104 736.366 289.104 732.273 289.197C728.181 289.29 724.187 290.473 720.704 292.624C715.919 291.519 710.9 292.068 706.466 294.182C702.032 296.295 698.445 299.848 696.29 304.262C693.606 306.801 691.482 309.873 690.055 313.282C688.628 316.69 687.93 320.36 688.006 324.054C688.006 324.705 688.006 325.34 688.006 325.974C688.325 319.128 691.331 312.683 696.371 308.038Z" fill="black"/>
<path d="M404.209 447.218C404.232 444.53 403.623 441.873 402.433 439.462C401.243 437.051 399.504 434.953 397.356 433.336C397.329 428.584 395.625 423.993 392.542 420.376C389.46 416.758 385.199 414.346 380.511 413.565C379.787 410.11 378.167 406.907 375.813 404.276C373.46 401.646 370.455 399.681 367.102 398.578V398.578C366.288 398.324 365.456 398.13 364.613 398H364.368H363.93H363.579H363.194H362.72H361.651C356.994 398.108 352.524 399.86 349.034 402.945C345.544 406.031 343.258 410.253 342.581 414.862C336.428 413.442 330.802 415.282 329.768 419.174C329.509 420.207 329.57 421.295 329.943 422.294C330.995 425.308 334.413 428.201 338.988 429.62L339.584 429.796L340.477 430.023H340.67C339.693 432.101 339.19 434.371 339.198 436.667C339.184 439.484 339.947 442.251 341.403 444.663C342.86 447.075 344.953 449.039 347.454 450.338L347.05 450.584C346.48 451.102 346.026 451.736 345.718 452.442C344.612 454.398 343.747 456.482 343.142 458.647C342.703 460.505 342.633 462.433 342.09 464.273C341.073 467.656 338.479 470.513 338.181 474.036C338.041 475.614 338.304 477.542 337.182 478.558C336.906 478.798 336.607 479.01 336.288 479.189C335.511 479.738 334.85 480.435 334.343 481.24C334.007 481.97 333.544 482.635 332.975 483.203C331.959 483.957 330.294 483.887 329.803 485.061C329.312 486.236 330.592 487.62 330.294 488.9C329.996 490.179 328.909 490.425 328.12 491.143C327.203 492.13 326.557 493.338 326.245 494.649C324.586 494.965 322.878 494.913 321.243 494.495C319.607 494.077 318.083 493.304 316.78 492.23C317.227 493.362 317.555 494.537 317.761 495.736C316.236 494.572 314.506 493.703 312.661 493.177C310.584 492.233 308.732 490.859 307.227 489.145L310.137 488.742L297.289 469.128L293.485 468.34L296.885 474.877C296.601 475.007 296.35 475.199 296.15 475.438C295.949 475.678 295.805 475.959 295.729 476.262C295.548 476.99 295.506 477.745 295.606 478.488C295.78 480.259 296.073 482.015 296.482 483.747L297.464 488.339C297.552 488.76 297.657 489.198 297.779 489.618C296.497 489.556 295.213 489.698 293.976 490.039C291.428 489.092 288.773 488.462 286.071 488.164C285.492 488.046 284.896 488.046 284.318 488.164C283.663 488.474 283.092 488.937 282.653 489.513C280.44 492.08 278.474 494.85 276.781 497.787C269.77 509.811 260.638 520.31 251.996 531.177C246.037 533.596 240.025 535.892 234.013 538.188L221.077 543.131C218.555 544.276 215.819 544.873 213.049 544.884C211.822 544.884 210.297 544.621 209.544 545.673C209.206 546.22 208.94 546.809 208.755 547.426L207.423 547.566C206.81 545.461 205.752 543.513 204.32 541.852C204.005 541.906 203.707 542.036 203.454 542.232C203.2 542.428 202.998 542.682 202.866 542.973C202.55 543.552 202.357 544.183 201.989 544.726C201.306 545.743 200.096 546.234 199.237 547.093C198.378 547.951 197.835 549.284 196.889 550.16C195.598 551.115 194.082 551.718 192.489 551.913C190.087 552.473 187.771 553.352 185.601 554.524C184.806 555.022 183.952 555.416 183.059 555.699C182.072 555.891 181.06 555.927 180.062 555.804L173.226 555.296C172.612 555.219 171.989 555.249 171.385 555.383C170.699 555.663 170.119 556.153 169.729 556.783C169.338 557.412 169.157 558.15 169.212 558.889C169.3 559.631 169.538 560.348 169.912 560.996C170.286 561.644 170.787 562.209 171.385 562.657C172.568 563.531 173.881 564.211 175.277 564.673C181.192 566.976 187.29 568.782 193.506 570.072V571.456C197.855 573.649 202.658 574.789 207.528 574.787C207.889 574.811 208.251 574.745 208.58 574.594C209.027 574.259 209.339 573.773 209.456 573.227C210.91 568.879 211.828 564.37 212.191 559.8V559.8C213.046 559.743 213.884 559.529 214.662 559.169C217.011 558.521 219.359 560.133 221.796 560.396C224.793 560.729 227.562 558.977 230.402 557.907L231.629 557.504C230.82 558.544 229.864 559.459 228.789 560.221C227.615 561.062 226.3 561.693 225.161 562.57C224.196 563.443 223.165 564.24 222.076 564.954C221.308 565.309 220.518 565.613 219.71 565.865C218.515 566.309 217.379 566.898 216.327 567.618C215.395 568.173 214.608 568.942 214.031 569.861C213.743 570.331 213.575 570.865 213.541 571.415C213.507 571.965 213.609 572.515 213.838 573.016C214.081 573.426 214.408 573.778 214.798 574.05C215.188 574.322 215.632 574.508 216.099 574.594C217.023 574.734 217.962 574.734 218.886 574.594C222.602 574.313 226.3 573.98 229.999 573.647C231.562 573.548 233.116 573.326 234.644 572.981C235.45 572.788 236.256 572.526 237.063 572.298C238.446 571.948 239.861 571.737 241.287 571.667C241.7 571.635 242.115 571.676 242.514 571.789C243.373 572.07 243.986 572.946 244.863 573.122C245.457 573.197 246.06 573.118 246.615 572.894C249.317 572.312 252.072 572.018 254.836 572.017C256.045 572.017 257.465 571.719 258.026 570.598C258.587 569.476 257.57 567.67 257.115 566.181C256.881 565.228 256.751 564.252 256.729 563.271C256.517 560.856 255.826 558.509 254.696 556.365C254.086 555.365 253.575 554.309 253.171 553.21C258.472 551.196 263.543 548.622 268.297 545.533C270.902 543.646 273.822 542.239 276.921 541.378C280.581 540.942 284.292 541.374 287.753 542.64C296.181 545.083 304.472 547.973 312.591 551.299C316.464 552.894 320.32 554.577 324.317 555.786C325.482 557.35 326.891 558.717 328.488 559.835C331.249 561.388 334.349 562.237 337.515 562.307C341.74 562.692 345.982 562.85 350.223 562.78C353.47 562.921 356.707 562.322 359.688 561.027C360.4 560.672 361.065 560.23 361.669 559.713C362.813 559.81 363.966 559.654 365.044 559.258C366.122 558.861 367.1 558.232 367.909 557.417C370.207 555.447 371.861 552.834 372.659 549.915C373.693 545.918 372.904 541.151 375.358 537.961C376.007 537.084 376.865 536.383 377.514 535.507C378.299 534.306 378.691 532.891 378.636 531.458C378.665 531.401 378.7 531.348 378.741 531.3C379.279 530.012 379.633 528.655 379.793 527.269C380.094 526.179 380.474 525.112 380.932 524.078C382.178 520.986 383.266 517.833 384.192 514.631C384.825 512.501 385.328 510.336 385.699 508.145C385.962 506.393 386.12 504.64 386.26 502.887C386.446 500.125 386.982 497.398 387.855 494.772C390.05 488.519 391.291 481.972 391.536 475.351V474.965C394.766 474.594 397.74 473.029 399.874 470.577C402.008 468.125 403.148 464.964 403.07 461.714C403.07 459.763 402.658 457.833 401.86 456.053C403.411 453.367 404.221 450.319 404.209 447.218ZM341.494 523.412C341.687 524.096 341.915 524.762 342.143 525.428C341.108 524.429 340.109 523.395 339.075 522.378C339.478 522.518 339.899 522.641 340.285 522.799C340.69 522.964 341.077 523.17 341.441 523.412H341.494ZM336.534 520.047C330.469 514.789 323.458 510.705 317.253 505.604C320.636 507.269 323.931 509.215 327.191 511.073C331.059 513.281 334.979 515.402 338.952 517.435C338.3 518.453 337.462 519.339 336.481 520.047H336.534ZM339.11 506.796L339.408 506.498C339.408 507.252 339.408 507.935 339.408 508.584L337.778 508.023C338.229 507.64 338.657 507.231 339.058 506.796H339.11ZM285.773 520.993C288.261 518.177 290.424 515.091 292.223 511.791C294.624 515.98 298.533 519.013 301.846 522.536C296.5 521.852 291.136 521.274 285.773 520.993Z" fill="url(#paint1_linear)"/>
<path d="M294.397 469.952L298.218 470.724L311.241 489.987L305.509 490.758L294.397 469.952Z" fill="#2F2E41"/>
<path d="M201.744 548.092C202.78 551.491 204.057 554.812 205.565 558.03C209.88 557.118 214.126 555.906 218.273 554.402C217.455 553.186 216.571 552.016 215.626 550.896C214.597 549.777 213.381 548.846 212.033 548.145C210.596 547.819 209.105 547.819 207.668 548.145C205.705 548.092 203.724 548.127 201.744 548.092Z" fill="#FBBEBE"/>
<path d="M212.05 553.228C211.014 552.763 210.089 552.082 209.339 551.229C208.589 550.376 208.031 549.372 207.703 548.285C207.036 546.101 205.906 544.086 204.39 542.378C204.071 542.421 203.769 542.546 203.511 542.739C203.253 542.932 203.049 543.188 202.918 543.482C202.603 544.043 202.41 544.674 202.059 545.235C201.358 546.234 200.131 546.725 199.255 547.566C198.378 548.407 197.853 549.722 196.906 550.581C195.605 551.54 194.077 552.144 192.471 552.334C190.032 552.884 187.675 553.75 185.46 554.91C184.65 555.395 183.785 555.783 182.884 556.067C181.884 556.216 180.868 556.216 179.869 556.067L172.963 555.576C172.383 555.481 171.79 555.481 171.21 555.576C170.505 555.831 169.906 556.315 169.509 556.951C169.112 557.586 168.939 558.337 169.019 559.082C169.101 559.821 169.338 560.534 169.716 561.175C170.094 561.815 170.603 562.369 171.21 562.798C172.41 563.659 173.734 564.333 175.136 564.796C181.149 567.061 187.34 568.819 193.646 570.054V571.422C198.037 573.577 202.864 574.698 207.756 574.699C208.115 574.721 208.475 574.661 208.807 574.524C209.255 574.189 209.567 573.704 209.684 573.157C211.345 568.316 212.319 563.265 212.576 558.153C212.689 556.854 212.588 555.546 212.278 554.279C211.892 553.035 213.189 553.561 211.998 553.07" fill="#2F2E41"/>
<path d="M344.491 527.198C324.019 528.425 303.792 522.431 283.284 521.8C280.738 521.632 278.182 521.791 275.677 522.273C273.068 522.98 270.542 523.962 268.14 525.2C257.15 530.318 245.774 534.56 234.416 538.784L221.358 543.64C218.818 544.787 216.064 545.384 213.277 545.392C212.033 545.392 210.508 545.13 209.772 546.164C207.651 549.319 208.65 553.929 210.052 557.469C210.508 558.609 211.279 559.853 212.506 559.976C213.367 559.918 214.21 559.704 214.995 559.345C217.361 558.714 219.728 560.309 222.181 560.572C225.196 560.887 228.001 559.169 230.858 558.118C235.59 556.365 240.744 556.365 245.721 555.594C254.047 554.209 261.777 550.335 268.999 545.936C271.624 544.065 274.562 542.676 277.675 541.834C281.362 541.399 285.1 541.825 288.595 543.079C297.088 545.475 305.449 548.319 313.642 551.597C317.902 553.451 322.268 555.049 326.718 556.382C336.431 558.924 346.701 558.31 356.042 554.63C359.32 553.333 362.878 551.124 363.053 547.513C363.176 545.498 361.599 543.727 360.565 541.992C359.898 540.888 359.215 539.784 358.496 538.714C354.991 533.631 350.714 526.83 344.491 527.198Z" fill="#2F2E41"/>
<path opacity="0.1" d="M344.491 527.198C324.019 528.425 303.792 522.431 283.284 521.8C280.738 521.632 278.182 521.791 275.677 522.273C273.068 522.98 270.542 523.962 268.14 525.2C257.15 530.318 245.774 534.56 234.416 538.784L221.358 543.64C218.818 544.787 216.064 545.384 213.277 545.392C212.033 545.392 210.508 545.13 209.772 546.164C207.651 549.319 208.65 553.929 210.052 557.469C210.508 558.609 211.279 559.853 212.506 559.976C213.367 559.918 214.21 559.704 214.995 559.345C217.361 558.714 219.728 560.309 222.181 560.572C225.196 560.887 228.001 559.169 230.858 558.118C235.59 556.365 240.744 556.365 245.721 555.594C254.047 554.209 261.777 550.335 268.999 545.936C271.624 544.065 274.562 542.676 277.675 541.834C281.362 541.399 285.1 541.825 288.595 543.079C297.088 545.475 305.449 548.319 313.642 551.597C317.902 553.451 322.268 555.049 326.718 556.382C336.431 558.924 346.701 558.31 356.042 554.63C359.32 553.333 362.878 551.124 363.053 547.513C363.176 545.498 361.599 543.727 360.565 541.992C359.898 540.888 359.215 539.784 358.496 538.714C354.991 533.631 350.714 526.83 344.491 527.198Z" fill="black"/>
<path d="M241.059 549.038C244.261 550.125 247.492 551.13 250.752 552.053C252.505 549.056 256.01 546.97 256.764 543.534C256.808 543.386 256.808 543.227 256.764 543.079C256.677 542.933 256.549 542.817 256.396 542.746C254.052 541.459 251.456 540.699 248.789 540.52C246.685 540.397 245.721 542.588 244.775 544.13C244.407 544.814 241.918 549.371 241.059 549.038Z" fill="#FBBEBE"/>
<path d="M245.546 546.9C244.588 546.738 243.674 546.378 242.863 545.844C242.051 545.31 241.359 544.613 240.831 543.798C240.393 543.009 239.902 541.94 238.991 542.045C238.079 542.15 237.781 543.096 237.588 543.92C236.982 547.026 236.096 550.071 234.942 553.017C233.785 555.979 231.824 558.559 229.28 560.467C228.088 561.29 226.774 561.904 225.599 562.78C224.627 563.642 223.59 564.427 222.497 565.129C221.723 565.476 220.927 565.769 220.113 566.005C218.916 566.456 217.774 567.044 216.713 567.758C215.767 568.301 214.967 569.065 214.381 569.984C214.092 570.444 213.924 570.97 213.893 571.513C213.862 572.056 213.97 572.597 214.206 573.087C214.451 573.49 214.78 573.836 215.17 574.102C215.56 574.368 216.002 574.548 216.467 574.629C217.403 574.769 218.354 574.769 219.289 574.629C223.023 574.366 226.756 574.033 230.49 573.7C232.063 573.599 233.627 573.382 235.17 573.052L237.606 572.386C238.998 572.018 240.426 571.806 241.865 571.755C242.284 571.716 242.706 571.758 243.11 571.877C243.969 572.158 244.582 573.017 245.476 573.192C246.07 573.249 246.669 573.171 247.229 572.964C249.953 572.38 252.733 572.092 255.52 572.105C256.746 572.105 258.184 571.79 258.745 570.703C259.446 569.336 258.289 567.811 257.816 566.338C257.589 565.402 257.46 564.444 257.43 563.481C257.221 561.098 256.523 558.783 255.379 556.681C254.433 554.928 253.136 553 253.802 551.142C254.133 550.552 254.347 549.903 254.433 549.231C254.17 546.216 247.264 547.286 245.546 546.9Z" fill="#2F2E41"/>
<path d="M313.8 494.351C310.167 492.759 307.255 489.872 305.632 486.253C305.299 485.482 305.018 484.658 304.685 483.887C303.616 481.275 301.947 478.951 299.813 477.104C299.587 476.865 299.316 476.675 299.014 476.545C298.713 476.416 298.388 476.349 298.06 476.35C297.734 476.448 297.44 476.631 297.209 476.881C296.978 477.131 296.818 477.437 296.745 477.77C296.549 478.483 296.502 479.228 296.605 479.961C296.783 481.684 297.076 483.394 297.481 485.079L298.48 489.601C298.613 490.293 298.818 490.969 299.094 491.617C299.521 492.375 300.086 493.046 300.759 493.597C301.67 494.439 302.599 495.245 303.528 496.051C304.066 496.519 304.654 496.924 305.281 497.261C306.26 497.728 307.308 498.036 308.384 498.172C312.566 498.717 316.557 500.255 320.022 502.659C320.022 502.659 320.022 499.627 320.022 499.294C319.978 498.413 319.673 497.565 319.146 496.858C317.54 495.688 315.726 494.837 313.8 494.351V494.351Z" fill="#FBBEBE"/>
<path opacity="0.1" d="M313.8 494.351C310.167 492.759 307.255 489.872 305.632 486.253C305.299 485.482 305.018 484.658 304.685 483.887C303.616 481.275 301.947 478.951 299.813 477.104C299.587 476.865 299.316 476.675 299.014 476.545C298.713 476.416 298.388 476.349 298.06 476.35C297.734 476.448 297.44 476.631 297.209 476.881C296.978 477.131 296.818 477.437 296.745 477.77C296.549 478.483 296.502 479.228 296.605 479.961C296.783 481.684 297.076 483.394 297.481 485.079L298.48 489.601C298.613 490.293 298.818 490.969 299.094 491.617C299.521 492.375 300.086 493.046 300.759 493.597C301.67 494.439 302.599 495.245 303.528 496.051C304.066 496.519 304.654 496.924 305.281 497.261C306.26 497.728 307.308 498.036 308.384 498.172C312.566 498.717 316.557 500.255 320.022 502.659C320.022 502.659 320.022 499.627 320.022 499.294C319.978 498.413 319.673 497.565 319.146 496.858C317.54 495.688 315.726 494.837 313.8 494.351V494.351Z" fill="black"/>
<path d="M355.481 459.751C358.23 459.751 360.459 457.507 360.459 454.738C360.459 451.969 358.23 449.725 355.481 449.725C352.732 449.725 350.503 451.969 350.503 454.738C350.503 457.507 352.732 459.751 355.481 459.751Z" fill="#2F2E41"/>
<path d="M352.396 451.723C351.064 451.403 349.66 451.604 348.47 452.284C347.896 452.795 347.436 453.423 347.121 454.124C346.006 456.042 345.135 458.091 344.526 460.224C344.088 461.977 344.018 463.958 343.457 465.763C342.441 469.093 339.829 471.915 339.531 475.386C339.391 476.946 339.654 478.769 338.514 479.82C338.235 480.062 337.936 480.279 337.62 480.469C336.831 480.995 336.162 481.682 335.657 482.485C335.314 483.199 334.845 483.847 334.273 484.395C333.256 485.149 331.573 485.079 331.083 486.148C330.592 487.217 331.871 488.672 331.573 489.934C331.275 491.196 330.171 491.441 329.382 492.142C328.453 493.124 327.8 494.333 327.489 495.648C325.823 495.969 324.108 495.924 322.461 495.515C320.815 495.107 319.277 494.344 317.954 493.282C319.111 496.795 319.616 500.49 319.444 504.184C319.531 504.775 319.499 505.378 319.348 505.956C319.197 506.534 318.932 507.076 318.568 507.55C322.522 507.844 326.437 508.525 330.259 509.583C331.914 510.135 333.704 510.135 335.359 509.583C336.246 509.107 337.041 508.478 337.708 507.725C339.811 505.586 342.02 503.255 342.528 500.293C342.654 498.619 342.683 496.94 342.616 495.262C342.816 493.182 343.245 491.131 343.895 489.145C345.005 485.024 345.75 480.812 346.121 476.56C346.349 473.931 348.628 471.828 349.82 469.549C352.063 465.114 354.377 460.505 354.535 455.527C354.605 453.914 354.044 451.898 352.396 451.723Z" fill="#2F2E41"/>
<path opacity="0.1" d="M352.396 451.723C351.064 451.403 349.66 451.604 348.47 452.284C347.896 452.795 347.436 453.423 347.121 454.124C346.006 456.042 345.135 458.091 344.526 460.224C344.088 461.977 344.018 463.958 343.457 465.763C342.441 469.093 339.829 471.915 339.531 475.386C339.391 476.946 339.654 478.769 338.514 479.82C338.235 480.062 337.936 480.279 337.62 480.469C336.831 480.995 336.162 481.682 335.657 482.485C335.314 483.199 334.845 483.847 334.273 484.395C333.256 485.149 331.573 485.079 331.083 486.148C330.592 487.217 331.871 488.672 331.573 489.934C331.275 491.196 330.171 491.441 329.382 492.142C328.453 493.124 327.8 494.333 327.489 495.648C325.823 495.969 324.108 495.924 322.461 495.515C320.815 495.107 319.277 494.344 317.954 493.282C319.111 496.795 319.616 500.49 319.444 504.184C319.531 504.775 319.499 505.378 319.348 505.956C319.197 506.534 318.932 507.076 318.568 507.55C322.522 507.844 326.437 508.525 330.259 509.583C331.914 510.135 333.704 510.135 335.359 509.583C336.246 509.107 337.041 508.478 337.708 507.725C339.811 505.586 342.02 503.255 342.528 500.293C342.654 498.619 342.683 496.94 342.616 495.262C342.816 493.182 343.245 491.131 343.895 489.145C345.005 485.024 345.75 480.812 346.121 476.56C346.349 473.931 348.628 471.828 349.82 469.549C352.063 465.114 354.377 460.505 354.535 455.527C354.605 453.914 354.044 451.898 352.396 451.723Z" fill="black"/>
<path d="M347.734 531.51C343.475 529.477 340.355 525.709 336.902 522.466C330.329 516.279 322.284 511.949 315.36 506.112C310.768 502.274 306.596 497.804 301.636 494.579C297.192 491.762 292.161 490.005 286.93 489.443C286.353 489.311 285.754 489.311 285.177 489.443C284.514 489.725 283.939 490.179 283.512 490.758C281.276 493.279 279.287 496.009 277.57 498.908C268.806 513.807 256.343 526.322 246.019 540.169C245.782 540.457 245.609 540.791 245.511 541.151C245.468 541.688 245.603 542.224 245.897 542.676L248 546.777C249.175 549.091 251.068 551.773 253.592 551.317C254.728 550.988 255.745 550.336 256.519 549.441L265.949 540.415L275.835 530.967C281.619 525.446 287.508 519.784 291.294 512.703C294.239 517.821 299.48 521.169 303.055 525.849C304.423 527.602 305.544 529.582 306.771 531.475C308.717 534.49 310.943 537.33 313.151 540.239L324.492 554.7C325.929 556.742 327.708 558.521 329.75 559.958C332.547 561.48 335.665 562.315 338.847 562.395C343.107 562.774 347.384 562.926 351.66 562.85C354.935 562.982 358.198 562.383 361.213 561.097C362.716 560.437 363.999 559.363 364.915 558C365.83 556.638 366.34 555.043 366.384 553.403C366.209 551.705 365.652 550.069 364.754 548.618C360.652 541.308 355.359 535.139 347.734 531.51Z" fill="#2F2E41"/>
<path d="M358.549 462.065C360.669 462.065 362.387 460.338 362.387 458.208C362.387 456.079 360.669 454.352 358.549 454.352C356.429 454.352 354.71 456.079 354.71 458.208C354.71 460.338 356.429 462.065 358.549 462.065Z" fill="#E8E8F0"/>
<path d="M357.707 455.317C358.564 457.038 358.715 459.025 358.128 460.855C357.523 462.653 356.692 464.367 355.657 465.956C354.766 467.593 353.69 469.122 352.449 470.513C358.373 470.794 364.105 468.48 369.311 465.676C373.518 463.414 377.707 460.628 379.95 456.403C379.281 456.563 378.585 456.58 377.909 456.453C377.233 456.326 376.59 456.058 376.024 455.667C374.894 454.89 373.884 453.951 373.027 452.88L370.065 449.55C369.393 448.817 368.805 448.012 368.312 447.148C367.661 445.968 367.386 444.616 367.523 443.275C366.342 444.507 365.025 445.6 363.597 446.535C361.476 447.92 359.145 448.919 357.006 450.286C356.27 450.777 354.587 451.548 355.026 452.53C355.464 453.511 357.111 454.265 357.707 455.317Z" fill="#FBBEBE"/>
<path opacity="0.1" d="M357.707 455.317C358.564 457.038 358.715 459.025 358.128 460.855C357.523 462.653 356.692 464.367 355.657 465.956C354.766 467.593 353.69 469.122 352.449 470.513C358.373 470.794 364.105 468.48 369.311 465.676C373.518 463.414 377.707 460.628 379.95 456.403C379.281 456.563 378.585 456.58 377.909 456.453C377.233 456.326 376.59 456.058 376.024 455.667C374.894 454.89 373.884 453.951 373.027 452.88L370.065 449.55C369.393 448.817 368.805 448.012 368.312 447.148C367.661 445.968 367.386 444.616 367.523 443.275C366.342 444.507 365.025 445.6 363.597 446.535C361.476 447.92 359.145 448.919 357.006 450.286C356.27 450.777 354.587 451.548 355.026 452.53C355.464 453.511 357.111 454.265 357.707 455.317Z" fill="black"/>
<path d="M357.777 455.895C357.177 456.74 356.855 457.751 356.855 458.787C356.855 459.823 357.177 460.834 357.777 461.679C357.953 461.889 358.584 463.204 358.847 463.222C358.975 463.211 359.101 463.174 359.215 463.114C359.33 463.054 359.431 462.971 359.513 462.871C360.861 461.466 362.114 459.973 363.264 458.401C364.438 456.834 366.125 455.73 368.031 455.281C370.393 455.191 372.713 455.915 374.604 457.332C375.483 457.733 376.258 458.333 376.865 459.085C377.288 459.858 377.539 460.713 377.602 461.591C378.174 466.882 378.397 472.205 378.268 477.524C378.368 481.366 378.116 485.209 377.514 489.005C377.128 490.951 376.567 492.861 376.304 494.842C376.099 496.587 376.017 498.344 376.059 500.1V507.427C376.012 508.771 376.106 510.116 376.339 511.441C376.69 513.036 377.444 514.526 377.952 516.086C378.476 517.878 378.834 519.714 379.021 521.572L380.02 529.144C380.336 531.528 380.581 534.14 379.126 536.155C378.478 537.014 377.619 537.715 376.953 538.574C374.482 541.799 375.2 546.409 374.236 550.353C373.424 553.24 371.748 555.809 369.433 557.715C368.608 558.531 367.614 559.157 366.521 559.547C365.427 559.938 364.262 560.084 363.106 559.976C360.021 559.397 358.181 556.19 357.339 553.157C356.498 550.125 356.2 546.83 354.377 544.271C352.704 542.334 350.727 540.682 348.523 539.38C346.293 538.059 344.655 535.932 343.948 533.438C343.755 532.334 343.948 531.195 343.755 530.073C343.59 528.661 343.05 527.32 342.189 526.188C341.329 525.057 340.181 524.177 338.865 523.64C337.287 523.027 335.359 522.799 334.448 521.362C336.704 519.949 338.349 517.741 339.058 515.174C339.755 512.625 340.132 509.999 340.179 507.357L340.705 498.593C340.951 494.649 341.056 490.758 342.791 487.217C343.562 485.64 344.544 484.15 345.333 482.59C346.402 480.398 347.31 478.131 348.049 475.807C349.311 472.196 350.573 468.585 351.695 464.939C352.133 463.169 352.805 461.466 353.693 459.874C354.64 458.226 356.007 456.245 357.777 455.895Z" fill="#E8E8F0"/>
<path d="M338.234 513.106H340.565L341.056 509.6C341.119 508.897 341.285 508.206 341.547 507.55C341.932 506.853 342.384 506.196 342.896 505.587C345.175 502.344 345.017 498.049 345.578 494.106C346.594 488.895 348.316 483.847 350.696 479.102L355.218 469.023C355.63 468.199 355.959 467.336 356.2 466.447C356.389 465.465 356.483 464.467 356.48 463.467C356.48 461.907 356.971 456.228 357.024 454.703C357.024 454.125 355.744 454.44 355.481 453.932C354.92 452.81 354.149 455.842 353.08 456.508C352.075 457.275 351.344 458.344 350.994 459.558C350.013 462.082 349.417 464.817 348.505 467.323C347.713 469.939 346.257 472.306 344.281 474.194C343.352 475 342.283 475.649 341.406 476.525C338.602 479.295 338.321 483.694 338.234 487.655C338.164 490.074 337.708 513.106 338.234 513.106Z" fill="#2F2E41"/>
<path d="M371.782 451.706C370.699 452.272 369.76 453.081 369.04 454.069C368.32 455.057 367.837 456.197 367.628 457.402C367.228 459.819 366.521 462.175 365.525 464.413C362.685 469.356 355.446 470.794 353.431 476.14C352.924 477.937 352.653 479.793 352.624 481.661C352.274 485.5 351.012 489.198 350.626 493.019C350.433 495.993 350.504 498.979 350.837 501.941L353.378 532.124C353.865 536.564 353.61 541.054 352.624 545.41C355.23 545.782 357.886 545.341 360.232 544.148C362.598 543.061 364.771 541.572 367.067 540.31C370.994 538.136 375.341 536.611 378.794 533.719C379.413 533.226 379.946 532.634 380.371 531.966C380.899 530.699 381.253 529.367 381.423 528.005C381.721 526.937 382.102 525.894 382.562 524.885C383.827 521.838 384.927 518.725 385.857 515.56C386.49 513.466 386.993 511.335 387.365 509.18C387.645 507.427 387.803 505.674 387.943 503.921C388.126 501.204 388.669 498.522 389.556 495.946C391.755 489.791 393.002 483.337 393.254 476.806C393.322 475.866 393.257 474.922 393.061 474.001C392.676 472.875 392.159 471.798 391.519 470.794C390.467 468.813 389.766 466.64 388.855 464.624C386.369 460.184 382.807 456.441 378.496 453.739C376.462 452.354 374.079 450.882 371.782 451.706Z" fill="#2F2E41"/>
<path d="M318.83 500.959C317.031 500.015 315.402 498.776 314.01 497.296C313.379 496.56 312.853 495.736 312.257 495C310.632 493.251 308.519 492.03 306.193 491.494C303.891 490.988 301.538 490.759 299.182 490.811C297.6 490.705 296.013 490.895 294.502 491.371C293.748 491.624 293.069 492.061 292.527 492.643C291.986 493.224 291.598 493.932 291.399 494.702C291.336 495.655 291.52 496.608 291.935 497.468C292.35 498.328 292.98 499.066 293.765 499.61C295.134 500.733 296.75 501.514 298.481 501.888C299.889 502.138 301.312 502.308 302.74 502.397C311.118 503.273 318.603 507.83 325.947 511.984C332.397 515.654 338.976 519.066 345.683 522.221C345.943 520.216 346.054 518.195 346.016 516.174C346.016 514.666 345.894 512.352 344.474 511.459C342.454 510.613 340.351 509.985 338.199 509.583C333.873 508.17 329.651 506.46 325.561 504.465C323.247 503.466 321.021 502.239 318.83 500.959Z" fill="#FBBEBE"/>
<path d="M355.481 453.599C363.729 453.599 370.415 446.873 370.415 438.577C370.415 430.281 363.729 423.556 355.481 423.556C347.233 423.556 340.547 430.281 340.547 438.577C340.547 446.873 347.233 453.599 355.481 453.599Z" fill="#FBBEBE"/>
<path d="M376.042 468.725C374.849 470.399 373.877 472.219 373.15 474.141C371.397 477.928 368.417 481.153 366.962 485.167C365.507 489.18 365.49 494.334 362.493 497.611C361.893 498.113 361.439 498.767 361.178 499.504C361.166 499.963 361.119 500.42 361.038 500.872C360.6 502.063 358.654 502.116 358.286 503.343C358.181 503.694 358.286 504.079 358.111 504.43C357.813 505.218 356.761 505.341 356.077 505.814C354.623 506.796 354.921 509.075 353.886 510.494C353.435 511.023 352.852 511.423 352.197 511.654C351.541 511.885 350.836 511.938 350.153 511.809C348.793 511.532 347.486 511.041 346.279 510.354C345.845 510.117 345.369 509.968 344.877 509.916C344.295 509.936 343.733 510.132 343.264 510.477C341.943 511.451 340.883 512.737 340.179 514.22C339.476 515.703 339.151 517.338 339.233 518.978C339.434 522.262 340.218 525.485 341.547 528.496C341.694 529.017 341.951 529.501 342.3 529.915C342.822 530.325 343.454 530.57 344.116 530.62C344.777 530.67 345.439 530.523 346.016 530.196C347.16 529.517 348.377 528.97 349.645 528.566C351.958 528.145 354.219 529.74 356.568 529.6C358.278 529.347 359.889 528.639 361.231 527.549C363.589 526.142 365.708 524.367 367.506 522.291C368.522 520.941 369.258 519.416 370.17 517.979C371.33 516.232 372.588 514.552 373.938 512.948L382.562 502.431C383.419 501.433 384.192 500.366 384.876 499.241C385.642 497.707 386.23 496.09 386.629 494.421C387.55 491.644 388.139 488.767 388.381 485.85C388.435 483.439 388.223 481.029 387.75 478.664C387.489 476.309 386.899 474.002 385.998 471.81C384.122 467.849 379.565 464.624 376.042 468.725Z" fill="#2F2E41"/>
<path d="M406.049 449.129C406.062 446.466 405.443 443.839 404.242 441.462C403.042 439.085 401.294 437.027 399.143 435.457C399.073 430.727 397.328 426.175 394.218 422.609C391.109 419.044 386.836 416.696 382.159 415.984C381.26 411.499 378.805 407.475 375.228 404.624C371.651 401.773 367.182 400.277 362.609 400.401C358.036 400.524 353.654 402.26 350.237 405.3C346.819 408.34 344.586 412.491 343.93 417.018C337.726 415.616 332.047 417.438 331.012 421.26C329.978 425.081 334.36 430.024 340.898 431.776C342.96 432.354 345.108 432.568 347.243 432.407C348.765 434.65 350.74 436.55 353.04 437.984C355.341 439.418 357.916 440.354 360.6 440.733C361.395 444.347 363.18 447.667 365.756 450.323C368.331 452.979 371.596 454.866 375.183 455.772C376.182 458.167 377.724 460.298 379.687 461.995C379.687 462.468 379.687 462.959 379.687 463.449C379.687 465.109 380.014 466.752 380.649 468.286C381.285 469.819 382.215 471.212 383.389 472.386C384.562 473.559 385.956 474.49 387.489 475.125C389.022 475.76 390.665 476.087 392.325 476.087C393.985 476.087 395.628 475.76 397.161 475.125C398.695 474.49 400.088 473.559 401.261 472.386C402.435 471.212 403.366 469.819 404.001 468.286C404.636 466.752 404.963 465.109 404.963 463.449C404.964 461.521 404.551 459.614 403.753 457.858C405.296 455.21 406.09 452.193 406.049 449.129V449.129Z" fill="#F86D70"/>
<path opacity="0.1" d="M335.219 422.066C336.253 418.245 341.932 416.422 348.137 417.824C348.873 413.225 351.212 409.034 354.741 405.993C358.27 402.952 362.76 401.257 367.418 401.208H368.697C366.913 400.665 365.059 400.387 363.194 400.384C358.536 400.433 354.045 402.128 350.517 405.169C346.988 408.21 344.649 412.401 343.913 417C337.708 415.598 332.029 417.421 330.995 421.242C329.961 425.063 334.343 430.006 340.881 431.759C342.106 432.098 343.363 432.316 344.632 432.408C338.374 430.532 334.185 425.975 335.219 422.066Z" fill="black"/>
<path opacity="0.1" d="M383.824 464.186C383.798 463.707 383.798 463.227 383.824 462.748C381.85 461.061 380.306 458.928 379.319 456.526C375.727 455.624 372.458 453.736 369.882 451.076C367.305 448.416 365.523 445.088 364.736 441.469C362.049 441.098 359.471 440.167 357.167 438.735C354.863 437.304 352.885 435.405 351.362 433.161C350.118 433.265 348.865 433.229 347.629 433.056C349.164 435.12 351.092 436.86 353.304 438.175C355.515 439.489 357.965 440.353 360.512 440.716C361.307 444.329 363.092 447.65 365.668 450.306C368.244 452.962 371.508 454.849 375.095 455.755C376.094 458.15 377.636 460.28 379.6 461.977C379.6 462.45 379.6 462.941 379.6 463.432C379.543 466.829 380.833 470.111 383.188 472.561C385.542 475.011 388.77 476.429 392.167 476.508C389.689 475.545 387.562 473.851 386.072 471.649C384.581 469.448 383.797 466.844 383.824 464.186V464.186Z" fill="black"/>
<path d="M362.33 444.091C363.34 443.324 363.328 441.609 362.303 440.26C361.278 438.911 359.629 438.439 358.619 439.206C357.609 439.973 357.621 441.689 358.646 443.038C359.671 444.387 361.32 444.859 362.33 444.091Z" fill="#FBBEBE"/>
<defs>
<linearGradient id="paint0_linear" x1="730.291" y1="566.147" x2="730.291" y2="286" gradientUnits="userSpaceOnUse">
<stop stop-color="#808080" stop-opacity="0.25"/>
<stop offset="0.54" stop-color="#808080" stop-opacity="0.12"/>
<stop offset="1" stop-color="#808080" stop-opacity="0.1"/>
</linearGradient>
<linearGradient id="paint1_linear" x1="108956" y1="117201" x2="108956" y2="99346.5" gradientUnits="userSpaceOnUse">
<stop stop-color="#808080" stop-opacity="0.25"/>
<stop offset="0.54" stop-color="#808080" stop-opacity="0.12"/>
<stop offset="1" stop-color="#808080" stop-opacity="0.1"/>
</linearGradient>
</defs>
</svg>
