<svg width="70" height="70" viewBox="0 0 710 710" fill="none" xmlns="http://www.w3.org/2000/svg">
<path d="M355 710C551.061 710 710 551.061 710 355C710 158.939 551.061 0 355 0C158.939 0 0 158.939 0 355C0 551.061 158.939 710 355 710Z" fill="#E7F8F8"/>
<path d="M130.25 200H579.75V510H130.25V200Z" fill="#2D85CC"/>
<path d="M548.75 362.75V455.75C548.75 455.75 525.5 455.75 517.75 479H192.25C184.5 455.75 161.25 455.75 161.25 455.75V254.25C161.25 254.25 184.5 254.25 192.25 231H517.75C525.5 254.25 548.75 254.25 548.75 254.25V362.75Z" fill="#E9EEF2"/>
<path d="M223.25 277.5H362.75V308.5H223.25V277.5Z" fill="#B6B9BA"/>
<path d="M386 347.25H200C197.945 347.25 195.973 346.433 194.52 344.98C193.067 343.527 192.25 341.555 192.25 339.5C192.25 337.445 193.067 335.473 194.52 334.02C195.973 332.567 197.945 331.75 200 331.75H386C388.055 331.75 390.027 332.567 391.48 334.02C392.933 335.473 393.75 337.445 393.75 339.5C393.75 341.555 392.933 343.527 391.48 344.98C390.027 346.433 388.055 347.25 386 347.25Z" fill="#C3C6C7"/>
<path d="M386 378.25H200C197.945 378.25 195.973 377.433 194.52 375.98C193.067 374.527 192.25 372.555 192.25 370.5C192.25 368.445 193.067 366.473 194.52 365.02C195.973 363.567 197.945 362.75 200 362.75H386C388.055 362.75 390.027 363.567 391.48 365.02C392.933 366.473 393.75 368.445 393.75 370.5C393.75 372.555 392.933 374.527 391.48 375.98C390.027 377.433 388.055 378.25 386 378.25Z" fill="#C3C6C7"/>
<path d="M339.5 409.25H246.5C244.445 409.25 242.473 408.433 241.02 406.98C239.567 405.527 238.75 403.555 238.75 401.5C238.75 399.445 239.567 397.473 241.02 396.02C242.473 394.567 244.445 393.75 246.5 393.75H339.5C341.555 393.75 343.527 394.567 344.98 396.02C346.433 397.473 347.25 399.445 347.25 401.5C347.25 403.555 346.433 405.527 344.98 406.98C343.527 408.433 341.555 409.25 339.5 409.25Z" fill="#C3C6C7"/>
<path d="M502.25 432.5L471.25 401.5L440.25 432.5V324H502.25V432.5Z" fill="#D13330"/>
<path d="M471.25 370.5C496.931 370.5 517.75 349.681 517.75 324C517.75 298.319 496.931 277.5 471.25 277.5C445.569 277.5 424.75 298.319 424.75 324C424.75 349.681 445.569 370.5 471.25 370.5Z" fill="#EB423F"/>
<path d="M471.25 339.5C479.81 339.5 486.75 332.56 486.75 324C486.75 315.44 479.81 308.5 471.25 308.5C462.69 308.5 455.75 315.44 455.75 324C455.75 332.56 462.69 339.5 471.25 339.5Z" fill="#D13330"/>
<path d="M277.5 440.25H246.5C244.445 440.25 242.473 439.433 241.02 437.98C239.567 436.527 238.75 434.555 238.75 432.5C238.75 430.445 239.567 428.473 241.02 427.02C242.473 425.567 244.445 424.75 246.5 424.75H277.5C279.555 424.75 281.527 425.567 282.98 427.02C284.433 428.473 285.25 430.445 285.25 432.5C285.25 434.555 284.433 436.527 282.98 437.98C281.527 439.433 279.555 440.25 277.5 440.25Z" fill="#C3C6C7"/>
<path d="M339.5 440.25H308.5C306.445 440.25 304.473 439.433 303.02 437.98C301.567 436.527 300.75 434.555 300.75 432.5C300.75 430.445 301.567 428.473 303.02 427.02C304.473 425.567 306.445 424.75 308.5 424.75H339.5C341.555 424.75 343.527 425.567 344.98 427.02C346.433 428.473 347.25 430.445 347.25 432.5C347.25 434.555 346.433 436.527 344.98 437.98C343.527 439.433 341.555 440.25 339.5 440.25Z" fill="#C3C6C7"/>
</svg>
