<svg width="70" height="70" viewBox="0 0 710 710" fill="none" xmlns="http://www.w3.org/2000/svg">
<path d="M355 710C551.061 710 710 551.061 710 355C710 158.939 551.061 0 355 0C158.939 0 0 158.939 0 355C0 551.061 158.939 710 355 710Z" fill="#E7F8F8"/>
<path d="M378.978 231.116C373.058 231.116 368.26 226.315 368.26 220.398V183.645C368.26 180.775 365.924 178.439 363.055 178.439H260.148C257.279 178.439 254.943 180.775 254.943 183.645V220.398C254.943 226.315 250.142 231.116 244.225 231.116C238.305 231.116 233.504 226.315 233.504 220.398V183.645C233.504 168.952 245.456 157 260.148 157H363.055C377.747 157 389.699 168.952 389.699 183.645V220.398C389.699 226.315 384.898 231.116 378.978 231.116V231.116Z" fill="#C9885B"/>
<path d="M463.199 221.638V396.922C463.199 400.98 462.608 404.894 461.518 408.585C456.491 425.537 440.797 437.909 422.212 437.909H200.987C178.349 437.909 160.003 419.553 160.003 396.922V221.638C160.003 214.109 166.101 208.011 173.63 208.011H449.575C457.101 208.011 463.199 214.109 463.199 221.638V221.638Z" fill="#DAAE91"/>
<path d="M463.199 221.638V261.267C463.199 272.157 460.185 282.344 454.946 291.041C444.838 307.794 426.467 318.998 405.468 318.998H217.731C185.845 318.998 160 293.156 160 261.267V221.638C160 214.109 166.101 208.011 173.63 208.011H449.572C457.101 208.011 463.199 214.109 463.199 221.638Z" fill="#D19A75"/>
<path d="M461.524 408.588C456.491 425.531 440.8 437.906 422.212 437.906H200.984C178.343 437.906 160 419.562 160 396.919V221.641C160 214.106 166.107 208.017 173.624 208.017H187.619V369.287C187.619 391.916 205.963 410.271 228.603 410.271H449.828C453.896 410.271 457.825 409.689 461.524 408.588V408.588Z" fill="#D19A75"/>
<path d="M406.792 347.438H389.016C385.298 347.438 382.29 344.426 382.29 340.712V296.858C382.29 293.144 385.298 290.132 389.016 290.132H406.795C410.51 290.132 413.521 293.144 413.521 296.858V340.712C413.518 344.426 410.507 347.438 406.792 347.438Z" fill="#9B5E34"/>
<path d="M454.943 291.044C444.841 307.797 426.467 319.001 405.474 319.001H217.737C185.851 319.001 160 293.153 160 261.264V221.641C160 214.106 166.107 208.017 173.624 208.017H187.619V237.591C187.619 269.477 213.467 295.328 245.356 295.328H433.09C440.827 295.328 448.211 293.805 454.943 291.044Z" fill="#C9885B"/>
<path d="M413.518 296.861V318.439C410.893 318.808 408.202 318.998 405.468 318.998H382.284V296.861C382.284 293.147 385.302 290.129 389.016 290.129H406.786C410.513 290.129 413.518 293.147 413.518 296.861Z" fill="#B56D3C"/>
<path d="M234.248 347.438H216.469C212.755 347.438 209.743 344.426 209.743 340.712V296.858C209.743 293.144 212.755 290.132 216.469 290.132H234.248C237.963 290.132 240.974 293.144 240.974 296.858V340.712C240.974 344.426 237.963 347.438 234.248 347.438Z" fill="#9B5E34"/>
<path d="M240.972 296.861V318.439C238.346 318.808 235.655 318.998 232.921 318.998H209.737V296.861C209.737 293.147 212.755 290.129 216.469 290.129H234.242C237.966 290.129 240.972 293.147 240.972 296.861Z" fill="#B56D3C"/>
<path d="M344.765 413.973V487.688C344.765 502.715 384.034 514.894 432.478 514.894C480.921 514.894 520.19 502.715 520.19 487.688V415.241L344.765 413.973Z" fill="#766D78"/>
<path d="M520.151 488.439C518.881 503.114 480.112 514.894 432.478 514.894C384.037 514.894 344.765 502.712 344.765 487.691V413.973L367.233 414.139V470.247C367.233 485.277 406.497 497.459 454.946 497.459C480.83 497.459 504.098 493.98 520.151 488.439V488.439Z" fill="#655E67"/>
<path d="M428.971 352.263L320.576 400.06C314.415 402.776 314.415 410.869 320.576 413.584L428.971 461.382C431.189 462.359 433.766 462.359 435.981 461.382L544.376 413.584C550.538 410.866 550.538 402.776 544.376 400.06L435.981 352.263C433.766 351.285 431.189 351.285 428.971 352.263V352.263Z" fill="#544F56"/>
<path d="M544.379 413.587L435.981 461.381C433.763 462.359 431.192 462.359 428.974 461.381L320.573 413.587C314.412 410.865 314.412 402.778 320.573 400.057L338.648 392.087L445.833 439.354C448.051 440.322 450.622 440.322 452.84 439.354L543.166 399.52L544.379 400.057C550.541 402.778 550.541 410.865 544.379 413.587Z" fill="#444145"/>
<path d="M432.616 400.877C431.252 397.908 427.737 396.611 424.768 397.978L361.868 427.106C359.771 428.071 358.425 430.171 358.425 432.48V516.542L338.47 543.032C336.506 545.645 337.028 549.354 339.638 551.318C342.248 553.286 345.956 552.764 347.924 550.154L358.425 536.21V546.593C358.425 549.861 361.074 552.51 364.342 552.51C367.61 552.51 370.259 549.861 370.259 546.593V536.21L380.763 550.154C382.728 552.764 386.439 553.283 389.049 551.318C391.66 549.354 392.182 545.645 390.214 543.032L370.259 516.542V436.27L429.716 408.726C432.686 407.359 433.983 403.847 432.616 400.877V400.877Z" fill="#FFE046"/>
<path d="M449.339 402.066C449.339 396.366 441.789 391.743 432.477 391.743C423.165 391.743 415.615 396.366 415.615 402.066C415.615 407.766 423.165 412.389 432.477 412.389C441.789 412.389 449.339 407.766 449.339 402.066V402.066Z" fill="#EEC707"/>
</svg>
