<svg width="100" height="100" viewBox="0 0 464 464" fill="none" xmlns="http://www.w3.org/2000/svg">
<path d="M448 192H423.952C416.904 192 410.648 187.392 408.68 180.624C404.888 167.568 399.696 155.12 393.264 143.44C389.856 137.256 391.008 129.568 396 124.568L413.016 107.552C419.264 101.304 419.264 91.176 413.016 84.928L379.072 50.984C372.824 44.736 362.696 44.736 356.448 50.984L339.432 68C334.44 72.992 326.752 74.144 320.56 70.736C308.88 64.304 296.432 59.112 283.376 55.32C276.608 53.36 272 47.104 272 40.048V16C272 7.16 264.84 0 256 0H208C199.16 0 192 7.16 192 16V40.048C192 47.096 187.392 53.352 180.624 55.32C167.568 59.112 155.12 64.304 143.44 70.736C137.256 74.144 129.568 72.992 124.568 68L107.552 50.984C101.304 44.736 91.176 44.736 84.928 50.984L50.984 84.928C44.736 91.176 44.736 101.304 50.984 107.552L68 124.568C72.992 129.56 74.144 137.248 70.736 143.44C64.304 155.12 59.112 167.568 55.32 180.624C53.36 187.392 47.104 192 40.048 192H16C7.16 192 0 199.16 0 208V256C0 264.84 7.16 272 16 272H40.048C47.096 272 53.352 276.608 55.32 283.376C59.112 296.432 64.304 308.88 70.736 320.56C74.144 326.744 72.992 334.432 68 339.432L50.984 356.448C44.736 362.696 44.736 372.824 50.984 379.072L84.928 413.016C91.176 419.264 101.304 419.264 107.552 413.016L124.568 396C129.56 391.008 137.248 389.856 143.44 393.264C155.12 399.696 167.568 404.888 180.624 408.68C187.392 410.64 192 416.896 192 423.952V448C192 456.84 199.16 464 208 464H256C264.84 464 272 456.84 272 448V423.952C272 416.904 276.608 410.648 283.376 408.68C296.432 404.888 308.88 399.696 320.56 393.264C326.744 389.856 334.432 391.008 339.432 396L356.448 413.016C362.696 419.264 372.824 419.264 379.072 413.016L413.016 379.072C419.264 372.824 419.264 362.696 413.016 356.448L396 339.432C391.008 334.44 389.856 326.752 393.264 320.56C399.696 308.88 404.888 296.432 408.68 283.376C410.64 276.608 416.896 272 423.952 272H448C456.84 272 464 264.84 464 256V208C464 199.16 456.84 192 448 192ZM232 368C156.888 368 96 307.112 96 232C96 156.888 156.888 96 232 96C307.112 96 368 156.888 368 232C368 307.112 307.112 368 232 368Z" fill="#85E2E2"/>
<path d="M55.32 283.376C58.552 294.52 62.872 305.192 68.048 315.352C72.984 310.36 74.12 302.72 70.728 296.56C64.296 284.88 59.104 272.432 55.312 259.376C53.36 252.608 47.104 248 40.048 248H16C7.16 248 0 240.84 0 232V256C0 264.84 7.16 272 16 272H40.048C47.104 272 53.36 276.608 55.32 283.376V283.376Z" fill="#147B75"/>
<path d="M192 399.952C192 392.904 187.392 386.648 180.624 384.68C167.568 380.888 155.12 375.696 143.44 369.264C137.256 365.856 129.568 367.008 124.568 372L107.552 389.016C101.304 395.264 91.1759 395.264 84.9279 389.016L51.6718 355.76L50.9839 356.448C44.7359 362.696 44.7359 372.824 50.9839 379.072L84.9279 413.016C91.1759 419.264 101.304 419.264 107.552 413.016L124.568 396C129.56 391.008 137.248 389.856 143.44 393.264C155.12 399.696 167.568 404.888 180.624 408.68C187.392 410.64 192 416.896 192 423.952V399.952Z" fill="#147B75"/>
<path d="M448 248H423.952C416.904 248 410.648 252.608 408.68 259.376C404.888 272.432 399.696 284.88 393.264 296.56C389.872 302.72 391.008 310.36 395.944 315.352C401.12 305.192 405.44 294.52 408.672 283.376C410.64 276.608 416.896 272 423.952 272H448C456.84 272 464 264.84 464 256V232C464 240.84 456.84 248 448 248Z" fill="#147B75"/>
<path d="M412.336 355.768L379.08 389.024C372.832 395.272 362.704 395.272 356.456 389.024L339.432 372C334.44 367.008 326.752 365.856 320.56 369.264C308.88 375.696 296.432 380.888 283.376 384.68C276.608 386.64 272 392.896 272 399.952V423.952C272 416.904 276.608 410.648 283.376 408.68C296.432 404.888 308.88 399.696 320.56 393.264C326.744 389.856 334.432 391.008 339.432 396L356.448 413.016C362.696 419.264 372.824 419.264 379.072 413.016L413.016 379.072C419.264 372.824 419.264 362.696 413.016 356.448L412.336 355.768Z" fill="#147B75"/>
<path d="M256 440H208C199.16 440 192 432.84 192 424V448C192 456.84 199.16 464 208 464H256C264.84 464 272 456.84 272 448V424C272 432.84 264.84 440 256 440Z" fill="#147B75"/>
<path d="M230.369 372C262.131 372.053 293.205 362.457 319.717 344.406C313.727 310.626 290.932 308.701 290.932 308.701H165.229C165.229 308.701 143.718 310.523 137 341.598C164.334 361.439 196.95 372.06 230.369 372Z" fill="#00859E"/>
<path d="M228.641 281.023C271.972 281.023 307.098 244.774 307.098 200.058C307.098 155.343 271.972 119.093 228.641 119.093C185.31 119.093 150.183 155.343 150.183 200.058C150.183 244.774 185.31 281.023 228.641 281.023Z" fill="#333333"/>
<path opacity="0.1" d="M203.319 267.497H253.591V309.001C253.591 315.879 250.944 322.475 246.232 327.339C241.521 332.203 235.13 334.937 228.465 334.94V334.94C221.798 334.94 215.405 332.207 210.691 327.343C205.977 322.478 203.329 315.88 203.329 309.001V267.497H203.319Z" fill="black"/>
<path d="M204.914 265.572H252.017C252.44 265.572 252.845 265.746 253.144 266.054C253.443 266.362 253.611 266.781 253.611 267.217V307.076C253.612 310.484 252.962 313.858 251.698 317.006C250.435 320.155 248.582 323.015 246.247 325.424C243.912 327.834 241.14 329.745 238.089 331.048C235.038 332.351 231.768 333.021 228.466 333.02V333.02C221.799 333.02 215.406 330.287 210.692 325.423C205.978 320.558 203.33 313.96 203.33 307.081V267.217C203.33 266.783 203.496 266.366 203.793 266.057C204.09 265.749 204.493 265.575 204.914 265.572V265.572Z" fill="#FDB797"/>
<path opacity="0.1" d="M203.41 287.087C219.612 293.334 237.447 293.384 253.682 287.23V280.847H203.41V287.087Z" fill="black"/>
<path d="M228.64 290.559C268.437 290.559 300.699 257.266 300.699 216.198C300.699 175.13 268.437 141.837 228.64 141.837C188.844 141.837 156.582 175.13 156.582 216.198C156.582 257.266 188.844 290.559 228.64 290.559Z" fill="#FDB797"/>
<path opacity="0.1" d="M177.312 148.557C177.312 148.557 207.682 212.171 293.348 175.228L273.403 142.955L238.047 129.86L177.312 148.557Z" fill="black"/>
<path d="M177.312 147.625C177.312 147.625 207.682 211.238 293.348 174.286L273.403 142.013L238.047 128.918L177.312 147.625Z" fill="#333333"/>
<path d="M177.046 143.314C179.094 136.772 182.633 130.834 187.366 125.996C201.54 111.537 224.777 108.488 236.696 92C239.551 96.5761 237.343 103.612 232.414 105.576C243.833 105.497 257.065 104.466 263.521 94.7741C265.117 98.6074 265.625 102.829 264.988 106.949C264.35 111.069 262.592 114.917 259.919 118.047C270.039 118.538 280.854 125.609 281.492 136.042C281.929 142.995 277.685 149.574 272.171 153.561C266.656 157.548 259.938 159.379 253.349 160.877C234.108 165.261 164.49 183.61 177.046 143.314Z" fill="#333333"/>
<path d="M156.555 229.1C160.257 229.1 163.259 223.293 163.259 216.128C163.259 208.964 160.257 203.156 156.555 203.156C152.852 203.156 149.851 208.964 149.851 216.128C149.851 223.293 152.852 229.1 156.555 229.1Z" fill="#FDB797"/>
<path d="M300.689 229.1C304.392 229.1 307.393 223.293 307.393 216.128C307.393 208.964 304.392 203.156 300.689 203.156C296.987 203.156 293.985 208.964 293.985 216.128C293.985 223.293 296.987 229.1 300.689 229.1Z" fill="#FDB797"/>
</svg>
