<svg width="812" height="666" viewBox="0 0 812 666" fill="none" xmlns="http://www.w3.org/2000/svg">
<g opacity="0.5">
<path opacity="0.5" d="M322.5 666C500.612 666 645 516.911 645 333C645 149.089 500.612 0 322.5 0C144.388 0 0 149.089 0 333C0 516.911 144.388 666 322.5 666Z" fill="url(#paint0_linear)"/>
</g>
<path d="M323.128 656.851C497.484 656.851 638.827 510.906 638.827 330.873C638.827 150.841 497.484 4.896 323.128 4.896C148.773 4.896 7.42969 150.841 7.42969 330.873C7.42969 510.906 148.773 656.851 323.128 656.851Z" fill="#E7F8F8"/>
<path d="M323.425 658.138C385.113 658.241 445.465 639.592 496.956 604.514C485.322 538.868 441.05 535.128 441.05 535.128H196.911C196.911 535.128 155.134 538.668 142.086 599.056C195.173 637.614 258.52 658.253 323.425 658.138Z" fill="#00859E"/>
<path d="M320.069 481.342C404.226 481.342 472.448 410.899 472.448 324.002C472.448 237.106 404.226 166.662 320.069 166.662C235.913 166.662 167.69 237.106 167.69 324.002C167.69 410.899 235.913 481.342 320.069 481.342Z" fill="#333333"/>
<path opacity="0.1" d="M270.891 455.057H368.528V535.711C368.528 549.077 363.387 561.896 354.236 571.348C345.084 580.801 332.672 586.114 319.728 586.119V586.119C306.78 586.119 294.363 580.808 285.208 571.355C276.052 561.902 270.909 549.08 270.909 535.711V455.057H270.891Z" fill="black"/>
<path d="M273.986 451.316H365.469C366.29 451.316 367.078 451.653 367.658 452.253C368.239 452.852 368.565 453.665 368.565 454.513V531.971C368.566 538.593 367.304 545.151 364.85 551.269C362.396 557.387 358.798 562.946 354.263 567.628C349.728 572.31 344.343 576.023 338.418 578.556C332.492 581.089 326.141 582.391 319.728 582.389V582.389C306.78 582.389 294.363 577.078 285.208 567.624C276.053 558.171 270.909 545.35 270.909 531.981V454.513C270.909 453.668 271.233 452.858 271.809 452.259C272.386 451.66 273.169 451.321 273.986 451.316V451.316Z" fill="#FDB797"/>
<path opacity="0.1" d="M271.067 493.126C302.534 505.266 337.172 505.364 368.704 493.403V480.999H271.067V493.126Z" fill="black"/>
<path d="M320.068 499.873C397.361 499.873 460.019 435.175 460.019 355.366C460.019 275.557 397.361 210.859 320.068 210.859C242.776 210.859 180.118 275.557 180.118 355.366C180.118 435.175 242.776 499.873 320.068 499.873Z" fill="#FDB797"/>
<path opacity="0.1" d="M220.38 223.92C220.38 223.92 279.364 347.54 445.742 275.75L407.005 213.033L338.338 187.586L220.38 223.92Z" fill="black"/>
<path d="M220.38 222.108C220.38 222.108 279.364 345.728 445.742 273.919L407.005 211.202L338.338 185.755L220.38 222.108Z" fill="#333333"/>
<path d="M219.863 213.729C223.84 201.017 230.713 189.477 239.906 180.076C267.434 151.977 312.566 146.051 335.714 114.011C341.258 122.903 336.97 136.576 327.397 140.393C349.575 140.24 375.273 138.237 387.813 119.402C390.912 126.851 391.899 135.056 390.661 143.062C389.423 151.068 386.009 158.547 380.817 164.629C400.472 165.583 421.476 179.323 422.715 199.598C423.565 213.109 415.322 225.895 404.612 233.643C393.902 241.39 380.854 244.949 368.056 247.86C330.687 256.38 195.477 292.037 219.863 213.729Z" fill="#333333"/>
<path d="M180.065 380.44C187.256 380.44 193.085 369.153 193.085 355.231C193.085 341.308 187.256 330.022 180.065 330.022C172.874 330.022 167.045 341.308 167.045 355.231C167.045 369.153 172.874 380.44 180.065 380.44Z" fill="#FDB797"/>
<path d="M460.001 380.44C467.191 380.44 473.021 369.153 473.021 355.231C473.021 341.308 467.191 330.022 460.001 330.022C452.81 330.022 446.98 341.308 446.98 355.231C446.98 369.153 452.81 380.44 460.001 380.44Z" fill="#FDB797"/>
<g clip-path="url(#clip0)">
<path d="M647.64 367.058H542.251C539.41 367.058 537.107 364.756 537.107 361.915C537.107 359.074 539.41 356.771 542.251 356.771H647.64C650.481 356.771 652.784 359.074 652.784 361.915C652.784 364.756 650.482 367.058 647.64 367.058Z" fill="#78C2A4"/>
<path d="M546.907 404.761H492.659C489.818 404.761 487.516 402.458 487.516 399.617C487.516 396.777 489.819 394.474 492.659 394.474H546.907C549.748 394.474 552.05 396.777 552.05 399.617C552.05 402.458 549.748 404.761 546.907 404.761Z" fill="#78C2A4"/>
<path d="M545.047 439.811H523.618C520.777 439.811 518.475 437.508 518.475 434.667C518.475 431.826 520.778 429.524 523.618 429.524H545.048C547.889 429.524 550.191 431.826 550.191 434.667C550.191 437.508 547.888 439.811 545.047 439.811Z" fill="#78C2A4"/>
<path d="M523.618 465.194H471.143C468.302 465.194 466 462.892 466 460.051C466 457.21 468.303 454.908 471.143 454.908H523.617C526.458 454.908 528.76 457.21 528.76 460.051C528.76 462.892 526.458 465.194 523.618 465.194Z" fill="#78C2A4"/>
<path d="M654.499 599.229H542.251C539.41 599.229 537.107 596.926 537.107 594.085C537.107 591.243 539.41 588.941 542.251 588.941H654.499C657.34 588.941 659.642 591.244 659.642 594.085C659.642 596.926 657.34 599.229 654.499 599.229Z" fill="#78C2A4"/>
<path d="M546.907 561.526H492.659C489.818 561.526 487.516 559.224 487.516 556.383C487.516 553.542 489.819 551.239 492.659 551.239H546.907C549.748 551.239 552.05 553.541 552.05 556.383C552.05 559.224 549.748 561.526 546.907 561.526Z" fill="#78C2A4"/>
<path d="M545.047 526.476H523.618C520.777 526.476 518.475 524.174 518.475 521.332C518.475 518.491 520.778 516.189 523.618 516.189H545.048C547.889 516.189 550.191 518.491 550.191 521.332C550.191 524.173 547.888 526.476 545.047 526.476Z" fill="#78C2A4"/>
<path d="M523.618 501.094H471.143C468.302 501.094 466 498.792 466 495.951C466 493.11 468.303 490.807 471.143 490.807H523.617C526.458 490.807 528.76 493.109 528.76 495.951C528.76 498.792 526.458 501.094 523.618 501.094Z" fill="#78C2A4"/>
<path d="M685.141 604.858C755.203 604.858 811.999 548.062 811.999 478C811.999 407.938 755.203 351.142 685.141 351.142C615.079 351.142 558.283 407.938 558.283 478C558.283 548.062 615.079 604.858 685.141 604.858Z" fill="#95D6A4"/>
<path d="M685.141 351.142C681.93 351.142 678.748 351.263 675.597 351.498C741.2 356.378 792.91 411.149 792.91 478C792.91 544.851 741.2 599.622 675.597 604.502C678.748 604.737 681.93 604.858 685.141 604.858C755.204 604.858 812 548.062 812 478C812 407.938 755.204 351.142 685.141 351.142V351.142Z" fill="#78C2A4"/>
<path d="M685.141 575.409C738.939 575.409 782.551 531.798 782.551 478C782.551 424.202 738.939 380.59 685.141 380.59C631.343 380.59 587.731 424.202 587.731 478C587.731 531.798 631.343 575.409 685.141 575.409Z" fill="#F4FBFF"/>
<path d="M685.141 380.589C682.177 380.589 679.247 380.729 676.351 380.989C726.029 385.433 764.97 427.166 764.97 478C764.97 528.834 726.029 570.566 676.351 575.01C679.247 575.269 682.177 575.409 685.141 575.409C738.939 575.409 782.551 531.797 782.551 477.999C782.552 424.202 738.939 380.589 685.141 380.589V380.589Z" fill="#DAF1F4"/>
<path d="M685.142 416.159C682.301 416.159 679.998 413.857 679.998 411.016V403.164C679.998 400.323 682.3 398.021 685.142 398.021C687.984 398.021 690.285 400.323 690.285 403.164V411.015C690.285 413.856 687.983 416.159 685.142 416.159Z" fill="#365E7D"/>
<path d="M732.506 435.778C731.19 435.778 729.873 435.276 728.868 434.272C726.86 432.263 726.86 429.006 728.868 426.997L734.42 421.445C736.429 419.438 739.685 419.438 741.694 421.445C743.703 423.454 743.703 426.711 741.694 428.72L736.143 434.272C735.139 435.276 733.822 435.778 732.506 435.778V435.778Z" fill="#365E7D"/>
<path d="M759.977 483.143H752.126C749.285 483.143 746.982 480.841 746.982 477.999C746.982 475.158 749.285 472.856 752.126 472.856H759.977C762.818 472.856 765.121 475.158 765.121 477.999C765.121 480.84 762.818 483.143 759.977 483.143Z" fill="#365E7D"/>
<path d="M738.057 536.061C736.742 536.061 735.425 535.559 734.42 534.554L728.868 529.003C726.86 526.994 726.86 523.737 728.868 521.728C730.877 519.72 734.134 519.72 736.143 521.728L741.694 527.28C743.703 529.289 743.703 532.545 741.694 534.554C740.69 535.559 739.374 536.061 738.057 536.061Z" fill="#365E7D"/>
<path d="M685.142 557.979C682.301 557.979 679.998 555.677 679.998 552.835V544.985C679.998 542.144 682.3 539.841 685.142 539.841C687.984 539.841 690.285 542.144 690.285 544.985V552.835C690.285 555.677 687.983 557.979 685.142 557.979Z" fill="#365E7D"/>
<path d="M632.225 536.061C630.909 536.061 629.592 535.559 628.588 534.554C626.579 532.545 626.579 529.289 628.588 527.28L634.139 521.728C636.148 519.72 639.405 519.72 641.414 521.728C643.423 523.737 643.423 526.994 641.414 529.003L635.862 534.554C634.858 535.559 633.541 536.061 632.225 536.061V536.061Z" fill="#365E7D"/>
<path d="M618.157 483.143H610.305C607.465 483.143 605.162 480.841 605.162 477.999C605.162 475.158 607.465 472.856 610.305 472.856H618.157C620.998 472.856 623.3 475.158 623.3 477.999C623.3 480.84 620.997 483.143 618.157 483.143Z" fill="#365E7D"/>
<path d="M637.776 435.778C636.46 435.778 635.144 435.276 634.139 434.272L628.588 428.72C626.579 426.711 626.579 423.454 628.588 421.445C630.596 419.438 633.854 419.438 635.862 421.445L641.414 426.997C643.423 429.006 643.423 432.263 641.414 434.272C640.409 435.276 639.093 435.778 637.776 435.778V435.778Z" fill="#365E7D"/>
<path d="M707.657 483.144H685.142C682.301 483.144 679.998 480.842 679.998 478V434.667C679.998 431.826 682.3 429.523 685.142 429.523C687.983 429.523 690.285 431.826 690.285 434.667V472.856H707.657C710.498 472.856 712.801 475.158 712.801 477.999C712.801 480.84 710.498 483.144 707.657 483.144Z" fill="#2B4D66"/>
</g>
<defs>
<linearGradient id="paint0_linear" x1="322.5" y1="666" x2="322.5" y2="0" gradientUnits="userSpaceOnUse">
<stop stop-color="#808080" stop-opacity="0.25"/>
<stop offset="0.54" stop-color="#808080" stop-opacity="0.12"/>
<stop offset="1" stop-color="#808080" stop-opacity="0.1"/>
</linearGradient>
<clipPath id="clip0">
<rect width="346" height="346" fill="white" transform="translate(466 305)"/>
</clipPath>
</defs>
</svg>
