<svg width="100%" viewBox="0 0 436 331" fill="none" xmlns="http://www.w3.org/2000/svg">
<path d="M374.682 131.947C355.519 56.6218 289.304 2.24729 211.582 0.0663764C170.493 -1.08661 127.256 12.5357 95.7757 60.2052C39.5018 145.42 99.2338 204.305 140.877 232.287C160.996 245.832 179.125 262.12 194.737 280.677C222.866 314.044 276.98 355.507 341.426 290.541C388.138 243.453 387.447 182.122 374.682 131.947Z" fill="#F2F2F2"/>
<path opacity="0.1" d="M288.369 203.254L327.801 163.957L288.369 124.659L300.391 112.682L351.845 163.957L300.391 215.231L288.369 203.254Z" fill="black"/>
<path opacity="0.1" d="M175.762 166.761H191.792V150.737H175.762V166.761ZM256.23 150.737H240.201V166.761H256.23V150.737ZM207.982 166.761H224.011V150.737H207.982V166.761Z" fill="black"/>
<path opacity="0.1" d="M154.043 202.853L114.57 163.556L154.003 124.259L141.981 112.281L90.5662 163.556L142.021 214.831L154.043 202.853Z" fill="black"/>
<path d="M436 301.357C436 307.994 338.398 331 218 331C97.6019 331 0 307.994 0 301.357C0 294.72 97.6019 306.965 218 306.965C338.398 306.965 436 294.72 436 301.357Z" fill="#3F3D56"/>
<path opacity="0.1" d="M436 301.357C436 307.994 338.398 331 218 331C97.6019 331 0 307.994 0 301.357C0 294.72 97.6019 306.965 218 306.965C338.398 306.965 436 294.72 436 301.357Z" fill="black"/>
<path d="M218 313.374C338.398 313.374 436 307.994 436 301.357C436 294.72 338.398 289.339 218 289.339C97.6019 289.339 0 294.72 0 301.357C0 307.994 97.6019 313.374 218 313.374Z" fill="#3F3D56"/>
<path d="M253.544 243.536C253.544 269.18 269.637 289.931 289.526 289.931Z" fill="#3F3D56"/>
<path d="M289.526 289.931C289.526 263.999 307.486 243.015 329.68 243.015Z" fill="#6C63FF"/>
<path d="M266.581 245.861C266.581 270.22 276.843 289.931 289.526 289.931Z" fill="#6C63FF"/>
<path d="M289.526 289.931C289.526 256.795 310.284 229.983 335.938 229.983Z" fill="#3F3D56"/>
<path d="M281.956 290.258C281.956 290.258 287.059 290.101 288.597 289.006C290.135 287.911 296.447 286.604 296.828 288.36C297.21 290.116 304.497 297.092 298.736 297.138C292.974 297.185 285.349 296.241 283.814 295.306C282.279 294.372 281.956 290.258 281.956 290.258Z" fill="#A8A8A8"/>
<path opacity="0.2" d="M298.838 296.527C293.077 296.573 285.452 295.63 283.917 294.695C282.748 293.984 282.282 291.43 282.127 290.251C282.019 290.256 281.956 290.258 281.956 290.258C281.956 290.258 282.279 294.372 283.814 295.306C285.349 296.241 292.974 297.185 298.736 297.138C300.399 297.125 300.973 296.533 300.941 295.657C300.71 296.187 300.076 296.517 298.838 296.527Z" fill="black"/>
<path d="M346.85 153.365C346.85 153.365 334.512 144.001 333.575 147.433C332.639 150.866 342.628 158.667 342.628 158.667L346.85 153.365Z" fill="#FFB9B9"/>
<path opacity="0.1" d="M346.85 153.365C346.85 153.365 334.512 144.001 333.575 147.433C332.639 150.866 342.628 158.667 342.628 158.667L346.85 153.365Z" fill="black"/>
<path d="M387.58 123.717C387.58 123.717 372.908 149.929 372.596 153.674C372.284 157.419 372.284 157.731 371.035 157.419C369.787 157.107 352.617 155.234 351.056 155.858C349.496 156.483 346.374 152.114 346.374 152.114C346.374 152.114 340.443 158.043 341.691 159.291C342.94 160.539 346.686 161.163 347.31 162.724C347.935 164.284 348.871 165.844 351.681 165.532C354.49 165.22 373.533 170.525 376.03 169.589C378.527 168.653 379.152 167.092 380.4 167.092C381.649 167.092 384.146 165.844 384.146 165.532C384.146 165.22 392.887 148.681 392.887 148.681C392.887 148.681 403.189 126.214 387.58 123.717Z" fill="#D0CDE1"/>
<path opacity="0.1" d="M387.58 123.717C387.58 123.717 372.908 149.929 372.596 153.674C372.284 157.419 372.284 157.731 371.035 157.419C369.787 157.107 352.617 155.234 351.056 155.858C349.496 156.483 346.374 152.114 346.374 152.114C346.374 152.114 340.443 158.043 341.691 159.291C342.94 160.539 346.686 161.163 347.31 162.724C347.935 164.284 348.871 165.844 351.681 165.532C354.49 165.22 373.533 170.525 376.03 169.589C378.527 168.653 379.152 167.092 380.4 167.092C381.649 167.092 384.146 165.844 384.146 165.532C384.146 165.22 392.887 148.681 392.887 148.681C392.887 148.681 403.189 126.214 387.58 123.717Z" fill="black"/>
<path d="M366.294 106.437C366.161 108.094 366.188 109.76 366.374 111.412C366.848 114.997 368.499 118.734 366.939 122.081C366.373 123.296 365.414 124.354 364.892 125.583C363.786 128.186 364.788 131.072 364.638 133.842C364.444 137.42 362.167 140.867 358.705 142.828C364.621 143.011 370.247 140.087 373.97 136.103C377.692 132.118 379.766 127.176 381.32 122.231C382.118 119.909 382.631 117.498 382.845 115.052C382.968 113.647 382.804 112.231 382.36 110.892C381.813 109.583 381.093 108.354 380.219 107.237C379.287 105.927 378.33 104.591 376.954 103.616C375.26 102.416 371.994 101.21 369.747 101.385C366.991 101.599 366.41 104.524 366.294 106.437Z" fill="#2F2E41"/>
<path d="M375.406 116.228C375.406 116.228 378.839 128.398 376.03 131.831C373.22 135.263 392.887 130.27 392.887 130.27C392.887 130.27 383.21 120.597 387.892 114.356L375.406 116.228Z" fill="#FFB9B9"/>
<path opacity="0.1" d="M375.406 116.228C375.406 116.228 378.839 128.398 376.03 131.831C373.22 135.263 392.887 130.27 392.887 130.27C392.887 130.27 383.21 120.597 387.892 114.356L375.406 116.228Z" fill="black"/>
<path d="M288.369 195.643L327.801 156.346L288.369 117.048L300.391 105.071L351.845 156.346L300.391 207.62L288.369 195.643Z" fill="#6C63FF"/>
<path d="M364.167 278.494V287.544L368.85 293.161L372.908 291.288L371.66 278.182L364.167 278.494Z" fill="#FFB9B9"/>
<path d="M366.041 286.92C366.041 286.92 364.792 282.551 362.607 285.671C360.422 288.792 358.236 295.657 356.988 295.969C355.739 296.281 346.998 305.955 355.739 305.955C364.48 305.955 367.289 301.898 367.289 301.898C367.289 301.898 376.03 298.466 376.03 297.841C376.03 297.217 374.781 285.671 374.157 285.671C373.533 285.671 373.22 287.856 371.66 287.856C370.099 287.856 366.041 286.92 366.041 286.92Z" fill="#2F2E41"/>
<path d="M385.083 280.055L384.771 288.48L392.262 291.6V279.431L385.083 280.055Z" fill="#FFB9B9"/>
<path d="M393.199 288.48C393.199 288.48 389.141 284.111 386.956 285.047C385.875 285.482 384.831 286.004 383.834 286.608C383.834 286.608 382.585 290.664 381.961 294.097C381.337 297.529 381.025 299.09 380.4 300.338C379.776 301.586 379.152 306.267 385.395 306.891C391.638 307.515 393.511 304.083 393.511 304.083L395.072 295.969C395.072 295.969 394.448 288.48 393.199 288.48Z" fill="#2F2E41"/>
<path d="M368.226 190.184C368.226 190.184 359.173 210.467 360.422 228.878C360.422 228.878 357.3 236.055 359.173 247.289C361.046 258.523 363.543 280.991 363.543 280.991C363.543 280.991 371.972 281.927 372.596 280.367C372.596 280.367 373.221 264.764 373.845 264.14C374.469 263.516 373.533 249.162 372.596 246.353C371.66 243.545 381.337 215.772 381.337 215.772L378.84 181.135L368.226 190.184Z" fill="#2F2E41"/>
<path opacity="0.1" d="M368.226 190.184C368.226 190.184 359.173 210.467 360.422 228.878C360.422 228.878 357.3 236.055 359.173 247.289C361.046 258.523 363.543 280.991 363.543 280.991C363.543 280.991 371.972 281.927 372.596 280.367C372.596 280.367 373.221 264.764 373.845 264.14C374.469 263.516 373.533 249.162 372.596 246.353C371.66 243.545 381.337 215.772 381.337 215.772L378.84 181.135L368.226 190.184Z" fill="black"/>
<path d="M365.728 188.936L371.66 201.73C371.66 201.73 374.469 230.751 376.03 234.495C376.03 234.495 376.654 245.105 379.464 248.538C382.273 251.97 384.459 282.239 384.459 282.239C384.459 282.239 392.263 284.423 392.887 282.239C393.511 280.055 395.384 265.076 395.384 265.076C395.384 265.076 396.009 252.282 392.575 243.857C389.141 235.431 396.633 205.162 396.633 205.162C396.633 205.162 404.437 190.496 393.199 178.638L365.728 188.936Z" fill="#2F2E41"/>
<path d="M382.273 119.973C389.342 119.973 395.072 114.245 395.072 107.179C395.072 100.113 389.342 94.3845 382.273 94.3845C375.205 94.3845 369.474 100.113 369.474 107.179C369.474 114.245 375.205 119.973 382.273 119.973Z" fill="#FFB9B9"/>
<path d="M394.136 126.526C394.136 126.526 380.712 126.526 378.839 128.086C378.376 128.526 377.762 128.772 377.123 128.772C376.483 128.772 375.869 128.526 375.406 128.086C375.406 128.086 370.723 128.398 369.474 132.143C368.226 135.887 364.48 140.88 364.48 140.88C364.48 140.88 358.861 144.937 361.982 155.546C365.104 166.156 362.607 183.319 362.607 183.319C362.607 183.319 360.109 187.063 362.607 188.624C365.104 190.184 366.041 190.808 365.728 192.056C365.416 193.305 394.136 181.759 394.136 179.574C394.136 177.39 393.511 175.518 394.136 174.581C394.76 173.645 395.384 172.085 394.76 170.525C394.136 168.965 395.384 168.653 395.072 167.092C394.76 165.532 396.633 153.986 397.882 148.993C399.13 144.001 398.818 126.838 394.136 126.526Z" fill="#D0CDE1"/>
<path d="M346.85 157.109C346.85 157.109 334.512 147.745 333.575 151.178C332.639 154.61 342.628 162.411 342.628 162.411L346.85 157.109Z" fill="#FFB9B9"/>
<path d="M387.58 128.086C387.58 128.086 372.908 154.298 372.596 158.043C372.284 161.787 372.284 162.099 371.035 161.787C369.787 161.475 352.617 159.603 351.056 160.227C349.496 160.851 346.374 156.483 346.374 156.483C346.374 156.483 340.443 162.412 341.691 163.66C342.94 164.908 346.686 165.532 347.31 167.092C347.935 168.653 348.871 170.213 351.681 169.901C354.49 169.589 373.533 174.894 376.03 173.957C378.527 173.021 379.152 171.461 380.4 171.461C381.649 171.461 384.146 170.213 384.146 169.901C384.146 169.589 392.887 153.05 392.887 153.05C392.887 153.05 403.189 130.582 387.58 128.086Z" fill="#D0CDE1"/>
<path d="M375.935 115.353C375.758 114.085 375.109 112.936 374.776 111.701C374.515 110.712 374.457 109.681 374.606 108.669C374.754 107.657 375.106 106.686 375.639 105.814C377.475 102.85 381.079 101.537 383.593 99.1205C383.645 100.351 384.5 101.403 385.444 102.195C386.388 102.986 387.471 103.629 388.271 104.566C389.039 105.555 389.599 106.689 389.918 107.9C390.41 109.304 390.631 110.788 390.568 112.273C390.532 113.016 390.346 113.743 390.02 114.411C389.694 115.079 389.235 115.674 388.672 116.16C387.736 116.9 386.428 117.322 385.976 118.426C385.798 118.978 385.746 119.562 385.825 120.136C386.04 123.57 386.24 127.064 385.431 130.407C384.622 133.751 382.641 136.981 379.536 138.463C382.088 138.644 384.693 138.821 387.169 138.177C389.645 137.533 392.013 135.911 392.866 133.501C393.288 132.311 393.327 130.989 393.926 129.878C395.44 127.066 399.622 126.938 401.676 124.493C402.498 123.514 402.896 122.253 403.19 121.01C404.925 113.693 403.706 105.924 401.066 98.8838C400.156 96.457 399.023 94.0136 397.071 92.308C395.41 90.8566 393.288 90.057 391.191 89.374C388.129 88.3773 384.975 87.5607 381.757 87.4555C380.359 87.3734 378.958 87.537 377.616 87.9387C376.292 88.417 375.06 89.1187 373.973 90.0135C368.932 93.9344 365.5 100.201 365.955 106.57C366.231 110.423 367.864 114.07 369.962 117.314C370.696 118.449 372.43 120.869 374.042 120.155C375.504 119.508 376.127 116.721 375.935 115.353Z" fill="#2F2E41"/>
<path d="M175.762 159.149H191.792V143.126H175.762V159.149ZM256.23 143.126H240.201V159.149H256.23V143.126ZM207.982 159.149H224.011V143.126H207.982V159.149Z" fill="#6C63FF"/>
<path d="M82.6339 95.3755C90.0828 95.3755 96.1214 90.6672 96.1214 84.8592C96.1214 79.0512 90.0828 74.3429 82.6339 74.3429C75.185 74.3429 69.1464 79.0512 69.1464 84.8592C69.1464 90.6672 75.185 95.3755 82.6339 95.3755Z" fill="#2F2E41"/>
<path d="M84.9269 157.26C84.9269 157.26 97.0657 158.069 99.2237 156.451C101.382 154.833 110.553 158.608 111.362 160.765C112.172 162.922 98.4144 163.192 96.2564 163.192C94.0984 163.192 83.8479 166.428 83.8479 166.428L84.9269 157.26Z" fill="#A0616A"/>
<path d="M59.9309 282.868C59.9309 282.868 54.2738 297.128 57.2253 298.849C60.1769 300.57 91.1683 299.341 91.1683 299.341C91.1683 299.341 96.3335 296.145 90.4304 293.932C90.4304 293.932 85.5111 293.686 82.3136 291.719C79.1161 289.752 75.4266 286.064 75.4266 286.064C75.4266 286.064 75.1807 280.655 73.213 281.884C72.6243 282.272 72.1232 282.778 71.742 283.371C71.3607 283.964 71.1078 284.63 70.9993 285.326L59.9309 282.868Z" fill="#2F2E41"/>
<path opacity="0.1" d="M59.9309 282.868C59.9309 282.868 54.2738 297.128 57.2253 298.849C60.1769 300.57 91.1683 299.341 91.1683 299.341C91.1683 299.341 96.3335 296.145 90.4304 293.932C90.4304 293.932 85.5111 293.686 82.3136 291.719C79.1161 289.752 75.4266 286.064 75.4266 286.064C75.4266 286.064 75.1807 280.655 73.213 281.884C72.6243 282.272 72.1232 282.778 71.742 283.371C71.3607 283.964 71.1078 284.63 70.9993 285.326L59.9309 282.868Z" fill="black"/>
<path d="M154.043 195.242L114.57 155.945L154.003 116.648L141.981 104.67L90.5662 155.945L142.021 207.22L154.043 195.242Z" fill="#6C63FF"/>
<path d="M51.208 287.23C51.208 287.23 45.0038 302.87 48.2408 304.757C51.4778 306.645 85.4663 305.297 85.4663 305.297C85.4663 305.297 91.131 301.791 84.657 299.364C84.657 299.364 79.262 299.095 75.7553 296.938C72.2485 294.78 68.2023 290.736 68.2023 290.736C68.2023 290.736 67.9326 284.803 65.7746 286.152C65.1289 286.577 64.5794 287.132 64.1613 287.783C63.7432 288.433 63.4657 289.163 63.3468 289.927L51.208 287.23Z" fill="#2F2E41"/>
<path d="M83.0385 188L79.262 221.975C79.262 221.975 77.9133 238.154 73.867 241.66C73.867 241.66 73.867 246.783 72.5183 248.401L70.63 269.703C70.63 269.703 73.3275 277.523 73.0578 278.871C72.788 280.219 74.1368 284.534 73.867 285.073C73.5973 285.612 60.919 285.073 60.919 285.073L63.6165 241.66L71.9788 181.258L83.0385 188Z" fill="#2F2E41"/>
<path opacity="0.1" d="M83.0385 188L79.262 221.975C79.262 221.975 77.9133 238.154 73.867 241.66C73.867 241.66 73.867 246.783 72.5183 248.401L70.63 269.703C70.63 269.703 73.3275 277.523 73.0578 278.871C72.788 280.219 74.1368 284.534 73.867 285.073C73.5973 285.612 60.919 285.073 60.919 285.073L63.6165 241.66L71.9788 181.258L83.0385 188Z" fill="black"/>
<path d="M76.2949 186.921C76.2949 186.921 73.3276 214.695 71.9789 220.627C71.1309 224.534 70.5897 228.501 70.3604 232.492C70.3604 232.492 70.0906 241.12 67.6629 243.547C66.9525 244.25 66.3944 245.092 66.0232 246.02C65.652 246.947 65.4755 247.941 65.5049 248.94C65.5049 248.94 63.0771 276.175 64.4259 279.41C65.7746 282.646 67.1234 285.343 65.7746 287.5C64.4259 289.657 49.5896 289.657 49.5896 288.039C49.5896 286.421 49.5896 285.073 48.7804 284.264C47.9711 283.455 48.7804 278.332 48.7804 278.332C48.7804 278.332 45.5434 254.333 48.5106 247.322C51.4779 240.311 52.8266 221.166 52.8266 221.166C52.8266 221.166 50.6686 199.325 47.9711 195.82C45.2736 192.314 48.5106 179.91 48.5106 179.91L76.2949 186.921Z" fill="#2F2E41"/>
<path d="M68.7004 100.672C69.014 101.386 69.7646 101.783 70.4479 102.16C74.4083 104.341 77.7235 107.503 80.9897 110.629C80.1747 107.868 80.3483 104.909 81.4807 102.263C81.8707 101.36 82.3818 100.39 82.1031 99.4467C81.8981 98.7532 81.3074 98.2531 80.7352 97.8107C79.4024 96.7804 78.0095 95.8304 76.5637 94.9657C75.5536 94.3617 73.4771 92.7537 72.318 92.9286C72.2572 94.4941 72.2254 95.8937 71.5396 97.3567C71.3769 97.7038 68.8202 100.945 68.7004 100.672Z" fill="#A0616A"/>
<path d="M82.499 104.139C88.6072 104.139 93.5588 99.1893 93.5588 93.0835C93.5588 86.9776 88.6072 82.0279 82.499 82.0279C76.3909 82.0279 71.4393 86.9776 71.4393 93.0835C71.4393 99.1893 76.3909 104.139 82.499 104.139Z" fill="#A0616A"/>
<path d="M83.0386 119.239C83.0386 119.239 84.9268 109.802 79.5318 106.566C74.1368 103.33 67.9326 99.555 67.9326 99.555C67.9326 99.555 66.0443 99.2853 65.2351 103.33C65.2351 103.33 49.8593 106.296 48.2408 120.857C46.6223 135.418 49.3198 156.72 49.3198 156.72C49.3198 156.72 46.8921 175.326 43.9248 185.303C43.9248 185.303 41.4971 187.46 52.2871 184.225C63.0771 180.989 81.9596 193.393 81.9596 193.393C81.9596 193.393 83.8478 191.505 83.8478 190.157C83.8478 188.809 86.0058 180.989 86.0058 180.989C86.0058 180.989 87.8941 147.822 88.7033 144.047C89.5126 140.272 85.4663 119.779 83.0386 119.239Z" fill="#575A89"/>
<path d="M79.8926 94.2224C80.557 93.8543 81.3021 93.6559 82.0616 93.6449C82.8221 93.6336 83.5647 93.4124 84.2073 93.0058C85.252 92.2041 85.3287 90.6547 86.0929 89.5824C87.1994 88.03 89.4068 87.8432 91.3121 87.9208C92.4774 87.9683 93.7324 88.0379 94.7137 87.4079C95.7211 86.7611 96.1777 85.5424 96.5174 84.3947C96.9191 83.0375 97.1789 81.3777 96.1835 80.3712C95.4923 79.6722 94.4012 79.534 93.6334 78.9201C92.8372 78.2836 92.5096 77.2477 92.0768 76.325C91.5844 75.2008 90.8054 74.2255 89.8177 73.4964C88.3692 72.4904 86.5191 72.2648 84.7553 72.2836C82.9916 72.3025 81.2204 72.5343 79.4699 72.318C78.0357 72.1407 76.6057 71.6638 75.1761 71.8752C73.3544 72.1445 71.8474 73.5183 70.9498 75.1256C70.0522 76.7329 69.667 78.5675 69.2935 80.3701L68.2778 85.2725C67.9628 86.793 67.6464 88.3539 67.8896 89.8876C68.3937 93.0668 71.2065 95.5939 71.4003 98.807C71.585 97.9198 71.9872 97.0922 72.5707 96.3986C73.1542 95.705 73.9008 95.1671 74.7436 94.833C74.9549 94.7297 75.1949 94.7006 75.4248 94.7504C75.7042 94.8397 75.8675 95.1188 76.0439 95.3531C76.506 95.9672 77.9576 96.8989 78.7804 96.4632C79.5166 96.0735 78.967 94.8499 79.8926 94.2224Z" fill="#2F2E41"/>
<path d="M52.0173 144.586C52.0173 144.586 50.1291 156.451 57.9518 155.372C57.9518 155.372 61.9981 154.833 62.5376 155.372C63.0771 155.912 83.0386 152.406 85.7361 149.44C85.7361 149.44 88.9731 148.361 90.5916 149.979C92.2101 151.597 108.395 153.215 103.54 148.361C98.6841 143.508 91.1311 142.429 91.1311 142.429L80.8806 142.968C80.8806 142.968 75.4856 144.586 72.2486 142.968C69.0116 141.351 59.8401 141.89 59.8401 141.89L52.0173 144.586Z" fill="#A0616A"/>
<path d="M63.0772 107.105C63.0772 107.105 50.9384 108.453 50.9384 125.981V148.361C50.9384 148.361 57.6822 145.395 59.0309 145.665C60.3797 145.935 65.7747 142.159 65.7747 142.159C65.7747 142.159 71.9789 127.598 71.4394 123.554C70.8999 119.509 71.1697 107.644 63.0772 107.105Z" fill="#575A89"/>
<path d="M82.499 91.6004C88.2347 91.6004 92.8844 89.1859 92.8844 86.2074C92.8844 83.229 88.2347 80.8145 82.499 80.8145C76.7633 80.8145 72.1136 83.229 72.1136 86.2074C72.1136 89.1859 76.7633 91.6004 82.499 91.6004Z" fill="#2F2E41"/>
<path d="M72.788 96.1844C74.7993 96.1844 76.4297 92.1401 76.4297 87.1512C76.4297 82.1623 74.7993 78.118 72.788 78.118C70.7768 78.118 69.1464 82.1623 69.1464 87.1512C69.1464 92.1401 70.7768 96.1844 72.788 96.1844Z" fill="#2F2E41"/>
</svg>
