<svg viewBox="0 0 418 257" fill="none" xmlns="http://www.w3.org/2000/svg">
<path d="M334.86 8.75279L336.378 6.41318C335.928 5.17303 335.408 3.9592 334.821 2.77745L333.84 3.56811L334.617 2.37022C333.877 0.916146 333.294 0 333.294 0C333.294 0 330.252 4.78443 329.235 9.85008L331.182 12.8524L329.027 11.1153C328.95 11.7054 328.911 12.2997 328.909 12.8948C328.909 18.8942 330.872 23.7576 333.294 23.7576C335.717 23.7576 337.68 18.8942 337.68 12.8948C337.634 10.986 337.296 9.09553 336.677 7.28907L334.86 8.75279Z" fill="#E6E6E6"/>
<path d="M345.598 13.9539L348.329 13.3701C348.889 12.1757 349.382 10.9507 349.804 9.70095L348.55 9.56782L349.948 9.26889C350.455 7.71838 350.693 6.65958 350.693 6.65958C350.693 6.65958 345.151 7.89579 340.843 10.7605L340.092 14.2571L339.799 11.5081C339.327 11.8712 338.878 12.2636 338.455 12.683C334.204 16.9252 332.146 21.7497 333.859 23.4587C335.571 25.1679 340.405 23.1143 344.657 18.8721C345.977 17.4904 347.077 15.9148 347.919 14.2004L345.598 13.9539Z" fill="#E6E6E6"/>
<path d="M346.595 37.1686C340.264 37.5728 333.365 37.1451 326.025 37.1686V20.3995C332.493 21.4042 339.389 21.301 346.595 20.3995V37.1686Z" fill="#E6E6E6"/>
<path d="M391.894 50.2446L392.883 48.7187C392.59 47.9098 392.251 47.1183 391.868 46.3477L391.228 46.863L391.735 46.082C391.252 45.1338 390.872 44.5365 390.872 44.5365C389.654 46.5235 388.76 48.6921 388.225 50.9597L389.495 52.918L388.089 51.7848C388.04 52.1697 388.014 52.5576 388.012 52.9455C388.012 56.8581 389.293 60.0298 390.872 60.0298C392.452 60.0298 393.732 56.8581 393.732 52.9455C393.703 51.7006 393.482 50.468 393.078 49.2899L391.894 50.2446Z" fill="#E6E6E6"/>
<path d="M398.896 53.6362L400.677 53.2553C401.043 52.4764 401.363 51.6779 401.639 50.8629L400.821 50.776L401.733 50.581C402.064 49.5696 402.218 48.8793 402.218 48.8793C399.949 49.4243 397.78 50.3271 395.795 51.5536L395.306 53.8339L395.114 52.0414C394.806 52.2779 394.514 52.534 394.238 52.8072C391.465 55.574 390.123 58.7203 391.24 59.8347C392.357 60.9491 395.51 59.61 398.282 56.8437C399.143 55.9427 399.861 54.9151 400.41 53.7968L398.896 53.6362Z" fill="#E6E6E6"/>
<path d="M399.547 68.7756C395.417 69.0392 390.918 68.7599 386.132 68.7756V57.8398C390.582 58.4616 395.097 58.4616 399.547 57.8398V68.7756Z" fill="#E6E6E6"/>
<path d="M396.997 101.185C393.351 101.417 389.378 101.171 385.152 101.185V91.5282C389.081 92.0775 393.068 92.0775 396.997 91.5282V101.185Z" fill="#E6E6E6"/>
<path d="M417.802 35.9893H258.408V40.4324H417.802V35.9893Z" fill="#E6E6E6"/>
<path d="M417.802 67.5356H258.408V71.9788H417.802V67.5356Z" fill="#E6E6E6"/>
<path d="M417.802 99.0816H258.408V103.525H417.802V99.0816Z" fill="#E6E6E6"/>
<path d="M391.088 95.083C396.006 95.083 399.992 91.1045 399.992 86.1967C399.992 81.2888 396.006 77.3103 391.088 77.3103C386.17 77.3103 382.183 81.2888 382.183 86.1967C382.183 91.1045 386.17 95.083 391.088 95.083Z" fill="#E6E6E6"/>
<path d="M391.088 93.3054C395.022 93.3054 398.211 90.1228 398.211 86.1967C398.211 82.2705 395.022 79.0875 391.088 79.0875C387.154 79.0875 383.964 82.2705 383.964 86.1967C383.964 90.1228 387.154 93.3054 391.088 93.3054Z" fill="white"/>
<path d="M391.088 87.9739C392.071 87.9739 392.868 87.178 392.868 86.1967C392.868 85.2149 392.071 84.4195 391.088 84.4195C390.104 84.4195 389.307 85.2149 389.307 86.1967C389.307 87.178 390.104 87.9739 391.088 87.9739Z" fill="#E6E6E6"/>
<path d="M397.321 86.6408V85.7525H390.197V86.6408H397.321Z" fill="#E6E6E6"/>
<path d="M390.642 87.085H391.533V79.9763H390.642V87.085Z" fill="#E6E6E6"/>
<path d="M339.6 45.8603H333.708V69.1339H339.6V45.8603Z" fill="#E6E6E6"/>
<path d="M339.6 49.5351H333.708V52.2299H339.6V49.5351Z" fill="#CCCCCC"/>
<path d="M339.6 61.2943H333.708V63.9891H339.6V61.2943Z" fill="#CCCCCC"/>
<path d="M330.516 45.8603H324.624V69.1339H330.516V45.8603Z" fill="#E6E6E6"/>
<path d="M330.516 49.5351H324.624V52.2299H330.516V49.5351Z" fill="#CCCCCC"/>
<path d="M330.516 61.2943H324.624V63.9891H330.516V61.2943Z" fill="#CCCCCC"/>
<path d="M344.676 45.7643L339.396 48.3727L349.744 69.2303L355.024 66.6215L344.676 45.7643Z" fill="#E6E6E6"/>
<path d="M346.31 49.0573L341.03 51.6661L342.228 54.0812L347.508 51.4724L346.31 49.0573Z" fill="#CCCCCC"/>
<path d="M351.538 59.5956L346.258 62.2045L347.456 64.6196L352.736 62.0107L351.538 59.5956Z" fill="#CCCCCC"/>
<path d="M287.062 77.4067H281.17V100.68H287.062V77.4067Z" fill="#E6E6E6"/>
<path d="M287.062 81.0815H281.17V83.7763H287.062V81.0815Z" fill="#CCCCCC"/>
<path d="M287.062 92.8407H281.17V95.5355H287.062V92.8407Z" fill="#CCCCCC"/>
<path d="M277.978 77.4067H272.087V100.68H277.978V77.4067Z" fill="#E6E6E6"/>
<path d="M277.978 81.0815H272.087V83.7763H277.978V81.0815Z" fill="#CCCCCC"/>
<path d="M277.978 92.8407H272.087V95.5355H277.978V92.8407Z" fill="#CCCCCC"/>
<path d="M292.138 77.3103L286.858 79.9191L297.206 100.776L302.486 98.1674L292.138 77.3103Z" fill="#E6E6E6"/>
<path d="M293.772 80.6038L288.492 83.2122L289.69 85.6273L294.97 83.0184L293.772 80.6038Z" fill="#CCCCCC"/>
<path d="M299.001 91.1421L293.721 93.7509L294.919 96.1656L300.199 93.5572L299.001 91.1421Z" fill="#CCCCCC"/>
<path d="M342.271 77.4067H336.379V100.68H342.271V77.4067Z" fill="#E6E6E6"/>
<path d="M342.271 81.0815H336.379V83.7763H342.271V81.0815Z" fill="#CCCCCC"/>
<path d="M342.271 92.8407H336.379V95.5355H342.271V92.8407Z" fill="#CCCCCC"/>
<path d="M333.188 77.4067H327.296V100.68H333.188V77.4067Z" fill="#E6E6E6"/>
<path d="M333.188 81.0815H327.296V83.7763H333.188V81.0815Z" fill="#CCCCCC"/>
<path d="M333.188 92.8407H327.296V95.5355H333.188V92.8407Z" fill="#CCCCCC"/>
<path d="M347.347 77.3103L342.067 79.9191L352.415 100.776L357.695 98.1674L347.347 77.3103Z" fill="#E6E6E6"/>
<path d="M348.981 80.6038L343.701 83.2122L344.899 85.6273L350.179 83.0184L348.981 80.6038Z" fill="#CCCCCC"/>
<path d="M354.21 91.1421L348.929 93.7509L350.128 96.1656L355.408 93.5572L354.21 91.1421Z" fill="#CCCCCC"/>
<path d="M405.335 14.2444H381.919V37.6126H405.335V14.2444Z" fill="#E6E6E6"/>
<path d="M400.652 18.918H386.601V32.9389H400.652V18.918Z" fill="#CCCCCC"/>
<path d="M390.669 23.6243L393.648 28.7735L396.627 33.9227H390.669H384.71L387.69 28.7735L390.669 23.6243Z" fill="#E6E6E6"/>
<path d="M395.845 24.6082L398.824 29.7574L401.803 34.9066H395.845H389.887L392.866 29.7574L395.845 24.6082Z" fill="#E6E6E6"/>
<path d="M397.94 23.0997C398.893 23.0997 399.666 22.3288 399.666 21.3778C399.666 20.4269 398.893 19.656 397.94 19.656C396.988 19.656 396.215 20.4269 396.215 21.3778C396.215 22.3288 396.988 23.0997 397.94 23.0997Z" fill="#E6E6E6"/>
<path d="M286.903 14.2444H263.486V37.6126H286.903V14.2444Z" fill="#E6E6E6"/>
<path d="M282.22 18.918H268.169V32.9389H282.22V18.918Z" fill="#CCCCCC"/>
<path d="M272.236 23.6243L275.215 28.7735L278.195 33.9227H272.236H266.278L269.257 28.7735L272.236 23.6243Z" fill="#E6E6E6"/>
<path d="M277.413 24.6082L280.392 29.7574L283.371 34.9066H277.413H271.455L274.434 29.7574L277.413 24.6082Z" fill="#E6E6E6"/>
<path d="M279.508 23.0997C280.461 23.0997 281.233 22.3288 281.233 21.3778C281.233 20.4269 280.461 19.656 279.508 19.656C278.555 19.656 277.783 20.4269 277.783 21.3778C277.783 22.3288 278.555 23.0997 279.508 23.0997Z" fill="#E6E6E6"/>
<path d="M385.791 209.704C383.226 219.453 374.236 225.545 374.236 225.545C374.236 225.545 369.407 215.832 371.972 206.083C374.537 196.334 383.526 190.241 383.526 190.241C383.526 190.241 388.356 199.955 385.791 209.704Z" fill="#3F3D56"/>
<path d="M381.9 207.642C374.715 214.725 373.911 225.54 373.911 225.54C373.911 225.54 384.756 224.868 391.941 217.785C399.126 210.701 399.93 199.886 399.93 199.886C399.93 199.886 389.084 200.558 381.9 207.642Z" fill="#46B8CD"/>
<path d="M390.91 222.691H362.806C359.723 222.691 357.224 225.185 357.224 228.261V233.796C357.224 236.873 359.723 239.367 362.806 239.367H390.91C393.993 239.367 396.491 236.873 396.491 233.796V228.261C396.491 225.185 393.993 222.691 390.91 222.691Z" fill="#46B8CD"/>
<g opacity="0.7">
<path opacity="0.7" d="M55.465 212.45V206.441H25.3599V234.232C25.3599 235.001 25.5117 235.763 25.8067 236.474C26.1018 237.185 26.5342 237.831 27.0793 238.375C27.6245 238.919 28.2716 239.35 28.9838 239.645C29.6961 239.939 30.4595 240.091 31.2304 240.091H49.5947C51.1517 240.091 52.6448 239.473 53.7458 238.375C54.8468 237.276 55.465 235.786 55.465 234.232V228.073C57.5384 228.069 59.5257 227.244 60.99 225.78C62.4547 224.315 63.2772 222.33 63.2772 220.261C63.2772 218.192 62.4547 216.208 60.99 214.743C59.5257 213.279 57.5384 212.454 55.465 212.45ZM55.465 225.068V215.454C56.7426 215.454 57.9678 215.961 58.8711 216.862C59.7745 217.764 60.2821 218.986 60.2821 220.261C60.2821 221.536 59.7745 222.759 58.8711 223.661C57.9678 224.562 56.7426 225.068 55.465 225.068Z" fill="url(#paint0_linear)"/>
</g>
<path d="M54.4961 213.39C53.0825 213.39 51.7008 213.809 50.5255 214.592C49.3502 215.376 48.4342 216.49 47.8933 217.793C47.3525 219.097 47.2108 220.53 47.4867 221.914C47.7626 223.298 48.4429 224.568 49.4425 225.566C50.442 226.564 51.7157 227.243 53.1017 227.518C54.4882 227.793 55.9254 227.652 57.231 227.112C58.537 226.572 59.6533 225.658 60.4386 224.485C61.2239 223.312 61.6427 221.933 61.6427 220.523C61.6427 218.631 60.8898 216.817 59.5497 215.479C58.2095 214.142 56.3915 213.39 54.4961 213.39ZM54.4961 224.912C53.6264 224.912 52.776 224.654 52.0528 224.172C51.3296 223.69 50.766 223.004 50.4328 222.202C50.1001 221.4 50.0131 220.518 50.1827 219.666C50.3524 218.815 50.7712 218.033 51.3864 217.419C52.0012 216.805 52.7852 216.387 53.6382 216.218C54.4913 216.048 55.3753 216.135 56.179 216.468C56.9826 216.8 57.6695 217.362 58.1531 218.084C58.6363 218.806 58.8942 219.655 58.8942 220.523C58.8942 221.687 58.4308 222.803 57.6061 223.626C56.7811 224.449 55.6626 224.912 54.4961 224.912Z" fill="#46B8CD"/>
<path opacity="0.1" d="M54.4961 213.39C53.0825 213.39 51.7008 213.809 50.5255 214.592C49.3502 215.376 48.4342 216.49 47.8933 217.793C47.3525 219.097 47.2108 220.53 47.4867 221.914C47.7626 223.298 48.4429 224.568 49.4425 225.566C50.442 226.564 51.7157 227.243 53.1017 227.518C54.4882 227.793 55.9254 227.652 57.231 227.112C58.537 226.572 59.6533 225.658 60.4386 224.485C61.2239 223.312 61.6427 221.933 61.6427 220.523C61.6427 218.631 60.8898 216.817 59.5497 215.479C58.2095 214.142 56.3915 213.39 54.4961 213.39ZM54.4961 224.912C53.6264 224.912 52.776 224.654 52.0528 224.172C51.3296 223.69 50.766 223.004 50.4328 222.202C50.1001 221.4 50.0131 220.518 50.1827 219.666C50.3524 218.815 50.7712 218.033 51.3864 217.419C52.0012 216.805 52.7852 216.387 53.6382 216.218C54.4913 216.048 55.3753 216.135 56.179 216.468C56.9826 216.8 57.6695 217.362 58.1531 218.084C58.6363 218.806 58.8942 219.655 58.8942 220.523C58.8942 221.687 58.4308 222.803 57.6061 223.626C56.7811 224.449 55.6626 224.912 54.4961 224.912Z" fill="#46B8CD"/>
<path d="M27.0089 207.904H54.4961V235.054C54.4961 236.002 54.1192 236.911 53.4476 237.581C52.776 238.251 51.8652 238.628 50.9151 238.628H30.5898C29.6401 238.628 28.7293 238.251 28.0577 237.581C27.3861 236.911 27.0089 236.002 27.0089 235.054V207.904Z" fill="#46B8CD"/>
<path d="M418 239.547H0V251.764H418V239.547Z" fill="#E0E0E0"/>
<g opacity="0.7">
<path opacity="0.7" d="M234.678 158.84C230.854 144.989 209.175 134.873 192.864 132.63C192.866 132.528 192.871 132.427 192.871 132.324V120.467C192.889 120.46 192.907 120.455 192.924 120.449V119.999C198.713 117.85 203.937 114.416 208.2 109.957C212.464 105.497 215.656 100.129 217.535 94.257C218.543 92.438 219.421 90.5495 220.161 88.6065C221.903 87.9738 223.218 85.108 223.218 81.6649C223.224 80.4872 223.059 79.3148 222.726 78.1843C222.94 76.4307 223.049 74.6661 223.053 72.8994C223.059 66.7236 221.765 60.6158 219.253 54.9714C216.742 49.3274 213.069 44.2734 208.473 40.1378C208.61 39.4284 208.656 38.7046 208.611 37.9836C208.242 32.2924 202.151 28.4259 196.442 28.1673C197.95 26.46 198.941 24.3607 199.301 22.1133C199.661 19.866 199.374 17.5629 198.474 15.4718C194.833 20.7643 187.36 21.3269 180.928 21.3686C183.704 20.2959 184.953 16.458 183.338 13.9626C176.616 22.9551 163.511 24.6203 155.515 32.5069C153.773 34.232 152.313 36.2191 151.189 38.3959C145.992 42.5272 141.797 47.7754 138.915 53.7492C136.033 59.723 134.539 66.2693 134.544 72.8994C134.547 74.65 134.655 76.3988 134.864 78.1367C134.522 79.2812 134.351 80.4702 134.357 81.6649C134.357 85.1242 135.685 87.9987 137.438 88.6135C138.181 90.5635 139.063 92.4576 140.076 94.2828C141.949 100.12 145.119 105.46 149.352 109.902C153.584 114.344 158.767 117.774 164.515 119.934V132.324C164.515 132.42 164.521 132.513 164.522 132.608C148.149 134.813 126.297 145.008 122.507 158.971C119.234 171.029 115.74 184.272 114.002 192.047C128.901 202.495 160.166 208.63 179.759 208.63C198.376 208.63 228.803 203.093 243.264 193.579C241.698 185.036 238.093 171.212 234.678 158.84Z" fill="url(#paint1_linear)"/>
</g>
<path d="M179.719 205.191C197.678 205.191 227.03 199.85 240.98 190.672C239.469 182.431 235.992 169.095 232.698 157.16C228.502 141.961 202.02 131.424 186.223 131.424H171C155.153 131.424 128.633 142.022 124.49 157.286C121.333 168.919 117.963 181.693 116.286 189.194C130.659 199.273 160.819 205.191 179.719 205.191Z" fill="#00859E"/>
<path d="M178.792 116.86C202.37 116.86 221.483 97.7861 221.483 74.2564C221.483 50.7263 202.37 31.6519 178.792 31.6519C155.215 31.6519 136.102 50.7263 136.102 74.2564C136.102 97.7861 155.215 116.86 178.792 116.86Z" fill="#333333"/>
<path opacity="0.1" d="M165.013 109.742H192.368V131.581C192.368 135.201 190.927 138.673 188.362 141.233C185.797 143.793 182.318 145.23 178.691 145.23C175.063 145.23 171.585 143.793 169.019 141.233C166.455 138.673 165.013 135.201 165.013 131.581V109.742Z" fill="black"/>
<path d="M168.937 108.731H188.444C189.485 108.731 190.483 109.143 191.218 109.878C191.954 110.612 192.368 111.608 192.368 112.646V130.57C192.368 134.19 190.927 137.662 188.362 140.222C185.797 142.781 182.318 144.219 178.691 144.219C175.063 144.219 171.585 142.781 169.019 140.222C166.455 137.662 165.013 134.19 165.013 130.57V112.646C165.013 111.608 165.427 110.612 166.163 109.878C166.899 109.143 167.897 108.731 168.937 108.731Z" fill="#FDB797"/>
<path opacity="0.1" d="M165.065 120.05C173.88 123.337 183.585 123.364 192.419 120.125V116.772H165.065V120.05Z" fill="black"/>
<path d="M178.792 121.878C200.445 121.878 218 104.359 218 82.7492C218 61.1394 200.445 43.6208 178.792 43.6208C157.138 43.6208 139.584 61.1394 139.584 82.7492C139.584 104.359 157.138 121.878 178.792 121.878Z" fill="#FDB797"/>
<path opacity="0.1" d="M150.864 47.1575C150.864 47.1575 167.388 80.6304 214 61.1869L203.148 44.2044L183.912 37.3128L150.864 47.1575Z" fill="black"/>
<path d="M150.864 46.6654C150.864 46.6654 167.388 80.1382 214 60.6943L203.148 43.7118L183.912 36.8206L150.864 46.6654Z" fill="#333333"/>
<path d="M150.718 44.4043C151.832 40.9619 153.757 37.8367 156.332 35.2911C164.045 27.6831 176.687 26.0768 183.172 17.4021C184.729 19.8093 183.524 23.5115 180.847 24.5463C187.052 24.5061 194.261 23.9635 197.772 18.858C198.641 20.8751 198.917 23.0969 198.571 25.2648C198.223 27.4327 197.267 29.4579 195.812 31.1048C201.319 31.3543 207.196 35.0841 207.551 40.5742C207.788 44.2319 205.49 47.6947 202.479 49.7921C199.467 51.89 195.823 52.8526 192.237 53.6419C181.768 55.9453 143.886 65.6005 150.718 44.4043Z" fill="#333333"/>
<path d="M139.57 89.5368C141.584 89.5368 143.217 86.4811 143.217 82.7121C143.217 78.9426 141.584 75.8874 139.57 75.8874C137.555 75.8874 135.922 78.9426 135.922 82.7121C135.922 86.4811 137.555 89.5368 139.57 89.5368Z" fill="#FDB797"/>
<path d="M217.995 89.5368C220.009 89.5368 221.642 86.4811 221.642 82.7121C221.642 78.9426 220.009 75.8874 217.995 75.8874C215.98 75.8874 214.347 78.9426 214.347 82.7121C214.347 86.4811 215.98 89.5368 217.995 89.5368Z" fill="#FDB797"/>
<g opacity="0.7">
<path opacity="0.7" d="M248.933 152.404H107.854C104.912 152.404 102.528 154.783 102.528 157.719V234.285C102.528 237.221 104.912 239.6 107.854 239.6H248.933C251.874 239.6 254.259 237.221 254.259 234.285V157.719C254.259 154.783 251.874 152.404 248.933 152.404Z" fill="url(#paint2_linear)"/>
</g>
<path d="M241.654 154.013H115.133C109.689 154.013 105.277 158.416 105.277 163.849V229.764C105.277 235.196 109.689 239.6 115.133 239.6H241.654C247.097 239.6 251.51 235.196 251.51 229.764V163.849C251.51 158.416 247.097 154.013 241.654 154.013Z" fill="#535461"/>
<path d="M178.394 201.744C181.126 201.744 183.341 199.534 183.341 196.807C183.341 194.079 181.126 191.869 178.394 191.869C175.661 191.869 173.446 194.079 173.446 196.807C173.446 199.534 175.661 201.744 178.394 201.744Z" fill="#C0C0C0"/>
<path d="M397.887 252.2H16.6151V257H397.887V252.2Z" fill="#E0E0E0"/>
<path opacity="0.1" d="M398.324 251.328H17.0523V253.073H398.324V251.328Z" fill="black"/>
<path opacity="0.1" d="M49.5483 207.904V233.278C49.5483 234.697 48.9838 236.058 47.9786 237.061C46.9734 238.064 45.6101 238.628 44.1882 238.628H46.9371C48.3586 238.628 49.7219 238.064 50.7271 237.061C51.7323 236.058 52.2972 234.697 52.2972 233.278V207.904H49.5483Z" fill="black"/>
<path d="M32.4332 187.452C31.9696 187.532 31.4465 187.657 31.2193 188.068C30.8587 188.72 31.5122 189.455 32.1084 189.904C33.2099 190.732 34.371 191.545 35.1197 192.701C35.8685 193.857 36.1037 195.47 35.2852 196.577C34.2165 198.024 31.6667 198.335 31.4199 200.115C31.2615 201.258 32.2515 202.233 33.2546 202.807C35.7306 204.222 38.9224 204.599 40.7159 206.814C41.4578 205.292 43.1172 204.412 44.7715 204.036C46.4255 203.66 48.1439 203.688 49.8211 203.433C50.3624 203.351 50.9724 203.186 51.2142 202.696C51.6833 201.746 50.3471 200.607 50.808 199.654C51.1591 198.929 52.1901 198.985 52.943 198.695C54.169 198.222 54.6749 196.647 54.3269 195.382C53.9788 194.117 52.9959 193.128 51.9623 192.318C49.1771 190.133 45.8274 188.849 42.4399 187.925C40.8643 187.495 39.0148 186.821 37.3783 186.756C35.7985 186.693 33.9968 187.185 32.4332 187.452Z" fill="#EEEEEE"/>
<path d="M311.751 177.151H271.962C270.272 177.151 268.902 178.519 268.902 180.205V236.492C268.902 238.179 270.272 239.547 271.962 239.547H311.751C313.441 239.547 314.812 238.179 314.812 236.492V180.205C314.812 178.519 313.441 177.151 311.751 177.151Z" fill="#7D7E91"/>
<path d="M291.857 209.876C293.668 209.876 295.136 208.411 295.136 206.604C295.136 204.796 293.668 203.331 291.857 203.331C290.046 203.331 288.577 204.796 288.577 206.604C288.577 208.411 290.046 209.876 291.857 209.876Z" fill="#C0C0C0"/>
<path d="M279.395 179.769H273.711C272.745 179.769 271.962 180.551 271.962 181.514V187.187C271.962 188.151 272.745 188.932 273.711 188.932H279.395C280.361 188.932 281.144 188.151 281.144 187.187V181.514C281.144 180.551 280.361 179.769 279.395 179.769Z" fill="#68697B"/>
<path d="M274.367 188.059C275.212 188.059 275.897 187.376 275.897 186.532C275.897 185.689 275.212 185.005 274.367 185.005C273.522 185.005 272.837 185.689 272.837 186.532C272.837 187.376 273.522 188.059 274.367 188.059Z" fill="#3C3939"/>
<path d="M278.302 186.314C279.147 186.314 279.833 185.63 279.833 184.787C279.833 183.944 279.147 183.26 278.302 183.26C277.457 183.26 276.772 183.944 276.772 184.787C276.772 185.63 277.457 186.314 278.302 186.314Z" fill="#3C3939"/>
<path d="M274.367 184.132C275.212 184.132 275.897 183.449 275.897 182.605C275.897 181.762 275.212 181.078 274.367 181.078C273.522 181.078 272.837 181.762 272.837 182.605C272.837 183.449 273.522 184.132 274.367 184.132Z" fill="#3C3939"/>
<path d="M279.614 182.387C279.976 182.387 280.27 182.094 280.27 181.733C280.27 181.371 279.976 181.078 279.614 181.078C279.252 181.078 278.958 181.371 278.958 181.733C278.958 182.094 279.252 182.387 279.614 182.387Z" fill="white"/>
<rect x="265" y="231" width="53" height="8" rx="1" fill="#E0E0E0"/>
<rect x="262" y="237" width="59" height="3" rx="1" fill="#CACACA"/>
<defs>
<linearGradient id="paint0_linear" x1="44.326" y1="240.091" x2="44.326" y2="206.441" gradientUnits="userSpaceOnUse">
<stop stop-color="#808080" stop-opacity="0.25"/>
<stop offset="0.53514" stop-color="#808080" stop-opacity="0.12"/>
<stop offset="1" stop-color="#808080" stop-opacity="0.1"/>
</linearGradient>
<linearGradient id="paint1_linear" x1="77755.4" y1="126568" x2="77755.4" y2="23179.4" gradientUnits="userSpaceOnUse">
<stop stop-color="#808080" stop-opacity="0.25"/>
<stop offset="0.53514" stop-color="#808080" stop-opacity="0.12"/>
<stop offset="1" stop-color="#808080" stop-opacity="0.1"/>
</linearGradient>
<linearGradient id="paint2_linear" x1="73801.1" y1="53830.4" x2="73801.1" y2="33086.8" gradientUnits="userSpaceOnUse">
<stop stop-color="#808080" stop-opacity="0.25"/>
<stop offset="0.53514" stop-color="#808080" stop-opacity="0.12"/>
<stop offset="1" stop-color="#808080" stop-opacity="0.1"/>
</linearGradient>
</defs>
</svg>
