<svg width="701" height="720" viewBox="0 0 701 720" fill="none" xmlns="http://www.w3.org/2000/svg">
<path d="M432.5 -0.848325L701.5 -0.848314L702.5 720.152L280 718.723L2.47477e-05 719.152L432.5 -0.848325Z" fill="url(#paint0_linear)"/>
<path d="M29 -0.848389L247.5 306.581L432 -0.848389H29Z" fill="#E4F8F8" stroke="#ECFAF9"/>
<path d="M429.565 589.944C575.128 589.944 693.13 570.718 693.13 547.003C693.13 523.287 575.128 504.061 429.565 504.061C284.002 504.061 166 523.287 166 547.003C166 570.718 284.002 589.944 429.565 589.944Z" fill="#025E58" fill-opacity="0.18"/>
<g clip-path="url(#clip0)">
<path d="M503.662 440.373V523.812L517.855 546.557L518.935 548.287H574.94L576.071 440.373H503.662Z" fill="#E6E6E6"/>
<path opacity="0.1" d="M503.662 440.373V523.812L517.855 546.557L518.726 440.373H503.662Z" fill="black"/>
<path d="M368.459 438.148V521.587L354.265 544.332L353.185 546.062H297.181L296.049 438.148H368.459Z" fill="#E6E6E6"/>
<path opacity="0.1" d="M368.459 438.148V521.587L354.265 544.332L353.394 438.148H368.459Z" fill="black"/>
<path d="M593.042 436.48V441.486H288.695V434.254L316.98 419.792H568.152L593.042 436.48Z" fill="#E6E6E6"/>
<path opacity="0.1" d="M593.042 436.48V441.486H288.695V434.254L593.042 436.48Z" fill="black"/>
<path d="M332.254 461.511H318.677L313.02 457.617H338.477L332.254 461.511Z" fill="#3F3D56"/>
<path d="M332.254 477.642H318.677L313.02 473.749H338.477L332.254 477.642Z" fill="#3F3D56"/>
<path d="M332.254 500.449H318.677L313.02 496.555H338.477L332.254 500.449Z" fill="#3F3D56"/>
<path d="M332.254 523.255H318.677L313.02 519.362H338.477L332.254 523.255Z" fill="#3F3D56"/>
<path d="M539.866 463.736H553.443L559.1 459.842H533.643L539.866 463.736Z" fill="#3F3D56"/>
<path d="M539.866 479.867H553.443L559.1 475.974H533.643L539.866 479.867Z" fill="#3F3D56"/>
<path d="M539.866 502.674H553.443L559.1 498.78H533.643L539.866 502.674Z" fill="#3F3D56"/>
<path d="M539.866 525.48H553.443L559.1 521.587H533.643L539.866 525.48Z" fill="#3F3D56"/>
<path d="M549.112 323.304H434.814C434.246 323.303 433.684 323.413 433.16 323.627C432.635 323.841 432.159 324.154 431.757 324.548C431.356 324.943 431.037 325.412 430.82 325.927C430.603 326.443 430.491 326.996 430.491 327.554V403.263C430.491 403.821 430.603 404.374 430.82 404.889C431.037 405.405 431.356 405.874 431.757 406.268C432.159 406.663 432.635 406.976 433.16 407.19C433.684 407.403 434.246 407.513 434.814 407.513H478.202L476.577 417.718C476.577 417.718 467.287 422.571 473.819 422.714C480.351 422.856 511.123 422.714 511.123 422.714C511.123 422.714 517.074 422.714 507.639 417.576L506.11 407.513H549.112C549.68 407.513 550.242 407.403 550.766 407.19C551.291 406.976 551.767 406.663 552.169 406.268C552.57 405.874 552.888 405.405 553.106 404.889C553.323 404.374 553.435 403.821 553.435 403.263V327.554C553.435 326.996 553.323 326.443 553.106 325.927C552.888 325.412 552.57 324.943 552.169 324.548C551.767 324.154 551.291 323.841 550.766 323.627C550.242 323.413 549.68 323.303 549.112 323.304Z" fill="#3F3D56"/>
<path d="M549.054 328.656H434.384V391.742H549.054V328.656Z" fill="#F2F2F2"/>
<path d="M491.963 326.515C492.364 326.515 492.688 326.195 492.688 325.801C492.688 325.407 492.364 325.088 491.963 325.088C491.562 325.088 491.237 325.407 491.237 325.801C491.237 326.195 491.562 326.515 491.963 326.515Z" fill="#F2F2F2"/>
<path d="M491.963 404.445C493.486 404.445 494.721 403.23 494.721 401.733C494.721 400.235 493.486 399.021 491.963 399.021C490.44 399.021 489.205 400.235 489.205 401.733C489.205 403.23 490.44 404.445 491.963 404.445Z" fill="#F2F2F2"/>
<path d="M487.665 430.421V431.849H409.574V430.707L409.681 430.421L411.606 425.283H486.069L487.665 430.421Z" fill="#3F3D56"/>
<path d="M517.717 429.024C517.575 429.622 517.038 430.253 515.825 430.849C511.47 432.99 502.616 430.278 502.616 430.278C502.616 430.278 495.794 429.136 495.794 426.139C495.985 426.01 496.185 425.893 496.392 425.79C498.222 424.837 504.293 422.487 515.056 425.889C515.849 426.134 516.557 426.59 517.102 427.207C517.343 427.441 517.525 427.727 517.632 428.043C517.739 428.359 517.768 428.695 517.717 429.024Z" fill="#3F3D56"/>
<path opacity="0.1" d="M517.717 429.024C512.387 431.032 507.636 431.182 502.761 427.852C500.917 426.512 498.684 425.789 496.392 425.79C498.222 424.837 504.293 422.487 515.056 425.889C515.849 426.134 516.557 426.59 517.102 427.207C517.343 427.441 517.525 427.727 517.632 428.043C517.739 428.359 517.768 428.695 517.717 429.024Z" fill="black"/>
<path d="M511.035 427.852C512.077 427.852 512.922 427.596 512.922 427.281C512.922 426.966 512.077 426.71 511.035 426.71C509.992 426.71 509.148 426.966 509.148 427.281C509.148 427.596 509.992 427.852 511.035 427.852Z" fill="#F2F2F2"/>
<path opacity="0.1" d="M487.665 430.421V431.849H409.574V430.707L409.681 430.421H487.665Z" fill="black"/>
<path d="M310.25 268.974C309.457 268.91 308.663 269.085 307.974 269.474C307.297 269.93 306.87 270.729 306.435 271.472C304.769 274.348 302.515 276.852 299.814 278.826C297.847 280.243 295.345 282.01 295.682 284.623C295.86 285.486 296.184 286.313 296.641 287.07C298.456 290.672 303.408 293.456 302.921 297.567C304.724 294.599 302.312 293.131 304.116 290.163C304.974 288.749 306.466 287.154 307.762 288.041C308.196 288.338 308.481 288.872 308.933 289.132C310.012 289.755 311.159 288.565 312.114 287.722C315.406 284.816 320.087 285.578 324.184 286.483C326.118 286.911 328.242 287.471 329.385 289.289C330.888 291.678 327.957 294.259 327.216 296.961C327.156 297.191 327.153 297.432 327.208 297.664C327.263 297.896 327.374 298.111 327.532 298.291C327.69 298.471 327.89 298.61 328.115 298.698C328.34 298.785 328.583 298.818 328.823 298.793C330.052 298.674 331.508 298.576 331.581 298.046C333.128 298.1 335.023 297.928 335.685 296.344C335.888 295.718 335.995 295.065 336.003 294.408C336.246 291.748 337.394 289.322 338.155 286.79C338.915 284.259 339.246 281.292 337.962 279.047C337.504 278.301 336.938 277.624 336.281 277.038C328.997 270.107 319.421 268.964 310.25 268.974Z" fill="#2F2E41"/>
<path d="M304.505 302.759C304.505 302.759 306.089 315.739 300.281 316.777C294.473 317.815 305.561 335.468 305.561 335.468L331.961 338.583L325.625 317.815C325.625 317.815 321.401 316.258 324.041 305.874C326.681 295.49 304.505 302.759 304.505 302.759Z" fill="#FFB8B8"/>
<path d="M288.401 525.753L290.513 554.309H301.601L298.433 525.753H288.401Z" fill="#FFB8B8"/>
<path d="M369.714 471.757L371.298 495.64L383.443 490.448L378.69 470.719L369.714 471.757Z" fill="#FFB8B8"/>
<path d="M280.48 416.722C280.48 416.722 281.008 446.836 284.176 456.7C287.345 466.565 286.816 467.084 286.288 468.642C285.76 470.199 285.232 469.161 285.232 471.757C285.232 474.353 284.176 515.369 285.232 519.004C286.288 522.638 282.064 528.868 285.232 529.388C288.401 529.907 303.185 529.388 303.713 526.273C304.241 523.157 299.489 522.119 301.601 520.042C303.713 517.965 306.881 475.391 306.881 475.391L314.273 445.797L328.001 430.221H357.042L366.018 464.488C366.018 464.488 362.322 474.353 364.962 474.353C367.602 474.353 383.443 477.468 383.443 466.046C383.443 454.624 378.162 420.876 377.106 419.837C376.05 418.799 377.634 415.165 376.05 413.607C374.466 412.049 355.986 401.146 349.122 399.07C342.258 396.993 332.628 394.521 332.628 394.521L280.48 416.722Z" fill="#090909"/>
<path d="M383.443 486.295C383.443 486.295 375.523 483.699 371.826 491.486C368.13 499.274 369.714 501.351 369.714 501.351C369.714 501.351 381.859 505.505 383.971 503.428C384.89 502.524 387.807 502.21 390.811 502.144C395.385 502.043 396.602 495.68 392.282 494.198C392.153 494.153 392.023 494.115 391.891 494.082C387.667 493.044 383.443 486.295 383.443 486.295Z" fill="#2F2E41"/>
<path d="M316.385 311.325C325.134 311.325 332.226 304.352 332.226 295.75C332.226 287.147 325.134 280.174 316.385 280.174C307.637 280.174 300.545 287.147 300.545 295.75C300.545 304.352 307.637 311.325 316.385 311.325Z" fill="#FFB8B8"/>
<path d="M295.793 323.267C295.793 323.267 321.665 328.459 328.002 320.152C334.338 311.845 336.978 343.516 336.978 343.516L340.146 376.744L335.394 394.916C335.394 394.916 310.577 414.645 302.657 416.203C294.737 417.761 282.593 418.799 282.593 418.799C282.593 418.799 286.289 361.168 286.289 360.13C286.289 359.091 295.793 323.267 295.793 323.267Z" fill="#FBFFFB"/>
<path d="M303.661 313.53C303.661 313.53 297.905 310.287 296.321 313.402C294.737 316.517 279.952 324.305 278.368 324.305C276.784 324.305 281.536 367.399 279.424 372.591C277.312 377.782 267.28 415.684 273.088 418.799C278.896 421.914 274.672 415.684 280.48 423.472C286.289 431.26 314.801 431.26 316.385 428.144C317.969 425.029 303.713 401.665 306.353 379.859C308.993 358.053 313.217 327.94 309.521 323.786C305.825 319.633 303.661 313.53 303.661 313.53Z" fill="#00859E"/>
<path d="M322.722 317.037L323.457 314.548C323.457 314.548 345.426 321.709 346.482 326.382C347.538 331.055 347.01 363.764 343.314 366.36C339.618 368.956 334.338 373.11 338.034 379.34C341.73 385.57 345.954 392.32 349.122 392.839C352.29 393.358 358.098 396.993 356.514 400.627C354.93 404.261 335.922 397.512 335.922 397.512C335.922 397.512 323.25 388.166 323.778 373.629C324.306 359.091 322.722 317.037 322.722 317.037Z" fill="#00859E"/>
<path d="M341.202 378.302L328.529 401.665C328.529 401.665 310.049 420.357 320.609 422.433C331.17 424.51 336.978 405.3 336.978 405.3L350.706 386.09L341.202 378.302Z" fill="#FFB8B8"/>
<path d="M311.021 273.05C310.383 273.003 309.743 273.125 309.169 273.403C308.649 273.776 308.221 274.258 307.916 274.815C306.507 276.898 304.671 278.669 302.526 280.013C300.924 281.014 298.888 282.263 299.162 284.11C299.311 284.729 299.576 285.316 299.943 285.84C301.425 288.411 302.016 291.388 301.624 294.319L306.028 288.026C306.727 287.026 307.941 285.899 308.996 286.526C309.35 286.736 309.582 287.113 309.95 287.297C310.828 287.737 311.762 286.896 312.539 286.301C315.218 284.247 319.029 284.785 322.364 285.425C323.938 285.727 325.668 286.123 326.598 287.408C328.145 289.543 326.53 292.627 327.432 295.093C327.685 294.919 327.9 294.697 328.063 294.44C328.227 294.183 328.337 293.897 328.386 293.597C329.645 293.636 331.187 293.514 331.727 292.395C331.891 291.956 331.978 291.493 331.985 291.026C332.183 289.146 333.118 287.431 333.737 285.642C334.356 283.853 334.625 281.756 333.58 280.169C333.198 279.632 332.737 279.153 332.212 278.749C326.282 273.85 318.487 273.042 311.021 273.05Z" fill="#2F2E41"/>
<path d="M342.227 324.289L347.147 325.573C347.147 325.573 358.595 354.402 355.955 374.132C353.315 393.861 351.731 389.707 351.731 389.707C351.731 389.707 347.507 380.362 338.003 382.439L342.227 324.289Z" fill="#00859E" stroke="#828282" stroke-width="0.3"/>
<path d="M289.132 550.535C287.859 552.237 288.114 554.669 286.986 556.467C286.009 558.025 284.166 558.842 282.943 560.223C282.553 560.682 282.205 561.174 281.904 561.693C280.77 563.562 279.847 565.956 280.965 567.835C281.863 569.346 283.753 569.936 285.485 570.339C287.675 570.848 289.95 571.255 292.165 570.866C294.38 570.477 296.545 569.144 297.335 567.072C297.49 566.551 297.675 566.039 297.888 565.538C299.088 563.214 302.854 563.189 304.083 560.879C304.943 559.262 304.152 557.308 303.362 555.658L300.949 550.617C300.148 548.944 296.902 549.906 295.209 549.505C293.002 548.982 290.72 548.406 289.132 550.535Z" fill="#2F2E41"/>
<path d="M271.504 388.686L293.681 422.433C293.681 422.433 307.409 439.567 311.633 431.779C315.857 423.991 296.849 411.011 296.849 411.011L282.592 385.051L271.504 388.686Z" fill="#FFB8B8"/>
<path d="M282.592 325.344L278.368 324.305C278.368 324.305 269.92 326.901 267.808 337.804C265.696 348.708 267.28 392.32 269.92 392.839C272.56 393.358 282.959 385.245 284.624 386.965C286.289 388.686 281.008 379.859 282.592 375.186C284.176 370.514 282.592 325.344 282.592 325.344Z" fill="#00859E"/>
<path d="M469.597 350.192H458.021V352.375H469.597V350.192Z" fill="#6C63FF"/>
<path d="M485.032 350.192H473.456V352.375H485.032V350.192Z" fill="#6C63FF"/>
<path d="M507.46 359.106H495.884V361.29H507.46V359.106Z" fill="#6C63FF"/>
<path d="M523.136 359.106H511.56V361.29H523.136V359.106Z" fill="#6C63FF"/>
<path d="M523.351 350.49H489.247V352.674H523.351V350.49Z" fill="#6C63FF"/>
<path d="M492.025 359.106H458.021V361.29H492.025V359.106Z" fill="#6C63FF"/>
<path d="M492.025 368.021H458.021V370.204H474.419H492.025V368.021Z" fill="#6C63FF"/>
<path d="M523.136 368.021H499.501V370.204H523.136V368.021Z" fill="#6C63FF"/>
<path d="M454.767 357.041L450.695 351.582L454.767 346.123L455.582 347.215L452.324 351.582L455.582 355.949L454.767 357.041Z" fill="#6C63FF"/>
<path d="M533.804 374.509L532.989 373.416L536.247 369.049L532.989 364.683L533.804 363.591L537.877 369.049L533.804 374.509Z" fill="#6C63FF"/>
<path d="M530.232 363.591L527.058 374.054L528.475 374.483L531.649 364.02L530.232 363.591Z" fill="#6C63FF"/>
</g>
<path d="M633.128 524.047L656.134 471.79L633.229 529.645L633.334 535.5C631.619 535.535 629.919 535.508 628.236 535.419L628.685 460.135L628.647 459.555L628.689 459.442L628.733 452.328L602.466 396.923L628.652 447.005L628.757 448.507L629.096 391.627L606.317 334.144L629.064 381.636L627.71 263.814L627.707 263.422L627.718 263.807L630.078 356.655L649.978 318.749L630.22 364.654L631.147 415.521L649.317 365.702L631.286 422.999L631.802 451.284L658.255 381.876L631.978 461.151L633.128 524.047Z" fill="#116758"/>
<defs>
<linearGradient id="paint0_linear" x1="686" y1="-558.277" x2="-332.974" y2="485.406" gradientUnits="userSpaceOnUse">
<stop offset="0.241248" stop-color="#4BD1C8"/>
<stop offset="0.937707" stop-color="#A6E6E6" stop-opacity="0"/>
<stop offset="1" stop-color="#A6E6E6" stop-opacity="0"/>
<stop offset="1" stop-color="#A6E6E6" stop-opacity="0"/>
</linearGradient>
<clipPath id="clip0">
<rect x="266.829" y="268.974" width="326.213" height="302.046" fill="white"/>
</clipPath>
</defs>
</svg>
