<svg width="702" height="720" viewBox="0 0 702 720" fill="none" xmlns="http://www.w3.org/2000/svg">
<path d="M432.5 2.39923e-06L701.5 1.32729e-05L702.5 721L280 719.571L2.47477e-05 720L432.5 2.39923e-06Z" fill="url(#paint0_linear)"/>
<path d="M29 0L247.5 307.429L432 0H29Z" fill="#E4F8F8" stroke="#ECFAF9"/>
<path d="M431.565 591.792C577.128 591.792 695.13 572.567 695.13 548.851C695.13 525.135 577.128 505.909 431.565 505.909C286.002 505.909 168 525.135 168 548.851C168 572.567 286.002 591.792 431.565 591.792Z" fill="#025E58" fill-opacity="0.18"/>
<g clip-path="url(#clip0)">
<path d="M505.662 442.222V525.66L519.855 548.405L520.935 550.136H576.94L578.071 442.222H505.662Z" fill="#E6E6E6"/>
<path opacity="0.1" d="M505.662 442.222V525.66L519.855 548.405L520.726 442.222H505.662Z" fill="black"/>
<path d="M370.459 439.996V523.435L356.265 546.18L355.185 547.91H299.181L298.049 439.996H370.459Z" fill="#E6E6E6"/>
<path opacity="0.1" d="M370.459 439.996V523.435L356.265 546.18L355.394 439.996H370.459Z" fill="black"/>
<path d="M595.042 438.328V443.334H290.695V436.103L318.98 421.64H570.152L595.042 438.328Z" fill="#E6E6E6"/>
<path opacity="0.1" d="M595.042 438.328V443.334H290.695V436.103L595.042 438.328Z" fill="black"/>
<path d="M334.254 463.359H320.677L315.02 459.466H340.477L334.254 463.359Z" fill="#3F3D56"/>
<path d="M334.254 479.491H320.677L315.02 475.597H340.477L334.254 479.491Z" fill="#3F3D56"/>
<path d="M334.254 502.297H320.677L315.02 498.403H340.477L334.254 502.297Z" fill="#3F3D56"/>
<path d="M334.254 525.104H320.677L315.02 521.21H340.477L334.254 525.104Z" fill="#3F3D56"/>
<path d="M541.866 465.584H555.443L561.1 461.69H535.643L541.866 465.584Z" fill="#3F3D56"/>
<path d="M541.866 481.716H555.443L561.1 477.822H535.643L541.866 481.716Z" fill="#3F3D56"/>
<path d="M541.866 504.522H555.443L561.1 500.629H535.643L541.866 504.522Z" fill="#3F3D56"/>
<path d="M541.866 527.329H555.443L561.1 523.435H535.643L541.866 527.329Z" fill="#3F3D56"/>
<path d="M551.112 325.152H436.814C436.246 325.152 435.684 325.262 435.16 325.475C434.635 325.689 434.159 326.002 433.757 326.397C433.356 326.791 433.037 327.26 432.82 327.776C432.603 328.291 432.491 328.844 432.491 329.402V405.111C432.491 405.669 432.603 406.222 432.82 406.738C433.037 407.253 433.356 407.722 433.757 408.117C434.159 408.511 434.635 408.825 435.16 409.038C435.684 409.252 436.246 409.362 436.814 409.361H480.202L478.577 419.567C478.577 419.567 469.287 424.419 475.819 424.562C482.351 424.705 513.123 424.562 513.123 424.562C513.123 424.562 519.074 424.562 509.639 419.424L508.11 409.361H551.112C551.68 409.362 552.242 409.252 552.766 409.038C553.291 408.825 553.767 408.511 554.169 408.117C554.57 407.722 554.888 407.253 555.106 406.738C555.323 406.222 555.435 405.669 555.435 405.111V329.402C555.435 328.844 555.323 328.291 555.106 327.776C554.888 327.26 554.57 326.791 554.169 326.397C553.767 326.002 553.291 325.689 552.766 325.475C552.242 325.262 551.68 325.152 551.112 325.152Z" fill="#3F3D56"/>
<path d="M551.054 330.504H436.384V393.59H551.054V330.504Z" fill="#F2F2F2"/>
<path d="M493.963 328.363C494.364 328.363 494.688 328.044 494.688 327.65C494.688 327.255 494.364 326.936 493.963 326.936C493.562 326.936 493.237 327.255 493.237 327.65C493.237 328.044 493.562 328.363 493.963 328.363Z" fill="#F2F2F2"/>
<path d="M493.963 406.293C495.486 406.293 496.721 405.079 496.721 403.581C496.721 402.083 495.486 400.869 493.963 400.869C492.44 400.869 491.205 402.083 491.205 403.581C491.205 405.079 492.44 406.293 493.963 406.293Z" fill="#F2F2F2"/>
<path d="M489.665 432.269V433.697H411.574V432.555L411.681 432.269L413.606 427.131H488.069L489.665 432.269Z" fill="#3F3D56"/>
<path d="M519.717 430.872C519.575 431.47 519.038 432.101 517.825 432.698C513.47 434.838 504.616 432.127 504.616 432.127C504.616 432.127 497.794 430.985 497.794 427.988C497.985 427.859 498.185 427.742 498.392 427.638C500.222 426.685 506.293 424.335 517.056 427.737C517.849 427.982 518.557 428.439 519.102 429.056C519.343 429.289 519.525 429.575 519.632 429.891C519.739 430.207 519.768 430.543 519.717 430.872Z" fill="#3F3D56"/>
<path opacity="0.1" d="M519.717 430.872C514.387 432.88 509.636 433.03 504.761 429.7C502.917 428.36 500.684 427.637 498.392 427.638C500.222 426.685 506.293 424.335 517.056 427.737C517.849 427.982 518.557 428.439 519.102 429.056C519.343 429.289 519.525 429.575 519.632 429.891C519.739 430.207 519.768 430.543 519.717 430.872Z" fill="black"/>
<path d="M513.035 429.7C514.077 429.7 514.922 429.445 514.922 429.129C514.922 428.814 514.077 428.558 513.035 428.558C511.992 428.558 511.148 428.814 511.148 429.129C511.148 429.445 511.992 429.7 513.035 429.7Z" fill="#F2F2F2"/>
<path opacity="0.1" d="M489.665 432.269V433.697H411.574V432.555L411.681 432.269H489.665Z" fill="black"/>
<path d="M312.25 270.823C311.457 270.759 310.663 270.933 309.974 271.323C309.297 271.778 308.87 272.577 308.435 273.32C306.769 276.196 304.515 278.7 301.814 280.674C299.847 282.091 297.345 283.858 297.682 286.471C297.86 287.334 298.184 288.161 298.641 288.918C300.456 292.521 305.408 295.304 304.921 299.415C306.724 296.447 304.312 294.979 306.116 292.011C306.974 290.597 308.466 289.002 309.762 289.89C310.196 290.187 310.481 290.72 310.933 290.981C312.012 291.603 313.159 290.413 314.114 289.571C317.406 286.665 322.087 287.426 326.184 288.331C328.118 288.759 330.242 289.32 331.385 291.137C332.888 293.527 329.957 296.108 329.216 298.809C329.156 299.04 329.153 299.281 329.208 299.512C329.263 299.744 329.374 299.959 329.532 300.139C329.69 300.319 329.89 300.459 330.115 300.546C330.34 300.634 330.583 300.667 330.823 300.642C332.052 300.522 333.508 300.425 333.581 299.894C335.128 299.948 337.023 299.776 337.685 298.193C337.888 297.566 337.995 296.914 338.003 296.256C338.246 293.597 339.394 291.17 340.155 288.639C340.915 286.107 341.246 283.14 339.962 280.896C339.504 280.149 338.938 279.472 338.281 278.886C330.997 271.955 321.421 270.812 312.25 270.823Z" fill="#2F2E41"/>
<path d="M306.505 304.607C306.505 304.607 308.089 317.587 302.281 318.625C296.473 319.664 307.561 337.316 307.561 337.316L333.961 340.432L327.625 319.664C327.625 319.664 323.401 318.106 326.041 307.722C328.681 297.338 306.505 304.607 306.505 304.607Z" fill="#FFB8B8"/>
<path d="M290.401 527.602L292.513 556.158H303.601L300.433 527.602H290.401Z" fill="#FFB8B8"/>
<path d="M371.714 473.605L373.298 497.488L385.443 492.296L380.69 472.567L371.714 473.605Z" fill="#FFB8B8"/>
<path d="M282.48 418.571C282.48 418.571 283.008 448.684 286.176 458.549C289.345 468.413 288.816 468.933 288.288 470.49C287.76 472.048 287.232 471.009 287.232 473.605C287.232 476.201 286.176 517.218 287.232 520.852C288.288 524.486 284.064 530.717 287.232 531.236C290.401 531.755 305.185 531.236 305.713 528.121C306.241 525.006 301.489 523.967 303.601 521.891C305.713 519.814 308.881 477.24 308.881 477.24L316.273 447.646L330.001 432.07H359.042L368.018 466.337C368.018 466.337 364.322 476.201 366.962 476.201C369.602 476.201 385.443 479.316 385.443 467.894C385.443 456.472 380.162 422.724 379.106 421.686C378.05 420.647 379.634 417.013 378.05 415.455C376.466 413.898 357.986 402.995 351.122 400.918C344.258 398.841 334.628 396.369 334.628 396.369L282.48 418.571Z" fill="#090909"/>
<path d="M385.443 488.143C385.443 488.143 377.523 485.547 373.826 493.335C370.13 501.123 371.714 503.2 371.714 503.2C371.714 503.2 383.859 507.353 385.971 505.276C386.89 504.373 389.807 504.059 392.811 503.993C397.385 503.892 398.602 497.528 394.282 496.046C394.153 496.002 394.023 495.963 393.891 495.931C389.667 494.892 385.443 488.143 385.443 488.143Z" fill="#2F2E41"/>
<path d="M318.385 313.174C327.134 313.174 334.226 306.2 334.226 297.598C334.226 288.996 327.134 282.022 318.385 282.022C309.637 282.022 302.545 288.996 302.545 297.598C302.545 306.2 309.637 313.174 318.385 313.174Z" fill="#FFB8B8"/>
<path d="M297.793 325.115C297.793 325.115 323.665 330.307 330.002 322C336.338 313.693 338.978 345.364 338.978 345.364L342.146 378.592L337.394 396.764C337.394 396.764 312.577 416.494 304.657 418.051C296.737 419.609 284.593 420.647 284.593 420.647C284.593 420.647 288.289 363.017 288.289 361.978C288.289 360.94 297.793 325.115 297.793 325.115Z" fill="#FBFFFB"/>
<path d="M305.661 315.378C305.661 315.378 299.905 312.135 298.321 315.251C296.737 318.366 281.952 326.154 280.368 326.154C278.784 326.154 283.536 369.247 281.424 374.439C279.312 379.631 269.28 417.532 275.088 420.647C280.896 423.762 276.672 417.532 282.48 425.32C288.289 433.108 316.801 433.108 318.385 429.993C319.969 426.878 305.713 403.514 308.353 381.708C310.993 359.901 315.217 329.788 311.521 325.634C307.825 321.481 305.661 315.378 305.661 315.378Z" fill="#00859E"/>
<path d="M324.722 318.885L325.457 316.396C325.457 316.396 347.426 323.558 348.482 328.23C349.538 332.903 349.01 365.613 345.314 368.209C341.618 370.805 336.338 374.958 340.034 381.188C343.73 387.419 347.954 394.168 351.122 394.688C354.29 395.207 360.098 398.841 358.514 402.475C356.93 406.11 337.922 399.36 337.922 399.36C337.922 399.36 325.25 390.015 325.778 375.477C326.306 360.94 324.722 318.885 324.722 318.885Z" fill="#00859E"/>
<path d="M343.202 380.15L330.529 403.514C330.529 403.514 312.049 422.205 322.609 424.282C333.17 426.358 338.978 407.148 338.978 407.148L352.706 387.938L343.202 380.15Z" fill="#FFB8B8"/>
<path d="M313.021 274.898C312.383 274.852 311.743 274.974 311.169 275.251C310.649 275.624 310.221 276.107 309.916 276.663C308.507 278.747 306.671 280.517 304.526 281.861C302.924 282.863 300.888 284.112 301.162 285.958C301.311 286.577 301.576 287.164 301.943 287.688C303.425 290.26 304.016 293.236 303.624 296.168L308.028 289.874C308.727 288.875 309.941 287.747 310.996 288.374C311.35 288.585 311.582 288.961 311.95 289.146C312.828 289.585 313.762 288.745 314.539 288.149C317.218 286.095 321.029 286.633 324.364 287.273C325.938 287.575 327.668 287.972 328.598 289.256C330.145 291.391 328.53 294.476 329.432 296.942C329.685 296.768 329.9 296.546 330.063 296.289C330.227 296.032 330.337 295.745 330.386 295.446C331.645 295.484 333.187 295.362 333.727 294.243C333.891 293.804 333.978 293.342 333.985 292.874C334.183 290.994 335.118 289.279 335.737 287.49C336.356 285.701 336.625 283.604 335.58 282.018C335.198 281.48 334.737 281.001 334.212 280.597C328.282 275.699 320.487 274.891 313.021 274.898Z" fill="#2F2E41"/>
<path d="M344.227 326.137L349.147 327.421C349.147 327.421 360.595 356.25 357.955 375.98C355.315 395.709 353.731 391.556 353.731 391.556C353.731 391.556 349.507 382.21 340.003 384.287L344.227 326.137Z" fill="#00859E" stroke="#828282" stroke-width="0.3"/>
<path d="M291.132 552.384C289.859 554.085 290.114 556.517 288.986 558.315C288.009 559.873 286.166 560.69 284.943 562.071C284.553 562.53 284.205 563.022 283.904 563.542C282.77 565.41 281.847 567.805 282.965 569.683C283.863 571.194 285.753 571.785 287.485 572.187C289.675 572.696 291.95 573.103 294.165 572.714C296.38 572.326 298.545 570.992 299.335 568.92C299.49 568.399 299.675 567.887 299.888 567.386C301.088 565.062 304.854 565.037 306.083 562.727C306.943 561.111 306.152 559.157 305.362 557.506L302.949 552.465C302.148 550.792 298.902 551.754 297.209 551.353C295.002 550.83 292.72 550.254 291.132 552.384Z" fill="#2F2E41"/>
<path d="M273.504 390.534L295.681 424.282C295.681 424.282 309.409 441.415 313.633 433.627C317.857 425.839 298.849 412.859 298.849 412.859L284.592 386.9L273.504 390.534Z" fill="#FFB8B8"/>
<path d="M284.592 327.192L280.368 326.154C280.368 326.154 271.92 328.75 269.808 339.653C267.696 350.556 269.28 394.168 271.92 394.687C274.56 395.207 284.959 387.094 286.624 388.814C288.289 390.534 283.008 381.708 284.592 377.035C286.176 372.362 284.592 327.192 284.592 327.192Z" fill="#00859E"/>
<path d="M471.597 352.04H460.021V354.224H471.597V352.04Z" fill="#6C63FF"/>
<path d="M487.032 352.04H475.456V354.224H487.032V352.04Z" fill="#6C63FF"/>
<path d="M509.46 360.955H497.884V363.138H509.46V360.955Z" fill="#6C63FF"/>
<path d="M525.136 360.955H513.56V363.138H525.136V360.955Z" fill="#6C63FF"/>
<path d="M525.351 352.339H491.247V354.522H525.351V352.339Z" fill="#6C63FF"/>
<path d="M494.025 360.955H460.021V363.138H494.025V360.955Z" fill="#6C63FF"/>
<path d="M494.025 369.869H460.021V372.052H476.419H494.025V369.869Z" fill="#6C63FF"/>
<path d="M525.136 369.869H501.501V372.052H525.136V369.869Z" fill="#6C63FF"/>
<path d="M456.767 358.889L452.695 353.431L456.767 347.972L457.582 349.064L454.324 353.431L457.582 357.797L456.767 358.889Z" fill="#6C63FF"/>
<path d="M535.804 376.357L534.989 375.265L538.247 370.898L534.989 366.532L535.804 365.44L539.877 370.898L535.804 376.357Z" fill="#6C63FF"/>
<path d="M532.232 365.44L529.058 375.903L530.475 376.332L533.649 365.868L532.232 365.44Z" fill="#6C63FF"/>
</g>
<path d="M635.128 525.895L658.134 473.639L635.229 531.493L635.334 537.348C633.619 537.384 631.919 537.357 630.236 537.268L630.685 461.983L630.647 461.403L630.689 461.29L630.733 454.176L604.466 398.772L630.652 448.853L630.757 450.356L631.096 393.476L608.317 335.993L631.064 383.484L629.71 265.662L629.707 265.27L629.718 265.656L632.078 358.503L651.978 320.597L632.22 366.503L633.147 417.369L651.317 367.55L633.286 424.848L633.802 453.132L660.255 383.724L633.978 462.999L635.128 525.895Z" fill="#116758"/>
<defs>
<linearGradient id="paint0_linear" x1="686" y1="-557.429" x2="-332.974" y2="486.254" gradientUnits="userSpaceOnUse">
<stop offset="0.241248" stop-color="#4BD1C8"/>
<stop offset="0.937707" stop-color="#A6E6E6" stop-opacity="0"/>
<stop offset="1" stop-color="#A6E6E6" stop-opacity="0"/>
<stop offset="1" stop-color="#A6E6E6" stop-opacity="0"/>
</linearGradient>
<clipPath id="clip0">
<rect x="268.829" y="270.823" width="326.213" height="302.046" fill="white"/>
</clipPath>
</defs>
</svg>
