<svg width="auto" height="auto" viewBox="0 0 528 327" fill="none" xmlns="http://www.w3.org/2000/svg">
<path d="M263.565 326.792C409.128 326.792 527.13 307.567 527.13 283.851C527.13 260.135 409.128 240.909 263.565 240.909C118.002 240.909 0 260.135 0 283.851C0 307.567 118.002 326.792 263.565 326.792Z" fill="#025E58" fill-opacity="0.18"/>
<g clip-path="url(#clip0)">
<path d="M337.662 177.222V260.66L351.855 283.405L352.936 285.136H408.94L410.071 177.222H337.662Z" fill="#E6E6E6"/>
<path opacity="0.1" d="M337.662 177.222V260.66L351.855 283.405L352.726 177.222H337.662Z" fill="black"/>
<path d="M202.459 174.996V258.435L188.265 281.18L187.185 282.91H131.181L130.049 174.996H202.459Z" fill="#E6E6E6"/>
<path opacity="0.1" d="M202.459 174.996V258.435L188.265 281.18L187.394 174.996H202.459Z" fill="black"/>
<path d="M427.042 173.328V178.334H122.695V171.103L150.98 156.64H402.152L427.042 173.328Z" fill="#E6E6E6"/>
<path opacity="0.1" d="M427.042 173.328V178.334H122.695V171.103L427.042 173.328Z" fill="black"/>
<path d="M166.254 198.359H152.677L147.02 194.466H172.477L166.254 198.359Z" fill="#3F3D56"/>
<path d="M166.254 214.491H152.677L147.02 210.597H172.477L166.254 214.491Z" fill="#3F3D56"/>
<path d="M166.254 237.298H152.677L147.02 233.403H172.477L166.254 237.298Z" fill="#3F3D56"/>
<path d="M166.254 260.104H152.677L147.02 256.21H172.477L166.254 260.104Z" fill="#3F3D56"/>
<path d="M373.866 200.584H387.443L393.1 196.69H367.643L373.866 200.584Z" fill="#3F3D56"/>
<path d="M373.866 216.716H387.443L393.1 212.822H367.643L373.866 216.716Z" fill="#3F3D56"/>
<path d="M373.866 239.523H387.443L393.1 235.629H367.643L373.866 239.523Z" fill="#3F3D56"/>
<path d="M373.866 262.329H387.443L393.1 258.435H367.643L373.866 262.329Z" fill="#3F3D56"/>
<path d="M383.112 60.1519H268.814C268.246 60.1518 267.684 60.2617 267.16 60.4753C266.635 60.6888 266.159 61.0019 265.757 61.3966C265.356 61.7913 265.037 62.2599 264.82 62.7756C264.603 63.2914 264.491 63.8441 264.491 64.4023V140.111C264.491 140.669 264.603 141.222 264.82 141.738C265.037 142.253 265.356 142.722 265.757 143.117C266.159 143.511 266.635 143.825 267.16 144.038C267.684 144.252 268.246 144.362 268.814 144.361H312.202L310.577 154.567C310.577 154.567 301.287 159.419 307.819 159.562C314.351 159.705 345.123 159.562 345.123 159.562C345.123 159.562 351.074 159.562 341.639 154.424L340.11 144.361H383.112C383.68 144.362 384.242 144.252 384.766 144.038C385.291 143.825 385.767 143.511 386.169 143.117C386.57 142.722 386.889 142.253 387.106 141.738C387.323 141.222 387.435 140.669 387.435 140.111V64.4023C387.435 63.8441 387.323 63.2914 387.106 62.7756C386.889 62.2599 386.57 61.7913 386.169 61.3966C385.767 61.0019 385.291 60.6888 384.766 60.4753C384.242 60.2617 383.68 60.1518 383.112 60.1519Z" fill="#3F3D56"/>
<path d="M383.054 65.504H268.384V128.59H383.054V65.504Z" fill="#F2F2F2"/>
<path d="M325.963 63.3633C326.364 63.3633 326.688 63.0438 326.688 62.6497C326.688 62.2555 326.364 61.936 325.963 61.936C325.562 61.936 325.237 62.2555 325.237 62.6497C325.237 63.0438 325.562 63.3633 325.963 63.3633Z" fill="#F2F2F2"/>
<path d="M325.963 141.293C327.486 141.293 328.721 140.079 328.721 138.581C328.721 137.083 327.486 135.869 325.963 135.869C324.44 135.869 323.205 137.083 323.205 138.581C323.205 140.079 324.44 141.293 325.963 141.293Z" fill="#F2F2F2"/>
<path d="M321.665 167.269V168.697H243.574V167.555L243.681 167.269L245.606 162.131H320.069L321.665 167.269Z" fill="#3F3D56"/>
<path d="M351.717 165.872C351.575 166.47 351.038 167.101 349.825 167.698C345.47 169.839 336.616 167.127 336.616 167.127C336.616 167.127 329.794 165.985 329.794 162.988C329.985 162.859 330.185 162.742 330.392 162.638C332.223 161.686 338.293 159.335 349.056 162.737C349.849 162.982 350.557 163.439 351.102 164.056C351.343 164.289 351.525 164.575 351.632 164.891C351.739 165.207 351.768 165.543 351.717 165.872Z" fill="#3F3D56"/>
<path opacity="0.1" d="M351.717 165.872C346.387 167.88 341.637 168.03 336.761 164.7C334.917 163.36 332.685 162.637 330.392 162.638C332.222 161.686 338.293 159.335 349.056 162.737C349.849 162.982 350.557 163.439 351.102 164.056C351.343 164.289 351.525 164.575 351.632 164.891C351.739 165.207 351.768 165.543 351.717 165.872Z" fill="black"/>
<path d="M345.035 164.7C346.077 164.7 346.922 164.445 346.922 164.129C346.922 163.814 346.077 163.558 345.035 163.558C343.992 163.558 343.148 163.814 343.148 164.129C343.148 164.445 343.992 164.7 345.035 164.7Z" fill="#F2F2F2"/>
<path opacity="0.1" d="M321.665 167.269V168.697H243.574V167.555L243.681 167.269H321.665Z" fill="black"/>
<path d="M144.25 5.82263C143.457 5.75865 142.664 5.93297 141.974 6.32251C141.297 6.77841 140.87 7.5771 140.435 8.32033C138.769 11.1959 136.515 13.7001 133.814 15.6742C131.847 17.0913 129.346 18.8583 129.682 21.4711C129.86 22.334 130.184 23.1613 130.641 23.9182C132.456 27.5206 137.408 30.3044 136.921 34.415C138.724 31.4468 136.312 29.9792 138.116 27.011C138.974 25.5975 140.466 24.0019 141.762 24.8896C142.196 25.1868 142.482 25.7199 142.934 25.9807C144.012 26.603 145.159 25.4133 146.114 24.5706C149.406 21.6648 154.087 22.4261 158.184 23.3314C160.118 23.7589 162.242 24.3197 163.385 26.1372C164.888 28.5268 161.957 31.1077 161.216 33.8094C161.156 34.0396 161.153 34.2808 161.208 34.5123C161.263 34.7439 161.374 34.9588 161.532 35.1389C161.69 35.319 161.89 35.4587 162.115 35.5463C162.34 35.6338 162.583 35.6665 162.823 35.6415C164.052 35.5223 165.508 35.4246 165.581 34.8942C167.128 34.9483 169.023 34.7761 169.685 33.1927C169.888 32.5662 169.995 31.9137 170.003 31.2563C170.246 28.5965 171.394 26.17 172.155 23.6385C172.915 21.107 173.246 18.1402 171.962 15.8958C171.504 15.149 170.938 14.472 170.281 13.8862C162.997 6.95533 153.421 5.81235 144.25 5.82263Z" fill="#2F2E41"/>
<path d="M138.505 39.6071C138.505 39.6071 140.089 52.587 134.281 53.6254C128.473 54.6638 139.561 72.3164 139.561 72.3164L165.962 75.4316L159.625 54.6637C159.625 54.6637 155.401 53.1062 158.041 42.7222C160.681 32.3383 138.505 39.6071 138.505 39.6071Z" fill="#FFB8B8"/>
<path d="M122.401 262.602L124.513 291.158H135.601L132.433 262.602H122.401Z" fill="#FFB8B8"/>
<path d="M203.714 208.605L205.298 232.488L217.443 227.297L212.69 207.567L203.714 208.605Z" fill="#FFB8B8"/>
<path d="M114.48 153.571C114.48 153.571 115.008 183.684 118.176 193.549C121.345 203.413 120.817 203.933 120.289 205.49C119.761 207.048 119.232 206.009 119.232 208.605C119.232 211.201 118.176 252.218 119.232 255.852C120.289 259.487 116.064 265.717 119.232 266.236C122.401 266.755 137.185 266.236 137.713 263.121C138.241 260.006 133.489 258.967 135.601 256.891C137.713 254.814 140.881 212.24 140.881 212.24L148.273 182.646L162.001 167.07H191.042L200.018 201.337C200.018 201.337 196.322 211.201 198.962 211.201C201.602 211.201 217.443 214.317 217.443 202.894C217.443 191.472 212.163 157.724 211.106 156.686C210.05 155.647 211.634 152.013 210.05 150.455C208.466 148.898 189.986 137.995 183.122 135.918C176.258 133.841 166.628 131.369 166.628 131.369L114.48 153.571Z" fill="#090909"/>
<path d="M217.443 223.143C217.443 223.143 209.523 220.547 205.826 228.335C202.13 236.123 203.714 238.2 203.714 238.2C203.714 238.2 215.859 242.353 217.971 240.276C218.89 239.373 221.808 239.059 224.811 238.993C229.385 238.892 230.603 232.528 226.282 231.046C226.153 231.002 226.023 230.963 225.891 230.931C221.667 229.892 217.443 223.143 217.443 223.143Z" fill="#2F2E41"/>
<path d="M150.385 48.1739C159.134 48.1739 166.226 41.2003 166.226 32.598C166.226 23.9957 159.134 17.0221 150.385 17.0221C141.637 17.0221 134.545 23.9957 134.545 32.598C134.545 41.2003 141.637 48.1739 150.385 48.1739Z" fill="#FFB8B8"/>
<path d="M129.793 60.1153C129.793 60.1153 155.665 65.3072 162.002 57.0001C168.338 48.693 170.978 80.3639 170.978 80.3639L174.146 113.592L169.394 131.764C169.394 131.764 144.577 151.494 136.657 153.051C128.737 154.609 116.593 155.647 116.593 155.647C116.593 155.647 120.289 98.0166 120.289 96.9782C120.289 95.9398 129.793 60.1153 129.793 60.1153Z" fill="#FBFFFB"/>
<path d="M137.661 50.3779C137.661 50.3779 131.905 47.1354 130.321 50.2506C128.737 53.3657 113.952 61.1537 112.368 61.1537C110.784 61.1537 115.537 104.247 113.424 109.439C111.312 114.631 101.28 152.532 107.088 155.647C112.896 158.763 108.672 152.532 114.48 160.32C120.289 168.108 148.801 168.108 150.385 164.993C151.969 161.878 137.713 138.514 140.353 116.708C142.993 94.9014 147.217 64.7881 143.521 60.6345C139.825 56.4809 137.661 50.3779 137.661 50.3779Z" fill="#00859E"/>
<path d="M156.722 53.8849L157.457 51.3961C157.457 51.3961 179.426 58.5577 180.482 63.2304C181.538 67.9032 181.01 100.613 177.314 103.209C173.618 105.805 168.338 109.958 172.034 116.188C175.73 122.419 179.954 129.168 183.122 129.688C186.29 130.207 192.098 133.841 190.514 137.475C188.93 141.11 169.922 134.36 169.922 134.36C169.922 134.36 157.25 125.015 157.778 110.477C158.306 95.9398 156.722 53.8849 156.722 53.8849Z" fill="#00859E"/>
<path d="M175.202 115.15L162.53 138.514C162.53 138.514 144.049 157.205 154.609 159.282C165.17 161.359 170.978 142.148 170.978 142.148L184.706 122.938L175.202 115.15Z" fill="#FFB8B8"/>
<path d="M145.021 9.89809C144.383 9.85157 143.743 9.97355 143.169 10.2514C142.649 10.6244 142.221 11.1069 141.916 11.6634C140.507 13.7465 138.671 15.517 136.526 16.8611C134.925 17.8627 132.889 19.1116 133.163 20.9583C133.311 21.5775 133.576 22.164 133.943 22.6879C135.426 25.2598 136.016 28.2365 135.624 31.1676L140.028 24.8739C140.727 23.8748 141.941 22.7471 142.996 23.3745C143.35 23.5846 143.582 23.9614 143.95 24.1457C144.828 24.5855 145.762 23.7447 146.539 23.1491C149.219 21.0953 153.029 21.6333 156.364 22.2732C157.938 22.5753 159.668 22.9717 160.598 24.2563C162.145 26.3911 160.53 29.4756 161.433 31.9418C161.685 31.7679 161.9 31.5458 162.064 31.2888C162.227 31.0318 162.337 30.7451 162.386 30.4457C163.645 30.4839 165.187 30.3622 165.727 29.2431C165.891 28.8045 165.978 28.3417 165.985 27.8745C166.183 25.9945 167.118 24.2795 167.737 22.4902C168.356 20.701 168.625 18.6041 167.58 17.0177C167.198 16.4802 166.737 16.0015 166.212 15.5973C160.283 10.6987 152.487 9.89082 145.021 9.89809Z" fill="#2F2E41"/>
<path d="M176.227 61.1372L181.147 62.4212C181.147 62.4212 192.595 91.2506 189.955 110.98C187.315 130.71 185.731 126.556 185.731 126.556C185.731 126.556 181.507 117.21 172.003 119.287L176.227 61.1372Z" fill="#00859E" stroke="#828282" stroke-width="0.3"/>
<path d="M123.132 287.384C121.859 289.085 122.114 291.517 120.986 293.315C120.009 294.873 118.166 295.691 116.943 297.072C116.553 297.53 116.205 298.022 115.904 298.542C114.77 300.41 113.848 302.805 114.965 304.683C115.863 306.194 117.753 306.785 119.485 307.187C121.675 307.696 123.95 308.103 126.165 307.714C128.38 307.326 130.545 305.992 131.335 303.92C131.49 303.399 131.675 302.887 131.888 302.386C133.088 300.062 136.854 300.037 138.083 297.727C138.943 296.111 138.152 294.157 137.362 292.506L134.949 287.465C134.148 285.792 130.902 286.754 129.209 286.353C127.002 285.831 124.72 285.254 123.132 287.384Z" fill="#2F2E41"/>
<path d="M105.504 125.534L127.681 159.282C127.681 159.282 141.409 176.415 145.633 168.627C149.857 160.839 130.849 147.859 130.849 147.859L116.592 121.9L105.504 125.534Z" fill="#FFB8B8"/>
<path d="M116.593 62.1921L112.368 61.1537C112.368 61.1537 103.92 63.7497 101.808 74.6528C99.6962 85.5559 101.28 129.168 103.92 129.688C106.56 130.207 116.959 122.094 118.624 123.814C120.289 125.534 115.009 116.708 116.593 112.035C118.177 107.362 116.593 62.1921 116.593 62.1921Z" fill="#00859E"/>
<path d="M303.597 87.0404H292.021V89.2239H303.597V87.0404Z" fill="#6C63FF"/>
<path d="M319.032 87.0404H307.456V89.2239H319.032V87.0404Z" fill="#6C63FF"/>
<path d="M341.46 95.9547H329.884V98.1382H341.46V95.9547Z" fill="#6C63FF"/>
<path d="M357.136 95.9547H345.56V98.1382H357.136V95.9547Z" fill="#6C63FF"/>
<path d="M357.351 87.3387H323.247V89.5222H357.351V87.3387Z" fill="#6C63FF"/>
<path d="M326.025 95.9547H292.021V98.1382H326.025V95.9547Z" fill="#6C63FF"/>
<path d="M326.025 104.869H292.021V107.052H308.419H326.025V104.869Z" fill="#6C63FF"/>
<path d="M357.136 104.869H333.501V107.052H357.136V104.869Z" fill="#6C63FF"/>
<path d="M288.767 93.8891L284.695 88.4307L288.767 82.9718L289.582 84.0639L286.324 88.4307L289.582 92.7971L288.767 93.8891Z" fill="#6C63FF"/>
<path d="M367.804 111.357L366.99 110.265L370.247 105.898L366.99 101.532L367.804 100.44L371.877 105.898L367.804 111.357Z" fill="#6C63FF"/>
<path d="M364.232 100.439L361.058 110.903L362.475 111.332L365.649 100.868L364.232 100.439Z" fill="#6C63FF"/>
</g>
<path d="M467.128 260.895L490.134 208.639L467.229 266.493L467.334 272.348C465.618 272.384 463.919 272.357 462.236 272.268L462.685 196.983L462.647 196.403L462.689 196.29L462.733 189.176L436.466 133.772L462.652 183.853L462.757 185.356L463.096 128.476L440.317 70.9926L463.064 118.484L461.71 0.662073L461.707 0.269919L461.718 0.655529L464.078 93.5034L483.978 55.5971L464.22 101.503L465.147 152.369L483.317 102.55L465.286 159.847L465.802 188.132L492.255 118.724L465.978 197.999L467.128 260.895Z" fill="#116758"/>
<defs>
<clipPath id="clip0">
<rect x="100.83" y="5.82263" width="326.213" height="302.046" fill="white"/>
</clipPath>
</defs>
</svg>
