<svg width="70" height="70" viewBox="0 0 710 710" fill="none" xmlns="http://www.w3.org/2000/svg">
<path d="M355 710C551.061 710 710 551.061 710 355C710 158.939 551.061 0 355 0C158.939 0 0 158.939 0 355C0 551.061 158.939 710 355 710Z" fill="#E7F8F8"/>
<g clip-path="url(#clip0)">
<path d="M565 403.597H517.452L532.589 370.127H549.864L565 403.597Z" fill="#E1E6E9"/>
<path d="M554.585 403.597H527.867L536.373 370.127H546.079L554.585 403.597Z" fill="#EBF0F3"/>
<path d="M545.126 403.597H537.326L539.81 370.127H542.643L545.126 403.597Z" fill="#D5D6DB"/>
<path d="M223.591 375.661V375.453C223.439 375.526 223.282 375.587 223.128 375.661H223.591Z" fill="#3A556A"/>
<path d="M223.591 209.557V359.206C223.591 366.737 231.227 371.794 238.189 368.919C305.323 341.191 380.924 341.242 448.021 369.088C454.984 371.977 462.635 366.921 462.635 359.382V209.557H223.591Z" fill="#3A556A"/>
<path d="M536.781 201.442L344.461 155.449C343.575 155.236 342.652 155.236 341.766 155.449L149.445 201.442C143.518 202.859 143.518 211.292 149.445 212.71L341.765 258.703C342.652 258.916 343.574 258.916 344.46 258.703L536.78 212.71C542.708 211.292 542.708 202.859 536.781 201.442Z" fill="#64798A"/>
<path d="M546.51 347.652H535.944V212.358H339.711L348.847 201.792H546.51V347.652Z" fill="#3A556A"/>
<path d="M541.2 373.654C549.813 373.654 556.796 365.578 556.796 355.616C556.796 345.654 549.813 337.578 541.2 337.578C532.586 337.578 525.604 345.654 525.604 355.616C525.604 365.578 532.586 373.654 541.2 373.654Z" fill="#2D93BA"/>
<path d="M541.2 373.654C546.272 373.654 550.384 365.578 550.384 355.616C550.384 345.654 546.272 337.578 541.2 337.578C536.127 337.578 532.016 345.654 532.016 355.616C532.016 365.578 536.127 373.654 541.2 373.654Z" fill="#27A2DB"/>
<path d="M541.199 373.654C542.764 373.654 544.033 365.578 544.033 355.616C544.033 345.654 542.764 337.578 541.199 337.578C539.635 337.578 538.366 345.654 538.366 355.616C538.366 365.578 539.635 373.654 541.199 373.654Z" fill="#2D93BA"/>
<path d="M425.356 411.513C475.162 408.459 460.677 473.8 460.677 473.8H382.842L403.506 419.918L425.356 411.513Z" fill="#EBF0F3"/>
<path d="M425.356 411.513H158.22C140.593 429.139 140.593 493.592 158.22 511.217H426.451C408.824 493.592 406.513 416.665 425.356 411.513Z" fill="white"/>
<path d="M412.136 460.717C412.136 481.236 416.542 501.756 425.356 510.569C425.356 510.569 448.379 527.495 449.926 460.717H412.136Z" fill="#D5D6DB"/>
<path d="M304.539 500.261L304.37 500.357V411.41H265.985V500.524L235.085 542.29L252.153 537.671L256.88 554.71L285.336 517.232L313.792 554.71L318.52 537.671L335.587 542.29L304.539 500.261Z" fill="#E56353"/>
</g>
<defs>
<clipPath id="clip0">
<rect x="145" y="145" width="420" height="420" fill="white"/>
</clipPath>
</defs>
</svg>
