<svg width="70" height="70" viewBox="0 0 710 710" fill="none" xmlns="http://www.w3.org/2000/svg">
<path d="M355 710C551.061 710 710 551.061 710 355C710 158.939 551.061 0 355 0C158.939 0 0 158.939 0 355C0 551.061 158.939 710 355 710Z" fill="#E7F8F8"/>
<g clip-path="url(#clip0)">
<path d="M544.157 215.57H165.843C157.649 215.57 151 222.211 151 230.413V415.704L165.423 424.715H544.577L559 415.704V230.413C559 222.211 552.35 215.57 544.157 215.57V215.57Z" fill="#2B3890"/>
<path d="M544.158 215.57H529.092C537.284 215.57 543.934 222.211 543.934 230.413V424.716H544.577L559 415.704V230.413C559 222.211 552.35 215.57 544.158 215.57V215.57Z" fill="#242E7A"/>
<path d="M559 415.704V467.43C559 475.632 552.351 482.281 544.157 482.281H165.843C157.649 482.28 151 475.631 151 467.429V415.703H559V415.704Z" fill="#DAE7EF"/>
<path d="M543.934 415.703V467.43C543.934 475.632 537.284 482.281 529.092 482.281H544.158C552.35 482.281 559 475.632 559 467.43V415.703H543.934Z" fill="#C1D5E4"/>
<path d="M173.986 415.707V241.131C173.986 239.707 175.14 238.553 176.564 238.553H533.437C534.861 238.553 536.015 239.707 536.015 241.131V415.708H173.986V415.707Z" fill="#B1E4F9"/>
<path d="M519.932 238.553V415.707H536.014V241.131C536.014 239.707 534.86 238.553 533.436 238.553H519.932Z" fill="#90D8F9"/>
<path d="M362.673 455.59H347.326C343.682 455.59 340.728 452.636 340.728 448.991C340.728 445.346 343.682 442.392 347.326 442.392H362.673C366.318 442.392 369.272 445.346 369.272 448.991C369.271 452.636 366.318 455.59 362.673 455.59Z" fill="#242E7A"/>
<path d="M436.103 559H273.897C271.998 559 270.678 557.112 271.328 555.328L275.034 545.172C276.755 540.458 282.074 537.226 288.111 537.226H421.888C427.925 537.226 433.244 540.458 434.965 545.172L438.671 555.328C439.322 557.112 438.002 559 436.103 559V559Z" fill="#DAE7EF"/>
<path d="M392.093 482.28H317.907C324.731 503.846 318.521 523.256 299.274 537.226H410.725C391.479 523.256 385.268 503.847 392.093 482.28Z" fill="#C1D5E4"/>
<path d="M317.907 482.28C319.619 487.688 320.51 492.961 320.582 498.048H389.42C389.491 492.962 390.382 487.689 392.094 482.28H317.907Z" fill="#98B9D3"/>
<g clip-path="url(#clip1)">
<path d="M279.983 230.977H263.412V247.366H223.351V267.397C223.351 269.408 224.981 271.039 226.993 271.039V283.968C226.993 291.511 233.107 297.625 240.65 297.625H253.397C260.94 297.625 267.054 291.511 267.054 283.968V276.502H250.743C249.272 276.502 248.006 275.371 247.937 273.902C247.863 272.333 249.113 271.039 250.665 271.039H279.983C287.526 271.039 293.641 264.924 293.641 257.381V244.634C293.641 237.092 287.526 230.977 279.983 230.977Z" fill="#FEEF55"/>
<path d="M279.983 230.977H263.412V247.366H247.023V297.625H253.397C260.94 297.625 267.054 291.511 267.054 283.968V276.502H250.743C249.272 276.502 248.006 275.371 247.937 273.902C247.863 272.333 249.113 271.039 250.665 271.039H279.983C287.526 271.039 293.641 264.924 293.641 257.381V244.634C293.641 237.092 287.526 230.977 279.983 230.977Z" fill="#FEDC00"/>
<path d="M234.277 251.008H259.77C263.793 251.008 267.054 247.746 267.054 243.724V218.048C267.054 210.517 260.928 204.391 253.397 204.391H240.65C233.119 204.391 226.993 210.517 226.993 218.048V225.514H243.381C244.89 225.514 246.113 226.737 246.113 228.246C246.113 229.754 244.89 230.977 243.381 230.977H214.064C206.533 230.977 200.406 237.104 200.406 244.634V257.381C200.406 264.912 206.533 271.039 214.064 271.039H226.993V258.292C226.993 254.269 230.254 251.008 234.277 251.008Z" fill="#78E0EA"/>
<path d="M253.397 204.391H247.023V251.008H259.77C263.793 251.008 267.054 247.746 267.054 243.724V218.048C267.054 210.517 260.928 204.391 253.397 204.391Z" fill="#3CCCDD"/>
<path d="M243.382 215.499C243.382 217.007 242.159 218.23 240.65 218.23C239.142 218.23 237.919 217.007 237.919 215.499C237.919 213.99 239.142 212.767 240.65 212.767C242.159 212.767 243.382 213.99 243.382 215.499Z" fill="#5A5A6E"/>
<path d="M256.128 286.517C256.128 288.026 254.905 289.248 253.397 289.248C251.888 289.248 250.665 288.026 250.665 286.517C250.665 285.008 251.888 283.786 253.397 283.786C254.905 283.786 256.128 285.008 256.128 286.517Z" fill="#46465A"/>
</g>
<g clip-path="url(#clip2)">
<path d="M501.625 251.008C501.625 276.754 480.754 297.625 455.008 297.625C431.254 297.625 411.65 279.859 408.76 256.889C408.516 254.964 408.391 253 408.391 251.008C408.391 247.358 408.809 243.806 409.603 240.398C414.405 219.765 432.911 204.391 455.008 204.391C477.049 204.391 495.519 219.689 500.375 240.246C501.012 242.934 501.414 245.713 501.56 248.557C501.604 249.369 501.625 250.186 501.625 251.008Z" fill="#F2F2F2"/>
<path d="M452.676 254.752V242.631L442.18 236.571L431.684 242.631V254.752L442.18 260.812L452.676 254.752Z" fill="#3B8739"/>
<path d="M494.014 252.912L500.855 256.863L494.014 260.813L483.519 254.752V242.632L494.014 236.572L500.375 240.246C501.012 242.934 501.414 245.712 501.56 248.557L497.671 250.802V246.58L494.014 244.47L490.357 246.58V250.802L494.014 252.912Z" fill="#333333"/>
<path d="M496.052 249.868V247.515L494.014 246.339L491.977 247.515V249.868L494.014 251.044L496.052 249.868Z" fill="#66A060"/>
<path d="M426.725 242.632V258.615L419.725 254.621V246.428L416.23 244.409L412.735 246.428V254.621L408.76 256.889C408.516 254.964 408.391 253 408.391 251.008C408.391 247.358 408.809 243.806 409.603 240.398L416.23 236.572L426.725 242.632Z" fill="#333333"/>
<path d="M452.675 254.75L442.179 236.571L431.683 242.631L442.179 260.81L452.675 254.75Z" fill="#6DA75D"/>
<path d="M431.684 254.752L435.288 248.874L431.684 242.631V254.752Z" fill="#55A344"/>
<path d="M449.177 248.691L452.676 242.631L442.18 236.571L449.177 248.691Z" fill="#639D57"/>
<path d="M471.497 222.524V238.604L467.979 236.572L457.481 242.632V254.752L467.979 260.813L478.474 254.752V226.259L471.497 222.524ZM471.478 250.711L467.979 252.732L464.479 250.711V246.672L467.979 244.651L471.478 246.672V250.711Z" fill="#333333"/>
<path d="M459.77 269.713C459.77 269.713 459.564 267.941 457.669 267.941C455.773 267.941 454.476 268.188 454.476 269.239C454.476 270.289 458.163 270.289 459.564 270.701C460.965 271.113 462.201 272.184 461.583 274.08C460.965 275.975 459.069 276.181 456.144 276.181C453.219 276.181 452.56 273.75 452.56 272.803H454.208C454.208 272.803 454.001 274.286 455.938 274.533C457.874 274.78 459.726 274.919 459.976 273.421C460.305 271.443 453.713 272.432 453.136 270.495C452.649 268.859 452.93 266.705 456.226 266.375C459.522 266.045 461.335 267.501 461.335 269.671L459.77 269.713Z" fill="#66A060"/>
<path d="M443.85 277.436L447.493 279.539C449.324 280.596 451.612 279.275 451.612 277.161V273.475V266.692H450.127V276.748C450.127 277.903 448.878 278.624 447.878 278.047L445.335 276.579V265.846L454.629 260.48L463.924 265.846V276.579L454.629 281.945L451.952 280.399L450.203 281.104L454.629 283.659L465.409 277.435V264.989L454.629 258.765L443.85 264.989V277.436H443.85Z" fill="#66A060"/>
</g>
<g clip-path="url(#clip3)">
<path d="M483.297 354.602C483.297 360.675 482.136 366.477 480.022 371.799C478.892 374.645 477.49 377.355 475.846 379.893C473.798 383.059 471.376 385.961 468.644 388.533C467.044 390.042 465.339 391.437 463.539 392.708C455.947 398.07 446.682 401.219 436.68 401.219C426.677 401.219 417.413 398.07 409.821 392.708C407.568 391.117 405.463 389.334 403.532 387.378C395.204 378.958 390.062 367.378 390.062 354.602C390.062 341.825 395.204 330.245 403.532 321.825C405.577 319.755 407.817 317.877 410.22 316.218C417.736 311.025 426.852 307.984 436.68 307.984C446.507 307.984 455.623 311.025 463.139 316.218C464.975 317.483 466.715 318.88 468.345 320.392C471.201 323.033 473.724 326.03 475.846 329.31C477.49 331.849 478.892 334.558 480.022 337.405C482.136 342.727 483.297 348.528 483.297 354.602Z" fill="#E4BA42"/>
<path d="M461.273 350.408C459.975 346.645 454.655 346.645 453.617 349.759C452.579 352.873 456.083 354.689 461.533 356.506C466.982 358.323 470.356 363.124 469.707 367.406C469.058 371.687 467.242 377.267 456.472 377.267C449.741 377.267 446.001 373.06 444.142 369.905L450.244 366.238C450.244 366.238 452.32 370.649 456.213 370.649C460.105 370.649 461.662 369.352 461.662 366.368C461.662 362.735 449.076 361.437 447.13 355.209C445.183 348.98 447.778 340.157 456.861 340.806C462.538 341.211 465.731 343.999 467.328 346.033L461.273 350.408Z" fill="#F2F2F2"/>
<path d="M432.986 341.455C432.986 341.455 432.986 363.383 432.986 366.368C432.986 369.352 430.391 370.909 427.796 370.39C425.201 369.871 424.033 366.757 424.033 366.757L418.064 370.78C418.064 370.78 419.362 376.748 427.536 377.267C435.711 377.786 440.382 372.856 440.382 368.703C440.382 364.551 440.382 341.455 440.382 341.455H432.986Z" fill="#F2F2F2"/>
<path d="M403.532 316.218V387.378C405.464 389.334 407.568 391.117 409.821 392.708H463.539C465.339 391.437 467.044 390.042 468.644 388.533H407.707V320.392H475.846V379.893C477.49 377.355 478.892 374.645 480.022 371.799V316.218H403.532Z" fill="#F2F2F2"/>
<path d="M406.061 377.138C410.146 377.138 413.457 373.826 413.457 369.742C413.457 365.657 410.146 362.346 406.061 362.346C401.976 362.346 398.665 365.657 398.665 369.742C398.665 373.826 401.976 377.138 406.061 377.138Z" fill="#3F4A43"/>
</g>
<g clip-path="url(#clip4)">
<path d="M348.625 354.602C348.625 358.154 348.227 361.611 347.476 364.933C346.307 370.096 344.283 374.932 341.558 379.286C341.442 379.472 341.324 379.659 341.204 379.845C332.906 392.706 318.451 401.219 302.008 401.219C285.564 401.219 271.109 392.706 262.811 379.845C259.202 374.255 256.757 367.843 255.819 360.949C255.602 359.359 255.467 357.741 255.415 356.101C255.398 355.602 255.391 355.104 255.391 354.602C255.391 350.067 256.038 345.685 257.244 341.541C257.727 339.884 258.3 338.265 258.958 336.689C260.026 334.12 261.32 331.67 262.811 329.358C271.109 316.497 285.564 307.984 302.008 307.984C318.451 307.984 332.906 316.497 341.204 329.358C343.092 332.282 344.662 335.431 345.864 338.757C346.433 340.337 346.922 341.956 347.322 343.609C347.706 345.196 348.009 346.816 348.224 348.461C348.435 350.054 348.562 351.673 348.608 353.313C348.619 353.742 348.625 354.17 348.625 354.602Z" fill="#5C5E70"/>
<path d="M341.205 331.249V379.845C332.907 392.706 318.452 401.219 302.008 401.219C285.565 401.219 271.109 392.706 262.812 379.845V312.136C262.812 309.843 264.671 307.984 266.963 307.984H317.94L341.205 331.249Z" fill="#F9EED7"/>
<path d="M317.939 327.097V307.984L341.204 331.249H322.092C319.798 331.249 317.939 329.39 317.939 327.097Z" fill="#E8DBC4"/>
<path d="M341.205 368.252V379.845C332.907 392.706 318.452 401.219 302.008 401.219C285.565 401.219 271.109 392.706 262.812 379.845V368.252H341.205Z" fill="#FF525D"/>
<path d="M282.797 342.577L290.636 337.485C290.79 337.361 291.006 337.33 291.222 337.33C292.148 337.33 293.321 338.318 293.321 339.583C293.321 340.108 293.105 340.571 292.765 340.787L287.334 344.305L292.765 347.823C293.105 348.039 293.321 348.502 293.321 349.026C293.321 350.292 292.148 351.279 291.222 351.279C291.006 351.279 290.79 351.248 290.636 351.125L282.797 346.033C282.088 345.57 281.841 344.829 281.841 344.305C281.841 343.78 282.088 343.04 282.797 342.577Z" fill="#FF525D"/>
<path d="M309.059 330.665C309.059 330.85 309.028 331.066 308.936 331.251L298.073 353.501C297.857 353.964 297.27 354.272 296.684 354.272C295.635 354.272 294.956 353.408 294.956 352.637C294.956 352.452 295.018 352.235 295.11 352.05L305.942 329.801C306.189 329.276 306.683 329.029 307.238 329.029C308.102 329.029 309.059 329.677 309.059 330.665Z" fill="#FF525D"/>
<path d="M321.218 346.033L313.38 351.125C313.226 351.248 313.01 351.279 312.794 351.279C311.868 351.279 310.695 350.292 310.695 349.026C310.695 348.502 310.911 348.039 311.251 347.823L316.682 344.305L311.251 340.787C310.911 340.571 310.695 340.108 310.695 339.583C310.695 338.318 311.868 337.33 312.794 337.33C313.01 337.33 313.226 337.361 313.38 337.485L321.218 342.577C321.928 343.04 322.175 343.78 322.175 344.305C322.175 344.829 321.928 345.57 321.218 346.033Z" fill="#FF525D"/>
<path d="M285.013 383.498H280.695V389.378C280.695 390.072 279.849 390.42 279.003 390.42C278.157 390.42 277.311 390.072 277.311 389.378V375.579C277.311 374.863 278.157 374.559 279.003 374.559C279.849 374.559 280.695 374.863 280.695 375.579V380.895H285.013V375.579C285.013 374.863 285.859 374.559 286.705 374.559C287.552 374.559 288.398 374.863 288.398 375.579V389.378C288.398 390.072 287.552 390.42 286.705 390.42C285.859 390.42 285.013 390.072 285.013 389.378V383.498Z" fill="#F9EED7"/>
<path d="M301.22 374.559C301.936 374.559 302.24 375.34 302.24 376.056C302.24 376.881 301.871 377.597 301.22 377.597H298.226V389.378C298.226 390.072 297.38 390.42 296.533 390.42C295.687 390.42 294.841 390.072 294.841 389.378V377.597H291.847C291.196 377.597 290.827 376.881 290.827 376.056C290.827 375.34 291.131 374.559 291.847 374.559H301.22Z" fill="#F9EED7"/>
<path d="M312.307 384.801C312.025 385.278 311.591 385.43 311.179 385.43C310.788 385.43 310.376 385.3 310.116 384.801L308.055 381.025V389.379C308.055 390.073 307.209 390.42 306.362 390.42C305.516 390.42 304.67 390.073 304.67 389.379V376.252C304.67 375.015 305.516 374.56 306.362 374.56C307.577 374.56 308.098 374.69 308.988 376.252L311.223 380.158L313.457 376.252C314.347 374.69 314.867 374.56 316.083 374.56C316.951 374.56 317.775 375.016 317.775 376.252V389.379C317.775 390.073 316.929 390.42 316.083 390.42C315.236 390.42 314.39 390.073 314.39 389.379V381.242L312.307 384.801Z" fill="#F9EED7"/>
<path d="M322.678 390.42C321.941 390.42 321.203 390.072 321.203 389.378V375.579C321.203 374.863 322.049 374.559 322.896 374.559C323.742 374.559 324.588 374.863 324.588 375.579V387.469H329.535C330.186 387.469 330.511 388.207 330.511 388.944C330.511 389.682 330.185 390.42 329.535 390.42H322.678V390.42Z" fill="#F9EED7"/>
</g>
<g clip-path="url(#clip5)">
<path d="M401.219 200.805C401.219 216.164 393.79 229.787 382.332 238.281C377.535 241.835 372.033 244.492 366.073 245.999C362.403 246.929 358.561 247.422 354.602 247.422C350.642 247.422 346.798 246.929 343.128 245.999C337.169 244.492 331.666 241.835 326.869 238.279C315.411 229.785 307.984 216.162 307.984 200.805C307.984 175.059 328.856 154.188 354.602 154.188C380.348 154.188 401.219 175.059 401.219 200.805Z" fill="#5ADAFD"/>
<path d="M382.38 227.053C382.161 225.586 381.872 224.075 381.514 222.53C381.198 221.174 380.831 219.79 380.415 218.386C379.319 214.699 377.875 210.866 376.124 206.993C375.357 205.299 374.531 203.598 373.65 201.899C372.874 200.401 372.056 198.902 371.194 197.412C370.334 195.92 369.447 194.463 368.536 193.042C367.506 191.43 366.447 189.866 365.362 188.355C362.885 184.902 360.288 181.734 357.641 178.94C356.634 177.877 355.62 176.868 354.602 175.919C353.443 174.834 352.279 173.828 351.116 172.905C343.526 166.879 336.731 165.069 331.98 167.811C327.229 170.555 325.399 177.344 326.822 186.932C327.039 188.399 327.33 189.91 327.69 191.455C328.002 192.811 328.369 194.195 328.788 195.599C329.884 199.286 331.328 203.12 333.08 206.992C333.845 208.686 334.671 210.385 335.552 212.084C336.328 213.583 337.148 215.081 338.008 216.573C338.868 218.064 339.755 219.522 340.666 220.943C341.698 222.557 342.757 224.121 343.84 225.631C346.318 229.085 348.915 232.251 351.562 235.044C352.568 236.108 353.584 237.118 354.602 238.068C355.761 239.152 356.925 240.157 358.086 241.08C360.877 243.296 363.56 244.942 366.074 245.998C372.033 244.491 377.536 241.835 382.333 238.281C383.002 235.195 383.027 231.414 382.38 227.053ZM378.106 237.589C377.553 239.982 376.535 241.622 375.079 242.461C373.626 243.302 371.696 243.363 369.346 242.648C366.8 241.87 363.828 240.169 360.75 237.724C359.715 236.902 358.678 236.007 357.641 235.046C356.624 234.103 355.608 233.094 354.6 232.027C352.868 230.194 351.156 228.189 349.485 226.037C348.37 224.6 347.273 223.099 346.201 221.541C344.647 219.282 343.146 216.904 341.718 214.43C340.289 211.957 338.98 209.468 337.803 206.992C336.988 205.286 336.237 203.585 335.552 201.901C334.522 199.378 333.641 196.891 332.92 194.476C332.502 193.068 332.134 191.687 331.828 190.334C331.512 188.956 331.255 187.609 331.061 186.302C330.483 182.415 330.496 178.99 331.095 176.397C331.649 174.003 332.669 172.363 334.123 171.524C334.908 171.071 335.831 170.842 336.883 170.842C337.781 170.842 338.775 171.008 339.855 171.339C342.401 172.115 345.373 173.818 348.452 176.261C349.487 177.083 350.526 177.978 351.561 178.942C352.579 179.884 353.593 180.893 354.6 181.958C356.333 183.791 358.046 185.796 359.718 187.95C360.833 189.387 361.931 190.888 363.002 192.446C364.555 194.705 366.056 197.083 367.483 199.555C368.912 202.029 370.221 204.517 371.399 206.993C372.213 208.701 372.965 210.402 373.65 212.086C374.679 214.609 375.56 217.094 376.281 219.509C376.7 220.917 377.067 222.298 377.375 223.651C377.689 225.029 377.946 226.376 378.14 227.683C378.719 231.57 378.706 234.995 378.106 237.589Z" fill="#F2F2F2"/>
<path d="M385.864 192.967C384.484 192.423 383.031 191.919 381.512 191.455C380.18 191.049 378.799 190.675 377.374 190.334C373.633 189.44 369.592 188.774 365.362 188.355C363.514 188.17 361.629 188.036 359.718 187.95C358.032 187.872 356.324 187.832 354.602 187.832C352.88 187.832 351.171 187.872 349.483 187.95C347.571 188.035 345.686 188.172 343.838 188.355C339.608 188.774 335.569 189.44 331.828 190.334C330.403 190.675 329.021 191.049 327.689 191.455C326.171 191.917 324.717 192.423 323.338 192.967C314.325 196.525 309.358 201.507 309.358 206.992C309.358 212.478 314.325 217.459 323.338 221.019C324.717 221.564 326.169 222.068 327.688 222.532C329.019 222.937 330.401 223.312 331.826 223.651C335.567 224.547 339.608 225.211 343.84 225.632C345.688 225.814 347.573 225.949 349.485 226.037C351.171 226.115 352.88 226.153 354.602 226.153C356.324 226.153 358.031 226.115 359.716 226.037C361.629 225.949 363.512 225.814 365.362 225.632C369.592 225.213 373.635 224.547 377.376 223.651C378.801 223.31 380.182 222.937 381.514 222.53C383.031 222.068 384.485 221.564 385.864 221.019C394.879 217.459 399.843 212.478 399.843 206.992C399.843 201.507 394.879 196.525 385.864 192.967ZM392.851 212.05C390.906 213.867 387.946 215.589 384.29 217.033C383.059 217.518 381.765 217.971 380.414 218.386C379.088 218.795 377.709 219.17 376.282 219.509C373.829 220.093 371.235 220.572 368.535 220.943C366.735 221.193 364.888 221.392 363.002 221.539C360.268 221.758 357.458 221.868 354.602 221.868C351.746 221.868 348.935 221.758 346.201 221.541C344.315 221.393 342.466 221.193 340.666 220.943C337.966 220.572 335.373 220.093 332.92 219.509C331.493 219.17 330.113 218.795 328.787 218.386C327.436 217.971 326.142 217.518 324.911 217.033C321.256 215.589 318.295 213.867 316.351 212.05C314.555 210.374 313.643 208.673 313.643 206.993C313.643 205.312 314.555 203.611 316.351 201.935C318.295 200.118 321.256 198.396 324.911 196.952C326.142 196.467 327.436 196.014 328.787 195.599C330.113 195.19 331.493 194.815 332.92 194.476C335.373 193.892 337.966 193.413 340.666 193.042C342.466 192.792 344.315 192.593 346.201 192.444C348.935 192.227 351.746 192.117 354.602 192.117C357.458 192.117 360.268 192.227 363.002 192.446C364.888 192.593 366.735 192.793 368.535 193.042C371.235 193.413 373.829 193.892 376.282 194.477C377.709 194.815 379.088 195.19 380.414 195.599C381.765 196.014 383.059 196.467 384.29 196.952C387.945 198.396 390.906 200.118 392.851 201.935C394.647 203.612 395.558 205.313 395.558 206.993C395.558 208.673 394.647 210.374 392.851 212.05Z" fill="#F2F2F2"/>
<path d="M377.222 167.811C372.47 165.069 365.676 166.879 358.086 172.905C356.925 173.828 355.76 174.834 354.602 175.919C353.584 176.868 352.568 177.878 351.561 178.942C348.914 181.735 346.317 184.901 343.838 188.355C342.756 189.866 341.696 191.43 340.666 193.041C339.755 194.463 338.868 195.92 338.008 197.412C337.148 198.904 336.328 200.401 335.552 201.9C334.671 203.6 333.845 205.301 333.08 206.992C331.328 210.866 329.884 214.698 328.788 218.386C328.369 219.792 328.002 221.175 327.688 222.532C327.33 224.077 327.039 225.586 326.822 227.053C326.175 231.412 326.2 235.193 326.869 238.279C331.666 241.835 337.169 244.491 343.128 245.998C345.642 244.942 348.325 243.296 351.116 241.08C352.279 240.157 353.443 239.15 354.602 238.068C355.62 237.118 356.634 236.11 357.641 235.046C360.286 232.253 362.885 229.085 365.362 225.631C366.445 224.12 367.505 222.556 368.536 220.943C369.447 219.522 370.334 218.064 371.194 216.572C372.056 215.082 372.874 213.585 373.651 212.086C374.532 210.386 375.357 208.685 376.124 206.992C377.875 203.12 379.319 199.286 380.415 195.598C380.831 194.194 381.199 192.811 381.513 191.454C381.872 189.909 382.161 188.398 382.38 186.931C383.803 177.344 381.973 170.555 377.222 167.811ZM376.282 194.476C375.561 196.891 374.68 199.376 373.65 201.899C372.965 203.583 372.214 205.284 371.399 206.992C370.221 209.468 368.912 211.957 367.483 214.43C366.056 216.902 364.555 219.28 363.003 221.539C361.929 223.099 360.832 224.6 359.717 226.037C358.046 228.189 356.334 230.194 354.6 232.026C353.594 233.092 352.579 234.1 351.561 235.044C350.526 236.007 349.488 236.901 348.452 237.723C345.374 240.168 342.402 241.869 339.856 242.648C337.506 243.363 335.577 243.302 334.123 242.461C332.669 241.622 331.649 239.982 331.096 237.588C330.496 234.995 330.483 231.57 331.061 227.683C331.256 226.375 331.512 225.028 331.826 223.651C332.134 222.298 332.502 220.916 332.92 219.508C333.641 217.094 334.522 214.607 335.552 212.084C336.237 210.4 336.988 208.699 337.803 206.992C338.98 204.517 340.29 202.028 341.719 199.555C343.146 197.081 344.647 194.703 346.201 192.444C347.273 190.886 348.369 189.384 349.484 187.95C351.156 185.796 352.869 183.79 354.6 181.958C355.608 180.891 356.625 179.882 357.64 178.94C358.678 177.977 359.714 177.083 360.75 176.261C363.828 173.818 366.8 172.115 369.346 171.339C370.427 171.008 371.42 170.842 372.318 170.842C373.37 170.842 374.295 171.07 375.079 171.523C376.534 172.362 377.553 174.003 378.106 176.396C378.705 178.99 378.719 182.415 378.14 186.302C377.946 187.609 377.689 188.956 377.374 190.334C377.067 191.687 376.7 193.068 376.282 194.476Z" fill="#F2F2F2"/>
<path d="M354.602 215.496C359.298 215.496 363.105 211.689 363.105 206.992C363.105 202.296 359.298 198.489 354.602 198.489C349.906 198.489 346.099 202.296 346.099 206.992C346.099 211.689 349.906 215.496 354.602 215.496Z" fill="#F2F2F2"/>
</g>
</g>
<defs>
<clipPath id="clip0">
<rect x="151" y="151" width="408" height="408" fill="white"/>
</clipPath>
<clipPath id="clip1">
<rect x="200.406" y="204.391" width="93.2344" height="93.2344" fill="white"/>
</clipPath>
<clipPath id="clip2">
<rect x="408.391" y="204.391" width="93.2344" height="93.2344" fill="white"/>
</clipPath>
<clipPath id="clip3">
<rect x="390.062" y="307.984" width="93.2344" height="93.2344" fill="white"/>
</clipPath>
<clipPath id="clip4">
<rect x="255.391" y="307.984" width="93.2344" height="93.2344" fill="white"/>
</clipPath>
<clipPath id="clip5">
<rect x="307.984" y="154.188" width="93.2344" height="93.2344" fill="white"/>
</clipPath>
</defs>
</svg>
