<!-- <svg viewBox="0 0 183 272" fill="none" xmlns="http://www.w3.org/2000/svg">
<path opacity="0.1" d="M50.3649 143.183L95.3545 94.6013L50.3649 46.0194L64.0812 31.212L122.787 94.6013L64.0812 157.991L50.3649 143.183Z" fill="black"/>
<path d="M117.087 81.5068C117.087 81.5068 103.01 69.9303 101.942 74.1738C100.873 78.4174 112.27 88.0618 112.27 88.0618L117.087 81.5068Z" fill="#FFB9B9"/>
<path opacity="0.1" d="M117.087 81.5068C117.087 81.5068 103.01 69.9303 101.942 74.1738C100.873 78.4174 112.27 88.0618 112.27 88.0618L117.087 81.5068Z" fill="black"/>
<path d="M163.558 44.8547C163.558 44.8547 146.818 77.26 146.462 81.8894C146.106 86.5187 146.106 86.9045 144.681 86.5187C143.256 86.1329 123.668 83.8183 121.887 84.5898C120.106 85.3614 116.544 79.9605 116.544 79.9605C116.544 79.9605 109.777 87.2903 111.202 88.8334C112.626 90.3765 116.9 91.148 117.613 93.0769C118.325 95.0058 119.394 96.9347 122.599 96.5489C125.805 96.1631 147.53 102.721 150.38 101.564C153.229 100.407 153.941 98.4778 155.366 98.4778C156.791 98.4778 159.64 96.9347 159.64 96.5489C159.64 96.1631 169.613 75.7169 169.613 75.7169C169.613 75.7169 181.366 47.9409 163.558 44.8547Z" fill="#00859E"/>
<path d="M139.271 23.4914C139.12 25.54 139.15 27.5997 139.363 29.6421C139.904 34.0743 141.787 38.6944 140.008 42.8316C139.362 44.3333 138.268 45.6418 137.672 47.1615C136.41 50.3787 137.554 53.947 137.383 57.3711C137.161 61.7943 134.564 66.0564 130.613 68.4803C137.363 68.7074 143.782 65.0926 148.029 60.1666C152.277 55.2407 154.642 49.1308 156.415 43.0178C157.326 40.1471 157.911 37.1665 158.155 34.1422C158.296 32.4049 158.108 30.6546 157.602 28.9989C156.978 27.3813 156.157 25.8617 155.16 24.4808C154.096 22.8612 153.004 21.2097 151.435 20.0047C149.502 18.5204 145.775 17.0302 143.211 17.2462C140.067 17.5111 139.404 21.1272 139.271 23.4914Z" fill="#2F2E41"/>
<path d="M149.667 35.596C149.667 35.596 153.585 50.6414 150.38 54.8849C147.174 59.1285 169.613 52.956 169.613 52.956C169.613 52.956 158.572 40.9969 163.914 33.2814L149.667 35.596Z" fill="#FFB9B9"/>
<path opacity="0.1" d="M149.667 35.596C149.667 35.596 153.585 50.6414 150.38 54.8849C147.174 59.1285 169.613 52.956 169.613 52.956C169.613 52.956 158.572 40.9969 163.914 33.2814L149.667 35.596Z" fill="black"/>
<path d="M50.3649 133.774L95.3545 85.1919L50.3649 36.61L64.0812 21.8027L122.787 85.1919L64.0812 148.581L50.3649 133.774Z" fill="#1A6F7E"/>
<path d="M136.845 236.2V247.388L142.188 254.332L146.818 252.017L145.393 235.815L136.845 236.2Z" fill="#FFB9B9"/>
<path d="M138.983 246.616C138.983 246.616 137.558 241.216 135.065 245.073C132.572 248.931 130.078 257.418 128.654 257.804C127.229 258.19 117.257 270.149 127.229 270.149C137.202 270.149 140.407 265.134 140.407 265.134C140.407 265.134 150.38 260.89 150.38 260.119C150.38 259.347 148.955 245.073 148.243 245.073C147.53 245.073 147.174 247.774 145.393 247.774C143.613 247.774 138.983 246.616 138.983 246.616Z" fill="#2F2E41"/>
<path d="M160.709 238.129L160.353 248.546L168.9 252.403V237.358L160.709 238.129Z" fill="#FFB9B9"/>
<path d="M169.969 248.545C169.969 248.545 165.339 243.144 162.846 244.302C161.612 244.839 160.421 245.484 159.284 246.231C159.284 246.231 157.859 251.246 157.147 255.489C156.435 259.733 156.078 261.662 155.366 263.205C154.654 264.748 153.941 270.535 161.065 271.306C168.188 272.078 170.325 267.834 170.325 267.834L172.106 257.804C172.106 257.804 171.393 248.545 169.969 248.545Z" fill="#2F2E41"/>
<path d="M141.476 127.025C141.476 127.025 131.147 152.101 132.572 174.862C132.572 174.862 129.01 183.735 131.147 197.623C133.284 211.511 136.133 239.287 136.133 239.287C136.133 239.287 145.75 240.444 146.462 238.515C146.462 238.515 147.174 219.226 147.887 218.455C148.599 217.683 147.531 199.937 146.462 196.465C145.394 192.993 156.435 158.659 156.435 158.659L153.585 115.838L141.476 127.025Z" fill="#2F2E41"/>
<path opacity="0.1" d="M141.476 127.025C141.476 127.025 131.147 152.101 132.572 174.862C132.572 174.862 129.01 183.735 131.147 197.623C133.284 211.511 136.133 239.287 136.133 239.287C136.133 239.287 145.75 240.444 146.462 238.515C146.462 238.515 147.174 219.226 147.887 218.455C148.599 217.683 147.531 199.937 146.462 196.465C145.394 192.993 156.435 158.659 156.435 158.659L153.585 115.838L141.476 127.025Z" fill="black"/>
<path d="M138.626 125.482L145.394 141.299C145.394 141.299 148.599 177.176 150.38 181.806C150.38 181.806 151.092 194.922 154.298 199.166C157.503 203.409 159.996 240.83 159.996 240.83C159.996 240.83 168.9 243.53 169.613 240.83C170.325 238.129 172.462 219.612 172.462 219.612C172.462 219.612 173.174 203.795 169.256 193.379C165.339 182.963 173.887 145.543 173.887 145.543C173.887 145.543 182.791 127.411 169.969 112.752L138.626 125.482Z" fill="#2F2E41"/>
<path d="M157.503 40.2254C165.568 40.2254 172.106 33.1439 172.106 24.4085C172.106 15.673 165.568 8.59158 157.503 8.59158C149.438 8.59158 142.9 15.673 142.9 24.4085C142.9 33.1439 149.438 40.2254 157.503 40.2254Z" fill="#FFB9B9"/>
<path d="M171.037 48.3267C171.037 48.3267 155.722 48.3267 153.585 50.2556C153.057 50.8002 152.356 51.1039 151.626 51.1039C150.897 51.1039 150.196 50.8002 149.667 50.2556C149.667 50.2556 144.325 50.6414 142.9 55.2707C141.476 59.9 137.202 66.0725 137.202 66.0725C137.202 66.0725 130.791 71.0876 134.352 84.2041C137.914 97.3205 135.065 118.538 135.065 118.538C135.065 118.538 132.215 123.168 135.065 125.096C137.914 127.025 138.983 127.797 138.626 129.34C138.27 130.883 171.037 116.609 171.037 113.909C171.037 111.208 170.325 108.894 171.037 107.736C171.75 106.579 172.462 104.65 171.75 102.721C171.037 100.792 172.462 100.407 172.106 98.4778C171.75 96.5489 173.887 82.2751 175.311 76.1027C176.736 69.9302 176.38 48.7125 171.037 48.3267Z" fill="#00859E"/>
<path d="M117.087 86.1361C117.087 86.1361 103.01 74.5595 101.942 78.8031C100.873 83.0466 112.27 92.6911 112.27 92.6911L117.087 86.1361Z" fill="#FFB9B9"/>
<path d="M163.558 50.2556C163.558 50.2556 146.818 82.6609 146.462 87.2902C146.106 91.9196 146.106 92.3053 144.681 91.9196C143.256 91.5338 123.668 89.2191 121.887 89.9907C120.106 90.7622 116.544 85.3613 116.544 85.3613C116.544 85.3613 109.777 92.6911 111.202 94.2342C112.626 95.7774 116.9 96.5489 117.613 98.4778C118.325 100.407 119.394 102.336 122.599 101.95C125.805 101.564 147.53 108.122 150.38 106.965C153.229 105.808 153.941 103.879 155.366 103.879C156.791 103.879 159.64 102.336 159.64 101.95C159.64 101.564 169.613 81.1178 169.613 81.1178C169.613 81.1178 181.366 53.3418 163.558 50.2556Z" fill="#00859E"/>
<path d="M150.272 34.5137C150.069 32.9472 149.329 31.5261 148.949 29.9988C148.651 28.7765 148.585 27.5016 148.755 26.2509C148.924 25.0002 149.325 23.7996 149.934 22.7211C152.029 19.0568 156.141 17.4339 159.009 14.4465C159.068 15.9682 160.043 17.2686 161.12 18.2473C162.198 19.2259 163.434 20.0197 164.346 21.1787C165.222 22.4015 165.862 23.8036 166.225 25.3008C166.787 27.0355 167.039 28.8703 166.967 30.7072C166.926 31.625 166.713 32.5242 166.341 33.3502C165.969 34.1761 165.446 34.9116 164.804 35.5119C163.736 36.4263 162.243 36.9485 161.727 38.3132C161.524 38.9952 161.465 39.7179 161.555 40.4278C161.8 44.6721 162.029 48.992 161.106 53.1255C160.183 57.2589 157.922 61.2524 154.379 63.0848C157.291 63.3085 160.264 63.5266 163.089 62.7306C165.914 61.9345 168.615 59.9299 169.589 56.9495C170.07 55.4793 170.115 53.844 170.798 52.4708C172.525 48.9951 177.296 48.8366 179.64 45.8136C180.578 44.6038 181.032 43.0449 181.368 41.5077C183.347 32.4626 181.956 22.858 178.944 14.1539C177.906 11.1538 176.613 8.13308 174.386 6.0245C172.491 4.2302 170.07 3.24159 167.677 2.39729C164.184 1.16512 160.586 0.155607 156.914 0.0254654C155.319 -0.0759893 153.72 0.126216 152.19 0.622912C150.679 1.21413 149.273 2.0817 148.033 3.18786C142.281 8.03516 138.365 15.7823 138.885 23.6556C139.199 28.4195 141.063 32.928 143.457 36.9389C144.294 38.3417 146.273 41.3329 148.112 40.4509C149.779 39.6509 150.491 36.2056 150.272 34.5137Z" fill="#2F2E41"/>
<rect y="78.2775" width="18.701" height="20.2576" fill="#1A6F7E"/>
<rect x="31.7916" y="78.2775" width="18.701" height="20.2576" fill="#1A6F7E"/>
</svg> -->
<svg  viewBox="0 0 183 272" fill="none" xmlns="http://www.w3.org/2000/svg">
<path opacity="0.1" d="M52.1294 143.5L96.7594 94.8105L52.1294 46.1212L65.7361 31.2811L123.973 94.8105L65.7361 158.34L52.1294 143.5Z" fill="black"/>
<path d="M118.318 81.687C118.318 81.687 104.354 70.0849 103.294 74.3378C102.234 78.5907 113.54 88.2565 113.54 88.2565L118.318 81.687Z" fill="#FFB9B9"/>
<path opacity="0.1" d="M118.318 81.687C118.318 81.687 104.354 70.0849 103.294 74.3378C102.234 78.5907 113.54 88.2565 113.54 88.2565L118.318 81.687Z" fill="black"/>
<path d="M164.418 44.9539C164.418 44.9539 147.812 77.4309 147.458 82.0705C147.105 86.7101 147.105 87.0967 145.692 86.71C144.279 86.3234 124.846 84.0036 123.08 84.7769C121.313 85.5502 117.78 80.1373 117.78 80.1373C117.78 80.1373 111.067 87.4833 112.48 89.0298C113.893 90.5764 118.133 91.3496 118.84 93.2828C119.546 95.2159 120.606 97.1491 123.786 96.7624C126.966 96.3758 148.518 102.949 151.345 101.789C154.171 100.629 154.878 98.6956 156.291 98.6956C157.705 98.6956 160.531 97.1491 160.531 96.7624C160.531 96.3758 170.424 75.8844 170.424 75.8844C170.424 75.8844 182.083 48.047 164.418 44.9539Z" fill="#00859E"/>
<path d="M140.325 23.5434C140.175 25.5966 140.205 27.6608 140.416 29.7077C140.953 34.1497 142.821 38.78 141.056 42.9263C140.415 44.4314 139.33 45.7427 138.739 47.2658C137.487 50.4901 138.622 54.0663 138.452 57.498C138.232 61.931 135.655 66.2025 131.736 68.6318C138.432 68.8594 144.8 65.2365 149.013 60.2997C153.227 55.3628 155.573 49.2395 157.332 43.113C158.236 40.2359 158.816 37.2487 159.058 34.2178C159.198 32.4766 159.012 30.7225 158.51 29.0631C157.891 27.4419 157.076 25.919 156.087 24.535C155.032 22.9118 153.948 21.2567 152.391 20.049C150.474 18.5614 146.777 17.0679 144.234 17.2844C141.114 17.5499 140.457 21.174 140.325 23.5434Z" fill="#2F2E41"/>
<path d="M150.638 35.6748C150.638 35.6748 154.525 50.7533 151.345 55.0063C148.165 59.2592 170.424 53.0731 170.424 53.0731C170.424 53.0731 159.471 41.0876 164.771 33.355L150.638 35.6748Z" fill="#FFB9B9"/>
<path opacity="0.1" d="M150.638 35.6748C150.638 35.6748 154.525 50.7533 151.345 55.0063C148.165 59.2592 170.424 53.0731 170.424 53.0731C170.424 53.0731 159.471 41.0876 164.771 33.355L150.638 35.6748Z" fill="black"/>
<path d="M52.1294 134.07L96.7594 85.3804L52.1294 36.6911L65.7361 21.851L123.973 85.3804L65.7361 148.91L52.1294 134.07Z" fill="#4CAAA4"/>
<path d="M137.919 236.723V247.935L143.219 254.894L147.812 252.574L146.398 236.336L137.919 236.723Z" fill="#FFB9B9"/>
<path d="M140.039 247.162C140.039 247.162 138.626 241.749 136.152 245.615C133.679 249.481 131.206 257.987 129.793 258.374C128.379 258.76 118.487 270.746 128.379 270.746C138.272 270.746 141.452 265.72 141.452 265.72C141.452 265.72 151.345 261.467 151.345 260.694C151.345 259.92 149.932 245.615 149.225 245.615C148.518 245.615 148.165 248.321 146.399 248.321C144.632 248.321 140.039 247.162 140.039 247.162Z" fill="#2F2E41"/>
<path d="M161.591 238.656L161.238 249.095L169.717 252.961V237.883L161.591 238.656Z" fill="#FFB9B9"/>
<path d="M170.777 249.095C170.777 249.095 166.184 243.682 163.711 244.842C162.487 245.381 161.306 246.027 160.178 246.775C160.178 246.775 158.765 251.801 158.058 256.054C157.351 260.307 156.998 262.24 156.291 263.787C155.585 265.333 154.878 271.133 161.944 271.906C169.011 272.679 171.131 268.426 171.131 268.426L172.897 258.374C172.897 258.374 172.191 249.095 170.777 249.095Z" fill="#2F2E41"/>
<path d="M142.512 127.306C142.512 127.306 132.266 152.437 133.679 175.248C133.679 175.248 130.146 184.141 132.266 198.06C134.386 211.978 137.212 239.816 137.212 239.816C137.212 239.816 146.752 240.976 147.459 239.042C147.459 239.042 148.165 219.711 148.872 218.938C149.578 218.164 148.518 200.379 147.459 196.9C146.399 193.42 157.351 159.01 157.351 159.01L154.525 116.094L142.512 127.306Z" fill="#2F2E41"/>
<path opacity="0.1" d="M142.512 127.306C142.512 127.306 132.266 152.437 133.679 175.248C133.679 175.248 130.146 184.141 132.266 198.06C134.386 211.978 137.212 239.816 137.212 239.816C137.212 239.816 146.752 240.976 147.459 239.042C147.459 239.042 148.165 219.711 148.872 218.938C149.578 218.164 148.518 200.379 147.459 196.9C146.399 193.42 157.351 159.01 157.351 159.01L154.525 116.094L142.512 127.306Z" fill="black"/>
<path d="M139.686 125.76L146.399 141.612C146.399 141.612 149.578 177.568 151.345 182.208C151.345 182.208 152.052 195.353 155.231 199.606C158.411 203.859 160.884 241.362 160.884 241.362C160.884 241.362 169.717 244.069 170.424 241.362C171.131 238.656 173.251 220.098 173.251 220.098C173.251 220.098 173.957 204.246 170.071 193.807C166.184 183.368 174.664 145.864 174.664 145.864C174.664 145.864 183.497 127.693 170.777 113.001L139.686 125.76Z" fill="#2F2E41"/>
<path d="M158.411 40.3143C166.412 40.3143 172.897 33.2172 172.897 24.4624C172.897 15.7077 166.412 8.61057 158.411 8.61057C150.411 8.61057 143.925 15.7077 143.925 24.4624C143.925 33.2172 150.411 40.3143 158.411 40.3143Z" fill="#FFB9B9"/>
<path d="M171.837 48.4336C171.837 48.4336 156.645 48.4336 154.525 50.3667C154.001 50.9125 153.305 51.2169 152.581 51.2169C151.858 51.2169 151.162 50.9125 150.638 50.3667C150.638 50.3667 145.338 50.7534 143.925 55.3929C142.512 60.0325 138.272 66.2186 138.272 66.2186C138.272 66.2186 131.912 71.2448 135.446 84.3902C138.979 97.5357 136.152 118.8 136.152 118.8C136.152 118.8 133.326 123.44 136.152 125.373C138.979 127.306 140.039 128.079 139.685 129.626C139.332 131.172 171.837 116.867 171.837 114.161C171.837 111.454 171.131 109.135 171.837 107.975C172.544 106.815 173.25 104.882 172.544 102.948C171.837 101.015 173.25 100.629 172.897 98.6955C172.544 96.7624 174.664 82.457 176.077 76.271C177.49 70.0849 177.137 48.8202 171.837 48.4336Z" fill="#00859E"/>
<path d="M118.318 86.3266C118.318 86.3266 104.354 74.7245 103.294 78.9774C102.234 83.2303 113.54 92.8961 113.54 92.8961L118.318 86.3266Z" fill="#FFB9B9"/>
<path d="M164.418 50.3667C164.418 50.3667 147.812 82.8437 147.458 87.4833C147.105 92.1228 147.105 92.5094 145.692 92.1228C144.279 91.7362 124.846 89.4164 123.08 90.1897C121.313 90.9629 117.78 85.5501 117.78 85.5501C117.78 85.5501 111.067 92.8961 112.48 94.4426C113.893 95.9891 118.133 96.7624 118.84 98.6955C119.546 100.629 120.606 102.562 123.786 102.175C126.966 101.789 148.518 108.361 151.345 107.201C154.171 106.041 154.878 104.108 156.291 104.108C157.705 104.108 160.531 102.562 160.531 102.175C160.531 101.789 170.424 81.2971 170.424 81.2971C170.424 81.2971 182.083 53.4597 164.418 50.3667Z" fill="#00859E"/>
<path d="M151.238 34.59C151.037 33.02 150.302 31.5958 149.925 30.0651C149.63 28.8401 149.565 27.5624 149.733 26.3089C149.901 25.0555 150.299 23.8522 150.903 22.7714C152.981 19.099 157.06 17.4725 159.905 14.4785C159.964 16.0035 160.931 17.3068 162 18.2876C163.069 19.2684 164.295 20.064 165.2 21.2255C166.069 22.451 166.703 23.8562 167.063 25.3567C167.621 27.0953 167.871 28.9342 167.799 30.775C167.759 31.6949 167.548 32.5961 167.179 33.4239C166.81 34.2517 166.291 34.9888 165.654 35.5904C164.594 36.5068 163.113 37.0302 162.601 38.3979C162.4 39.0814 162.342 39.8057 162.431 40.5171C162.674 44.7708 162.901 49.1003 161.985 53.2429C161.07 57.3855 158.827 61.3878 155.313 63.2242C158.201 63.4485 161.15 63.6671 163.952 62.8692C166.755 62.0714 169.435 60.0624 170.401 57.0754C170.877 55.6019 170.922 53.963 171.6 52.5868C173.313 49.1034 178.046 48.9446 180.371 45.9148C181.302 44.7024 181.752 43.14 182.085 41.5995C184.049 32.5343 182.669 22.9085 179.681 14.1852C178.651 11.1785 177.368 8.15106 175.159 6.03782C173.279 4.23955 170.878 3.24876 168.504 2.40259C165.039 1.1677 161.469 0.155951 157.827 0.0255217C156.245 -0.0761572 154.659 0.126495 153.14 0.624289C151.641 1.21682 150.247 2.0863 149.017 3.19491C143.311 8.05292 139.427 15.8172 139.942 23.7079C140.254 28.4824 142.103 33.0008 144.478 37.0206C145.308 38.4265 147.271 41.4243 149.095 40.5403C150.749 39.7385 151.455 36.2856 151.238 34.59Z" fill="#2F2E41"/>
<path d="M72.9319 73.4998H54.7897V93.3527H72.9319V73.4998ZM18.3237 93.3527H36.466V73.4998H18.3237V93.3527Z" fill="#4CAAA4"/>
</svg>


