<svg width="2em" height="2em" viewBox="0 0 512 512" fill="none" xmlns="http://www.w3.org/2000/svg">
<path d="M512 256C512 397.385 397.385 512 256 512C125.555 512 17.899 414.438 2.027 288.298C0.69 277.723 0 266.94 0 256C0 235.959 2.299 216.451 6.656 197.736C33.029 84.428 134.656 0 256 0C377.041 0 478.469 84.01 505.135 196.901C508.635 211.665 510.84 226.921 511.645 242.542C511.885 247.003 512 251.486 512 256Z" fill="#F2F2F2"/>
<path d="M243.195 276.559V210L185.553 176.721L127.912 210V276.559L185.553 309.838L243.195 276.559Z" fill="#3B8739"/>
<path d="M470.204 266.459L507.768 288.151L470.204 309.843L412.567 276.563V210.003L470.204 176.723L505.135 196.9C508.635 211.664 510.84 226.92 511.645 242.541L490.287 254.871V231.685L470.204 220.097L450.121 231.685V254.871L470.204 266.459Z" fill="#333333"/>
<path d="M481.392 249.74V236.82L470.203 230.36L459.013 236.82V249.74L470.203 256.201L481.392 249.74Z" fill="#66A060"/>
<path d="M100.686 210.004V297.775L62.244 275.843V230.85L43.05 219.763L23.855 230.849V275.842L2.027 288.298C0.69 277.723 0 266.94 0 256C0 235.959 2.299 216.451 6.656 197.736L43.05 176.723L100.686 210.004Z" fill="#333333"/>
<path d="M243.189 276.551L185.549 176.718L127.91 209.996L185.551 309.829L243.189 276.551Z" fill="#6DA75D"/>
<path d="M127.912 276.559L147.704 244.283L127.912 210V276.559Z" fill="#55A344"/>
<path d="M223.979 243.277L243.195 210L185.553 176.721L223.979 243.277Z" fill="#639D57"/>
<path d="M346.551 99.5791V187.883L327.231 176.723L269.584 210.003V276.563L327.231 309.843L384.868 276.563V120.09L346.551 99.5791ZM346.446 254.37L327.23 265.467L308.014 254.37V232.187L327.23 221.09L346.446 232.187V254.37Z" fill="#333333"/>
<path d="M282.149 358.717C282.149 358.717 281.017 348.988 270.61 348.988C260.202 348.988 253.076 350.345 253.076 356.115C253.076 361.885 273.326 361.885 281.019 364.147C288.712 366.409 295.499 372.292 292.105 382.7C288.711 393.108 278.303 394.239 262.239 394.239C246.175 394.239 242.554 380.889 242.554 375.686H251.604C251.604 375.686 250.472 383.831 261.106 385.188C271.74 386.545 281.908 387.309 283.279 379.08C285.089 368.219 248.888 373.65 245.72 363.016C243.044 354.031 244.588 342.201 262.689 340.39C280.79 338.579 290.745 346.571 290.745 358.491L282.149 358.717Z" fill="#66A060"/>
<path d="M194.723 401.131L214.731 412.682C224.784 418.486 237.35 411.231 237.35 399.623V379.381V342.128H229.195V397.355C229.195 403.694 222.333 407.657 216.842 404.486L202.877 396.424V337.484L253.92 308.017L304.963 337.484V396.424L253.92 425.891L239.216 417.402L229.614 421.274L253.919 435.307L313.117 401.128V332.777L253.92 298.6L194.722 332.779V401.131H194.723Z" fill="#66A060"/>
</svg>
