<svg width="70" height="70" viewBox="0 0 710 710" fill="none" xmlns="http://www.w3.org/2000/svg">
<path d="M355 710C551.061 710 710 551.061 710 355C710 158.939 551.061 0 355 0C158.939 0 0 158.939 0 355C0 551.061 158.939 710 355 710Z" fill="#E7F8F8"/>
<g clip-path="url(#clip0)">
<path d="M467.66 558H242.782V443.89C242.782 433.581 251.142 425.224 261.451 425.224H448.991C459.3 425.224 467.66 433.581 467.66 443.89V558Z" fill="#46926F"/>
<path d="M518.002 313.543C518.002 329.024 505.451 341.575 489.969 341.575C474.488 341.575 461.937 329.024 461.937 313.543C461.937 298.061 474.488 285.51 489.969 285.51C505.451 285.51 518.002 298.061 518.002 313.543Z" fill="#CC9883"/>
<path d="M248.507 313.543C248.507 329.024 235.956 341.575 220.474 341.575C204.993 341.575 192.441 329.024 192.441 313.543C192.441 298.061 204.993 285.51 220.474 285.51C235.956 285.51 248.507 298.061 248.507 313.543Z" fill="#CC9883"/>
<path d="M226.01 558C226.01 486.639 283.859 428.786 355.223 428.786C426.584 428.786 484.434 486.639 484.434 558H226.01Z" fill="#EFEDEE"/>
<path d="M378.002 558L361.666 484.492H347.82L331.48 558H378.002Z" fill="#E36465"/>
<path d="M355.223 435.74H307.617V464.402C307.617 464.402 325.775 475.59 355.223 475.59C384.668 475.59 402.826 464.402 402.826 464.402V435.74H355.223Z" fill="#D9D7D8"/>
<path d="M367.477 429.369C363.441 428.991 359.356 428.786 355.223 428.786C283.859 428.786 226.01 486.639 226.01 558H250.517C250.517 490.771 301.862 435.542 367.477 429.369V429.369Z" fill="#D9D7D8"/>
<path d="M400.992 437.137V558H436.936V457.909C426.246 449.171 414.129 442.115 400.992 437.137Z" fill="#58B78C"/>
<path d="M273.51 457.909V558H309.454V437.137C296.314 442.115 284.199 449.171 273.51 457.909Z" fill="#58B78C"/>
<path d="M496.641 305.672C496.641 383.776 433.324 447.093 355.223 447.093C277.118 447.093 213.802 383.776 213.802 305.672C213.802 227.571 277.118 164.254 355.223 164.254C433.324 164.254 496.641 227.571 496.641 305.672V305.672Z" fill="#FBC4AC"/>
<path d="M355.223 164.254C277.118 164.254 213.802 227.571 213.802 305.672C213.802 383.776 277.118 447.093 355.223 447.093C359.352 447.093 363.437 446.904 367.48 446.557C295.115 440.343 238.316 379.644 238.316 305.672C238.316 305.343 238.325 305.018 238.328 304.69C253.667 303.593 272.023 300.902 290.565 294.97C317.513 286.353 339.19 272.785 355.223 254.544C371.253 272.782 392.932 286.349 419.878 294.97C446.715 303.553 473.164 305.356 490.628 305.356H490.631C492.787 305.356 494.795 305.328 496.638 305.282C496.424 227.357 433.194 164.254 355.223 164.254V164.254Z" fill="#E3B098"/>
<path d="M355.223 152C274.972 152 208.889 213.833 202.121 292.359C202.121 292.359 309.454 304.077 355.223 234.367C400.992 304.077 508.322 292.359 508.322 292.359C501.554 213.833 435.474 152 355.223 152Z" fill="#FADC60"/>
<path d="M226.629 292.359C233.05 217.869 292.845 158.409 367.477 152.493C363.431 152.173 359.346 152 355.223 152C274.972 152 208.889 213.833 202.121 292.359C202.121 292.359 214.341 293.687 232.279 292.78C228.664 292.579 226.629 292.359 226.629 292.359Z" fill="#E6CB59"/>
<path d="M347.968 488.278L338.979 479.289C334.974 475.283 334.974 468.788 338.979 464.783L347.968 455.794C351.974 451.789 358.469 451.789 362.477 455.794L371.463 464.783C375.471 468.788 375.471 475.283 371.463 479.289L362.477 488.278C358.469 492.286 351.974 492.286 347.968 488.278Z" fill="#FD6F71"/>
<path d="M355.223 353.346C347.417 353.346 340.153 349.139 336.26 342.368C334.624 339.522 335.603 335.885 338.453 334.247C341.299 332.611 344.933 333.593 346.571 336.44C348.349 339.531 351.664 341.451 355.223 341.451C358.782 341.451 362.096 339.531 363.874 336.44C365.51 333.593 369.146 332.611 371.993 334.25C374.839 335.885 375.821 339.522 374.183 342.368C370.289 349.139 363.025 353.346 355.223 353.346Z" fill="#464C51"/>
<path d="M407.692 329.225C404.406 329.225 401.745 326.565 401.745 323.278V313.924C401.745 310.637 404.406 307.976 407.692 307.976C410.976 307.976 413.64 310.637 413.64 313.924V323.278C413.64 326.565 410.976 329.225 407.692 329.225Z" fill="#464C51"/>
<path d="M302.754 329.225C299.467 329.225 296.807 326.565 296.807 323.278V313.924C296.807 310.637 299.467 307.976 302.754 307.976C306.037 307.976 308.701 310.637 308.701 313.924V323.278C308.701 326.565 306.037 329.225 302.754 329.225Z" fill="#464C51"/>
<path d="M412.369 346.909H403.015C399.728 346.909 397.067 344.248 397.067 340.962C397.067 337.679 399.728 335.015 403.015 335.015H412.369C415.653 335.015 418.316 337.679 418.316 340.962C418.316 344.248 415.653 346.909 412.369 346.909Z" fill="#FD6F71"/>
<path d="M307.431 346.909H298.076C294.79 346.909 292.129 344.248 292.129 340.962C292.129 337.679 294.79 335.015 298.076 335.015H307.431C310.714 335.015 313.378 337.679 313.378 340.962C313.378 344.248 310.714 346.909 307.431 346.909Z" fill="#FD6F71"/>
</g>
<defs>
<clipPath id="clip0">
<rect x="152" y="152" width="406" height="406" fill="white"/>
</clipPath>
</defs>
</svg>
