<svg width="2em" height="2em" viewBox="0 0 200 200" fill="none" xmlns="http://www.w3.org/2000/svg">
<path fill-rule="evenodd" clip-rule="evenodd" d="M96.0381 16.1523C98.7703 14.6192 102.134 14.6192 104.862 16.1523C118.362 23.7291 158.987 46.536 172.49 54.1129C175.223 55.6419 176.905 58.4747 176.905 61.5408C176.905 76.6944 176.905 122.304 176.905 137.458C176.905 140.524 175.223 143.357 172.49 144.89C158.991 152.467 118.366 175.274 104.862 182.85C102.13 184.383 98.7663 184.383 96.0381 182.85C82.5383 175.274 41.914 152.467 28.4101 144.89C25.682 143.357 24 140.528 24 137.462C24 122.308 24 76.6985 24 61.5448C24 58.4787 25.6819 55.6459 28.4141 54.1129C41.9099 46.536 82.5423 23.7291 96.0381 16.1523Z" fill="#00549D"/>
<path fill-rule="evenodd" clip-rule="evenodd" d="M25.2232 141.365C24.1529 139.932 24 138.572 24 136.741C24 121.676 24 76.3279 24 61.2588C24 58.2087 25.6779 55.3921 28.402 53.8711C41.8536 46.3385 82.3411 23.6644 95.7927 16.1278C98.5168 14.6028 102.207 14.635 104.931 16.16C118.382 23.6925 158.733 46.1735 172.185 53.7061C173.271 54.3177 174.1 55.0541 174.84 56.0238L25.2232 141.365Z" fill="#0086D4"/>
<path fill-rule="evenodd" clip-rule="evenodd" d="M100.452 43.1677C131.544 43.1677 156.785 68.409 156.785 99.501C156.785 130.593 131.544 155.834 100.452 155.834C69.3603 155.834 44.119 130.593 44.119 99.501C44.119 68.409 69.3603 43.1677 100.452 43.1677ZM100.452 71.3344C115.996 71.3344 128.619 83.953 128.619 99.501C128.619 115.045 115.996 127.668 100.452 127.668C84.9083 127.668 72.2856 115.045 72.2856 99.501C72.2856 83.953 84.9042 71.3344 100.452 71.3344Z" fill="white"/>
<path fill-rule="evenodd" clip-rule="evenodd" d="M174.832 56.064C176.908 58.0075 176.868 60.9369 176.868 63.2425C176.868 78.5128 176.739 121.946 176.904 137.216C176.921 138.81 176.393 140.487 175.605 141.751L98.8145 99.501L174.832 56.064Z" fill="#0075C0"/>
<path fill-rule="evenodd" clip-rule="evenodd" d="M128.619 87.4296H136.666V111.572H128.619V87.4296ZM156.785 87.4296H164.833V111.572H156.785V87.4296Z" fill="white"/>
<path fill-rule="evenodd" clip-rule="evenodd" d="M120.571 95.4772H144.714V103.525H120.571V95.4772ZM148.738 95.4772H172.881V103.525H148.738V95.4772Z" fill="white"/>
</svg>
