<svg width="2em" height="2em" viewBox="0 0 200 200" fill="none" xmlns="http://www.w3.org/2000/svg">
<path d="M181 100C181 110.553 178.983 120.633 175.31 129.881C173.346 134.827 170.909 139.535 168.053 143.945C164.496 149.446 160.287 154.488 155.539 158.958C152.759 161.58 149.797 164.003 146.669 166.212C133.478 175.528 117.38 181 100 181C82.6198 181 66.5223 175.528 53.3307 166.212C49.4161 163.448 45.7597 160.35 42.4039 156.951C27.9331 142.322 19 122.201 19 100C19 77.7994 27.9331 57.6784 42.4039 43.0488C45.9581 39.4519 49.8493 36.1885 54.0249 33.3057C67.0843 24.283 82.9239 19 100 19C117.076 19 132.916 24.283 145.975 33.3057C149.165 35.5044 152.187 37.9309 155.021 40.5593C159.983 45.1481 164.367 50.3552 168.053 56.055C170.91 60.4654 173.346 65.1732 175.31 70.1192C178.983 79.3665 181 89.4469 181 100Z" fill="#E4BA42"/>
<path d="M142.731 92.7132C140.476 86.175 131.232 86.175 129.429 91.5859C127.625 96.9968 133.713 100.153 143.182 103.31C152.651 106.466 158.513 114.808 157.386 122.248C156.258 129.688 153.102 139.383 134.389 139.383C122.694 139.383 116.194 132.073 112.964 126.591L123.567 120.219C123.567 120.219 127.175 127.884 133.938 127.884C140.702 127.884 143.407 125.63 143.407 120.444C143.407 114.132 121.538 111.877 118.156 101.055C114.774 90.2333 119.283 74.9024 135.065 76.0295C144.929 76.7341 150.477 81.5776 153.251 85.1113L142.731 92.7132Z" fill="#F2F2F2"/>
<path d="M93.5813 77.1571C93.5813 77.1571 93.5813 115.259 93.5813 120.445C93.5813 125.63 89.0722 128.336 84.5631 127.434C80.054 126.532 78.0249 121.121 78.0249 121.121L67.6541 128.11C67.6541 128.11 69.9085 138.481 84.1122 139.383C98.316 140.285 106.432 131.718 106.432 124.503C106.432 117.288 106.432 77.1571 106.432 77.1571H93.5813Z" fill="#F2F2F2"/>
<path d="M42.4038 33.3058V156.951C45.7596 160.35 49.416 163.448 53.3306 166.212H146.669C149.797 164.003 152.759 161.58 155.54 158.958H49.6574V40.5594H168.053V143.945C170.909 139.535 173.346 134.827 175.31 129.881V33.3058H42.4038Z" fill="#F2F2F2"/>
<path d="M46.7979 139.158C53.8952 139.158 59.6487 133.404 59.6487 126.307C59.6487 119.21 53.8952 113.456 46.7979 113.456C39.7005 113.456 33.947 119.21 33.947 126.307C33.947 133.404 39.7005 139.158 46.7979 139.158Z" fill="#3F4A43"/>
</svg>
