<svg width="2em" height="2em" viewBox="0 0 179 179" fill="none" xmlns="http://www.w3.org/2000/svg">
<path d="M153 71.55C153 143.3 90 165 90 165C90 165 27 143.3 27 71.55C27 62.8 27.7 55.45 28.4 49.5C29.45 40.75 35.4 33.75 43.8 31.65C54.65 28.5 71.8 25 90 25C108.2 25 125.35 28.5 136.55 31.65C144.95 33.75 150.9 41.1 151.95 49.5C152.3 55.45 153 63.15 153 71.55Z" fill="#5D4037"/>
<path d="M90 35.5C107.15 35.5 123.25 39 133.75 41.8C137.95 42.85 140.75 46.35 141.45 50.9C142.15 57.55 142.5 64.55 142.5 71.55C142.5 126.15 102.25 148.2 90 153.45C77.75 147.85 37.5 125.8 37.5 71.55C37.5 64.55 37.85 57.55 38.55 50.9C38.9 46.35 42.05 42.85 46.25 41.8C56.75 39 72.85 35.5 90 35.5ZM90 25C71.8 25 54.65 28.5 43.45 31.65C35.4 33.75 29.1 41.1 28.4 49.5C27.7 55.45 27 63.15 27 71.55C27 143.3 90 165 90 165C90 165 153 143.3 153 71.55C153 62.8 152.3 55.45 151.6 49.5C150.55 40.75 144.6 33.75 136.2 31.65C125.35 28.5 108.2 25 90 25Z" fill="#4CAF50"/>
<path d="M86.5001 109H93.5001V137H86.5001V109Z" fill="#DCEDC8"/>
<path d="M90 46C90 46 69 63.5 69 91.5C69 109.7 80.55 121.25 86.5 126.5L90 116L93.5 126.5C99.45 121.25 111 109.7 111 91.5C111 63.5 90 46 90 46Z" fill="#4CAF50"/>
<path d="M90 46C90 46 69 63.5 69 91.5C69 109.7 80.55 121.25 86.5 126.5L90 116V46Z" fill="#81C784"/>
</svg>
