<svg width="2em" height="1.8em" viewBox="0 0 150 141" fill="none" xmlns="http://www.w3.org/2000/svg">
<path d="M87.1871 70.806C87.1871 77.7929 81.7365 83.4459 74.9996 83.4459C68.2627 83.4459 62.8121 77.7929 62.8121 70.806C62.8121 63.819 68.2627 58.166 74.9996 58.166C81.7365 58.166 87.1871 63.819 87.1871 70.806Z" fill="#8BB7F0"/>
<path d="M74.9998 84.4182C67.7642 84.4182 61.8748 78.3121 61.8748 70.8059C61.8748 63.2997 67.7642 57.1937 74.9998 57.1937C82.2354 57.1937 88.1248 63.2997 88.1248 70.8059C88.1248 78.3121 82.2354 84.4182 74.9998 84.4182ZM74.9998 59.1383C68.7954 59.1383 63.7498 64.3712 63.7498 70.8059C63.7498 77.2406 68.7954 82.4736 74.9998 82.4736C81.2042 82.4736 86.2498 77.2406 86.2498 70.8059C86.2498 64.3712 81.2042 59.1383 74.9998 59.1383Z" fill="#8BB7F0"/>
<path d="M45.8886 139.845C42.6804 139.845 39.7592 139.083 37.2036 137.582C32.9286 135.067 29.9736 130.735 28.4173 124.708C26.6079 117.694 26.8236 108.377 29.0398 97.721C11.1673 91.3446 0.937317 81.5613 0.937317 70.8057C0.937317 60.0481 11.1654 50.2668 29.0379 43.8923C26.8217 33.234 26.6042 23.9173 28.4136 16.9031C29.9698 10.8749 32.9248 6.54229 37.1979 4.02986C39.7517 2.52862 42.6748 1.76633 45.8829 1.76633C54.1104 1.76633 64.4286 7.07511 75.0036 16.7359C85.5786 7.08483 95.8929 1.77995 104.111 1.77995C107.319 1.77995 110.24 2.54223 112.796 4.04347C117.065 6.55396 120.022 10.8788 121.579 16.8993C123.39 23.9115 123.172 33.2301 120.954 43.8904C138.83 50.2648 149.062 60.0481 149.062 70.8057C149.062 81.5633 138.83 91.3466 120.954 97.7229C123.17 108.381 123.388 117.698 121.577 124.71C120.02 130.733 117.067 135.057 112.802 137.568C110.244 139.069 107.321 139.831 104.115 139.831C95.8911 139.831 85.5729 134.527 75.0017 124.879C64.4267 134.538 54.1104 139.845 45.8886 139.845ZM36.2567 99.9865C34.3986 109.159 34.1904 116.996 35.6642 122.698C36.6804 126.637 38.4411 129.369 40.9029 130.816C42.3148 131.647 43.9929 132.069 45.8886 132.069C52.2523 132.069 60.6298 127.631 69.5529 119.551C65.0811 114.88 60.7161 109.593 56.5629 103.817C49.3798 103.008 42.5548 101.721 36.2567 99.9865ZM80.4486 119.547C89.3698 127.619 97.7492 132.053 104.113 132.055C106.009 132.055 107.687 131.633 109.102 130.803C111.557 129.36 113.314 126.633 114.328 122.699C115.802 116.994 115.595 109.159 113.737 99.9884C107.434 101.723 100.607 103.01 93.4254 103.819C89.2742 109.595 84.9148 114.88 80.4486 119.547ZM66.6861 104.628C69.4086 108.082 72.1948 111.304 74.9998 114.235C77.7973 111.306 80.5854 108.084 83.3061 104.628C80.5104 104.766 77.7261 104.836 74.9998 104.836C72.2717 104.836 69.4854 104.766 66.6861 104.628ZM60.6542 96.4337C65.3323 96.8479 70.1567 97.0579 74.9998 97.0579C79.8467 97.0579 84.6654 96.8479 89.3361 96.4356C92.1223 92.383 94.7792 88.136 97.2373 83.8054C99.6148 79.6148 101.852 75.2413 103.888 70.8037C101.857 66.3778 99.6223 62.0063 97.2392 57.806C94.7867 53.4851 92.1298 49.2381 89.3361 45.1758C84.6692 44.7635 79.8504 44.5535 74.9998 44.5535C70.1473 44.5535 65.3267 44.7635 60.6617 45.1777C57.8679 49.2342 55.2073 53.4812 52.7511 57.8079C50.3698 62.0064 48.1348 66.3778 46.1023 70.8096C48.1311 75.2316 50.3661 79.6031 52.7492 83.8073C55.1942 88.1146 57.8511 92.3597 60.6542 96.4337ZM107.795 80.099C106.472 82.7164 105.099 85.2833 103.699 87.749C102.287 90.242 100.785 92.7428 99.2248 95.2086C103.676 94.4968 107.934 93.5848 111.92 92.4861C110.814 88.5016 109.429 84.346 107.795 80.099ZM38.0698 92.4842C42.0579 93.5809 46.3142 94.4949 50.7598 95.2066C49.1904 92.7253 47.6886 90.2226 46.2861 87.749C44.8892 85.2852 43.5148 82.7222 42.1929 80.1048C40.5673 84.3324 39.1836 88.4841 38.0698 92.4842ZM112.155 70.8057C115.02 77.3998 117.354 83.9182 119.107 90.207C132.986 85.1433 141.562 77.7557 141.562 70.8057C141.562 63.8557 132.986 56.4681 119.107 51.4044C117.358 57.6932 115.022 64.2115 112.155 70.8057ZM30.8848 51.4082C17.0117 56.4701 8.43732 63.8576 8.43732 70.8057C8.43732 77.7557 17.0117 85.1433 30.8886 90.2051C32.6398 83.9143 34.9742 77.396 37.8354 70.8096C34.9723 64.2212 32.6379 57.7029 30.8848 51.4082ZM38.0679 49.1272C39.1817 53.1214 40.5654 57.2751 42.1929 61.5105C43.5129 58.9008 44.8854 56.3359 46.2879 53.8643C47.6979 51.3771 49.1998 48.8764 50.7654 46.4048C46.3142 47.1146 42.0579 48.0285 38.0679 49.1272ZM99.2286 46.4028C100.798 48.8861 102.3 51.3869 103.702 53.8643C105.101 56.3281 106.475 58.893 107.799 61.5105C109.429 57.2771 110.812 53.1234 111.926 49.1253C107.932 48.0266 103.676 47.1126 99.2286 46.4028ZM45.8829 9.54476C43.9873 9.54476 42.3111 9.96479 40.9011 10.7971C38.4411 12.2439 36.6786 14.976 35.6604 18.9158C34.1886 24.6232 34.3948 32.4581 36.2548 41.6269C42.5548 39.8923 49.3836 38.603 56.5686 37.7941C60.7254 32.0166 65.0904 26.7331 69.5567 22.0661C60.6317 13.9823 52.2486 9.54476 45.8829 9.54476ZM93.4273 37.7921C100.609 38.6011 107.435 39.8884 113.739 41.623C115.599 32.4522 115.807 24.6155 114.332 18.91C113.315 14.978 111.557 12.2517 109.1 10.8088C107.687 9.97841 106.009 9.55643 104.111 9.55643C97.7492 9.55643 89.3736 13.9921 80.4504 22.0661C84.9129 26.7312 89.2742 32.0166 93.4273 37.7921ZM74.9998 36.7751C77.7261 36.7751 80.5104 36.8451 83.3079 36.9832C80.5892 33.5334 77.8029 30.3132 75.0036 27.3807C72.1967 30.317 69.4123 33.5373 66.6936 36.9832C69.4892 36.8451 72.2736 36.7751 74.9998 36.7751Z" fill="#8BB7F0"/>
<path d="M45.8831 2.73877C54.3094 2.73877 64.6256 8.39758 75.0056 18.037C85.3837 8.40535 95.6944 2.75238 104.113 2.75238C107.156 2.75238 109.924 3.47189 112.337 4.88951C116.379 7.26582 119.184 11.3903 120.673 17.1522C122.693 24.7692 122.269 34.1481 119.859 44.5323C137.151 50.5236 148.125 59.9763 148.125 70.8058C148.125 81.6353 137.151 91.0881 119.857 97.0814C122.372 108.308 122.794 117.939 120.671 124.459C119.183 130.219 116.379 134.346 112.341 136.722C109.924 138.142 107.728 138.867 104.687 138.867C104.685 138.867 103.907 138.867 103.905 138.867C95.4825 138.867 85.3762 133.208 75 123.581C64.6219 133.218 54.3094 138.873 45.8869 138.873C42.8437 138.873 40.0762 138.153 37.6631 136.736C33.6169 134.354 30.81 130.223 29.3231 124.458C27.0919 117.229 27.5419 107.728 30.1369 97.0794C12.8475 91.0861 1.875 81.6353 1.875 70.8058C1.875 59.9783 12.8475 50.5255 30.135 44.5323C28.8469 38.5837 28.0237 33.061 27.9956 28.0245C27.9731 24.0458 28.4962 20.3452 29.3212 17.1541C30.81 11.3864 33.615 7.25609 37.6613 4.87589C40.0725 3.45633 42.84 2.73877 45.8831 2.73877ZM35.5463 42.8307C42.0656 40.9736 49.305 39.5696 57.0769 38.714C61.5431 32.4718 66.2175 26.8597 70.9256 22.0215C61.7906 13.5702 52.8956 8.57065 45.8831 8.57065C43.8225 8.57065 41.9925 9.03346 40.4381 9.94937C37.7512 11.5303 35.8406 14.4609 34.755 18.6632C33.1462 24.8898 33.5119 33.306 35.5463 42.8307ZM114.448 42.8288C116.483 33.3041 116.848 24.8859 115.239 18.6593C114.156 14.4647 112.245 11.5401 109.564 9.96298C108.007 9.04707 106.172 8.58426 104.113 8.58426C97.1063 8.58426 88.2169 13.578 79.0838 22.0215C83.79 26.8597 88.4587 32.4718 92.9212 38.712C100.689 39.5677 107.929 40.9717 114.448 42.8288ZM64.6444 38.0703C68.0231 37.8623 71.4113 37.6814 74.9344 37.6814C78.4575 37.6814 81.975 37.8642 85.3537 38.0703C81.9637 33.6386 78.4837 29.5899 75.0019 26.006C71.52 29.5899 68.0381 33.6386 64.6444 38.0703ZM75 98.0303C80.1769 98.0303 85.1325 97.795 89.8462 97.3653C92.6944 93.2485 95.4488 88.8771 98.0438 84.2995C100.581 79.8288 102.876 75.3037 104.925 70.8058C102.876 66.308 100.581 61.7848 98.0456 57.3161C95.4488 52.7365 92.6962 48.367 89.8462 44.2503C85.1344 43.8166 80.1788 43.5813 75 43.5813C69.8212 43.5813 64.8638 43.8166 60.15 44.2483C57.2981 48.3651 54.5419 52.7365 51.945 57.3141C49.41 61.7848 47.115 66.3099 45.0656 70.8078C47.115 75.3057 49.4081 79.8288 51.9431 84.2975C54.54 88.8751 57.2944 93.2466 60.1444 97.3633C64.86 97.795 69.8194 98.0303 75 98.0303ZM107.899 63.8305C110.008 58.5626 111.754 53.3899 113.085 48.4429C108.298 47.0777 103.011 45.9499 97.2825 45.1234C99.21 48.0928 101.087 51.1711 102.892 54.3564C104.681 57.5047 106.344 60.6705 107.899 63.8305ZM42.0919 63.8325C43.6444 60.6725 45.3094 57.5067 47.0944 54.3564C48.9019 51.1711 50.7806 48.0948 52.71 45.1254C46.9819 45.9499 41.6944 47.0797 36.9075 48.4448C38.2387 53.3919 39.9844 58.5626 42.0919 63.8325ZM118.477 91.4614C133.62 86.141 142.5 78.3237 142.5 70.8058C142.5 63.288 133.62 55.4707 118.477 50.1502C116.691 56.7716 114.223 63.7294 111.128 70.8039C114.223 77.8803 116.691 84.8381 118.477 91.4614ZM31.5187 91.4595C33.3037 84.8401 35.7694 77.8823 38.865 70.8097C35.7694 63.7352 33.3019 56.7755 31.5169 50.1541C16.3763 55.4746 7.5 63.2899 7.5 70.8058C7.5 78.3237 16.3781 86.1391 31.5187 91.4595ZM97.2825 96.4883C103.011 95.6637 108.298 94.5359 113.085 93.1688C111.752 88.2217 110.006 83.0491 107.899 77.7792C106.344 80.9392 104.679 84.105 102.892 87.2553C101.087 90.4405 99.21 93.5188 97.2825 96.4883ZM52.7044 96.4863C50.7769 93.5169 48.9 90.4405 47.0925 87.2572C45.3075 84.1089 43.6444 80.945 42.0919 77.787C39.9844 83.053 38.2406 88.2237 36.9094 93.1688C41.6944 94.532 46.98 95.6598 52.7044 96.4863ZM45.8888 133.039C52.8994 133.039 61.7906 128.041 70.9238 119.594C66.2119 114.754 61.5394 109.14 57.0712 102.896C49.3031 102.042 42.0675 100.638 35.55 98.7809C33.5175 108.306 33.1519 116.722 34.7588 122.949C35.8425 127.149 37.755 130.079 40.44 131.66C41.9925 132.576 43.8281 133.039 45.8888 133.039ZM104.113 133.027C106.174 133.027 108.006 132.565 109.564 131.649C112.245 130.072 114.152 127.147 115.234 122.95C116.843 116.722 116.477 108.306 114.444 98.7829C107.925 100.64 100.687 102.044 92.9175 102.898C88.455 109.14 83.7844 114.752 79.0781 119.592C88.2112 128.032 97.1025 133.025 104.113 133.027ZM75 115.61C78.4819 112.024 81.9619 107.973 85.3537 103.541C81.9769 103.749 78.6806 104.189 75.1556 104.189C71.6288 104.189 68.0175 103.749 64.6387 103.541C68.0325 107.975 71.5162 112.026 75 115.61ZM45.2175 0.94001C41.8444 0.94001 39.4331 1.59729 36.7369 3.18214C32.2388 5.82875 29.1337 10.3597 27.51 16.6505C25.71 23.6258 25.8656 32.7946 27.9525 43.2546C10.1606 49.7827 0 59.7702 0 70.8058C0 81.8434 10.1625 91.829 27.9544 98.357C25.8675 108.817 25.7119 117.986 27.5137 124.961C29.1356 131.248 32.2387 135.779 36.7406 138.43C39.4406 140.016 42.6844 140.691 46.0556 140.691C54.4687 140.691 64.3425 135.762 75.0019 126.173C85.6594 135.752 95.7 140.804 104.111 140.806C107.484 140.806 110.563 140.003 113.263 138.416C117.758 135.773 120.859 131.248 122.481 124.965C124.282 117.988 124.127 108.819 122.04 98.3609C139.836 91.8309 150 81.8434 150 70.8058C150 59.7682 139.837 49.7807 122.042 43.2527C124.131 32.7907 124.284 23.6219 122.482 16.6466C120.859 10.3636 117.756 5.83847 113.259 3.19575C110.561 1.6109 107.483 0.805832 104.111 0.805832C95.7019 0.805832 85.6631 5.85986 75.0037 15.4429C64.3425 5.85209 54.255 0.934176 45.84 0.934176L45.2175 0.94001ZM36.975 40.4252C36.1087 35.906 35.5275 31.6706 35.4956 27.9564C35.4675 24.6117 35.91 21.7006 36.5644 19.1649C37.515 15.4857 39.1294 12.9538 41.3625 11.6392C42.63 10.8925 44.175 10.3869 45.9056 10.3869C51.87 10.3869 59.7188 14.6223 68.1863 22.1207C64.0219 26.5408 59.9512 31.4917 56.0625 36.8705C49.3406 37.6483 42.9319 38.8404 36.975 40.4252ZM81.8213 22.1246C90.2869 14.632 98.1544 10.5289 104.111 10.5289C105.844 10.5289 107.368 10.9081 108.637 11.6548C110.867 12.9655 112.479 15.4915 113.428 19.1629C115.067 24.6428 114.855 31.9273 113.019 40.4233C107.063 38.8404 100.656 37.6464 93.9356 36.8724C90.0487 31.4956 85.9819 26.5446 81.8213 22.1246ZM68.7619 35.9196C70.8169 33.3916 72.9037 30.9997 75.0019 28.7673C77.1 30.9997 79.185 33.3916 81.2381 35.9196C79.14 35.8418 77.0531 35.8029 75 35.8029C72.9469 35.8029 70.8619 35.8418 68.7619 35.9196ZM61.1719 46.1093C65.6812 45.7223 70.3275 45.4462 75 45.4462C79.6706 45.4462 84.3169 45.7223 88.8244 46.1093C91.5094 50.0355 94.0669 54.1328 96.4294 58.3001C98.7206 62.341 100.879 66.5433 102.848 70.8039C100.877 75.0665 98.7188 79.2707 96.4275 83.3116C94.0631 87.4808 91.5075 91.5762 88.8225 95.5023C84.3169 95.8893 79.6706 96.4085 75 96.4085C70.3256 96.4085 65.6775 95.8874 61.1663 95.5004C58.4794 91.5762 55.9219 87.4789 53.5575 83.3097C51.2662 79.2707 49.11 75.0684 47.1413 70.8058C49.11 66.5433 51.2681 62.339 53.5594 58.2981C55.9256 54.1308 58.485 50.0335 61.1719 46.1093ZM107.666 59.1849C106.637 57.2052 105.581 55.2606 104.511 53.3705C103.442 51.4862 102.322 49.5941 101.164 47.7136C104.49 48.3009 107.698 49.0029 110.753 49.8138C109.877 52.8591 108.844 55.9938 107.666 59.1849ZM39.24 49.8138C42.2944 49.0029 45.5025 48.3009 48.8287 47.7136C47.6681 49.5941 46.5488 51.4862 45.48 53.3685C44.4094 55.2587 43.3537 57.2033 42.3244 59.1829C41.1469 55.9957 40.1156 52.861 39.24 49.8138ZM113.184 70.8039C115.838 64.655 118.035 58.5684 119.728 52.6685C132.671 57.5669 140.625 64.4295 140.625 70.8058C140.625 77.1822 132.671 84.0447 119.728 88.9432C118.033 83.0413 115.838 76.9527 113.184 70.8039ZM30.2663 88.9412C17.3269 84.0428 9.375 77.1803 9.375 70.8058C9.375 64.4314 17.3269 57.5689 30.2644 52.6704C31.9575 58.5723 34.1531 64.6589 36.8062 70.8078C34.155 76.9547 31.9594 83.0413 30.2663 88.9412ZM101.162 93.9C102.321 92.0176 103.442 90.1255 104.509 88.2431C105.581 86.353 106.637 84.4064 107.666 82.4268C108.844 85.6179 109.875 88.7546 110.753 91.8017C107.696 92.6088 104.488 93.3127 101.162 93.9ZM39.2419 91.7979C40.1175 88.7526 41.1487 85.6198 42.3244 82.4326C43.3519 84.4103 44.4075 86.3549 45.4781 88.2431C46.545 90.1255 47.6644 92.0157 48.825 93.898C45.5006 93.3088 42.2944 92.6068 39.2419 91.7979ZM45.8888 131.094C44.1563 131.094 42.6338 130.715 41.3644 129.969C39.1331 128.654 37.5187 126.124 36.57 122.445C35.0119 116.912 35.1881 109.626 36.9788 101.184C42.9338 102.767 49.3387 103.961 56.0569 104.735C59.9475 110.114 64.0181 115.067 68.1844 119.491C59.7188 126.991 51.8494 131.096 45.8888 131.094ZM93.9337 104.739C100.654 103.963 107.061 102.771 113.018 101.188C115.089 110.406 115.253 117.753 113.424 122.447C112.478 126.12 110.867 128.646 108.639 129.955C107.368 130.702 105.846 131.081 104.115 131.081V133.025L104.113 131.081C98.1506 131.081 90.2813 126.978 81.8175 119.489C85.98 115.069 90.0469 110.118 93.9337 104.739ZM75 112.848C72.9 110.616 70.8112 108.222 68.7562 105.692C70.8562 105.77 72.945 105.809 75 105.809C77.0531 105.809 79.14 105.77 81.2381 105.692C79.185 108.222 77.0981 110.616 75 112.848Z" fill="#8BB7F0"/>
</svg>
